<svg width="16" height="16" viewBox="0 0 16 16" fill="none" xmlns="http://www.w3.org/2000/svg">
<path d="M15.6657 2.48832C15.4817 1.50886 14.9395 0.737471 14.2511 0.475689C13.0033 0 8 0 8 0C8 0 2.99669 0 1.7489 0.475689C1.06052 0.737512 0.518349 1.50886 0.334336 2.48832C0 4.26364 0 7.96768 0 7.96768C0 7.96768 0 11.6717 0.334336 13.447C0.518349 14.4265 1.06052 15.1658 1.7489 15.4275C2.99669 15.9032 8 15.9032 8 15.9032C8 15.9032 13.0033 15.9032 14.2511 15.4275C14.9395 15.1658 15.4817 14.4265 15.6657 13.447C16 11.6717 16 7.96768 16 7.96768C16 7.96768 16 4.26364 15.6657 2.48832ZM6.36363 11.3307V4.60469L10.5454 7.96777L6.36363 11.3307Z" fill="#D41F1A"/>
</svg>
