<svg width="15" height="15" viewBox="0 0 15 15" fill="none" xmlns="http://www.w3.org/2000/svg">
<path d="M12.1875 2.34314H2.8125C2.03585 2.34314 1.40625 2.97274 1.40625 3.74939V12.1869C1.40625 12.9635 2.03585 13.5931 2.8125 13.5931H12.1875C12.9641 13.5931 13.5937 12.9635 13.5937 12.1869V3.74939C13.5937 2.97274 12.9641 2.34314 12.1875 2.34314Z" fill="white" stroke="#2D3748" stroke-width="0.75" stroke-linejoin="round"/>
<path d="M11.6549 2.34314H3.34512C2.27607 2.34314 1.40625 3.22644 1.40625 4.31189V6.09314H1.875C1.875 5.62439 2.34375 5.15564 2.8125 5.15564H12.1875C12.6562 5.15564 13.125 5.62439 13.125 6.09314H13.5937V4.31189C13.5937 3.22644 12.7239 2.34314 11.6549 2.34314Z" fill="#2D3748"/>
<path d="M8.67187 7.49939C9.0602 7.49939 9.375 7.18459 9.375 6.79626C9.375 6.40794 9.0602 6.09314 8.67187 6.09314C8.28355 6.09314 7.96875 6.40794 7.96875 6.79626C7.96875 7.18459 8.28355 7.49939 8.67187 7.49939Z" fill="#2D3748"/>
<path d="M11.0156 7.49939C11.404 7.49939 11.7187 7.18459 11.7187 6.79626C11.7187 6.40794 11.404 6.09314 11.0156 6.09314C10.6273 6.09314 10.3125 6.40794 10.3125 6.79626C10.3125 7.18459 10.6273 7.49939 11.0156 7.49939Z" fill="#2D3748"/>
<path d="M8.67187 9.84265C9.0602 9.84265 9.375 9.52785 9.375 9.13953C9.375 8.7512 9.0602 8.4364 8.67187 8.4364C8.28355 8.4364 7.96875 8.7512 7.96875 9.13953C7.96875 9.52785 8.28355 9.84265 8.67187 9.84265Z" fill="#2D3748"/>
<path d="M11.0156 9.84265C11.404 9.84265 11.7187 9.52785 11.7187 9.13953C11.7187 8.7512 11.404 8.4364 11.0156 8.4364C10.6273 8.4364 10.3125 8.7512 10.3125 9.13953C10.3125 9.52785 10.6273 9.84265 11.0156 9.84265Z" fill="#2D3748"/>
<path d="M3.98437 9.84265C4.3727 9.84265 4.6875 9.52785 4.6875 9.13953C4.6875 8.7512 4.3727 8.4364 3.98437 8.4364C3.59605 8.4364 3.28125 8.7512 3.28125 9.13953C3.28125 9.52785 3.59605 9.84265 3.98437 9.84265Z" fill="#2D3748"/>
<path d="M6.32812 9.84265C6.71645 9.84265 7.03125 9.52785 7.03125 9.13953C7.03125 8.7512 6.71645 8.4364 6.32812 8.4364C5.9398 8.4364 5.625 8.7512 5.625 9.13953C5.625 9.52785 5.9398 9.84265 6.32812 9.84265Z" fill="#2D3748"/>
<path d="M3.98437 12.1869C4.3727 12.1869 4.6875 11.8721 4.6875 11.4838C4.6875 11.0954 4.3727 10.7806 3.98437 10.7806C3.59605 10.7806 3.28125 11.0954 3.28125 11.4838C3.28125 11.8721 3.59605 12.1869 3.98437 12.1869Z" fill="#2D3748"/>
<path d="M6.32812 12.1869C6.71645 12.1869 7.03125 11.8721 7.03125 11.4838C7.03125 11.0954 6.71645 10.7806 6.32812 10.7806C5.9398 10.7806 5.625 11.0954 5.625 11.4838C5.625 11.8721 5.9398 12.1869 6.32812 12.1869Z" fill="#2D3748"/>
<path d="M8.67187 12.1869C9.0602 12.1869 9.375 11.8721 9.375 11.4838C9.375 11.0954 9.0602 10.7806 8.67187 10.7806C8.28355 10.7806 7.96875 11.0954 7.96875 11.4838C7.96875 11.8721 8.28355 12.1869 8.67187 12.1869Z" fill="#2D3748"/>
<path d="M3.75 1.40564V2.34314" stroke="#2D3748" stroke-width="0.75" stroke-linecap="round" stroke-linejoin="round"/>
<path d="M11.25 1.40564V2.34314" stroke="#2D3748" stroke-width="0.75" stroke-linecap="round" stroke-linejoin="round"/>
</svg>
