<svg width="26" height="60" viewBox="0 0 26 60" fill="none" xmlns="http://www.w3.org/2000/svg">
<path d="M5.73779 36.4783V7.46399C5.73779 5.48441 6.52075 3.58591 7.91441 2.18616C9.30808 0.786385 11.1982 0 13.1693 0C15.1403 0 17.0304 0.786385 18.4242 2.18616C19.8177 3.58591 20.6007 5.48441 20.6007 7.46399V37.1002C22.528 38.6184 23.9787 40.6622 24.7794 42.9869C25.58 45.3117 25.6966 47.8189 25.1153 50.2087C24.5337 52.5982 23.279 54.769 21.501 56.4607C19.723 58.1527 17.4974 59.2941 15.0902 59.7481C14.2165 59.981 13.3081 60.0532 12.4089 59.9613C9.69707 59.8905 7.07866 58.952 4.93472 57.2826C2.79081 55.6132 1.23332 53.3002 0.488979 50.6802C-0.255336 48.0603 -0.147622 45.2701 0.796431 42.7157C1.74048 40.1615 3.47161 37.976 5.73779 36.4783Z" fill="url(#paint0_linear_204_8152)"/>
<path d="M5.14782 47.4643C5.14749 45.9999 5.55117 44.5639 6.31439 43.314C7.07762 42.0644 8.17082 41.0494 9.47371 40.3808V18.9135H16.7412V40.3806C17.9992 41.0262 19.0623 41.995 19.8218 43.1876C20.581 44.3801 21.0089 45.7535 21.0616 47.1663C21.1142 48.5793 20.7895 49.9806 20.1209 51.2264C19.4523 52.4721 18.4639 53.5174 17.2575 54.2546C16.0511 54.9917 14.67 55.3942 13.2564 55.4206C11.8429 55.4471 10.4477 55.0965 9.21455 54.4051C7.98135 53.7136 6.95459 52.7062 6.23983 51.4863C5.52509 50.2664 5.14817 48.8782 5.14782 47.4643Z" fill="white"/>
<defs>
<linearGradient id="paint0_linear_204_8152" x1="22.269" y1="24.3001" x2="-2.80751" y2="30.2145" gradientUnits="userSpaceOnUse">
<stop offset="1" stop-color="#F7F7F7" stop-opacity="0.204"/>
</linearGradient>
</defs>
</svg>
