<svg width="48" height="48" viewBox="0 0 48 48" fill="none" xmlns="http://www.w3.org/2000/svg">
<path d="M20.1435 9.96606C18.5375 9.96725 17.2377 11.2681 17.2389 12.871C17.2377 14.474 18.5387 15.7748 20.1447 15.776H23.0505V12.8722C23.0517 11.2693 21.7507 9.96843 20.1435 9.96606C20.1447 9.96606 20.1447 9.96606 20.1435 9.96606ZM20.1435 17.7142H12.397C10.791 17.7154 9.49003 19.0163 9.49121 20.6192C9.48884 22.2222 10.7898 23.523 12.3959 23.5254H20.1435C21.7496 23.5242 23.0505 22.2234 23.0493 20.6204C23.0505 19.0163 21.7496 17.7154 20.1435 17.7142Z" fill="#36C5F0"/>
<path d="M38.5085 20.6192C38.5097 19.0163 37.2086 17.7154 35.6025 17.7142C33.9963 17.7154 32.6952 19.0163 32.6964 20.6192V23.5254H35.6025C37.2086 23.5242 38.5097 22.2234 38.5085 20.6192ZM30.7602 20.6192V12.871C30.7614 11.2693 29.4615 9.96843 27.8553 9.96606C26.2491 9.96725 24.948 11.2681 24.9492 12.871V20.6192C24.9469 22.2222 26.2479 23.523 27.8541 23.5254C29.4603 23.5242 30.7614 22.2234 30.7602 20.6192Z" fill="#2EB67D"/>
<path d="M27.855 38.983C29.4611 38.9818 30.7621 37.6811 30.7609 36.0783C30.7621 34.4755 29.4611 33.1748 27.855 33.1736H24.9492V36.0783C24.948 37.6799 26.249 38.9807 27.855 38.983ZM27.855 31.2343H35.6027C37.2087 31.2332 38.5097 29.9324 38.5085 28.3296C38.5109 26.7268 37.2099 25.4261 35.6039 25.4237H27.8562C26.2502 25.4249 24.9492 26.7256 24.9504 28.3284C24.9492 29.9324 26.249 31.2332 27.855 31.2343Z" fill="#ECB22E"/>
<path d="M9.49121 28.3287C9.49003 29.9316 10.7911 31.2325 12.3973 31.2337C14.0035 31.2325 15.3046 29.9316 15.3034 28.3287V25.4237H12.3973C10.7911 25.4249 9.49003 26.7257 9.49121 28.3287ZM17.2396 28.3287V36.0769C17.2372 37.6798 18.5383 38.9807 20.1445 38.983C21.7506 38.9818 23.0517 37.681 23.0505 36.0781V28.3311C23.0529 26.7281 21.7518 25.4273 20.1456 25.4249C18.5383 25.4249 17.2384 26.7257 17.2396 28.3287C17.2396 28.3299 17.2396 28.3287 17.2396 28.3287Z" fill="#E01E5A"/>
</svg>
