<svg width="532" height="210" viewBox="0 0 532 210" fill="none" xmlns="http://www.w3.org/2000/svg">
<path d="M0.164084 197.825C0.164084 197.825 13.9659 200.126 25.1673 203.726C36.2687 207.327 55.0711 212.527 66.5726 202.826C78.0741 193.125 88.1754 179.323 97.4766 151.319C106.778 123.316 117.379 96.0123 132.981 88.7114C148.583 81.4104 159.385 100.013 173.086 112.614C186.788 125.116 193.889 128.116 199.39 123.716C204.99 119.315 215.492 112.414 224.793 85.2109C234.094 58.0074 246.996 1.00013 265.798 1.00013C284.601 1.00013 290.401 34.0044 299.003 57.0073C307.604 80.0103 317.605 106.914 332.207 110.014C346.809 113.015 354.71 94.4121 369.111 71.1091C383.513 47.8061 388.814 44.9058 398.515 44.9058C408.217 44.9058 417.518 57.3073 425.119 71.1091C432.72 84.9109 447.322 119.315 464.924 119.315C482.526 119.315 494.928 83.4107 499.728 71.1091C504.529 58.8075 525.532 6.30079 531.332 1.10012" stroke="#CB0C9F" stroke-width="2" stroke-miterlimit="10"/>
</svg>
