<svg width="257" height="72" viewBox="0 0 257 72" fill="none" xmlns="http://www.w3.org/2000/svg">
<line x1="0.5" y1="-0.5" x2="71.5" y2="-0.5" transform="matrix(1.58818e-06 -1 1 -3.9028e-08 1 72)" stroke="#E2E8F0" stroke-linecap="round" stroke-linejoin="round" stroke-dasharray="3.5 3.5"/>
<line x1="0.5" y1="-0.5" x2="71.5" y2="-0.5" transform="matrix(1.58818e-06 -1 1 -3.9028e-08 33 72)" stroke="#E2E8F0" stroke-linecap="round" stroke-linejoin="round" stroke-dasharray="3.5 3.5"/>
<line x1="0.5" y1="-0.5" x2="71.5" y2="-0.5" transform="matrix(1.58818e-06 -1 1 -3.9028e-08 65 72)" stroke="#E2E8F0" stroke-linecap="round" stroke-linejoin="round" stroke-dasharray="3.5 3.5"/>
<line x1="0.5" y1="-0.5" x2="71.5" y2="-0.5" transform="matrix(1.58818e-06 -1 1 -3.9028e-08 97 72)" stroke="#E2E8F0" stroke-linecap="round" stroke-linejoin="round" stroke-dasharray="3.5 3.5"/>
<line x1="0.5" y1="-0.5" x2="71.5" y2="-0.5" transform="matrix(1.58818e-06 -1 1 -3.9028e-08 129 72)" stroke="#E2E8F0" stroke-linecap="round" stroke-linejoin="round" stroke-dasharray="3.5 3.5"/>
<line x1="0.5" y1="-0.5" x2="71.5" y2="-0.5" transform="matrix(1.58818e-06 -1 1 -3.9028e-08 161 72)" stroke="#E2E8F0" stroke-linecap="round" stroke-linejoin="round" stroke-dasharray="3.5 3.5"/>
<line x1="0.5" y1="-0.5" x2="71.5" y2="-0.5" transform="matrix(1.58818e-06 -1 1 -3.9028e-08 193 72)" stroke="#E2E8F0" stroke-linecap="round" stroke-linejoin="round" stroke-dasharray="3.5 3.5"/>
<line x1="0.5" y1="-0.5" x2="71.5" y2="-0.5" transform="matrix(1.58818e-06 -1 1 -3.9028e-08 225 72)" stroke="#E2E8F0" stroke-linecap="round" stroke-linejoin="round" stroke-dasharray="3.5 3.5"/>
<line x1="0.5" y1="-0.5" x2="71.5" y2="-0.5" transform="matrix(1.58818e-06 -1 1 -3.9028e-08 257 72)" stroke="#E2E8F0" stroke-linecap="round" stroke-linejoin="round" stroke-dasharray="3.5 3.5"/>
</svg>
