<svg width="92" height="31" viewBox="0 0 92 31" fill="none" xmlns="http://www.w3.org/2000/svg">
<path d="M12.375 15.25C13.7422 15.25 14.875 14.1367 14.875 12.75C14.875 11.3828 13.7422 10.25 12.375 10.25C10.9883 10.25 9.875 11.3828 9.875 12.75C9.875 14.1367 10.9883 15.25 12.375 15.25ZM13.3516 16.1875H11.3789C9.50391 16.1875 8 17.7109 8 19.5859C8 19.957 8.29297 20.25 8.66406 20.25H16.0664C16.4375 20.25 16.75 19.957 16.75 19.5859C16.75 17.7109 15.2266 16.1875 13.3516 16.1875ZM30.0703 11.0508C30.5 11.4805 30.5 12.1641 30.0703 12.5938L29.4844 13.1797L27.5703 11.2656L28.1562 10.6797C28.5859 10.25 29.2695 10.25 29.6992 10.6797L30.0703 11.0508ZM23.8594 14.9766L27.1211 11.7148L29.0352 13.6289L25.7734 16.8906C25.6562 17.0078 25.5 17.1055 25.3438 17.1641L23.6055 17.7305C23.4297 17.7891 23.2539 17.75 23.1367 17.6133C23 17.4961 22.9609 17.3008 23.0195 17.1445L23.5859 15.4062C23.6445 15.25 23.7422 15.0938 23.8594 14.9766ZM24.25 11.5C24.582 11.5 24.875 11.793 24.875 12.125C24.875 12.4766 24.582 12.75 24.25 12.75H22.375C22.0234 12.75 21.75 13.043 21.75 13.375V18.375C21.75 18.7266 22.0234 19 22.375 19H27.375C27.707 19 28 18.7266 28 18.375V16.5C28 16.168 28.2734 15.875 28.625 15.875C28.957 15.875 29.25 16.168 29.25 16.5V18.375C29.25 19.4102 28.4102 20.25 27.375 20.25H22.375C21.3203 20.25 20.5 19.4102 20.5 18.375V13.375C20.5 12.3398 21.3203 11.5 22.375 11.5H24.25Z" fill="#8392AB"/>
<path d="M52.4492 13.3945C52.5078 13.3945 52.5664 13.375 52.625 13.375C53.6602 13.375 54.5 14.2148 54.5 15.25C54.5 16.2852 53.6602 17.125 52.625 17.125C51.5703 17.125 50.75 16.2852 50.75 15.25C50.75 15.2109 50.75 15.1523 50.75 15.0938C50.9258 15.1914 51.1406 15.25 51.375 15.25C52.0586 15.25 52.625 14.7031 52.625 14C52.625 13.7852 52.5469 13.5703 52.4492 13.3945ZM56.375 12.457C57.293 13.2969 57.8984 14.3125 58.1914 15.0156C58.25 15.1719 58.25 15.3477 58.1914 15.5039C57.8984 16.1875 57.293 17.2031 56.375 18.0625C55.457 18.9219 54.1875 19.625 52.625 19.625C51.043 19.625 49.7734 18.9219 48.8555 18.0625C47.9375 17.2031 47.332 16.1875 47.0391 15.5039C46.9805 15.3477 46.9805 15.1719 47.0391 15.0156C47.332 14.3125 47.9375 13.2969 48.8555 12.457C49.7734 11.5977 51.043 10.875 52.625 10.875C54.1875 10.875 55.457 11.5977 56.375 12.457ZM52.625 12.4375C51.0625 12.4375 49.8125 13.707 49.8125 15.25C49.8125 16.8125 51.0625 18.0625 52.625 18.0625C54.168 18.0625 55.4375 16.8125 55.4375 15.25C55.4375 13.707 54.168 12.4375 52.625 12.4375Z" fill="#8392AB"/>
<path d="M77.6367 10.6016C77.7344 10.3867 77.9492 10.25 78.1836 10.25H80.5469C80.7812 10.25 80.9961 10.3867 81.0938 10.6016L81.25 10.875H83.125C83.457 10.875 83.75 11.168 83.75 11.5C83.75 11.8516 83.457 12.125 83.125 12.125H75.625C75.2734 12.125 75 11.8516 75 11.5C75 11.168 75.2734 10.875 75.625 10.875H77.5L77.6367 10.6016ZM82.6953 19.3711C82.6758 19.8789 82.2656 20.25 81.7578 20.25H76.9727C76.4648 20.25 76.0547 19.8789 76.0352 19.3711L75.6055 12.75H83.125L82.6953 19.3711Z" fill="#8392AB"/>
</svg>
