<svg width="18" height="15" viewBox="0 0 18 15" fill="none" xmlns="http://www.w3.org/2000/svg">
<path d="M16.1648 3.62739C16.8691 3.09913 17.503 2.46522 17.9961 1.72565C17.3622 2.00739 16.6226 2.2187 15.883 2.28913C16.6578 1.8313 17.2213 1.12696 17.503 0.246522C16.7987 0.66913 15.9887 0.986087 15.1787 1.16217C14.4743 0.422609 13.5235 0 12.467 0C10.4243 0 8.76913 1.65522 8.76913 3.69783C8.76913 3.97957 8.80435 4.2613 8.87478 4.54304C5.81087 4.36696 3.06391 2.88783 1.23261 0.66913C0.915652 1.19739 0.739565 1.8313 0.739565 2.53565C0.739565 3.80348 1.37348 4.93043 2.39478 5.59957C1.79609 5.56435 1.19739 5.42348 0.704348 5.14174V5.17696C0.704348 6.97304 1.97217 8.45217 3.66261 8.80435C3.38087 8.87478 3.0287 8.94522 2.71174 8.94522C2.46522 8.94522 2.25391 8.91 2.00739 8.87478C2.46522 10.3539 3.8387 11.4104 5.4587 11.4457C4.19087 12.4317 2.60609 13.0304 0.880435 13.0304C0.563478 13.0304 0.281739 12.9952 0 12.96C1.62 14.0165 3.55696 14.6152 5.67 14.6152C12.467 14.6152 16.1648 9.01565 16.1648 4.12043C16.1648 3.94435 16.1648 3.80348 16.1648 3.62739Z" fill="#8392AB"/>
</svg>
