<svg width="25" height="25" viewBox="0 0 25 25" fill="none" xmlns="http://www.w3.org/2000/svg">
<path d="M23.3221 1.86931C23.3132 1.82612 23.2921 1.78637 23.2614 1.75472C23.2307 1.72307 23.1916 1.70083 23.1487 1.6906C20.2889 0.991378 13.681 3.48308 10.1009 7.06169C9.46237 7.69506 8.88025 8.38289 8.36116 9.11735C7.25715 9.01969 6.15315 9.10124 5.21223 9.51139C2.55745 10.6799 1.7845 13.7287 1.56917 15.0402C1.55695 15.112 1.56156 15.1856 1.58263 15.2553C1.60369 15.325 1.64064 15.3889 1.69057 15.4419C1.7405 15.4949 1.80204 15.5356 1.87037 15.5608C1.93869 15.586 2.01192 15.595 2.08431 15.5871L6.34749 15.1169C6.35053 15.4383 6.36993 15.7593 6.40559 16.0788C6.42705 16.3006 6.52552 16.5079 6.68391 16.6647L8.33479 18.3117C8.49172 18.4699 8.69896 18.5683 8.92073 18.59C9.23839 18.6255 9.55765 18.6449 9.87727 18.6481L9.4095 22.9059C9.4017 22.9783 9.41076 23.0515 9.43599 23.1197C9.46121 23.188 9.50191 23.2495 9.55489 23.2994C9.60787 23.3493 9.67169 23.3863 9.74135 23.4074C9.81101 23.4285 9.8846 23.4332 9.95637 23.4211C11.2655 23.2111 14.3197 22.4381 15.4813 19.7834C15.8914 18.8424 15.9754 17.7438 15.8807 16.6452C16.6169 16.1261 17.3065 15.5438 17.9417 14.9049C21.533 11.3317 24.0106 4.87126 23.3221 1.86931ZM14.3587 10.6423C14.0308 10.3145 13.8074 9.89692 13.7169 9.44224C13.6263 8.98755 13.6726 8.51622 13.85 8.08787C14.0273 7.65952 14.3277 7.29338 14.7132 7.03578C15.0986 6.77818 15.5518 6.64068 16.0155 6.64068C16.4791 6.64068 16.9323 6.77818 17.3177 7.03578C17.7032 7.29338 18.0036 7.65952 18.1809 8.08787C18.3583 8.51622 18.4046 8.98755 18.3141 9.44224C18.2235 9.89692 18.0001 10.3145 17.6722 10.6423C17.4547 10.86 17.1965 11.0328 16.9122 11.1506C16.6279 11.2685 16.3232 11.3292 16.0155 11.3292C15.7077 11.3292 15.403 11.2685 15.1187 11.1506C14.8344 11.0328 14.5762 10.86 14.3587 10.6423Z" fill="#1A365D"/>
<path d="M8.22265 19.5046C7.95508 19.7727 7.52588 19.8772 7.00928 19.9666C5.84863 20.1643 4.82373 19.1614 5.03223 17.988C5.11182 17.5432 5.34717 16.9197 5.49365 16.7732C5.52567 16.7418 5.54698 16.7011 5.55456 16.6569C5.56214 16.6127 5.5556 16.5672 5.53587 16.527C5.51613 16.4867 5.48422 16.4537 5.44465 16.4326C5.40508 16.4115 5.35986 16.4034 5.31543 16.4094C4.66639 16.4888 4.06257 16.7831 3.6001 17.2454C2.45215 18.3943 2.34375 22.6575 2.34375 22.6575C2.34375 22.6575 6.60937 22.5491 7.75732 21.4001C8.22102 20.9381 8.51566 20.3333 8.59375 19.6834C8.61181 19.4792 8.36328 19.3577 8.22265 19.5046Z" fill="#1A365D"/>
</svg>
