<svg width="532" height="77" viewBox="0 0 532 77" fill="none" xmlns="http://www.w3.org/2000/svg">
<path d="M0.300087 70.7665C0.300087 70.7665 49.9467 55.1518 66.7625 54.1509C81.5765 53.25 84.3791 52.8497 104.298 55.9526C117.01 57.9545 124.817 58.2547 133.225 57.6542C141.633 57.0536 154.045 56.8534 166.456 52.3492C178.868 47.845 188.577 48.7458 199.687 49.6466C210.798 50.5475 219.906 54.9516 229.115 61.2576C238.324 67.5635 251.536 75.7712 266.15 75.7712C280.764 75.7712 293.075 70.8666 306.288 62.3586C319.5 53.9507 323.103 53.3501 332.612 49.6466C342.121 45.9432 353.332 41.1387 359.438 38.5362C365.543 35.9338 381.358 28.2265 399.075 27.4258C416.792 26.625 422.897 28.0263 432.306 29.828C441.715 31.6297 454.727 34.5324 465.537 31.6297C476.348 28.8271 485.656 26.5249 500.17 17.8167C514.684 9.00845 528.496 1.00094 532 1.00094" stroke="#17C1E8" stroke-width="2" stroke-miterlimit="10"/>
</svg>
