<svg width="19" height="19" viewBox="0 0 19 19" fill="none" xmlns="http://www.w3.org/2000/svg">
<g clip-path="url(#clip0_220_16713)">
<path fill-rule="evenodd" clip-rule="evenodd" d="M16.8891 7.80443C12.8081 3.72677 6.1915 3.72677 2.11051 7.80443C1.73951 8.17512 1.138 8.17512 0.766999 7.80443C0.395999 7.43373 0.395999 6.83272 0.766999 6.46202C5.59 1.64298 13.4096 1.64298 18.2326 6.46202C18.6036 6.83272 18.6036 7.43373 18.2326 7.80443C17.8616 8.17512 17.2601 8.17512 16.8891 7.80443ZM14.2021 10.4893C11.6051 7.89438 7.39452 7.89438 4.79752 10.4893C4.42653 10.86 3.82501 10.86 3.45402 10.4893C3.08301 10.1185 3.08301 9.51756 3.45402 9.14684C6.79301 5.81058 12.2066 5.81058 15.5456 9.14684C15.9166 9.51756 15.9166 10.1185 15.5456 10.4893C15.1746 10.86 14.5731 10.86 14.2021 10.4893ZM11.5151 13.1741C10.4021 12.062 8.59754 12.062 7.48454 13.1741C7.11355 13.5447 6.51203 13.5447 6.14104 13.1741C5.77003 12.8034 5.77003 12.2024 6.14104 11.8317C7.99603 9.97822 11.0035 9.97822 12.8586 11.8317C13.2296 12.2024 13.2296 12.8034 12.8586 13.1741C12.4875 13.5447 11.8861 13.5447 11.5151 13.1741ZM8.5498 15.1877C8.5498 14.6634 8.97514 14.2384 9.4998 14.2384H9.50927C10.034 14.2384 10.4593 14.6634 10.4593 15.1877C10.4593 15.7119 10.034 16.1369 9.50927 16.1369H9.4998C8.97514 16.1369 8.5498 15.7119 8.5498 15.1877Z" fill="white"/>
</g>
<defs>
<clipPath id="clip0_220_16713">
<rect width="18.0328" height="18.018" fill="white" transform="scale(1.05364)"/>
</clipPath>
</defs>
</svg>
