<svg width="295" height="294" viewBox="0 0 295 294" fill="none" xmlns="http://www.w3.org/2000/svg">
<path d="M201.8 283.4C184.9 290.2 166.4 294 147 294C65.8 294 0 228.2 0 147C0 117.9 8.4 90.9001 23 68.1001L24.1 66.4001C50.2 26.7001 95 0.400098 146 0.100098H147V147.1L201.8 283.4Z" fill="#A8B8D8"/>
<path d="M260.1 53.1L147 147V0H148C185.8 0.2 220.2 14.8 246 38.4L246.6 38.9C246.7 39 246.7 39 246.8 39.1C246.9 39.1 246.9 39.1999 246.9 39.1999L247.5 39.6999C252 43.8999 256.2 48.4 260.1 53.1Z" fill="#17C1E8"/>
<path d="M292.099 170.5L291.999 171.2C291.999 171.3 291.999 171.4 291.999 171.5C291.999 171.6 291.999 171.6 291.999 171.7L291.899 172.5C289.299 187.6 284.299 201.9 277.499 215L147.199 147L260.299 53.1001C281.499 78.6001 294.199 111.3 294.199 147C293.999 155 293.399 162.8 292.099 170.5Z" fill="#EA0606"/>
<path d="M254.8 246.9L253.4 248.4C239 263.5 221.5 275.5 201.8 283.4L147 147L277.3 215C271.3 226.6 263.7 237.4 254.8 246.9Z" fill="#1E293B"/>
<path d="M147 0V147M147 147L260.1 53.1M147 147L277.4 215M147 147L201.8 283.4" stroke="white" stroke-width="2" stroke-miterlimit="10"/>
</svg>
