<svg width="294" height="294" viewBox="0 0 294 294" fill="none" xmlns="http://www.w3.org/2000/svg">
<path d="M147 0V84.7998C125.1 84.7998 105.8 96.0996 94.6997 113.2L23.4999 67.1997C49.6998 26.7999 95.1997 0 147 0Z" fill="#CB0C9F"/>
<path d="M246.799 39.0998L189.299 101.3C178.199 90.9997 163.399 84.7998 147.099 84.7998V0C185.499 0 220.599 14.7999 246.799 39.0998Z" fill="#17C1E8"/>
<path d="M294 147C294 155.3 293.3 163.5 292 171.5L208.4 157.4C209 154 209.3 150.6 209.3 147C209.3 128.9 201.6 112.7 189.3 101.3L246.8 39.1C275.8 65.8999 294 104.3 294 147Z" fill="#1E293B"/>
<path d="M291.9 171.5C287 200.7 273.5 227 254 247.699L192.3 189.6C200.5 180.8 206.3 169.7 208.3 157.4L291.9 171.5Z" fill="#EA0606"/>
<path d="M254.099 247.699C227.299 276.199 189.199 293.999 147 293.999C65.7998 293.999 0 228.199 0 147C0 117.6 8.59997 90.1999 23.4999 67.2L94.6997 113.2C88.3997 122.9 84.6997 134.5 84.6997 147C84.6997 181.4 112.6 209.2 146.9 209.2C164.799 209.2 180.899 201.7 192.199 189.6L254.099 247.699Z" fill="#A8B8D8"/>
<path d="M147 0V147L246.799 39.0998" stroke="white" stroke-width="2" stroke-miterlimit="10"/>
<path d="M291.899 171.499L147 147L254.099 247.699" stroke="white" stroke-width="2" stroke-miterlimit="10"/>
<path d="M147 147L23.4999 67.1997" stroke="white" stroke-width="2" stroke-miterlimit="10"/>
</svg>
