<svg width="16" height="16" viewBox="0 0 16 16" fill="none" xmlns="http://www.w3.org/2000/svg">
<path d="M3.36143 10.0496C3.36143 10.969 2.60571 11.7201 1.68071 11.7201C0.755714 11.7201 0 10.969 0 10.0496C0 9.13016 0.755714 8.37901 1.68071 8.37901H3.36143V10.0496ZM4.20857 10.0496C4.20857 9.13016 4.96429 8.37901 5.88929 8.37901C6.81429 8.37901 7.57 9.13016 7.57 10.0496V14.2327C7.57 15.1521 6.81429 15.9032 5.88929 15.9032C4.96429 15.9032 4.20857 15.1521 4.20857 14.2327V10.0496ZM5.88929 3.3411C4.96429 3.3411 4.20857 2.58995 4.20857 1.67055C4.20857 0.751143 4.96429 0 5.88929 0C6.81429 0 7.57 0.751143 7.57 1.67055V3.3411H5.88929ZM5.88929 4.18312C6.81429 4.18312 7.57 4.93426 7.57 5.85366C7.57 6.77307 6.81429 7.52421 5.88929 7.52421H1.68071C0.755714 7.52421 0 6.77307 0 5.85366C0 4.93426 0.755714 4.18312 1.68071 4.18312H5.88929ZM12.6386 5.85366C12.6386 4.93426 13.3943 4.18312 14.3193 4.18312C15.2443 4.18312 16 4.93426 16 5.85366C16 6.77307 15.2443 7.52421 14.3193 7.52421H12.6386V5.85366ZM11.7914 5.85366C11.7914 6.77307 11.0357 7.52421 10.1107 7.52421C9.18571 7.52421 8.43 6.77307 8.43 5.85366V1.67055C8.43 0.751143 9.18571 0 10.1107 0C11.0357 0 11.7914 0.751143 11.7914 1.67055V5.85366ZM10.1107 12.5621C11.0357 12.5621 11.7914 13.3133 11.7914 14.2327C11.7914 15.1521 11.0357 15.9032 10.1107 15.9032C9.18571 15.9032 8.43 15.1521 8.43 14.2327V12.5621H10.1107ZM10.1107 11.7201C9.18571 11.7201 8.43 10.969 8.43 10.0496C8.43 9.13016 9.18571 8.37901 10.1107 8.37901H14.3193C15.2443 8.37901 16 9.13016 16 10.0496C16 10.969 15.2443 11.7201 14.3193 11.7201H10.1107Z" fill="#82D616"/>
</svg>
