<svg width="246" height="246" viewBox="0 0 246 246" fill="none" xmlns="http://www.w3.org/2000/svg">
<circle cx="123" cy="123" r="123" fill="#CB0C9F"/>
<path d="M123 0.000611817C152.84 0.000612173 181.663 10.8489 204.099 30.5242C226.534 50.1996 241.052 77.3601 244.947 106.946C248.842 136.531 241.849 166.524 225.27 191.335C208.691 216.147 183.658 234.085 154.834 241.809C126.01 249.532 95.3616 246.513 68.5983 233.315C41.835 220.117 20.7824 197.639 9.3628 170.07C-2.05676 142.501 -3.06441 111.72 6.52757 83.4633C16.1196 55.2062 35.657 31.3998 61.4998 16.4794L123 123L123 0.000611817Z" fill="#344767"/>
<path d="M123 0.000611817C142.807 0.000612053 162.32 4.78394 179.882 13.9438C197.444 23.1038 212.533 36.3693 223.868 52.6123C235.203 68.8554 242.447 87.5956 244.985 107.239C247.523 126.883 245.28 146.849 238.446 165.439L123 123L123 0.000611817Z" fill="#E2E8F0"/>
</svg>
