<svg width="19" height="23" viewBox="0 0 19 23" fill="none" xmlns="http://www.w3.org/2000/svg">
<path d="M16.1787 1.67818C15.1416 0.503314 13.2646 0 10.8634 0H3.89481C3.40401 0 2.9869 0.354545 2.90903 0.834223L0.00737232 19.0912C-0.0496329 19.4513 0.231222 19.7766 0.59828 19.7766H4.90009L5.98041 12.9777L5.94704 13.1918C6.02351 12.7122 6.43923 12.3576 6.93003 12.3576H8.97388C12.9907 12.3576 16.1343 10.7392 17.0533 6.05785C17.0811 5.91881 17.1242 5.65186 17.1242 5.65186C17.3856 3.91946 17.1228 2.74459 16.1787 1.67818Z" fill="white"/>
<path d="M18.2131 6.53894C17.2148 11.148 14.0295 13.5867 8.97407 13.5867H7.14156L5.77344 22.246H8.74605C9.17568 22.246 9.54134 21.9359 9.60808 21.5146L9.64284 21.3311L10.3269 17.0335L10.3714 16.7971C10.4381 16.3758 10.8038 16.0658 11.232 16.0658H11.7757C15.2891 16.0658 18.0393 14.6504 18.8429 10.5557C19.1655 8.9123 19.0098 7.53445 18.2131 6.53894Z" fill="white"/>
</svg>
