<svg width="16" height="16" viewBox="0 0 16 16" fill="none" xmlns="http://www.w3.org/2000/svg">
<path d="M3.19961 3.19995C2.31595 3.19995 1.59961 3.9163 1.59961 4.79995V5.59995H14.3996V4.79995C14.3996 3.9163 13.6833 3.19995 12.7996 3.19995H3.19961Z" fill="white"/>
<path fill-rule="evenodd" clip-rule="evenodd" d="M14.3996 7.19995H1.59961V11.2C1.59961 12.0836 2.31595 12.8 3.19961 12.8H12.7996C13.6833 12.8 14.3996 12.0836 14.3996 11.2V7.19995ZM3.19961 10.4C3.19961 9.95811 3.55779 9.59995 3.99961 9.59995H4.79961C5.24143 9.59995 5.59961 9.95811 5.59961 10.4C5.59961 10.8418 5.24143 11.2 4.79961 11.2H3.99961C3.55779 11.2 3.19961 10.8418 3.19961 10.4ZM7.19961 9.59995C6.75778 9.59995 6.39961 9.95811 6.39961 10.4C6.39961 10.8418 6.75778 11.2 7.19961 11.2H7.99961C8.44145 11.2 8.79961 10.8418 8.79961 10.4C8.79961 9.95811 8.44145 9.59995 7.99961 9.59995H7.19961Z" fill="white"/>
</svg>
