<svg width="16" height="16" viewBox="0 0 16 16" fill="none" xmlns="http://www.w3.org/2000/svg">
<g clip-path="url(#clip0_0_695)">
<path d="M2 6H0.666667C0.489856 6 0.320286 6.07024 0.195262 6.19526C0.0702379 6.32029 0 6.48986 0 6.66667L0 14.6667C0 14.8435 0.0702379 15.013 0.195262 15.1381C0.320286 15.2631 0.489856 15.3333 0.666667 15.3333H2.66667V6.66667C2.66667 6.48986 2.59643 6.32029 2.4714 6.19526C2.34638 6.07024 2.17681 6 2 6Z" fill="#8392AB"/>
<path d="M14.588 5.42205C14.3975 5.36322 14.1993 5.33333 14 5.33338H10V3.33338C10 0.784052 8.274 0.0387184 7.36133 5.17762e-05C7.2716 -0.00310033 7.18214 0.0116006 7.09814 0.0433012C7.01414 0.0750019 6.93727 0.123071 6.872 0.184718C6.807 0.247029 6.75529 0.321862 6.72 0.404703C6.68471 0.487543 6.66657 0.576674 6.66667 0.666718V3.75872L4 6.95872V15.3334H12.1533C12.5818 15.3353 12.9994 15.199 13.3441 14.9446C13.6888 14.6902 13.9422 14.3313 14.0667 13.9214L15.9127 7.92138C15.9898 7.6703 16.0168 7.40647 15.9919 7.14497C15.9671 6.88347 15.891 6.62943 15.768 6.39734C15.645 6.16525 15.4775 5.95966 15.275 5.79232C15.0726 5.62498 14.8391 5.49916 14.588 5.42205Z" fill="#8392AB"/>
</g>
<defs>
<clipPath id="clip0_0_695">
<rect width="16" height="16" fill="white"/>
</clipPath>
</defs>
</svg>
