<svg width="12" height="12" viewBox="0 0 12 12" fill="none" xmlns="http://www.w3.org/2000/svg">
<path d="M6.00003 4.12512C5.62919 4.12512 5.26668 4.23509 4.95834 4.44111C4.64999 4.64714 4.40967 4.93998 4.26776 5.28259C4.12584 5.6252 4.08871 6.0022 4.16106 6.36591C4.23341 6.72963 4.41198 7.06372 4.67421 7.32594C4.93643 7.58817 5.27052 7.76674 5.63424 7.83909C5.99795 7.91144 6.37495 7.87431 6.71756 7.73239C7.06017 7.59048 7.35301 7.35016 7.55904 7.04181C7.76506 6.73347 7.87503 6.37096 7.87503 6.00012C7.87355 5.5033 7.67552 5.02724 7.32422 4.67593C6.97291 4.32462 6.49685 4.1266 6.00003 4.12512ZM10.0482 6.00012C10.0472 6.17532 10.0343 6.35025 10.0097 6.52371L11.1509 7.41715C11.2006 7.45819 11.2341 7.51557 11.2454 7.57902C11.2567 7.64248 11.245 7.70789 11.2125 7.76356L10.133 9.62731C10.1002 9.68248 10.049 9.72431 9.98834 9.74545C9.92772 9.76658 9.8616 9.76566 9.80159 9.74285L8.45979 9.20379C8.18039 9.41894 7.87463 9.5975 7.54995 9.73512L7.34933 11.1596C7.3381 11.2235 7.30506 11.2814 7.25586 11.3235C7.20665 11.3657 7.14434 11.3894 7.07956 11.3907H4.9205C4.8569 11.3895 4.7956 11.3667 4.74661 11.3262C4.69761 11.2856 4.66382 11.2296 4.65073 11.1674L4.45011 9.74285C4.12453 9.60683 3.81855 9.42799 3.54027 9.21106L2.19847 9.75012C2.13849 9.77295 2.07238 9.7739 2.01177 9.75281C1.95115 9.73172 1.89992 9.68994 1.86706 9.6348L0.787533 7.77129C0.755039 7.71562 0.743398 7.65022 0.75469 7.58676C0.765982 7.5233 0.799472 7.46592 0.849174 7.42488L1.99035 6.53145C1.966 6.35536 1.95317 6.17788 1.95191 6.00012C1.95288 5.82492 1.96572 5.64999 1.99035 5.47653L0.849174 4.58309C0.799472 4.54205 0.765982 4.48467 0.75469 4.42121C0.743398 4.35776 0.755039 4.29235 0.787533 4.23668L1.86706 2.37293C1.89988 2.31776 1.9511 2.27593 2.01172 2.25479C2.07234 2.23366 2.13846 2.23458 2.19847 2.25739L3.54027 2.79645C3.81967 2.5813 4.12543 2.40274 4.45011 2.26512L4.65073 0.840591C4.66196 0.776782 4.695 0.718853 4.74421 0.676703C4.79341 0.634553 4.85572 0.610798 4.9205 0.609497H7.07956C7.14316 0.610735 7.20446 0.633495 7.25345 0.674062C7.30245 0.714629 7.33625 0.770606 7.34933 0.832856L7.54995 2.25739C7.87594 2.39332 8.18232 2.57216 8.46097 2.78918L9.80159 2.25012C9.86157 2.22729 9.92768 2.22634 9.98829 2.24743C10.0489 2.26852 10.1001 2.3103 10.133 2.36543L11.2125 4.22918C11.245 4.28485 11.2567 4.35026 11.2454 4.41371C11.2341 4.47717 11.2006 4.53455 11.1509 4.57559L10.0097 5.46903C10.034 5.64503 10.0469 5.82244 10.0482 6.00012Z" fill="white"/>
</svg>
