<svg width="25" height="25" viewBox="0 0 25 25" fill="none" xmlns="http://www.w3.org/2000/svg">
<path d="M8.59375 21.8749C9.4567 21.8749 10.1562 21.1753 10.1562 20.3124C10.1562 19.4494 9.4567 18.7499 8.59375 18.7499C7.73081 18.7499 7.03125 19.4494 7.03125 20.3124C7.03125 21.1753 7.73081 21.8749 8.59375 21.8749Z" fill="#1A365D"/>
<path d="M19.5312 21.8749C20.3942 21.8749 21.0938 21.1753 21.0938 20.3124C21.0938 19.4494 20.3942 18.7499 19.5312 18.7499C18.6683 18.7499 17.9688 19.4494 17.9688 20.3124C17.9688 21.1753 18.6683 21.8749 19.5312 21.8749Z" fill="#1A365D"/>
<path d="M22.3047 5.8977C22.1949 5.76345 22.0566 5.65532 21.8999 5.58117C21.7431 5.50701 21.5718 5.4687 21.3984 5.46899H6.5376L6.23828 3.77075C6.20636 3.58986 6.11173 3.42599 5.971 3.30794C5.83027 3.18989 5.65244 3.12521 5.46875 3.12524H2.34375C2.13655 3.12524 1.93784 3.20755 1.79132 3.35407C1.64481 3.50058 1.5625 3.69929 1.5625 3.90649C1.5625 4.11369 1.64481 4.31241 1.79132 4.45892C1.93784 4.60543 2.13655 4.68774 2.34375 4.68774H4.81348L7.04297 17.3235C7.07488 17.5044 7.16952 17.6682 7.31025 17.7863C7.45098 17.9043 7.62881 17.969 7.8125 17.969H20.3125C20.5197 17.969 20.7184 17.8867 20.8649 17.7402C21.0114 17.5937 21.0937 17.3949 21.0937 17.1877C21.0937 16.9805 21.0114 16.7818 20.8649 16.6353C20.7184 16.4888 20.5197 16.4065 20.3125 16.4065H8.46777L8.19238 14.844H19.9922C20.2631 14.8436 20.5256 14.7497 20.7352 14.5781C20.9449 14.4064 21.0888 14.1676 21.1426 13.9021L22.5488 6.87085C22.5827 6.70068 22.5784 6.52512 22.5362 6.35683C22.4939 6.18854 22.4149 6.03172 22.3047 5.8977Z" fill="#1A365D"/>
</svg>
