<svg width="492" height="162" viewBox="0 0 492 162" fill="none" xmlns="http://www.w3.org/2000/svg">
<path d="M0.132102 160.651C0.132102 160.651 3.33856 160.35 23.4792 149.127C43.6198 137.905 50.3333 134.097 64.3616 135.099C78.3899 136.101 87.7087 144.718 99.5325 150.43C111.356 156.141 122.178 162.855 141.718 150.73C161.257 138.606 174.985 121.371 183.301 114.357C191.618 107.343 199.634 98.7256 204.344 91.3106C209.154 83.9959 229.194 54.2359 246.93 46.6205C264.666 38.9049 282.602 47.9231 299.235 46.6205C315.869 45.3179 315.568 45.6186 329.296 38.3038C343.024 30.9891 355.849 20.3676 369.276 24.8767C382.704 29.3858 388.415 33.4941 396.732 45.4181C405.049 57.4424 417.173 73.0738 425.79 72.7732C434.408 72.4726 444.328 71.4707 456.452 53.9353C468.577 36.3999 485.21 3.53364 491.623 0.928386" stroke="#CB0C9F" stroke-width="2" stroke-miterlimit="10"/>
</svg>
