<svg width="28" height="28" viewBox="0 0 28 28" fill="none" xmlns="http://www.w3.org/2000/svg">
<path fill-rule="evenodd" clip-rule="evenodd" d="M25.2 14C25.2 20.1856 20.1856 25.2 14 25.2C7.81438 25.2 2.79997 20.1856 2.79997 14C2.79997 7.81441 7.81438 2.8 14 2.8C20.1856 2.8 25.2 7.81441 25.2 14ZM9.79997 11.2C9.79997 10.4268 10.4268 9.8 11.2 9.8C11.9732 9.8 12.6 10.4268 12.6 11.2V16.8C12.6 17.5732 11.9732 18.2 11.2 18.2C10.4268 18.2 9.79997 17.5732 9.79997 16.8V11.2ZM16.8 9.8C16.0268 9.8 15.4 10.4268 15.4 11.2V16.8C15.4 17.5732 16.0268 18.2 16.8 18.2C17.5732 18.2 18.2 17.5732 18.2 16.8V11.2C18.2 10.4268 17.5732 9.8 16.8 9.8Z" fill="#E9ECEF"/>
</svg>
