<svg width="523" height="523" viewBox="0 0 523 523" fill="none" xmlns="http://www.w3.org/2000/svg">
<path d="M261.5 309.018C287.744 309.018 309.018 287.743 309.018 261.5C309.018 235.256 287.744 213.981 261.5 213.981C235.256 213.981 213.982 235.256 213.982 261.5C213.982 287.743 235.256 309.018 261.5 309.018Z" stroke="#DDE0E5" stroke-miterlimit="10"/>
<path d="M261.501 326.724C297.523 326.724 326.726 297.522 326.726 261.5C326.726 225.477 297.523 196.275 261.501 196.275C225.478 196.275 196.276 225.477 196.276 261.5C196.276 297.522 225.478 326.724 261.501 326.724Z" stroke="#DDE0E5" stroke-miterlimit="10"/>
<path d="M261.5 359.437C315.589 359.437 359.437 315.589 359.437 261.5C359.437 207.41 315.589 163.562 261.5 163.562C207.41 163.562 163.562 207.41 163.562 261.5C163.562 315.589 207.41 359.437 261.5 359.437Z" stroke="#DDE0E5" stroke-miterlimit="10"/>
<path d="M261.501 391.249C333.159 391.249 391.25 333.158 391.25 261.5C391.25 189.841 333.159 131.75 261.501 131.75C189.842 131.75 131.751 189.841 131.751 261.5C131.751 333.158 189.842 391.249 261.501 391.249Z" stroke="#DDE0E5" stroke-miterlimit="10"/>
<path d="M261.5 424.662C351.612 424.662 424.662 351.611 424.662 261.5C424.662 171.388 351.612 98.3375 261.5 98.3375C171.388 98.3375 98.3382 171.388 98.3382 261.5C98.3382 351.611 171.388 424.662 261.5 424.662Z" stroke="#DDE0E5" stroke-miterlimit="10"/>
<path d="M261.5 457.274C369.623 457.274 457.274 369.623 457.274 261.5C457.274 153.376 369.623 65.725 261.5 65.725C153.376 65.725 65.7252 153.376 65.7252 261.5C65.7252 369.623 153.376 457.274 261.5 457.274Z" stroke="#DDE0E5" stroke-miterlimit="10"/>
<path d="M261.499 489.687C387.524 489.687 489.686 387.524 489.686 261.5C489.686 135.475 387.524 33.3127 261.499 33.3127C135.475 33.3127 33.3125 135.475 33.3125 261.5C33.3125 387.524 135.475 489.687 261.499 489.687Z" stroke="#DDE0E5" stroke-miterlimit="10"/>
<path d="M261.5 522.499C405.646 522.499 522.499 405.646 522.499 261.5C522.499 117.354 405.646 0.500191 261.5 0.500191C117.354 0.500191 0.500191 117.354 0.500191 261.5C0.500191 405.646 117.354 522.499 261.5 522.499Z" stroke="#DDE0E5" stroke-miterlimit="10"/>
</svg>
