<svg width="704" height="262" viewBox="0 0 704 262" fill="none" xmlns="http://www.w3.org/2000/svg">
<line x1="0.5" y1="-0.5" x2="703.5" y2="-0.5" transform="matrix(1 1.63189e-06 -4.68336e-09 1 0 1)" stroke="#E2E8F0" stroke-linecap="round" stroke-linejoin="round" stroke-dasharray="3.5 3.5"/>
<line x1="0.5" y1="-0.5" x2="703.5" y2="-0.5" transform="matrix(1 2.04767e-06 -3.73241e-09 1 0 53)" stroke="#E2E8F0" stroke-linecap="round" stroke-linejoin="round" stroke-dasharray="3.5 3.5"/>
<line x1="0.5" y1="-0.5" x2="703.5" y2="-0.5" transform="matrix(1 2.04767e-06 -3.73241e-09 1 0 105)" stroke="#E2E8F0" stroke-linecap="round" stroke-linejoin="round" stroke-dasharray="3.5 3.5"/>
<line x1="0.5" y1="-0.5" x2="703.5" y2="-0.5" transform="matrix(1 2.04767e-06 -3.73241e-09 1 0 157)" stroke="#E2E8F0" stroke-linecap="round" stroke-linejoin="round" stroke-dasharray="3.5 3.5"/>
<line x1="0.5" y1="-0.5" x2="703.5" y2="-0.5" transform="matrix(1 2.04767e-06 -3.73241e-09 1 0 209)" stroke="#E2E8F0" stroke-linecap="round" stroke-linejoin="round" stroke-dasharray="3.5 3.5"/>
<line x1="0.5" y1="-0.5" x2="703.5" y2="-0.5" transform="matrix(1 2.04767e-06 -3.73241e-09 1 0 261)" stroke="#E2E8F0" stroke-linecap="round" stroke-linejoin="round" stroke-dasharray="3.5 3.5"/>
</svg>
