<svg width="24" height="24" viewBox="0 0 24 24" fill="none" xmlns="http://www.w3.org/2000/svg">
<path d="M15.5984 8.40002H8.39844V15.6H15.5984V8.40002Z" fill="#1E293B"/>
<path fill-rule="evenodd" clip-rule="evenodd" d="M8.39922 2.40001C8.39922 1.73728 8.93648 1.20001 9.59922 1.20001C10.262 1.20001 10.7992 1.73728 10.7992 2.40001V3.60001H13.1992V2.40001C13.1992 1.73728 13.7365 1.20001 14.3992 1.20001C15.062 1.20001 15.5992 1.73728 15.5992 2.40001V3.60001H17.9992C19.3247 3.60001 20.3992 4.67453 20.3992 6.00001V8.40001H21.5992C22.262 8.40001 22.7992 8.93728 22.7992 9.60001C22.7992 10.2627 22.262 10.8 21.5992 10.8H20.3992V13.2H21.5992C22.262 13.2 22.7992 13.7373 22.7992 14.4C22.7992 15.0628 22.262 15.6 21.5992 15.6H20.3992V18C20.3992 19.3255 19.3247 20.4 17.9992 20.4H15.5992V21.6C15.5992 22.2628 15.062 22.8 14.3992 22.8C13.7365 22.8 13.1992 22.2628 13.1992 21.6V20.4H10.7992V21.6C10.7992 22.2628 10.262 22.8 9.59922 22.8C8.93648 22.8 8.39922 22.2628 8.39922 21.6V20.4H5.99922C4.67373 20.4 3.59922 19.3255 3.59922 18V15.6H2.39922C1.73648 15.6 1.19922 15.0628 1.19922 14.4C1.19922 13.7373 1.73648 13.2 2.39922 13.2H3.59922V10.8H2.39922C1.73648 10.8 1.19922 10.2627 1.19922 9.60001C1.19922 8.93728 1.73648 8.40001 2.39922 8.40001H3.59922V6.00001C3.59922 4.67453 4.67373 3.60001 5.99922 3.60001H8.39922V2.40001ZM5.99922 6.00001H17.9992V18H5.99922V6.00001Z" fill="#111827"/>
</svg>
