<svg width="123" height="72" viewBox="0 0 123 72" fill="none" xmlns="http://www.w3.org/2000/svg">
<g filter="url(#filter0_f_204_8142)">
<path d="M66.3629 14.25C66.3629 14.25 62.4573 19.5444 59.4049 19.37C55.5785 19.1452 54.9249 14.53 51.3777 14.25C47.6665 14.3056 47.2877 19.09 43.2653 19.37C39.6613 19.3056 38.1345 14.3372 34.6989 14.25C31.2633 14.1628 27.6013 19.37 27.6013 19.37M61.9677 41.45C61.9677 41.45 56.0877 46.7444 51.4905 46.57C45.7305 46.3452 44.7421 41.73 39.4033 41.45C33.8153 41.5056 33.2433 46.29 27.1877 46.57C21.7613 46.5048 19.4621 41.5368 14.2877 41.45C9.1133 41.3632 3.6001 46.57 3.6001 46.57M95.5677 63.05C95.5677 63.05 89.6877 68.3444 85.0905 68.17C79.3305 67.9452 78.3421 63.33 73.0033 63.05C67.4153 63.1056 66.8433 67.89 60.7877 68.17C55.3613 68.1048 53.0621 63.1368 47.8877 63.05C42.7133 62.9632 37.2001 68.17 37.2001 68.17" stroke="#CED4DA" stroke-width="4" stroke-linecap="round"/>
<path d="M97.5167 8.3402C97.9483 7.32344 97.4739 6.14932 96.4572 5.71773C95.4404 5.28615 94.2663 5.76053 93.8347 6.77729L91.7948 11.5831L89.9545 7.02839C89.5407 6.00425 88.3751 5.50946 87.3509 5.92324C86.3268 6.33702 85.832 7.50269 86.2458 8.52682L87.9844 12.83L83.6595 10.9127C82.6497 10.465 81.4682 10.9207 81.0206 11.9305C80.5729 12.9403 81.0286 14.1218 82.0384 14.5694L90.1379 18.1602L92.3922 23.7395L86.8264 22.9573L81.2775 15.5936C80.6127 14.7114 79.3587 14.5352 78.4766 15.1999C77.5944 15.8647 77.4182 17.1187 78.0829 18.0008L81.2246 22.17L76.3606 21.4864C75.2668 21.3327 74.2555 22.0948 74.1017 23.1886C73.948 24.2824 74.7101 25.2938 75.8039 25.4475L80.4 26.0934L76.5769 28.8804C75.6843 29.5311 75.4882 30.7821 76.1389 31.6747C76.7895 32.5673 78.0406 32.7634 78.9332 32.1127L86.0928 26.8935L92.0517 27.731L88.5915 32.1599L79.4397 33.2836C78.3433 33.4182 77.5637 34.4161 77.6983 35.5124C77.8329 36.6088 78.8308 37.3884 79.9271 37.2538L85.1087 36.6176L82.0846 40.4882C81.4046 41.3587 81.5589 42.6155 82.4293 43.2956C83.2997 43.9756 84.5566 43.8213 85.2367 42.9509L88.094 39.2937L88.5959 43.9982C88.7131 45.0965 89.6985 45.8919 90.7968 45.7747C91.8952 45.6575 92.6906 44.6721 92.5734 43.5738L91.6333 34.7636L95.0693 30.3657L97.4889 36.3542L94.1569 44.5638C93.7415 45.5873 94.2345 46.7538 95.258 47.1692C96.2814 47.5845 97.4479 47.0916 97.8633 46.0681L99.6425 41.6844L101.052 45.1736C101.466 46.1977 102.632 46.6925 103.656 46.2787C104.68 45.8649 105.175 44.6993 104.761 43.6751L103.25 39.9348L108.055 41.9746C109.072 42.4062 110.246 41.9318 110.678 40.9151C111.109 39.8983 110.635 38.7242 109.618 38.2926L101.131 34.6899L98.6963 28.6648L105.525 29.6245L110.968 36.6149C111.647 37.4864 112.904 37.6427 113.775 36.9641C114.647 36.2854 114.803 35.0288 114.124 34.1573L111.218 30.4246L114.944 30.9483C116.038 31.102 117.049 30.3399 117.203 29.2461C117.357 28.1523 116.594 27.141 115.501 26.9872L111.506 26.4258L115.675 23.284C116.558 22.6193 116.734 21.3653 116.069 20.4831C115.404 19.601 114.15 19.4247 113.268 20.0895L105.904 25.6386L99.4692 24.7342L103.714 19.3006L112.49 18.0814C113.584 17.9294 114.348 16.9193 114.196 15.8252C114.044 14.7312 113.034 13.9675 111.939 14.1195L107.254 14.7705L109.571 11.805C110.251 10.9346 110.096 9.67767 109.226 8.99763C108.356 8.31759 107.099 8.47191 106.419 9.34232L103.935 12.5213L103.299 7.33957C103.164 6.24323 102.166 5.46362 101.07 5.59825C99.9734 5.73287 99.1938 6.73077 99.3284 7.8271L100.452 16.9789L96.1827 22.4436L93.9139 16.8281L97.5167 8.3402Z" fill="#CED4DA"/>
<path d="M95.7286 30C97.6064 30 99.1286 28.4777 99.1286 26.6C99.1286 24.7222 97.6064 23.2 95.7286 23.2C93.8508 23.2 92.3286 24.7222 92.3286 26.6C92.3286 28.4777 93.8508 30 95.7286 30Z" fill="white"/>
</g>
<defs>
<filter id="filter0_f_204_8142" x="0.600098" y="4.55823" width="117.623" height="66.616" filterUnits="userSpaceOnUse" color-interpolation-filters="sRGB">
<feFlood flood-opacity="0" result="BackgroundImageFix"/>
<feBlend mode="normal" in="SourceGraphic" in2="BackgroundImageFix" result="shape"/>
<feGaussianBlur stdDeviation="0.5" result="effect1_foregroundBlur_204_8142"/>
</filter>
</defs>
</svg>
