<svg width="114" height="39" viewBox="0 0 114 39" fill="none" xmlns="http://www.w3.org/2000/svg">
<g clip-path="url(#clip0_303_41455)">
<path d="M48.5116 19.7141C48.5116 25.0501 44.3246 28.982 39.1862 28.982C34.0478 28.982 29.8608 25.0501 29.8608 19.7141C29.8608 14.3406 34.0478 10.4462 39.1862 10.4462C44.3246 10.4462 48.5116 14.3406 48.5116 19.7141ZM44.4294 19.7141C44.4294 16.3797 42.0027 14.0982 39.1862 14.0982C36.3697 14.0982 33.943 16.3797 33.943 19.7141C33.943 23.0151 36.3697 25.33 39.1862 25.33C42.0027 25.33 44.4294 23.011 44.4294 19.7141Z" fill="#CBD5E0"/>
<path d="M68.632 19.7141C68.632 25.0501 64.445 28.982 59.3066 28.982C54.1682 28.982 49.9812 25.0501 49.9812 19.7141C49.9812 14.3448 54.1682 10.4462 59.3066 10.4462C64.445 10.4462 68.632 14.3406 68.632 19.7141ZM64.5498 19.7141C64.5498 16.3797 62.1231 14.0982 59.3066 14.0982C56.4901 14.0982 54.0634 16.3797 54.0634 19.7141C54.0634 23.0151 56.4901 25.33 59.3066 25.33C62.1231 25.33 64.5498 23.011 64.5498 19.7141Z" fill="#CBD5E0"/>
<path d="M87.9108 11.0062V27.6449C87.9108 34.4893 83.8621 37.2847 79.0758 37.2847C74.5702 37.2847 71.8585 34.2803 70.8359 31.8234L74.39 30.3484C75.0229 31.8568 76.5736 33.6368 79.0716 33.6368C82.1354 33.6368 84.034 31.7524 84.034 28.2048V26.8719H83.8915C82.9778 27.9959 81.2175 28.9778 78.9962 28.9778C74.3481 28.9778 70.0898 24.9414 70.0898 19.7476C70.0898 14.5161 74.3481 10.4462 78.9962 10.4462C81.2133 10.4462 82.9736 11.4282 83.8915 12.5188H84.034V11.0103H87.9108V11.0062ZM84.3232 19.7476C84.3232 16.4842 82.1396 14.0982 79.3608 14.0982C76.5443 14.0982 74.1847 16.4842 74.1847 19.7476C74.1847 22.9775 76.5443 25.33 79.3608 25.33C82.1396 25.33 84.3232 22.9775 84.3232 19.7476Z" fill="#CBD5E0"/>
<path d="M94.3018 1.25355V28.4137H90.3201V1.25355H94.3018Z" fill="#CBD5E0"/>
<path d="M109.816 22.7644L112.985 24.8704C111.962 26.3788 109.498 28.9778 105.239 28.9778C99.9584 28.9778 96.0145 24.908 96.0145 19.7099C96.0145 14.1985 99.9919 10.4421 104.782 10.4421C109.607 10.4421 111.966 14.2695 112.737 16.3379L113.161 17.3909L100.734 22.5221C101.685 24.3815 103.165 25.33 105.239 25.33C107.318 25.33 108.76 24.3105 109.816 22.7644ZM100.063 19.43L108.37 15.9911C107.913 14.8336 106.539 14.0272 104.921 14.0272C102.846 14.0272 99.9584 15.8532 100.063 19.43Z" fill="#CBD5E0"/>
<path d="M14.7929 17.3038V13.3718H28.0832C28.2131 14.0571 28.2802 14.8677 28.2802 15.7452C28.2802 18.6952 27.4713 22.343 24.8644 24.942C22.3287 27.5745 19.0889 28.9785 14.7971 28.9785C6.84221 28.9785 0.153052 22.5185 0.153052 14.5877C0.153052 6.65698 6.84221 0.197033 14.7971 0.197033C19.1979 0.197033 22.3329 1.91857 24.6883 4.16242L21.9054 6.93693C20.2163 5.35747 17.9279 4.12899 14.7929 4.12899C8.98391 4.12899 4.44065 8.79636 4.44065 14.5877C4.44065 20.3791 8.98391 25.0465 14.7929 25.0465C18.5608 25.0465 20.7067 23.5381 22.0814 22.1675C23.1963 21.056 23.9297 19.4682 24.2189 17.2996L14.7929 17.3038Z" fill="#CBD5E0"/>
</g>
<defs>
<clipPath id="clip0_303_41455">
<rect width="113.473" height="38.2643" fill="white" transform="scale(1.00465)"/>
</clipPath>
</defs>
</svg>
