<svg width="24" height="24" viewBox="0 0 24 24" fill="none" xmlns="http://www.w3.org/2000/svg">
<path fill-rule="evenodd" clip-rule="evenodd" d="M14.7787 3.66163C15.4075 3.87121 15.7472 4.5508 15.5377 5.17952L10.7376 19.5796C10.5281 20.2083 9.84848 20.5481 9.21974 20.3385C8.59102 20.1289 8.25122 19.4493 8.4608 18.8206L13.2608 4.42058C13.4704 3.79186 14.15 3.45206 14.7787 3.66163ZM6.84775 7.55153C7.31638 8.02015 7.31638 8.77996 6.84775 9.24858L4.09627 12L6.84775 14.7515C7.31638 15.2201 7.31638 15.9799 6.84775 16.4485C6.37912 16.9173 5.61932 16.9173 5.15069 16.4485L1.55069 12.8485C1.08206 12.3799 1.08206 11.6202 1.55069 11.1515L5.15069 7.55153C5.61932 7.0829 6.37912 7.0829 6.84775 7.55153ZM17.1507 7.55153C17.6193 7.0829 18.3791 7.0829 18.8477 7.55153L22.4477 11.1515C22.9163 11.6202 22.9163 12.3799 22.4477 12.8485L18.8477 16.4485C18.3791 16.9173 17.6193 16.9173 17.1507 16.4485C16.6821 15.9799 16.6821 15.2201 17.1507 14.7515L19.9022 12L17.1507 9.24858C16.6821 8.77996 16.6821 8.02015 17.1507 7.55153Z" fill="#1E293B"/>
</svg>
