<svg width="20" height="20" viewBox="0 0 20 20" fill="none" xmlns="http://www.w3.org/2000/svg">
<path d="M10 2C10.5523 2 11 2.44772 11 3V4C11 4.55228 10.5523 5 10 5C9.44772 5 9 4.55228 9 4V3C9 2.44772 9.44772 2 10 2Z" fill="#111827"/>
<path d="M14 10C14 12.2091 12.2091 14 10 14C7.79086 14 6 12.2091 6 10C6 7.79086 7.79086 6 10 6C12.2091 6 14 7.79086 14 10Z" fill="#111827"/>
<path d="M13.5356 14.9497L14.2427 15.6568C14.6332 16.0473 15.2664 16.0473 15.6569 15.6568C16.0474 15.2663 16.0474 14.6331 15.6569 14.2426L14.9498 13.5355C14.5593 13.145 13.9261 13.145 13.5356 13.5355C13.1451 13.926 13.1451 14.5592 13.5356 14.9497Z" fill="#111827"/>
<path d="M15.6569 4.34306C16.0474 4.73359 16.0474 5.36675 15.6569 5.75728L14.9498 6.46438C14.5593 6.85491 13.9261 6.85491 13.5356 6.46438C13.1451 6.07386 13.1451 5.44069 13.5356 5.05017L14.2427 4.34306C14.6332 3.95254 15.2664 3.95254 15.6569 4.34306Z" fill="#111827"/>
<path d="M17 11C17.5523 11 18 10.5523 18 10C18 9.44772 17.5523 9 17 9H16C15.4477 9 15 9.44772 15 10C15 10.5523 15.4477 11 16 11H17Z" fill="#111827"/>
<path d="M10 15C10.5523 15 11 15.4477 11 16V17C11 17.5523 10.5523 18 10 18C9.44772 18 9 17.5523 9 17V16C9 15.4477 9.44772 15 10 15Z" fill="#111827"/>
<path d="M5.05029 6.46444C5.44081 6.85497 6.07398 6.85497 6.4645 6.46444C6.85503 6.07392 6.85503 5.44075 6.4645 5.05023L5.7574 4.34312C5.36687 3.9526 4.73371 3.9526 4.34318 4.34312C3.95266 4.73364 3.95266 5.36681 4.34318 5.75733L5.05029 6.46444Z" fill="#111827"/>
<path d="M6.4645 14.9497L5.75739 15.6568C5.36687 16.0473 4.7337 16.0473 4.34318 15.6568C3.95266 15.2663 3.95266 14.6331 4.34318 14.2426L5.05029 13.5355C5.44081 13.145 6.07398 13.145 6.4645 13.5355C6.85503 13.926 6.85503 14.5592 6.4645 14.9497Z" fill="#111827"/>
<path d="M4 11C4.55228 11 5 10.5523 5 10C5 9.44772 4.55228 9 4 9H3C2.44772 9 2 9.44772 2 10C2 10.5523 2.44772 11 3 11H4Z" fill="#111827"/>
</svg>
