<svg width="15" height="15" viewBox="0 0 15 15" fill="none" xmlns="http://www.w3.org/2000/svg">
<path d="M8.74189 7.26553C8.76498 7.26555 8.78756 7.25875 8.80679 7.24598C8.82603 7.23321 8.84107 7.21505 8.85002 7.19377C8.85897 7.17249 8.86143 7.14904 8.8571 7.12636C8.85277 7.10369 8.84184 7.08279 8.82568 7.06631L6.52881 4.73076C6.51249 4.71419 6.4916 4.70285 6.46881 4.69818C6.44602 4.69352 6.42236 4.69574 6.40084 4.70457C6.37931 4.7134 6.36091 4.72843 6.34796 4.74776C6.33501 4.76708 6.32811 4.78982 6.32813 4.81309V6.91396C6.32813 7.0072 6.36516 7.09662 6.4311 7.16256C6.49703 7.22849 6.58645 7.26553 6.67969 7.26553H8.74189Z" fill="#344767"/>
<path d="M5.77148 7.82227C5.65115 7.70355 5.55554 7.56216 5.49017 7.40628C5.42479 7.25039 5.39096 7.0831 5.39062 6.91406V4.21875H3.28125C2.78442 4.22022 2.30836 4.41823 1.95705 4.76955C1.60573 5.12086 1.40772 5.59692 1.40625 6.09375V12.6562C1.40625 13.1535 1.60379 13.6304 1.95542 13.9821C2.30706 14.3337 2.78397 14.5312 3.28125 14.5312H7.5C7.99728 14.5312 8.47419 14.3337 8.82582 13.9821C9.17745 13.6304 9.375 13.1535 9.375 12.6562V8.20312H6.67969C6.51063 8.20288 6.34331 8.1691 6.18741 8.10372C6.03151 8.03834 5.89014 7.94268 5.77148 7.82227Z" fill="#344767"/>
<path d="M10.8985 3.51516H12.9607C12.9838 3.51518 13.0064 3.50838 13.0256 3.49561C13.0448 3.48285 13.0599 3.46469 13.0688 3.4434C13.0778 3.42212 13.0802 3.39867 13.0759 3.376C13.0716 3.35332 13.0607 3.33243 13.0445 3.31594L10.7476 0.980395C10.7313 0.963821 10.7104 0.952479 10.6876 0.947815C10.6648 0.94315 10.6412 0.945374 10.6196 0.954202C10.5981 0.963031 10.5797 0.978065 10.5668 0.99739C10.5538 1.01672 10.5469 1.03946 10.5469 1.06272V3.1636C10.5469 3.25684 10.584 3.34626 10.6499 3.41219C10.7158 3.47812 10.8053 3.51516 10.8985 3.51516Z" fill="#344767"/>
<path d="M10.8984 4.45288C10.5573 4.45027 10.2309 4.31363 9.98975 4.07244C9.74857 3.83126 9.61192 3.50489 9.60931 3.16382V0.468506H6.44525C5.97922 0.469049 5.53243 0.65442 5.20289 0.983957C4.87335 1.31349 4.68798 1.76028 4.68744 2.22632V3.28101H5.92142C6.07893 3.28164 6.23476 3.31338 6.37996 3.37442C6.52516 3.43545 6.65687 3.52458 6.76752 3.63667L9.96556 6.88862C10.1887 7.115 10.3132 7.42039 10.3121 7.73823V11.7185H11.8663C12.8188 11.7185 13.5934 10.9298 13.5934 9.96069V4.45288H10.8984Z" fill="#344767"/>
</svg>
