<svg width="14" height="14" viewBox="0 0 14 14" fill="none" xmlns="http://www.w3.org/2000/svg">
<g clip-path="url(#clip0_301_36843)">
<path d="M10.7733 13.1247C10.6812 13.125 10.5913 13.0963 10.5165 13.0426L6.99983 10.4931L3.48315 13.0426C3.40801 13.0971 3.3175 13.1263 3.22469 13.126C3.13188 13.1256 3.04157 13.0958 2.96684 13.0407C2.89211 12.9857 2.83681 12.9083 2.80895 12.8198C2.78109 12.7313 2.78211 12.6362 2.81186 12.5482L4.18342 8.48579L0.628733 6.04809C0.551736 5.99535 0.493623 5.91936 0.462885 5.83124C0.432148 5.74312 0.430395 5.64748 0.457885 5.55829C0.485375 5.4691 0.540666 5.39104 0.615679 5.33551C0.690693 5.27998 0.781498 5.2499 0.874827 5.24965H5.26022L6.58365 1.1768C6.61216 1.08887 6.66779 1.01223 6.74256 0.957873C6.81732 0.903516 6.90739 0.874237 6.99983 0.874237C7.09226 0.874237 7.18233 0.903516 7.25709 0.957873C7.33186 1.01223 7.38749 1.08887 7.416 1.1768L8.73943 5.25102H13.1248C13.2183 5.25098 13.3093 5.28085 13.3845 5.33627C13.4597 5.39169 13.5153 5.46975 13.5429 5.559C13.5706 5.64826 13.5689 5.74403 13.5382 5.83229C13.5075 5.92054 13.4494 5.99665 13.3723 6.04946L9.81623 8.48579L11.187 12.5472C11.2092 12.6129 11.2154 12.683 11.2052 12.7516C11.195 12.8203 11.1686 12.8855 11.1281 12.9419C11.0877 12.9984 11.0345 13.0444 10.9727 13.0761C10.911 13.1079 10.8427 13.1245 10.7733 13.1247Z" fill="#2D3748"/>
</g>
<defs>
<clipPath id="clip0_301_36843">
<rect width="14" height="14" fill="white"/>
</clipPath>
</defs>
</svg>
