<svg width="104" height="22" viewBox="0 0 104 22" fill="none" xmlns="http://www.w3.org/2000/svg">
<g clip-path="url(#clip0_303_41465)">
<path d="M43.2493 4.23946V16.9578H40.9389V6.97744H40.9081L36.7802 16.9578H35.2399L31.0196 6.97744H30.9888V16.9578H28.8632V4.23946H32.1902L36.01 13.6605H36.0717L40.1072 4.23946H43.2493ZM45.1593 5.211C45.1593 4.85771 45.2825 4.56331 45.5597 4.32778C45.837 4.09226 46.145 3.97449 46.5147 3.97449C46.9152 3.97449 47.254 4.09226 47.5005 4.32778C47.7469 4.56331 47.901 4.85771 47.901 5.211C47.901 5.56429 47.7777 5.8587 47.5005 6.09422C47.2232 6.32975 46.9152 6.44751 46.5147 6.44751C46.1142 6.44751 45.8062 6.32975 45.5597 6.09422C45.3133 5.82926 45.1593 5.53485 45.1593 5.211ZM47.6545 7.83122V16.9578H45.4057V7.83122H47.6545ZM54.4625 15.3975C54.8014 15.3975 55.171 15.3386 55.5715 15.162C55.972 15.0148 56.3417 14.8087 56.6805 14.5731V16.5751C56.3108 16.7812 55.9104 16.9284 55.4483 17.0167C54.9862 17.105 54.4933 17.1639 53.9388 17.1639C52.5218 17.1639 51.382 16.7518 50.5194 15.898C49.6261 15.0442 49.1948 13.9549 49.1948 12.6595C49.1948 11.1875 49.6569 9.98039 50.5502 9.03829C51.4436 8.09619 52.7066 7.62514 54.3701 7.62514C54.8014 7.62514 55.2327 7.68402 55.6331 7.77234C56.0644 7.86066 56.4033 8.00787 56.6497 8.12563V10.1865C56.3108 9.95095 55.9412 9.74487 55.6023 9.62711C55.2327 9.50934 54.863 9.42102 54.4933 9.42102C53.6 9.42102 52.8914 9.68599 52.3369 10.2454C51.7824 10.8047 51.536 11.5408 51.536 12.4829C51.536 13.3955 51.8132 14.1315 52.3369 14.632C52.8606 15.1325 53.5692 15.3975 54.4625 15.3975ZM63.0572 7.68402C63.2421 7.68402 63.3961 7.68402 63.5501 7.71346C63.7042 7.7429 63.8274 7.77234 63.9198 7.80178V9.98039C63.7966 9.89207 63.6425 9.80375 63.3961 9.74487C63.1497 9.68599 62.9032 9.62711 62.5644 9.62711C62.0099 9.62711 61.5478 9.86263 61.1781 10.3042C60.8084 10.7459 60.5928 11.423 60.5928 12.3651V16.9578H58.344V7.83122H60.5928V9.27382H60.6236C60.8393 8.77333 61.1473 8.3906 61.5478 8.09619C61.9791 7.83122 62.4719 7.68402 63.0572 7.68402ZM64.043 12.5417C64.043 11.0403 64.5051 9.83319 65.3677 8.94997C66.261 8.06675 67.4932 7.62514 69.0643 7.62514C70.543 7.62514 71.7136 8.03731 72.5453 8.89109C73.3771 9.74487 73.8084 10.8931 73.8084 12.3357C73.8084 13.8077 73.3463 14.9853 72.4837 15.8685C71.5904 16.7518 70.3889 17.1934 68.8487 17.1934C67.37 17.1934 66.1994 16.7812 65.3369 15.9569C64.4743 15.1031 64.043 13.9549 64.043 12.5417ZM66.3842 12.4534C66.3842 13.3955 66.5999 14.1315 67.062 14.632C67.524 15.1325 68.171 15.3975 69.0027 15.3975C69.8036 15.3975 70.4506 15.162 70.8818 14.632C71.3131 14.1315 71.5287 13.3955 71.5287 12.3945C71.5287 11.423 71.3131 10.687 70.8818 10.157C70.4506 9.65655 69.8036 9.39158 69.0335 9.39158C68.2018 9.39158 67.5856 9.65655 67.1236 10.1865C66.5999 10.7459 66.3842 11.4819 66.3842 12.4534ZM77.1662 10.2454C77.1662 10.5398 77.2586 10.8047 77.4742 10.9814C77.6898 11.158 78.1211 11.3641 78.8296 11.6291C79.723 11.9824 80.3699 12.3651 80.7088 12.7773C81.0784 13.2189 81.2633 13.7194 81.2633 14.3376C81.2633 15.1914 80.9244 15.8685 80.2159 16.3985C79.5382 16.9284 78.5832 17.1639 77.4126 17.1639C77.0121 17.1639 76.5808 17.105 76.088 17.0167C75.5951 16.9284 75.1946 16.8106 74.8557 16.6634V14.5437C75.2562 14.8087 75.7183 15.0442 76.1804 15.1914C76.6425 15.3386 77.0737 15.4269 77.4742 15.4269C77.9671 15.4269 78.3676 15.368 78.5832 15.2208C78.8296 15.0736 78.9529 14.8675 78.9529 14.5437C78.9529 14.2493 78.8296 14.0138 78.5832 13.7782C78.3368 13.5722 77.8439 13.3366 77.1662 13.0717C76.3344 12.7478 75.7491 12.3651 75.4102 11.9529C75.0714 11.5408 74.8865 11.0108 74.8865 10.3631C74.8865 9.53878 75.2254 8.86165 75.9031 8.33172C76.5808 7.80178 77.4742 7.53682 78.5524 7.53682C78.8913 7.53682 79.2609 7.56626 79.6614 7.65458C80.0619 7.7429 80.4315 7.83122 80.7088 7.91955V10.0098C80.4007 9.83319 80.0619 9.65655 79.6614 9.50934C79.2609 9.36214 78.8605 9.30326 78.4908 9.30326C78.0595 9.30326 77.7206 9.39158 77.505 9.53878C77.2894 9.74487 77.1662 9.95095 77.1662 10.2454ZM82.2182 12.5417C82.2182 11.0403 82.6803 9.83319 83.5429 8.94997C84.4362 8.06675 85.6685 7.62514 87.2395 7.62514C88.7182 7.62514 89.8888 8.03731 90.7206 8.89109C91.5523 9.74487 91.9836 10.8931 91.9836 12.3357C91.9836 13.8077 91.5215 14.9853 90.6589 15.8685C89.7656 16.7518 88.5642 17.1934 87.0239 17.1934C85.5452 17.1934 84.3746 16.7812 83.5121 15.9569C82.6803 15.1031 82.2182 13.9549 82.2182 12.5417ZM84.5595 12.4534C84.5595 13.3955 84.7751 14.1315 85.2372 14.632C85.6993 15.1325 86.3462 15.3975 87.1779 15.3975C87.9789 15.3975 88.6258 15.162 89.0571 14.632C89.4883 14.1315 89.704 13.3955 89.704 12.3945C89.704 11.423 89.4883 10.687 89.0571 10.157C88.6258 9.65655 87.9789 9.39158 87.2087 9.39158C86.377 9.39158 85.7609 9.65655 85.2988 10.1865C84.8059 10.7459 84.5595 11.4819 84.5595 12.4534ZM99.4693 9.59766H96.1115V16.9578H93.8319V9.59766H92.23V7.83122H93.8319V6.56527C93.8319 5.62317 94.1708 4.82827 94.8177 4.21002C95.4646 3.59176 96.2963 3.29736 97.3129 3.29736C97.5902 3.29736 97.8366 3.3268 98.0523 3.3268C98.2679 3.3268 98.4527 3.38568 98.6068 3.44456V5.29932C98.5451 5.26988 98.3911 5.211 98.2063 5.15212C98.0214 5.09324 97.8058 5.0638 97.5594 5.0638C97.0973 5.0638 96.7276 5.211 96.4812 5.47597C96.2347 5.74093 96.1115 6.18254 96.1115 6.71248V7.80178H99.4693V5.74093L101.718 5.09324V7.80178H103.998V9.56822H101.718V13.8371C101.718 14.3965 101.841 14.7792 102.026 15.0148C102.242 15.2503 102.581 15.368 103.043 15.368C103.166 15.368 103.32 15.3386 103.505 15.2797C103.69 15.2208 103.844 15.162 103.967 15.0736V16.8401C103.813 16.9284 103.597 16.9873 103.258 17.0462C102.92 17.105 102.611 17.1345 102.273 17.1345C101.318 17.1345 100.609 16.899 100.147 16.4279C99.6849 15.9569 99.4385 15.2208 99.4385 14.2493L99.4693 9.59766Z" fill="#CBD5E0"/>
<path d="M10.5355 0H0V10.0687H10.5355V0Z" fill="#CBD5E0"/>
<path d="M22.1804 0H11.6449V10.0687H22.1804V0Z" fill="#CBD5E0"/>
<path d="M10.5355 11.1286H0V21.1973H10.5355V11.1286Z" fill="#CBD5E0"/>
<path d="M22.1804 11.1286H11.6449V21.1973H22.1804V11.1286Z" fill="#CBD5E0"/>
</g>
<defs>
<clipPath id="clip0_303_41465">
<rect width="103.577" height="21.1113" fill="white" transform="scale(1.00407)"/>
</clipPath>
</defs>
</svg>
