<svg width="20" height="20" viewBox="0 0 20 20" fill="none" xmlns="http://www.w3.org/2000/svg">
<g clip-path="url(#clip0_301_36145)">
<path d="M13.3337 10C13.3337 10.9167 14.0837 11.6667 15.0003 11.6667C15.917 11.6667 16.667 10.9167 16.667 10C16.667 9.08337 15.917 8.33337 15.0003 8.33337C14.0837 8.33337 13.3337 9.08337 13.3337 10ZM11.667 10C11.667 9.08337 10.917 8.33337 10.0003 8.33337C9.08366 8.33337 8.33366 9.08337 8.33366 10C8.33366 10.9167 9.08366 11.6667 10.0003 11.6667C10.917 11.6667 11.667 10.9167 11.667 10ZM6.66699 10C6.66699 9.08337 5.91699 8.33337 5.00033 8.33337C4.08366 8.33337 3.33366 9.08337 3.33366 10C3.33366 10.9167 4.08366 11.6667 5.00033 11.6667C5.91699 11.6667 6.66699 10.9167 6.66699 10Z" fill="white"/>
</g>
<defs>
<clipPath id="clip0_301_36145">
<rect width="20" height="20" fill="white" transform="translate(20) rotate(90)"/>
</clipPath>
</defs>
</svg>
