<svg width="15" height="15" viewBox="0 0 15 15" fill="none" xmlns="http://www.w3.org/2000/svg">
<path d="M12.5391 6.56262H8.43756C8.0646 6.56262 7.70691 6.41446 7.44319 6.15074C7.17947 5.88702 7.03131 5.52933 7.03131 5.15637V1.05481C7.03131 1.02373 7.01896 0.993922 6.99699 0.971946C6.97501 0.949969 6.9452 0.937622 6.91412 0.937622H4.21881C3.72153 0.937622 3.24462 1.13517 2.89299 1.4868C2.54136 1.83843 2.34381 2.31534 2.34381 2.81262V12.1876C2.34381 12.6849 2.54136 13.1618 2.89299 13.5134C3.24462 13.8651 3.72153 14.0626 4.21881 14.0626H10.7813C11.2786 14.0626 11.7555 13.8651 12.1071 13.5134C12.4588 13.1618 12.6563 12.6849 12.6563 12.1876V6.67981C12.6563 6.64873 12.644 6.61892 12.622 6.59694C12.6 6.57497 12.5702 6.56262 12.5391 6.56262Z" fill="#344767"/>
<path d="M12.2818 5.526L8.06865 1.31282C8.06046 1.30467 8.05004 1.29913 8.03871 1.29689C8.02737 1.29465 8.01563 1.29581 8.00495 1.30022C7.99428 1.30464 7.98514 1.31211 7.9787 1.3217C7.97226 1.33129 7.9688 1.34257 7.96875 1.35412V5.15715C7.96875 5.28147 8.01814 5.4007 8.10604 5.48861C8.19395 5.57652 8.31318 5.6259 8.4375 5.6259H12.2405C12.2521 5.62585 12.2634 5.62239 12.273 5.61595C12.2825 5.60951 12.29 5.60037 12.2944 5.5897C12.2988 5.57902 12.3 5.56728 12.2978 5.55594C12.2955 5.54461 12.29 5.53419 12.2818 5.526Z" fill="#344767"/>
</svg>
