<svg width="14" height="14" viewBox="0 0 14 14" fill="none" xmlns="http://www.w3.org/2000/svg">
<path fill-rule="evenodd" clip-rule="evenodd" d="M8.39998 1.11005L5.59998 3.91005V12.8899L8.39998 10.0899V1.11005Z" fill="#8392AB"/>
<path fill-rule="evenodd" clip-rule="evenodd" d="M2.595 2.30502C2.3948 2.10482 2.09372 2.04493 1.83215 2.15328C1.57057 2.26163 1.40002 2.51687 1.40002 2.8V9.79998C1.40002 9.98562 1.47378 10.1637 1.60505 10.2949L4.20002 12.8899V3.91005L2.595 2.30502Z" fill="#8392AB"/>
<path fill-rule="evenodd" clip-rule="evenodd" d="M12.395 3.70502L9.79999 1.11005V10.0899L11.405 11.6949C11.6052 11.8951 11.9063 11.9551 12.1679 11.8467C12.4295 11.7383 12.6 11.4831 12.6 11.2V4.19999C12.6 4.01434 12.5262 3.83629 12.395 3.70502Z" fill="#8392AB"/>
</svg>
