<svg width="20" height="20" viewBox="0 0 20 20" fill="none" xmlns="http://www.w3.org/2000/svg">
<g clip-path="url(#clip0_301_34019)">
<path d="M13.3327 10C13.3327 10.9167 14.0827 11.6667 14.9993 11.6667C15.916 11.6667 16.666 10.9167 16.666 10C16.666 9.08337 15.916 8.33337 14.9993 8.33337C14.0827 8.33337 13.3327 9.08337 13.3327 10ZM11.666 10C11.666 9.08337 10.916 8.33337 9.99935 8.33337C9.08268 8.33337 8.33268 9.08337 8.33268 10C8.33268 10.9167 9.08268 11.6667 9.99935 11.6667C10.916 11.6667 11.666 10.9167 11.666 10ZM6.66602 10C6.66602 9.08337 5.91602 8.33337 4.99935 8.33337C4.08268 8.33337 3.33268 9.08337 3.33268 10C3.33268 10.9167 4.08268 11.6667 4.99935 11.6667C5.91602 11.6667 6.66602 10.9167 6.66602 10Z" fill="#A0AEC0"/>
</g>
<defs>
<clipPath id="clip0_301_34019">
<rect width="20" height="20" fill="white" transform="translate(20) rotate(90)"/>
</clipPath>
</defs>
</svg>
