<svg width="86" height="37" viewBox="0 0 86 37" fill="none" xmlns="http://www.w3.org/2000/svg">
<g clip-path="url(#clip0_303_41462)">
<path d="M13.3078 33.4388C13.3078 35.0481 13.8679 35.6782 14.7242 35.6782C16.8671 35.6782 20.2813 30.6578 20.1516 25.387C23.401 21.9465 27.2963 16.5568 27.2963 12.24C27.2963 11.195 27.0011 10.3151 25.7671 10.3151C23.8805 10.3151 21.1847 13.5787 19.4747 16.8195C17.8257 20.1769 16.2831 24.0062 14.2353 29.2619C13.7568 30.5802 13.3078 32.1768 13.3078 33.4388ZM59.6604 26.274V28.9789C59.6604 28.9789 60.9963 29.9476 63.6026 29.9476C67.5584 29.9476 69.2964 27.7323 69.2964 25.3147C69.2964 20.0754 62.2676 21.3278 62.2676 17.8511C62.2676 16.5445 63.3041 15.5991 65.044 15.5991C67.0758 15.5991 68.5725 16.6873 68.5725 16.6873V14.1838C68.5725 14.1838 67.1813 13.41 65.1756 13.41C61.793 13.41 59.6855 15.5303 59.6855 18.0775C59.6855 23.2574 66.6923 22.2441 66.6923 25.6198C66.6923 27.1711 65.4215 27.7333 63.778 27.7333C61.4255 27.7333 59.6604 26.274 59.6604 26.274ZM85.19 29.576H82.674V20.5835C82.674 17.237 81.4569 15.5638 79.0227 15.5637C77.7647 15.5638 76.724 16.0385 75.9007 16.9881C75.0774 17.9376 74.6657 19.1361 74.6657 20.5835V29.576H72.1498V13.8084H74.6657V16.426H74.7271C75.9135 14.4346 77.6317 13.4388 79.8818 13.4388C81.6 13.4388 82.9143 13.9957 83.8245 15.1095C84.7348 16.2233 85.1899 17.8324 85.1899 19.9368L85.19 29.576ZM56.9138 29.576H54.3978V20.5219C54.3978 18.7768 54.1293 17.5142 53.5924 16.734C53.0554 15.9539 52.1528 15.5638 50.8846 15.5637C49.8107 15.5638 48.8979 16.0565 48.1462 17.042C47.3944 18.0275 47.0186 19.208 47.0186 20.5835V29.576H44.5026V20.214C44.5026 17.1138 43.311 15.5638 40.928 15.5637C39.8234 15.5638 38.9132 16.0283 38.1973 16.9573C37.4813 17.8863 37.1234 19.0951 37.1234 20.5835V29.576H34.6074V13.8084H37.1234V16.3029H37.1847C38.2995 14.3935 39.9257 13.4388 42.0633 13.4388C43.1372 13.4388 44.073 13.7391 44.8707 14.3396C45.6685 14.9401 46.2157 15.728 46.5123 16.7032C47.6782 14.527 49.4169 13.4388 51.7284 13.4388C55.1853 13.4388 56.9137 15.5792 56.9138 19.8598L56.9138 29.576ZM4.02263 36.9573C1.8742 36.9573 0.0430329 35.6039 0.0430329 32.536C0.0430329 27.8 4.10362 24.2035 5.94595 23.1863C5.94595 23.1863 8.5236 24.6767 11.1977 25.6358C5.88445 22.2616 2.48929 16.114 2.48929 9.29072C2.48929 2.91394 5.8428 0.0428725 8.87054 0.0428725C11.3062 0.0428725 17.0807 2.73214 17.0807 13.0515C17.0807 24.1555 11.3079 36.9573 4.02263 36.9573Z" fill="#CBD5E0"/>
</g>
<defs>
<clipPath id="clip0_303_41462">
<rect width="85.105" height="36.9448" fill="white" transform="scale(1.00149)"/>
</clipPath>
</defs>
</svg>
