<svg width="16" height="16" viewBox="0 0 16 16" fill="none" xmlns="http://www.w3.org/2000/svg">
<path d="M7.23871 3.14166C7.47819 2.40463 8.5209 2.40463 8.76042 3.14166L9.61601 5.77506C9.72312 6.10468 10.0303 6.32785 10.3769 6.32785H13.1458C13.9207 6.32785 14.243 7.31952 13.616 7.77504L11.3759 9.40257C11.0955 9.60624 10.9782 9.96736 11.0853 10.297L11.9409 12.9304C12.1804 13.6674 11.3369 14.2803 10.7099 13.8248L8.46978 12.1973C8.18938 11.9936 7.80971 11.9936 7.52932 12.1973L5.28921 13.8248C4.66225 14.2803 3.81868 13.6674 4.05816 12.9304L4.9138 10.297C5.0209 9.96736 4.90358 9.60624 4.62319 9.40257L2.38308 7.77504C1.75612 7.31952 2.07833 6.32785 2.85331 6.32785H5.62223C5.9688 6.32785 6.27597 6.10468 6.38306 5.77506L7.23871 3.14166Z" fill="#252F40"/>
</svg>
