<svg width="13" height="14" viewBox="0 0 13 14" fill="none" xmlns="http://www.w3.org/2000/svg">
<path d="M3.71875 7C3.71875 7.7732 3.16368 8.4 2.47896 8.4C1.79425 8.4 1.23918 7.7732 1.23918 7C1.23918 6.22678 1.79425 5.6 2.47896 5.6C3.16368 5.6 3.71875 6.22678 3.71875 7Z" fill="white"/>
<path d="M7.44025 7C7.44025 7.7732 6.8852 8.4 6.20046 8.4C5.51575 8.4 4.96068 7.7732 4.96068 7C4.96068 6.22678 5.51575 5.6 6.20046 5.6C6.8852 5.6 7.44025 6.22678 7.44025 7Z" fill="white"/>
<path d="M11.1578 7C11.1578 7.7732 10.6027 8.4 9.91799 8.4C9.23326 8.4 8.67821 7.7732 8.67821 7C8.67821 6.22678 9.23326 5.6 9.91799 5.6C10.6027 5.6 11.1578 6.22678 11.1578 7Z" fill="white"/>
</svg>
