<svg width="20" height="20" viewBox="0 0 20 20" fill="none" xmlns="http://www.w3.org/2000/svg">
<path d="M10 1.87494C5.51992 1.87494 1.875 5.51986 1.875 9.99994C1.875 14.48 5.51992 18.1249 10 18.1249C14.4801 18.1249 18.125 14.48 18.125 9.99994C18.125 5.51986 14.4801 1.87494 10 1.87494ZM12.9418 12.0581C13.0023 12.1156 13.0506 12.1846 13.084 12.261C13.1174 12.3375 13.1352 12.4198 13.1363 12.5033C13.1373 12.5867 13.1217 12.6695 13.0903 12.7467C13.0588 12.824 13.0122 12.8942 12.9533 12.9532C12.8943 13.0122 12.8241 13.0588 12.7468 13.0902C12.6695 13.1216 12.5867 13.1373 12.5033 13.1362C12.4199 13.1351 12.3375 13.1174 12.2611 13.084C12.1846 13.0506 12.1157 13.0022 12.0582 12.9417L10 10.8839L7.9418 12.9417C7.82363 13.054 7.66629 13.1157 7.50331 13.1136C7.34034 13.1115 7.18462 13.0458 7.06937 12.9306C6.95412 12.8153 6.88845 12.6596 6.88637 12.4966C6.88428 12.3336 6.94594 12.1763 7.0582 12.0581L9.11601 9.99994L7.0582 7.94174C6.94594 7.82357 6.88428 7.66623 6.88637 7.50325C6.88845 7.34028 6.95412 7.18456 7.06937 7.06931C7.18462 6.95406 7.34034 6.88839 7.50331 6.8863C7.66629 6.88422 7.82363 6.94588 7.9418 7.05814L10 9.11595L12.0582 7.05814C12.1764 6.94588 12.3337 6.88422 12.4967 6.8863C12.6597 6.88839 12.8154 6.95406 12.9306 7.06931C13.0459 7.18456 13.1115 7.34028 13.1136 7.50325C13.1157 7.66623 13.0541 7.82357 12.9418 7.94174L10.884 9.99994L12.9418 12.0581Z" fill="#2D3748"/>
</svg>
