<svg width="16" height="16" viewBox="0 0 16 16" fill="none" xmlns="http://www.w3.org/2000/svg">
<path d="M14.3554 3.96337C14.3655 4.1373 14.3655 4.31127 14.3655 4.48521C14.3655 9.7904 11.066 15.9032 5.03555 15.9032C3.17767 15.9032 1.45179 15.2447 0 14.1017C0.26397 14.139 0.517752 14.1514 0.791878 14.1514C2.32485 14.1514 3.73605 13.5178 4.86296 12.4368C3.42133 12.3995 2.2132 11.2441 1.79694 9.65375C2.00001 9.691 2.20304 9.71586 2.41626 9.71586C2.71067 9.71586 3.00511 9.66614 3.2792 9.57922C1.77666 9.20645 0.649721 7.5913 0.649721 5.64067V5.59099C1.08625 5.88918 1.59391 6.07554 2.13195 6.10036C1.24869 5.37973 0.670034 4.14973 0.670034 2.75819C0.670034 2.01274 0.832441 1.3294 1.11672 0.733021C2.73095 3.1682 5.15736 4.7585 7.87816 4.93247C7.82741 4.63428 7.79694 4.3237 7.79694 4.01308C7.79694 1.80152 9.25888 0 11.0761 0C12.0203 0 12.8731 0.48455 13.4721 1.26729C14.2132 1.09335 14.9238 0.757879 15.5533 0.298188C15.3096 1.23004 14.7919 2.01278 14.1117 2.50972C14.7716 2.42279 15.4112 2.1991 16 1.88852C15.5534 2.68365 14.995 3.39181 14.3554 3.96337Z" fill="#3EA1EC"/>
</svg>
