<svg width="24" height="24" viewBox="0 0 24 24" fill="none" xmlns="http://www.w3.org/2000/svg">
<path d="M21.0519 18.7081L13.063 3.87222C12.4968 2.82034 10.9883 2.82034 10.4216 3.87222L2.43317 18.7081C2.31022 18.9365 2.24858 19.1928 2.25427 19.4521C2.25995 19.7114 2.33276 19.9648 2.4656 20.1875C2.59843 20.4103 2.78675 20.5948 3.01217 20.723C3.2376 20.8513 3.49242 20.9189 3.75176 20.9192H19.731C19.9905 20.9193 20.2456 20.852 20.4714 20.7239C20.6971 20.5958 20.8858 20.4113 21.0189 20.1885C21.152 19.9657 21.225 19.7122 21.2308 19.4527C21.2366 19.1932 21.175 18.9367 21.0519 18.7081ZM11.7425 18.6224C11.5571 18.6224 11.3759 18.5674 11.2217 18.4644C11.0675 18.3614 10.9474 18.2149 10.8764 18.0436C10.8054 17.8723 10.7869 17.6838 10.8231 17.502C10.8592 17.3201 10.9485 17.1531 11.0796 17.022C11.2107 16.8908 11.3778 16.8016 11.5596 16.7654C11.7415 16.7292 11.93 16.7478 12.1013 16.8187C12.2726 16.8897 12.419 17.0098 12.522 17.164C12.6251 17.3182 12.68 17.4994 12.68 17.6849C12.68 17.808 12.6558 17.9299 12.6087 18.0436C12.5616 18.1574 12.4925 18.2607 12.4055 18.3478C12.3184 18.4348 12.215 18.5039 12.1013 18.551C11.9876 18.5981 11.8657 18.6224 11.7425 18.6224ZM12.7607 9.19347L12.4916 14.9122C12.4916 15.1111 12.4126 15.3019 12.2719 15.4425C12.1313 15.5832 11.9405 15.6622 11.7416 15.6622C11.5427 15.6622 11.3519 15.5832 11.2113 15.4425C11.0706 15.3019 10.9916 15.1111 10.9916 14.9122L10.7225 9.19581C10.7165 9.05921 10.738 8.92279 10.7858 8.79469C10.8336 8.66658 10.9067 8.54941 11.0008 8.45016C11.0948 8.35091 11.2079 8.2716 11.3332 8.21698C11.4586 8.16236 11.5936 8.13353 11.7304 8.13222H11.7402C11.8779 8.13215 12.0141 8.15996 12.1407 8.214C12.2673 8.26803 12.3817 8.34715 12.4769 8.44659C12.5721 8.54603 12.6461 8.66373 12.6946 8.79258C12.743 8.92142 12.7649 9.05875 12.7588 9.19628L12.7607 9.19347Z" fill="white"/>
</svg>
