<svg width="530" height="171" viewBox="0 0 530 171" fill="none" xmlns="http://www.w3.org/2000/svg">
<path d="M529.235 0.644338C521.232 10.1469 512.73 24.1507 501.527 42.9557C500.827 44.056 500.227 45.1563 499.527 46.2566C486.723 66.4621 471.819 78.1652 461.116 78.1652C449.813 78.1652 443.912 69.5629 434.209 57.9598C431.208 54.3588 428.007 50.2577 424.706 46.3566C417.304 37.6543 408.802 29.4521 397.999 27.1515C382.395 23.8506 374.193 31.1526 349.886 43.7559C347.986 44.7562 346.085 45.6565 344.285 46.3566C322.979 55.159 307.075 48.5572 283.869 46.3566C281.968 46.1566 280.068 46.1566 278.167 46.3566C255.361 48.3572 236.056 74.1641 227.953 85.9673C226.453 88.0679 225.053 90.0684 223.752 91.9689C216.851 101.371 210.949 107.573 206.648 111.574C203.147 114.775 189.743 127.278 178.44 137.581C172.939 142.583 167.937 147.184 164.737 149.884C155.134 158.187 142.53 163.588 128.927 164.488C115.223 165.389 104.62 156.286 86.8155 146.384C69.1108 136.481 49.0053 143.483 36.5019 149.784C23.9986 156.086 0.49232 169.39 0.49232 169.39" stroke="#1E293B" stroke-width="2" stroke-miterlimit="10"/>
</svg>
