<svg width="18" height="18" viewBox="0 0 18 18" fill="none" xmlns="http://www.w3.org/2000/svg">
<g clip-path="url(#clip0_0_592)">
<path d="M9.00021 0L3.92795 0.591828L0.000976562 6.40916L9.00021 17.9738L17.9995 6.40916L14.0726 0.591828L9.00021 0Z" fill="#FDB300"/>
<path d="M0.000976562 6.4093L9.00021 17.9738L3.64609 6.4093H0.000976562ZM14.3543 6.4093L9.00021 17.9738L17.9994 6.4093H14.3543Z" fill="#EB6C00"/>
<path d="M3.64551 6.4093L8.99963 17.9738L14.3538 6.4093H3.64551Z" fill="#FDAD00"/>
<path d="M3.92737 0.591828L3.64551 6.40916L8.99963 0L3.92737 0.591828ZM14.3537 6.40924L14.0719 0.591828L8.99963 7.75862e-05L14.3537 6.40924Z" fill="#FDD231"/>
<path d="M14.3543 6.40921H17.9994L14.0725 0.591797L14.3543 6.40921ZM0.000976562 6.40921H3.64609L3.92795 0.591797L0.000976562 6.40921Z" fill="#FDAD00"/>
<path d="M8.99963 0L3.64551 6.40916H14.3538L8.99963 0Z" fill="#FEEEB7"/>
</g>
<defs>
<clipPath id="clip0_0_592">
<rect width="18" height="18" fill="white"/>
</clipPath>
</defs>
</svg>
