<svg width="36" height="36" viewBox="0 0 36 36" fill="none" xmlns="http://www.w3.org/2000/svg">
<path d="M25.0157 29.428H10.9687C8.83892 29.428 7.11719 27.6621 7.11719 25.4777V11.6282C7.11719 9.44386 8.83892 7.67798 10.9687 7.67798H25.0157C27.1455 7.67798 28.8672 9.44386 28.8672 11.6282V25.4777C28.8672 27.6621 27.1455 29.428 25.0157 29.428Z" fill="#FF26BE"/>
<path d="M24.4088 28.5993H11.1796C9.38489 28.5993 7.92188 27.1003 7.92188 25.2615V12.2587C7.92188 10.4198 9.38489 8.92078 11.1796 8.92078H24.4002C26.2044 8.92078 27.658 10.4198 27.658 12.2587V25.2526C27.6666 27.1003 26.2035 28.5993 24.4088 28.5993Z" fill="#2E001F"/>
<path d="M15.7551 17.8352L18.3324 22.9283C18.3784 23.0037 18.351 23.08 18.2768 23.08H16.6749C16.5733 23.08 16.5273 23.0519 16.4814 22.9573C15.892 21.7077 15.2939 20.458 14.6771 19.1139H14.6586C14.1063 20.3826 13.4984 21.7177 12.91 22.9673C12.864 23.0428 12.8181 23.0719 12.7439 23.0719H11.2268C11.1349 23.0719 11.1252 22.9964 11.172 22.9392L13.6937 17.9969L11.2551 12.9983C11.1994 12.9229 11.2551 12.8657 11.3099 12.8657H12.8932C12.9851 12.8657 13.0222 12.8847 13.0584 12.9702C13.6381 14.2198 14.2274 15.5076 14.7796 16.7664H14.7982C15.3319 15.5167 15.9212 14.2198 16.492 12.9793C16.5379 12.9038 16.5653 12.8566 16.6581 12.8566H18.1398C18.2132 12.8566 18.2414 12.9138 18.1955 12.9893L15.7551 17.8352ZM18.7839 19.3784C18.7839 17.1726 20.2109 15.4495 22.4746 15.4495C22.6681 15.4495 22.7688 15.4495 22.9535 15.4686V12.9602C22.9535 12.9029 22.9994 12.8657 23.0454 12.8657H24.4997C24.5731 12.8657 24.5916 12.8938 24.5916 12.9411V21.6323C24.5916 21.8876 24.5916 22.2094 24.6376 22.5602C24.6376 22.6174 24.619 22.6356 24.5642 22.6647C23.7911 23.0437 22.9809 23.2137 22.2078 23.2137C20.21 23.2218 18.7831 21.954 18.7839 19.3784ZM22.9526 16.9554C22.8236 16.8981 22.6398 16.8609 22.4189 16.8609C21.2588 16.8609 20.4495 17.7788 20.4495 19.3038C20.4495 21.0461 21.2783 21.7468 22.3182 21.7468C22.5391 21.7468 22.7786 21.7186 22.9535 21.6423V16.9554H22.9526Z" fill="#FFD9F2"/>
</svg>
