<svg width="505" height="82" viewBox="0 0 505 82" fill="none" xmlns="http://www.w3.org/2000/svg">
<line x1="0.5" y1="-0.5" x2="81.5" y2="-0.5" transform="matrix(1.58818e-06 -1 1 -3.9028e-08 1 82)" stroke="#E2E8F0" stroke-linecap="round" stroke-linejoin="round" stroke-dasharray="3.5 3.5"/>
<line x1="0.5" y1="-0.5" x2="81.5" y2="-0.5" transform="matrix(1.58818e-06 -1 1 -3.9028e-08 64 82)" stroke="#E2E8F0" stroke-linecap="round" stroke-linejoin="round" stroke-dasharray="3.5 3.5"/>
<line x1="0.5" y1="-0.5" x2="81.5" y2="-0.5" transform="matrix(1.58818e-06 -1 1 -3.9028e-08 127 82)" stroke="#E2E8F0" stroke-linecap="round" stroke-linejoin="round" stroke-dasharray="3.5 3.5"/>
<line x1="0.5" y1="-0.5" x2="81.5" y2="-0.5" transform="matrix(1.58818e-06 -1 1 -3.9028e-08 190 82)" stroke="#E2E8F0" stroke-linecap="round" stroke-linejoin="round" stroke-dasharray="3.5 3.5"/>
<line x1="0.5" y1="-0.5" x2="81.5" y2="-0.5" transform="matrix(1.58818e-06 -1 1 -3.9028e-08 253 82)" stroke="#E2E8F0" stroke-linecap="round" stroke-linejoin="round" stroke-dasharray="3.5 3.5"/>
<line x1="0.5" y1="-0.5" x2="81.5" y2="-0.5" transform="matrix(1.58818e-06 -1 1 -3.9028e-08 316 82)" stroke="#E2E8F0" stroke-linecap="round" stroke-linejoin="round" stroke-dasharray="3.5 3.5"/>
<line x1="0.5" y1="-0.5" x2="81.5" y2="-0.5" transform="matrix(1.58818e-06 -1 1 -3.9028e-08 379 82)" stroke="#E2E8F0" stroke-linecap="round" stroke-linejoin="round" stroke-dasharray="3.5 3.5"/>
<line x1="0.5" y1="-0.5" x2="81.5" y2="-0.5" transform="matrix(1.58818e-06 -1 1 -3.9028e-08 442 82)" stroke="#E2E8F0" stroke-linecap="round" stroke-linejoin="round" stroke-dasharray="3.5 3.5"/>
<line x1="0.5" y1="-0.5" x2="81.5" y2="-0.5" transform="matrix(1.58818e-06 -1 1 -3.9028e-08 505 82)" stroke="#E2E8F0" stroke-linecap="round" stroke-linejoin="round" stroke-dasharray="3.5 3.5"/>
</svg>
