<svg width="25" height="25" viewBox="0 0 25 25" fill="none" xmlns="http://www.w3.org/2000/svg">
<path d="M16.2422 3.15295C15.292 2.12708 13.9649 1.56213 12.5 1.56213C11.0274 1.56213 9.69585 2.12366 8.75005 3.14319C7.79399 4.17395 7.32817 5.57483 7.43755 7.08752C7.65434 10.0719 9.92534 12.4996 12.5 12.4996C15.0748 12.4996 17.3418 10.0724 17.5621 7.0885C17.6729 5.58948 17.2041 4.19153 16.2422 3.15295Z" fill="#1A365D"/>
<path d="M21.094 23.436H3.90653C3.68156 23.439 3.45877 23.3917 3.25436 23.2977C3.04996 23.2037 2.86908 23.0653 2.72489 22.8926C2.40751 22.5132 2.27958 21.9951 2.3743 21.4712C2.78641 19.1851 4.07254 17.2646 6.09403 15.9165C7.88993 14.7197 10.1648 14.061 12.5003 14.061C14.8357 14.061 17.1106 14.7202 18.9065 15.9165C20.928 17.2642 22.2141 19.1846 22.6262 21.4707C22.721 21.9946 22.593 22.5127 22.2757 22.8921C22.1315 23.0649 21.9507 23.2034 21.7463 23.2975C21.5418 23.3916 21.319 23.4389 21.094 23.436Z" fill="#1A365D"/>
</svg>
