<svg width="11" height="12" viewBox="0 0 11 12" fill="none" xmlns="http://www.w3.org/2000/svg">
<path d="M3.16406 0.421875C3.28125 0.164062 3.53906 0 3.82031 0H6.65625C6.9375 0 7.19531 0.164062 7.3125 0.421875L7.5 0.75H9.75C10.1484 0.75 10.5 1.10156 10.5 1.5C10.5 1.92188 10.1484 2.25 9.75 2.25H0.75C0.328125 2.25 0 1.92188 0 1.5C0 1.10156 0.328125 0.75 0.75 0.75H3L3.16406 0.421875ZM9.23438 10.9453C9.21094 11.5547 8.71875 12 8.10938 12H2.36719C1.75781 12 1.26562 11.5547 1.24219 10.9453L0.726562 3H9.75L9.23438 10.9453Z" fill="#EA0606"/>
</svg>
