<svg width="32" height="32" viewBox="0 0 32 32" fill="none" xmlns="http://www.w3.org/2000/svg">
<g clip-path="url(#clip0_16_1802)">
<path d="M13.8666 20.8738H11.2744L12.8958 10.8485H15.4879L13.8666 20.8738Z" fill="#00579F"/>
<path d="M23.2638 11.0936C22.7525 10.8907 21.9415 10.6667 20.9387 10.6667C18.3788 10.6667 16.5762 12.0318 16.5651 13.9835C16.5438 15.4234 17.8558 16.2232 18.837 16.7033C19.8399 17.1939 20.1808 17.5141 20.1808 17.9514C20.1706 18.623 19.3704 18.9326 18.6241 18.9326C17.5891 18.9326 17.0346 18.773 16.1919 18.3993L15.8505 18.2392L15.4878 20.4896C16.0958 20.7666 17.2159 21.0124 18.3788 21.0232C21.0988 21.0232 22.8695 19.6792 22.8905 17.5994C22.9009 16.4582 22.2081 15.5837 20.7146 14.8691C19.808 14.4104 19.2527 14.1011 19.2527 13.6318C19.2634 13.2051 19.7224 12.7681 20.7458 12.7681C21.5885 12.7467 22.2077 12.9492 22.6768 13.1519L22.9112 13.2584L23.2638 11.0936Z" fill="#00579F"/>
<path d="M26.7088 17.3222C26.9223 16.7463 27.7438 14.5172 27.7438 14.5172C27.733 14.5386 27.9568 13.9306 28.0848 13.5574L28.266 14.4212C28.266 14.4212 28.7569 16.821 28.8635 17.3222C28.4583 17.3222 27.2208 17.3222 26.7088 17.3222ZM29.9086 10.8485H27.9035C27.2852 10.8485 26.8154 11.0297 26.5487 11.6803L22.6982 20.8737H25.4182C25.4182 20.8737 25.866 19.6363 25.9622 19.3698C26.2606 19.3698 28.9066 19.3698 29.2904 19.3698C29.3649 19.7218 29.5997 20.8737 29.5997 20.8737H31.9999L29.9086 10.8485Z" fill="#00579F"/>
<path d="M9.10945 10.8485L6.57081 17.6848L6.2934 16.2983C5.82405 14.6985 4.3521 12.9603 2.70947 12.0961L5.03478 20.8632H7.77598L11.8505 10.8485H9.10945Z" fill="#00579F"/>
<path d="M4.2133 10.8485H0.0426673L0 11.0511C3.25336 11.883 5.40799 13.8884 6.29323 16.2987L5.38659 11.6912C5.23732 11.0509 4.77861 10.8696 4.2133 10.8485Z" fill="#FAA61A"/>
</g>
<defs>
<clipPath id="clip0_16_1802">
<rect width="32" height="32" fill="white"/>
</clipPath>
</defs>
</svg>
