<svg width="33" height="34" viewBox="0 0 33 34" fill="none" xmlns="http://www.w3.org/2000/svg">
<path fill-rule="evenodd" clip-rule="evenodd" d="M12.0991 0C10.2749 0.00137918 8.79861 1.51572 8.79996 3.38176C8.79861 5.2478 10.2763 6.76214 12.1005 6.76352H15.4009V3.38314C15.4023 1.5171 13.9246 0.00275837 12.0991 0C12.1005 0 12.1005 0 12.0991 0V0ZM12.0991 9.01987H3.30049C1.47633 9.02125 -0.00134455 10.5356 3.68457e-06 12.4016C-0.00269279 14.2677 1.47498 15.782 3.29915 15.7848H12.0991C13.9233 15.7834 15.4009 14.269 15.3996 12.403C15.4009 10.5356 13.9233 9.02125 12.0991 9.01987Z" fill="#36C5F0"/>
<path fill-rule="evenodd" clip-rule="evenodd" d="M33 12.4016C33.0013 10.5356 31.5236 9.02125 29.6995 9.01987C27.8753 9.02125 26.3976 10.5356 26.399 12.4016V15.7848H29.6995C31.5236 15.7834 33.0013 14.269 33 12.4016ZM24.2 12.4016V3.38176C24.2013 1.5171 22.725 0.00275837 20.9008 0C19.0767 0.00137918 17.599 1.51572 17.6003 3.38176V12.4016C17.5976 14.2677 19.0753 15.782 20.8995 15.7848C22.7236 15.7834 24.2013 14.269 24.2 12.4016Z" fill="#2EB67D"/>
<path fill-rule="evenodd" clip-rule="evenodd" d="M20.8994 33.8245C22.7235 33.8231 24.2012 32.3088 24.1998 30.4428C24.2012 28.5767 22.7235 27.0624 20.8994 27.061H17.5989V30.4428C17.5975 32.3074 19.0752 33.8218 20.8994 33.8245ZM20.8994 24.8033H29.6993C31.5235 24.8019 33.0012 23.2875 32.9998 21.4215C33.0025 19.5555 31.5248 18.0411 29.7007 18.0384H20.9007C19.0765 18.0397 17.5989 19.5541 17.6002 21.4201C17.5989 23.2875 19.0752 24.8019 20.8994 24.8033Z" fill="#ECB22E"/>
<path fill-rule="evenodd" clip-rule="evenodd" d="M9.21875e-07 21.4214C-0.00134732 23.2875 1.47632 24.8018 3.30049 24.8032C5.12466 24.8018 6.60233 23.2875 6.60098 21.4214V18.0397H3.30049C1.47632 18.041 -0.00134732 19.5554 9.21875e-07 21.4214ZM8.79996 21.4214V30.4413C8.79726 32.3073 10.2749 33.8217 12.0991 33.8245C13.9233 33.8231 15.4009 32.3087 15.3996 30.4427V21.4242C15.4023 19.5581 13.9246 18.0438 12.1005 18.041C10.2749 18.041 8.79861 19.5554 8.79996 21.4214C8.79996 21.4228 8.79996 21.4214 8.79996 21.4214Z" fill="#E01E5A"/>
</svg>
