<svg width="208" height="48" viewBox="0 0 208 48" fill="none" xmlns="http://www.w3.org/2000/svg">
<path d="M72 24C72 19.5806 68.4194 16 64 16C59.5806 16 56 19.5806 56 24C56 27.9929 58.9255 31.3026 62.75 31.9032V26.3126H60.7177V24H62.75V22.2374C62.75 20.2326 63.9435 19.1252 65.7716 19.1252C66.6471 19.1252 67.5626 19.2813 67.5626 19.2813V21.249H66.5535C65.56 21.249 65.25 21.8658 65.25 22.4984V24H67.4687L67.1139 26.3126H65.25V31.9032C69.0745 31.3026 72 27.9929 72 24Z" fill="#CB0C9F"/>
<path d="M22.2419 25.5968C21.7968 25.5968 21.4387 25.2387 21.4387 24.8032C21.4387 24.3581 21.7968 24 22.2419 24C22.6806 24 23.0355 24.3581 23.0355 24.8032C23.0355 25.2419 22.6774 25.5968 22.2419 25.5968ZM32 24C32 28.4194 28.4194 32 24 32C19.5806 32 16 28.4194 16 24C16 19.5806 19.5806 16 24 16C28.4194 16 32 19.5806 32 24ZM27.7323 22.671C27.429 22.671 27.1613 22.7968 26.9645 22.9935C26.2419 22.4935 25.2677 22.171 24.1871 22.1355L24.7484 19.6097L26.5355 20.0129C26.5355 20.4516 26.8935 20.8065 27.329 20.8065C27.7742 20.8065 28.1323 20.4419 28.1323 20.0032C28.1323 19.5645 27.7742 19.2 27.329 19.2C27.0161 19.2 26.7484 19.3871 26.6161 19.6452L24.6419 19.2065C24.5452 19.1806 24.4452 19.2516 24.4194 19.3484L23.8032 22.1355C22.7323 22.1806 21.7677 22.5 21.0452 23C20.8484 22.7935 20.571 22.671 20.2677 22.671C19.1419 22.671 18.7742 24.1839 19.8032 24.6968C19.7677 24.8581 19.7484 25.0258 19.7484 25.1968C19.7484 26.8935 21.6581 28.2677 24.0065 28.2677C26.3645 28.2677 28.2742 26.8935 28.2742 25.1968C28.2742 25.0258 28.2548 24.8484 28.2129 24.6871C29.2226 24.171 28.8516 22.671 27.7323 22.671ZM25.5097 26.4194C24.9226 27.0065 23.0548 26.9968 22.4903 26.4194C22.4194 26.3484 22.2935 26.3484 22.2226 26.4194C22.1419 26.5 22.1419 26.6258 22.2226 26.6968C22.9581 27.4323 25.0387 27.4323 25.7774 26.6968C25.8581 26.6258 25.8581 26.5 25.7774 26.4194C25.7065 26.3484 25.5806 26.3484 25.5097 26.4194ZM25.7581 24C25.3194 24 24.9645 24.3581 24.9645 24.8032C24.9645 25.2419 25.3226 25.5968 25.7581 25.5968C26.2032 25.5968 26.5613 25.2387 26.5613 24.8032C26.5613 24.3581 26.2065 24 25.7581 24Z" fill="#EA4E3D"/>
<path d="M110.355 20.2386C110.366 20.3807 110.366 20.5229 110.366 20.665C110.366 25 107.066 29.995 101.036 29.995C99.1777 29.995 97.4518 29.4569 96 28.5229C96.264 28.5533 96.5178 28.5635 96.7919 28.5635C98.3249 28.5635 99.736 28.0457 100.863 27.1625C99.4213 27.132 98.2132 26.1878 97.7969 24.8883C98 24.9188 98.203 24.9391 98.4163 24.9391C98.7107 24.9391 99.0051 24.8985 99.2792 24.8274C97.7767 24.5228 96.6497 23.2031 96.6497 21.6091V21.5685C97.0863 21.8122 97.5939 21.9645 98.1319 21.9848C97.2487 21.3959 96.67 20.3909 96.67 19.2538C96.67 18.6447 96.8324 18.0863 97.1167 17.599C98.7309 19.5888 101.157 20.8883 103.878 21.0305C103.827 20.7868 103.797 20.533 103.797 20.2792C103.797 18.4721 105.259 17 107.076 17C108.02 17 108.873 17.3959 109.472 18.0355C110.213 17.8934 110.924 17.6193 111.553 17.2437C111.31 18.0051 110.792 18.6447 110.112 19.0508C110.772 18.9797 111.411 18.7969 112 18.5432C111.553 19.1929 110.995 19.7715 110.355 20.2386Z" fill="#17C1E8"/>
<path d="M191.666 19.7602C191.482 19.0674 190.939 18.5217 190.251 18.3365C189.003 18 184 18 184 18C184 18 178.997 18 177.749 18.3365C177.061 18.5217 176.518 19.0674 176.334 19.7602C176 21.0161 176 23.6364 176 23.6364C176 23.6364 176 26.2566 176.334 27.5125C176.518 28.2053 177.061 28.7283 177.749 28.9135C178.997 29.25 184 29.25 184 29.25C184 29.25 189.003 29.25 190.251 28.9135C190.939 28.7283 191.482 28.2053 191.666 27.5125C192 26.2566 192 23.6364 192 23.6364C192 23.6364 192 21.0161 191.666 19.7602ZM182.364 26.0154V21.2574L186.545 23.6364L182.364 26.0154Z" fill="#EA4E3D"/>
<path d="M139.361 26.1107C139.361 27.0357 138.606 27.7914 137.681 27.7914C136.756 27.7914 136 27.0357 136 26.1107C136 25.1857 136.756 24.43 137.681 24.43H139.361V26.1107ZM140.209 26.1107C140.209 25.1857 140.964 24.43 141.889 24.43C142.814 24.43 143.57 25.1857 143.57 26.1107V30.3193C143.57 31.2443 142.814 32 141.889 32C140.964 32 140.209 31.2443 140.209 30.3193V26.1107ZM141.889 19.3614C140.964 19.3614 140.209 18.6057 140.209 17.6807C140.209 16.7557 140.964 16 141.889 16C142.814 16 143.57 16.7557 143.57 17.6807V19.3614H141.889ZM141.889 20.2086C142.814 20.2086 143.57 20.9643 143.57 21.8893C143.57 22.8143 142.814 23.57 141.889 23.57H137.681C136.756 23.57 136 22.8143 136 21.8893C136 20.9643 136.756 20.2086 137.681 20.2086H141.889ZM148.639 21.8893C148.639 20.9643 149.394 20.2086 150.319 20.2086C151.244 20.2086 152 20.9643 152 21.8893C152 22.8143 151.244 23.57 150.319 23.57H148.639V21.8893ZM147.791 21.8893C147.791 22.8143 147.036 23.57 146.111 23.57C145.186 23.57 144.43 22.8143 144.43 21.8893V17.6807C144.43 16.7557 145.186 16 146.111 16C147.036 16 147.791 16.7557 147.791 17.6807V21.8893ZM146.111 28.6386C147.036 28.6386 147.791 29.3943 147.791 30.3193C147.791 31.2443 147.036 32 146.111 32C145.186 32 144.43 31.2443 144.43 30.3193V28.6386H146.111ZM146.111 27.7914C145.186 27.7914 144.43 27.0357 144.43 26.1107C144.43 25.1857 145.186 24.43 146.111 24.43H150.319C151.244 24.43 152 25.1857 152 26.1107C152 27.0357 151.244 27.7914 150.319 27.7914H146.111Z" fill="#82D616"/>
<rect x="0.5" y="0.5" width="207" height="47" rx="4.5" stroke="#9747FF" stroke-dasharray="10 5"/>
</svg>
