<svg width="24" height="24" viewBox="0 0 24 24" fill="none" xmlns="http://www.w3.org/2000/svg">
<path d="M5.76655 4.44501C6.01234 3.95043 5.81065 3.35025 5.31607 3.10447C4.82149 2.85868 4.22131 3.06037 3.97552 3.55495L5.76655 4.44501ZM3.97552 20.445C4.22131 20.9396 4.82149 21.1413 5.31607 20.8955C5.81065 20.6497 6.01234 20.0495 5.76655 19.555L3.97552 20.445ZM18.1045 19.555C17.8588 20.0495 18.0604 20.6497 18.555 20.8955C19.0496 21.1413 19.6498 20.9396 19.8956 20.445L18.1045 19.555ZM19.8956 3.55495C19.6498 3.06037 19.0496 2.85868 18.555 3.10447C18.0604 3.35025 17.8588 3.95043 18.1045 4.44501L19.8956 3.55495ZM9 7.99998C8.44772 7.99998 8 8.4477 8 8.99998C8 9.55226 8.44772 9.99998 9 9.99998V7.99998ZM11.2072 9.72526L10.2457 9.99998L11.2072 9.72526ZM12.7928 15.2747L11.8313 15.5494L12.7928 15.2747ZM15 17C15.5523 17 16 16.5523 16 16C16 15.4477 15.5523 15 15 15V17ZM16 9.99998C16.5523 9.99998 17 9.55226 17 8.99998C17 8.4477 16.5523 7.99998 16 7.99998V9.99998ZM14.4014 9.69839L15.1606 10.3492L14.4014 9.69839ZM9.59864 15.3016L10.3579 15.9524L9.59864 15.3016ZM8 15C7.44772 15 7 15.4477 7 16C7 16.5523 7.44772 17 8 17V15ZM4 12C4 9.28413 4.63611 6.71974 5.76655 4.44501L3.97552 3.55495C2.71071 6.10005 2 8.96845 2 12H4ZM5.76655 19.555C4.63611 17.2802 4 14.7158 4 12H2C2 15.0315 2.71072 17.8999 3.97552 20.445L5.76655 19.555ZM19.8711 12C19.8711 14.7158 19.235 17.2802 18.1045 19.555L19.8956 20.445C21.1604 17.8999 21.8711 15.0315 21.8711 12H19.8711ZM18.1045 4.44501C19.235 6.71974 19.8711 9.28413 19.8711 12H21.8711C21.8711 8.96845 21.1604 6.10005 19.8956 3.55495L18.1045 4.44501ZM9 9.99998H10.2457V7.99998H9V9.99998ZM10.2457 9.99998L11.8313 15.5494L13.7543 15L12.1687 9.45053L10.2457 9.99998ZM13.7543 17H15V15H13.7543V17ZM11.8313 15.5494C12.0766 16.408 12.8613 17 13.7543 17V15L11.8313 15.5494ZM10.2457 9.99998L12.1687 9.45053C11.9234 8.59193 11.1387 7.99998 10.2457 7.99998V9.99998ZM16 7.99998H15.9199V9.99998H16V7.99998ZM13.6421 9.04761L8.83939 14.6508L10.3579 15.9524L15.1606 10.3492L13.6421 9.04761ZM8.08013 15H8V17H8.08013V15ZM8.83939 14.6508C8.64941 14.8724 8.37206 15 8.08013 15V17C8.9559 17 9.78795 16.6173 10.3579 15.9524L8.83939 14.6508ZM15.9199 7.99998C15.0441 7.99998 14.212 8.38267 13.6421 9.04761L15.1606 10.3492C15.3506 10.1276 15.6279 9.99998 15.9199 9.99998V7.99998Z" fill="#111827"/>
</svg>
