<svg width="14" height="14" viewBox="0 0 14 14" fill="none" xmlns="http://www.w3.org/2000/svg">
<path fill-rule="evenodd" clip-rule="evenodd" d="M6.99961 2.09998C7.38622 2.09998 7.69961 2.41338 7.69961 2.79998V6.29998H11.1996C11.5862 6.29998 11.8996 6.61338 11.8996 6.99998C11.8996 7.38659 11.5862 7.69998 11.1996 7.69998H7.69961V11.2C7.69961 11.5866 7.38622 11.9 6.99961 11.9C6.61301 11.9 6.29961 11.5866 6.29961 11.2V7.69998H2.79961C2.41301 7.69998 2.09961 7.38659 2.09961 6.99998C2.09961 6.61337 2.41301 6.29998 2.79961 6.29998H6.29961V2.79998C6.29961 2.41338 6.61301 2.09998 6.99961 2.09998Z" fill="#F8F9FA"/>
</svg>
