<svg width="9" height="9" viewBox="0 0 9 9" fill="none" xmlns="http://www.w3.org/2000/svg">
<path d="M4.4999 1.75002C5.02459 1.75002 5.4499 2.17536 5.4499 2.70002V4.10652L6.44439 5.10101C6.4444 5.10103 6.44442 5.10104 6.44443 5.10106C6.81545 5.47203 6.81546 6.07352 6.44448 6.44451L4.4999 1.75002ZM4.4999 1.75002C3.97523 1.75002 3.5499 2.17536 3.5499 2.70002M4.4999 1.75002L3.5499 2.70002M3.5499 2.70002V4.50002M3.5499 2.70002V4.50002M3.5499 4.50002C3.5499 4.75193 3.64997 4.9936 3.82815 5.17177M3.5499 4.50002L3.82815 5.17177M3.82815 5.17177C3.82816 5.17178 3.82817 5.17179 3.82818 5.1718M3.82815 5.17177L3.82818 5.1718M3.82818 5.1718L5.10089 6.44451M3.82818 5.1718L5.10089 6.44451M5.10089 6.44451C5.47186 6.81557 6.07338 6.8156 6.44439 6.4446L5.10089 6.44451ZM7.5999 4.50002C7.5999 6.21212 6.212 7.60002 4.4999 7.60002C2.78782 7.60002 1.3999 6.21212 1.3999 4.50002C1.3999 2.78794 2.78782 1.40002 4.4999 1.40002C6.21199 1.40002 7.5999 2.78794 7.5999 4.50002Z" fill="#F19937" stroke="#F19937"/>
</svg>
