<svg width="16" height="16" viewBox="0 0 16 16" fill="none" xmlns="http://www.w3.org/2000/svg">
<path d="M8.27976 10.7551L8.1364 10.7116L8.03047 10.8175L6.29801 12.55H4.80156H4.55156V12.8V14.15H1.85156V11.3036L5.184 7.97113L5.28992 7.8652L5.24647 7.72183C5.11977 7.30383 5.05156 6.86011 5.05156 6.40001C5.05156 3.88711 7.08867 1.85001 9.60156 1.85001C12.1145 1.85001 14.1516 3.88711 14.1516 6.40001C14.1516 8.91289 12.1145 10.95 9.60156 10.95C9.14144 10.95 8.69779 10.8818 8.27976 10.7551ZM9.60156 2.95001C9.02165 2.95001 8.55156 3.42011 8.55156 4.00001C8.55156 4.5799 9.02165 5.05001 9.60156 5.05001C10.3472 5.05001 10.9516 5.65442 10.9516 6.40001C10.9516 6.9799 11.4216 7.45001 12.0016 7.45001C12.5815 7.45001 13.0516 6.9799 13.0516 6.40001C13.0516 4.49462 11.5069 2.95001 9.60156 2.95001Z" fill="#252F40" stroke="#252F40" stroke-width="0.5"/>
</svg>
