<svg width="14" height="14" viewBox="0 0 14 14" fill="none" xmlns="http://www.w3.org/2000/svg">
<path d="M3.88867 3.11108H7.38867C7.64402 3.11108 7.89687 3.16138 8.13278 3.2591C8.36869 3.35681 8.58304 3.50004 8.7636 3.6806C8.94416 3.86116 9.08739 4.07551 9.1851 4.31142C9.28282 4.54733 9.33312 4.80018 9.33312 5.05553V5.05553C9.33312 5.31088 9.28282 5.56372 9.1851 5.79964C9.08739 6.03555 8.94416 6.2499 8.7636 6.43046C8.58304 6.61102 8.36869 6.75424 8.13278 6.85196C7.89687 6.94968 7.64402 6.99997 7.38867 6.99997H3.88867V3.11108Z" stroke="#8392AB" stroke-width="2"/>
<path d="M3.88867 7H8.16645C8.68215 7 9.17673 7.20486 9.54138 7.56951C9.90603 7.93417 10.1109 8.42875 10.1109 8.94444V8.94444C10.1109 9.46014 9.90603 9.95472 9.54138 10.3194C9.17673 10.684 8.68215 10.8889 8.16645 10.8889H3.88867V7Z" stroke="#8392AB" stroke-width="2"/>
</svg>
