<svg width="16" height="16" viewBox="0 0 16 16" fill="none" xmlns="http://www.w3.org/2000/svg">
<path d="M5.5 14C6.05228 14 6.5 13.5523 6.5 13C6.5 12.4477 6.05228 12 5.5 12C4.94772 12 4.5 12.4477 4.5 13C4.5 13.5523 4.94772 14 5.5 14Z" fill="#4299E1"/>
<path d="M12.5 14C13.0523 14 13.5 13.5523 13.5 13C13.5 12.4477 13.0523 12 12.5 12C11.9477 12 11.5 12.4477 11.5 13C11.5 13.5523 11.9477 14 12.5 14Z" fill="#4299E1"/>
<path d="M14.275 3.7745C14.2048 3.68857 14.1163 3.61937 14.0159 3.57191C13.9156 3.52445 13.806 3.49993 13.695 3.50012H4.18406L3.9925 2.41325C3.97207 2.29747 3.91151 2.1926 3.82144 2.11705C3.73137 2.0415 3.61756 2.0001 3.5 2.00012H1.5C1.36739 2.00012 1.24021 2.0528 1.14645 2.14657C1.05268 2.24034 1 2.36751 1 2.50012C1 2.63273 1.05268 2.75991 1.14645 2.85368C1.24021 2.94744 1.36739 3.00012 1.5 3.00012H3.08062L4.5075 11.087C4.52793 11.2028 4.58849 11.3076 4.67856 11.3832C4.76863 11.4587 4.88244 11.5001 5 11.5001H13C13.1326 11.5001 13.2598 11.4474 13.3536 11.3537C13.4473 11.2599 13.5 11.1327 13.5 11.0001C13.5 10.8675 13.4473 10.7403 13.3536 10.6466C13.2598 10.5528 13.1326 10.5001 13 10.5001H5.41937L5.24312 9.50012H12.795C12.9684 9.4999 13.1364 9.43978 13.2706 9.32993C13.4047 9.22008 13.4968 9.06725 13.5312 8.89731L14.4312 4.39731C14.4529 4.2884 14.4502 4.17604 14.4231 4.06834C14.3961 3.96063 14.3455 3.86027 14.275 3.7745Z" fill="#4299E1"/>
</svg>
