<svg width="7" height="8" viewBox="0 0 7 8" fill="none" xmlns="http://www.w3.org/2000/svg">
<path d="M6.74058 7.07761C6.9357 7.32594 6.91796 7.68071 6.66962 7.87583C6.56319 7.96452 6.43902 8 6.31486 8C6.13747 8 5.97783 7.94678 5.8714 7.80488L3.47672 4.91353L1.0643 7.78714C0.957871 7.92905 0.798226 8 0.638581 8C0.496674 8 0.372506 7.94678 0.266075 7.85809C0.0177384 7.66297 0 7.3082 0.195122 7.05987L2.73171 4.02661L0.195122 0.993348C0 0.745011 0.0177384 0.390244 0.266075 0.195122C0.514412 0 0.86918 0.0177384 1.0643 0.266075L3.47672 3.13969L5.8714 0.266075C6.06652 0.0177384 6.42129 0 6.66962 0.195122C6.91796 0.390244 6.9357 0.745011 6.74058 0.993348L4.20399 4.02661L6.74058 7.07761Z" fill="#EA0606"/>
</svg>
