<svg width="52" height="52" viewBox="0 0 52 52" fill="none" xmlns="http://www.w3.org/2000/svg">
<path d="M30.8751 39.0016V36.5641C30.8751 33.6188 34.0783 30.8329 36.1563 28.8453C39.0854 26.0453 40.625 22.2834 40.625 17.8766C40.625 9.7516 34.1525 3.2516 26.0001 3.2516C24.078 3.24624 22.1738 3.62086 20.397 4.35394C18.6202 5.08701 17.0058 6.16408 15.6467 7.5232C14.2875 8.88233 13.2105 10.4967 12.4774 12.2735C11.7443 14.0503 11.3697 15.9545 11.3751 17.8766C11.3751 22.126 12.9808 26.1428 15.8438 28.8453C17.9106 30.7964 21.1251 33.5883 21.1251 36.5641V39.0016" stroke="#A0AEC0" stroke-width="3" stroke-linecap="round" stroke-linejoin="round"/>
<path d="M22.75 48.7486H29.25" stroke="#A0AEC0" stroke-width="3" stroke-linecap="round" stroke-linejoin="round"/>
<path d="M21.125 43.8764H30.875" stroke="#A0AEC0" stroke-width="3" stroke-linecap="round" stroke-linejoin="round"/>
<path d="M26 39.0001V26.0001" stroke="#A0AEC0" stroke-width="3" stroke-linecap="round" stroke-linejoin="round"/>
<path d="M29.8594 24.3739C29.8594 24.3739 27.6748 25.9989 26 25.9989C24.3252 25.9989 22.1406 24.3739 22.1406 24.3739" stroke="#A0AEC0" stroke-width="3" stroke-linecap="round" stroke-linejoin="round"/>
</svg>
