<svg width="24" height="24" viewBox="0 0 24 24" fill="none" xmlns="http://www.w3.org/2000/svg">
<path d="M12.0996 3.92268L12.0996 3.92275L10.5807 8.59665C10.5807 8.59665 10.5807 8.59665 10.5807 8.59666C10.3464 9.31763 9.67452 9.80578 8.91641 9.8058C8.91641 9.8058 8.9164 9.8058 8.9164 9.8058L4.00191 9.80599C3.75976 9.806 3.65902 10.1159 3.85497 10.2583L7.83071 13.147C7.83073 13.147 7.83075 13.147 7.83076 13.1471C8.44411 13.5927 8.70068 14.3826 8.46646 15.1035L6.94797 19.7775C6.87312 20.0079 7.13679 20.1994 7.33265 20.057L7.33267 20.057L11.3087 17.1685L11.3087 17.1685C11.922 16.723 12.7525 16.723 13.3658 17.1685L13.3659 17.1685L17.3419 20.057L17.3419 20.057C17.5378 20.1993 17.8014 20.008 17.7266 19.7775L16.2081 15.1035L16.208 15.1035C15.974 14.3826 16.2304 13.5927 16.8438 13.1471L12.0996 3.92268ZM12.0996 3.92268C12.1744 3.69245 12.5002 3.69243 12.575 3.92269L12.575 3.92275L14.0939 8.59666L14.0939 8.59668C14.3282 9.31761 15 9.80578 15.7582 9.8058L20.6726 9.80599C20.9147 9.806 21.0156 10.1158 20.8196 10.2583C20.8196 10.2583 20.8196 10.2583 20.8196 10.2583L16.8439 13.147L12.0996 3.92268Z" stroke="#8392AB" stroke-width="1.5"/>
</svg>
