<svg width="16" height="16" viewBox="0 0 16 16" fill="none" xmlns="http://www.w3.org/2000/svg">
<path fill-rule="evenodd" clip-rule="evenodd" d="M7.99687 2.39999C8.20903 2.39999 8.41255 2.48428 8.56255 2.63431L10.9626 5.03431C11.275 5.34673 11.275 5.85326 10.9626 6.16568C10.6502 6.4781 10.1436 6.4781 9.83119 6.16568L7.99687 4.33136L6.16256 6.16568C5.85014 6.4781 5.34361 6.4781 5.03119 6.16568C4.71877 5.85326 4.71877 5.34673 5.03119 5.03431L7.43119 2.63431C7.58122 2.48428 7.7847 2.39999 7.99687 2.39999ZM5.03119 9.83431C5.34361 9.52191 5.85014 9.52191 6.16256 9.83431L7.99687 11.6686L9.83119 9.83431C10.1436 9.52191 10.6502 9.52191 10.9626 9.83431C11.275 10.1467 11.275 10.6533 10.9626 10.9657L8.56255 13.3657C8.25015 13.6781 7.74361 13.6781 7.43119 13.3657L5.03119 10.9657C4.71877 10.6533 4.71877 10.1467 5.03119 9.83431Z" fill="#8392AB"/>
</svg>
