<svg width="19" height="19" viewBox="0 0 19 19" fill="none" xmlns="http://www.w3.org/2000/svg">
<path d="M16.3619 5.05708C16.3843 5.04401 16.4029 5.02529 16.4158 5.0028C16.4287 4.9803 16.4355 4.95481 16.4355 4.92887C16.4355 4.90293 16.4287 4.87744 16.4158 4.85494C16.4029 4.83245 16.3843 4.81373 16.3619 4.80066L10.6938 1.50757C10.3311 1.29735 9.91934 1.18665 9.50015 1.18665C9.08096 1.18665 8.6692 1.29735 8.30653 1.50757L2.63955 4.80066C2.61715 4.81373 2.59856 4.83245 2.58564 4.85494C2.57272 4.87744 2.56592 4.90293 2.56592 4.92887C2.56592 4.95481 2.57272 4.9803 2.58564 5.0028C2.59856 5.02529 2.61715 5.04401 2.63955 5.05708L9.42612 9.04931C9.44894 9.06275 9.47495 9.06985 9.50145 9.06985C9.52794 9.06985 9.55395 9.06275 9.57678 9.04931L16.3619 5.05708Z" fill="white"/>
<path d="M2.00391 6.0664C1.98127 6.05333 1.95559 6.04647 1.92945 6.04651C1.90331 6.04655 1.87765 6.05349 1.85505 6.06664C1.83246 6.07978 1.81374 6.09865 1.80078 6.12135C1.78782 6.14405 1.78108 6.16977 1.78125 6.19591V12.6489C1.78181 12.9598 1.86377 13.2652 2.01898 13.5347C2.17419 13.8042 2.39724 14.0283 2.66594 14.1848L8.6836 17.793C8.70615 17.806 8.73173 17.8128 8.75778 17.8128C8.78382 17.8129 8.80941 17.806 8.83197 17.793C8.85453 17.78 8.87327 17.7613 8.88631 17.7387C8.89935 17.7162 8.90623 17.6906 8.90625 17.6646V10.1777C8.90623 10.1517 8.89935 10.1261 8.88633 10.1036C8.8733 10.0811 8.85458 10.0624 8.83203 10.0493L2.00391 6.0664Z" fill="white"/>
<path d="M10.0938 10.2038V17.6628C10.0938 17.6888 10.1007 17.7144 10.1137 17.737C10.1267 17.7595 10.1455 17.7782 10.168 17.7912C10.1906 17.8042 10.2162 17.8111 10.2422 17.8111C10.2683 17.8111 10.2939 17.8042 10.3164 17.7912L16.3337 14.1831C16.6022 14.0267 16.8251 13.8029 16.9804 13.5338C17.1357 13.2647 17.2178 12.9596 17.2187 12.649V6.19601C17.2187 6.17 17.2117 6.14447 17.1987 6.12198C17.1856 6.09948 17.1669 6.08082 17.1443 6.06785C17.1218 6.05489 17.0962 6.04807 17.0702 6.0481C17.0442 6.04812 17.0186 6.05498 16.9961 6.06798L10.168 10.0758C10.1455 10.0888 10.1268 10.1074 10.1138 10.1299C10.1007 10.1524 10.0938 10.1779 10.0938 10.2038Z" fill="white"/>
</svg>
