<svg width="16" height="16" viewBox="0 0 16 16" fill="none" xmlns="http://www.w3.org/2000/svg">
<g clip-path="url(#clip0_0_186)">
<path d="M13.3307 6.66667V5.33333C13.3307 3.91885 12.7688 2.56229 11.7686 1.5621C10.7684 0.561903 9.41188 0 7.9974 0C6.58291 0 5.22635 0.561903 4.22616 1.5621C3.22597 2.56229 2.66406 3.91885 2.66406 5.33333V6.66667C2.64769 7.07331 2.54766 7.47222 2.37021 7.83847C2.19276 8.20472 1.94171 8.53045 1.63273 8.79533C1.07753 9.26842 0.729785 9.94021 0.664062 10.6667C0.664063 12.3333 3.4054 13.3333 7.9974 13.3333C12.5894 13.3333 15.3307 12.3333 15.3307 10.6667C15.265 9.94021 14.9173 9.26842 14.3621 8.79533C14.0531 8.53045 13.802 8.20472 13.6246 7.83847C13.4471 7.47222 13.3471 7.07331 13.3307 6.66667Z" fill="#8392AB"/>
<path d="M6.09375 14.6C6.22081 15.0053 6.47395 15.3595 6.81629 15.611C7.15864 15.8624 7.57231 15.998 7.99708 15.998C8.42185 15.998 8.83553 15.8624 9.17787 15.611C9.52022 15.3595 9.77335 15.0053 9.90042 14.6C9.30442 14.644 8.67108 14.6667 7.99708 14.6667C7.32308 14.6667 6.68975 14.6453 6.09375 14.6Z" fill="#8392AB"/>
</g>
<defs>
<clipPath id="clip0_0_186">
<rect width="16" height="16" fill="white"/>
</clipPath>
</defs>
</svg>
