<svg width="18" height="18" viewBox="0 0 18 18" fill="none" xmlns="http://www.w3.org/2000/svg">
<path d="M5 4H9.5C9.8283 4 10.1534 4.06466 10.4567 4.1903C10.76 4.31594 11.0356 4.50009 11.2678 4.73223C11.4999 4.96438 11.6841 5.23998 11.8097 5.54329C11.9353 5.84661 12 6.1717 12 6.5V6.5C12 6.8283 11.9353 7.15339 11.8097 7.45671C11.6841 7.76002 11.4999 8.03562 11.2678 8.26777C11.0356 8.49991 10.76 8.68406 10.4567 8.8097C10.1534 8.93534 9.8283 9 9.5 9H5V4Z" stroke="#252F40" stroke-width="2"/>
<path d="M5 9H10.5C11.163 9 11.7989 9.26339 12.2678 9.73223C12.7366 10.2011 13 10.837 13 11.5V11.5C13 12.163 12.7366 12.7989 12.2678 13.2678C11.7989 13.7366 11.163 14 10.5 14H5V9Z" stroke="#252F40" stroke-width="2"/>
</svg>
