<svg width="18" height="18" viewBox="0 0 18 18" fill="none" xmlns="http://www.w3.org/2000/svg">
<path d="M16.99 10.539V6.75C16.99 3.0285 14.0078 0 10.3417 0H7.38693C3.7208 0 0.738693 3.0285 0.738693 6.75V10.539C0.273317 11.2898 0 12.1748 0 13.125C0 15.813 2.15403 18 4.80151 18C5.23734 18 5.67834 17.937 6.11047 17.8125L6.64824 17.6572V8.59275L6.11047 8.4375C5.67834 8.313 5.23734 8.25 4.80151 8.25C3.84933 8.25 2.96364 8.5365 2.21608 9.024V6.75C2.21608 3.855 4.53632 1.5 7.38693 1.5H10.3417C13.1923 1.5 15.5126 3.855 15.5126 6.75V9.024C14.765 8.5365 13.8793 8.25 12.9271 8.25C12.4913 8.25 12.0503 8.313 11.6182 8.4375L11.0804 8.59275V17.658L11.6182 17.8125C12.0503 17.937 12.4913 18 12.9271 18C15.5746 18 17.7286 15.813 17.7286 13.125C17.7286 12.1748 17.4553 11.2898 16.99 10.539Z" fill="white"/>
</svg>
