<svg width="20" height="20" viewBox="0 0 20 20" fill="none" xmlns="http://www.w3.org/2000/svg">
<path d="M17.4472 10.8944C17.786 10.725 18 10.3788 18 10C18 9.62124 17.786 9.27498 17.4472 9.10558L3.4472 2.10558C3.0925 1.92823 2.6665 1.97724 2.3614 2.2305C2.0562 2.48376 1.9295 2.89342 2.0385 3.27473L3.467 8.27472C3.5897 8.70402 3.9821 9 4.4286 9H9C9.5523 9 10 9.44772 10 10C10 10.5523 9.5523 11 9 11L4.4286 11C3.9821 11 3.5897 11.296 3.467 11.7253L2.0385 16.7253C1.9295 17.1066 2.0562 17.5163 2.3614 17.7695C2.6665 18.0228 3.0925 18.0718 3.4472 17.8944L17.4472 10.8944Z" fill="white"/>
</svg>
