<svg width="38" height="40" viewBox="0 0 38 40" fill="none" xmlns="http://www.w3.org/2000/svg">
<path d="M24.9418 24.9079L22.1504 22.1164C22.8225 21.2217 23.1853 20.1327 23.184 19.0138C23.184 16.1556 20.8587 13.8302 18.0005 13.8302C15.1423 13.8302 12.817 16.1556 12.817 19.0138C12.817 21.872 15.1423 24.1973 18.0005 24.1973C19.1195 24.1985 20.2085 23.8357 21.1031 23.1637L23.8946 25.9551C24.0359 26.0814 24.2202 26.1489 24.4096 26.1436C24.5991 26.1383 24.7793 26.0606 24.9133 25.9266C25.0474 25.7926 25.125 25.6124 25.1303 25.4229C25.1356 25.2335 25.0682 25.0492 24.9418 24.9079ZM14.298 19.0138C14.298 18.2815 14.5151 17.5656 14.922 16.9568C15.3288 16.3479 15.907 15.8733 16.5836 15.5931C17.2601 15.3128 18.0046 15.2395 18.7228 15.3824C19.441 15.5252 20.1008 15.8779 20.6186 16.3957C21.1364 16.9135 21.489 17.5732 21.6319 18.2914C21.7747 19.0097 21.7014 19.7541 21.4212 20.4307C21.1409 21.1072 20.6664 21.6855 20.0575 22.0923C19.4486 22.4991 18.7328 22.7163 18.0005 22.7163C17.0189 22.7151 16.0778 22.3247 15.3837 21.6306C14.6896 20.9364 14.2991 19.9954 14.298 19.0138Z" fill="#2D3748"/>
</svg>
