<svg width="705" height="261" viewBox="0 0 705 261" fill="none" xmlns="http://www.w3.org/2000/svg">
<line x1="0.5" y1="-0.5" x2="260.5" y2="-0.5" transform="matrix(1.58818e-06 -1 1 -3.9028e-08 1 261)" stroke="#E2E8F0" stroke-linecap="round" stroke-linejoin="round" stroke-dasharray="3.5 3.5"/>
<line x1="0.5" y1="-0.5" x2="260.5" y2="-0.5" transform="matrix(1.58818e-06 -1 1 -3.9028e-08 89 261)" stroke="#E2E8F0" stroke-linecap="round" stroke-linejoin="round" stroke-dasharray="3.5 3.5"/>
<line x1="0.5" y1="-0.5" x2="260.5" y2="-0.5" transform="matrix(1.58818e-06 -1 1 -3.9028e-08 177 261)" stroke="#E2E8F0" stroke-linecap="round" stroke-linejoin="round" stroke-dasharray="3.5 3.5"/>
<line x1="0.5" y1="-0.5" x2="260.5" y2="-0.5" transform="matrix(1.58818e-06 -1 1 -3.9028e-08 265 261)" stroke="#E2E8F0" stroke-linecap="round" stroke-linejoin="round" stroke-dasharray="3.5 3.5"/>
<line x1="0.5" y1="-0.5" x2="260.5" y2="-0.5" transform="matrix(1.58818e-06 -1 1 -3.9028e-08 353 261)" stroke="#E2E8F0" stroke-linecap="round" stroke-linejoin="round" stroke-dasharray="3.5 3.5"/>
<line x1="0.5" y1="-0.5" x2="260.5" y2="-0.5" transform="matrix(1.58818e-06 -1 1 -3.9028e-08 441 261)" stroke="#E2E8F0" stroke-linecap="round" stroke-linejoin="round" stroke-dasharray="3.5 3.5"/>
<line x1="0.5" y1="-0.5" x2="260.5" y2="-0.5" transform="matrix(1.58818e-06 -1 1 -3.9028e-08 529 261)" stroke="#E2E8F0" stroke-linecap="round" stroke-linejoin="round" stroke-dasharray="3.5 3.5"/>
<line x1="0.5" y1="-0.5" x2="260.5" y2="-0.5" transform="matrix(1.58818e-06 -1 1 -3.9028e-08 617 261)" stroke="#E2E8F0" stroke-linecap="round" stroke-linejoin="round" stroke-dasharray="3.5 3.5"/>
<line x1="0.5" y1="-0.5" x2="260.5" y2="-0.5" transform="matrix(1.58818e-06 -1 1 -3.9028e-08 705 261)" stroke="#E2E8F0" stroke-linecap="round" stroke-linejoin="round" stroke-dasharray="3.5 3.5"/>
</svg>
