<svg width="20" height="20" viewBox="0 0 20 20" fill="none" xmlns="http://www.w3.org/2000/svg">
<path d="M3.54167 0H16.4583C18.4167 0 20 1.58333 20 3.54167V15.9583C20 17.9167 18.4167 19.5 16.4583 19.5H3.54167C1.58333 19.5 0 17.9167 0 15.9583V3.54167C0 1.58333 1.58333 0 3.54167 0Z" fill="#470137"/>
<path d="M10.5173 5.125L8.01733 9.25L10.684 13.625C10.7007 13.6583 10.709 13.6917 10.7007 13.725C10.6923 13.7583 10.659 13.7333 10.609 13.7417H8.70067C8.56733 13.7417 8.47567 13.7333 8.41733 13.65C8.24233 13.3 8.059 12.9583 7.884 12.6083C7.709 12.2667 7.51733 11.9167 7.31733 11.5583C7.11733 11.2 6.91733 10.8417 6.71733 10.475H6.70067C6.52567 10.8333 6.334 11.1917 6.14233 11.55C5.95066 11.9083 5.759 12.2667 5.57567 12.6167C5.384 12.9667 5.19233 13.325 5.00067 13.6667C4.96733 13.75 4.90067 13.7583 4.809 13.7583H2.97567C2.94233 13.7583 2.91733 13.775 2.91733 13.7333C2.909 13.7 2.91733 13.6667 2.934 13.6417L5.52567 9.39167L3.00067 5.11667C2.97567 5.08333 2.96733 5.05 2.984 5.03333C3.00066 5.00833 3.034 5 3.06733 5H4.959C5.00067 5 5.04233 5.00833 5.07567 5.01667C5.109 5.03333 5.134 5.05833 5.159 5.09167C5.31733 5.45 5.50067 5.80833 5.69233 6.16667C5.89233 6.525 6.084 6.875 6.29233 7.225C6.49233 7.575 6.67566 7.925 6.85066 8.28333H6.86733C7.04233 7.91667 7.22567 7.55833 7.409 7.20833C7.59233 6.85833 7.784 6.50833 7.97567 6.15833C8.16733 5.80833 8.35067 5.45 8.534 5.10833C8.54233 5.075 8.559 5.04167 8.584 5.025C8.61733 5.00833 8.65067 5 8.69233 5.00833H10.4507C10.4923 5 10.534 5.025 10.5423 5.06667C10.5507 5.075 10.534 5.10833 10.5173 5.125Z" fill="#FF61F6"/>
<path d="M14.368 13.9166C13.7514 13.925 13.1347 13.8 12.5764 13.5416C12.0514 13.3 11.618 12.9 11.318 12.4083C11.0097 11.9 10.8597 11.2666 10.8597 10.5083C10.8514 9.89164 11.0097 9.28331 11.318 8.74998C11.6347 8.20831 12.093 7.75831 12.643 7.45831C13.2264 7.13331 13.9264 6.97498 14.7514 6.97498C14.793 6.97498 14.8514 6.97498 14.9264 6.98331C15.0014 6.99164 15.0847 6.99164 15.1847 6.99998V4.36664C15.1847 4.30831 15.2097 4.27498 15.268 4.27498H16.9597C17.0014 4.26664 17.0347 4.29998 17.043 4.33331C17.043 4.34164 17.043 4.34998 17.043 4.34998V12.2833C17.043 12.4333 17.0514 12.6 17.0597 12.7833C17.0764 12.9583 17.0847 13.125 17.093 13.2666C17.093 13.325 17.068 13.375 17.0097 13.4C16.5764 13.5833 16.118 13.7166 15.6514 13.8C15.2264 13.875 14.8014 13.9166 14.368 13.9166ZM15.1847 12.25V8.58331C15.1097 8.56664 15.0347 8.54998 14.9597 8.54164C14.868 8.53331 14.7764 8.52498 14.6847 8.52498C14.3597 8.52498 14.0347 8.59164 13.743 8.74164C13.4597 8.88331 13.218 9.09164 13.0347 9.35831C12.8514 9.62498 12.7597 9.98331 12.7597 10.4166C12.7514 10.7083 12.8014 11 12.9014 11.275C12.9847 11.5 13.1097 11.7 13.2764 11.8666C13.4347 12.0166 13.6264 12.1333 13.843 12.2C14.068 12.275 14.3014 12.3083 14.5347 12.3083C14.6597 12.3083 14.7764 12.3 14.8847 12.2916C14.993 12.3 15.0847 12.2833 15.1847 12.25Z" fill="#FF61F6"/>
</svg>
