<svg width="20" height="20" viewBox="0 0 20 20" fill="none" xmlns="http://www.w3.org/2000/svg">
<path d="M11 3C11 2.44772 10.5523 2 10 2C9.44771 2 9 2.44772 9 3V4C9 4.55228 9.44771 5 10 5C10.5523 5 11 4.55228 11 4V3Z" fill="#111827"/>
<path d="M15.6569 5.75728C16.0474 5.36675 16.0474 4.73359 15.6569 4.34306C15.2664 3.95254 14.6332 3.95254 14.2427 4.34306L13.5356 5.05017C13.1451 5.44069 13.1451 6.07386 13.5356 6.46438C13.9261 6.85491 14.5593 6.85491 14.9498 6.46438L15.6569 5.75728Z" fill="#111827"/>
<path d="M18 10C18 10.5523 17.5523 11 17 11H16C15.4477 11 15 10.5523 15 10C15 9.44771 15.4477 9 16 9H17C17.5523 9 18 9.44771 18 10Z" fill="#111827"/>
<path d="M5.05029 6.46444C5.44081 6.85497 6.07398 6.85497 6.4645 6.46444C6.85503 6.07392 6.85503 5.44075 6.4645 5.05023L5.7574 4.34312C5.36687 3.9526 4.73371 3.9526 4.34318 4.34312C3.95266 4.73364 3.95266 5.36681 4.34318 5.75733L5.05029 6.46444Z" fill="#111827"/>
<path d="M5 10C5 10.5523 4.55228 11 4 11H3C2.44772 11 2 10.5523 2 10C2 9.44771 2.44772 9 3 9H4C4.55228 9 5 9.44771 5 10Z" fill="#111827"/>
<path d="M8 16V15H12V16C12 17.1046 11.1046 18 10 18C8.89543 18 8 17.1046 8 16Z" fill="#111827"/>
<path d="M12.0009 14C12.0155 13.6597 12.2076 13.3537 12.4768 13.1411C13.4046 12.4086 14 11.2738 14 10C14 7.79086 12.2091 6 10 6C7.79086 6 6 7.79086 6 10C6 11.2738 6.59545 12.4086 7.52319 13.1411C7.79241 13.3537 7.98451 13.6597 7.99911 14H12.0009Z" fill="#111827"/>
</svg>
