<svg width="16" height="16" viewBox="0 0 16 16" fill="none" xmlns="http://www.w3.org/2000/svg">
<path d="M8.7998 13.6C8.7998 13.8773 8.9434 14.1347 9.17924 14.2806C9.41509 14.4263 9.70956 14.4395 9.95756 14.3155L13.1576 12.7155C13.4286 12.58 13.5998 12.3031 13.5998 12V7.38887C13.5998 7.1116 13.4562 6.85411 13.2204 6.70835C12.9845 6.56258 12.69 6.54933 12.442 6.67332L9.24204 8.27329C8.971 8.40881 8.7998 8.68585 8.7998 8.98889V13.6Z" fill="white"/>
<path d="M12.1687 5.02109C12.4397 4.88558 12.6109 4.60857 12.6109 4.30555C12.6109 4.00253 12.4397 3.72552 12.1687 3.59001L8.35758 1.68443C8.13238 1.57182 7.86726 1.57182 7.64205 1.68443L3.8309 3.59001C3.55987 3.72552 3.38867 4.00253 3.38867 4.30555C3.38867 4.60857 3.55987 4.88558 3.8309 5.02109L7.64205 6.92666C7.86726 7.03927 8.13238 7.03927 8.35758 6.92666L12.1687 5.02109Z" fill="white"/>
<path d="M3.55816 6.67332C3.31017 6.54933 3.01566 6.56258 2.77981 6.70835C2.54395 6.85411 2.40039 7.1116 2.40039 7.38887V12C2.40039 12.3031 2.57159 12.58 2.84262 12.7155L6.04262 14.3155C6.29061 14.4395 6.58512 14.4263 6.82097 14.2806C7.05683 14.1347 7.20039 13.8773 7.20039 13.6V8.98889C7.20039 8.68585 7.02919 8.40881 6.75816 8.27329L3.55816 6.67332Z" fill="#8392AB"/>
</svg>
