<svg width="815" height="210" viewBox="0 0 815 210" fill="none" xmlns="http://www.w3.org/2000/svg">
<path d="M0.109402 197.848C0.109402 197.848 21.2703 200.149 38.4443 203.75C55.465 207.351 84.2929 212.552 101.927 202.85C119.561 193.147 135.048 179.344 149.309 151.337C163.57 123.33 179.824 96.0235 203.745 88.7217C227.666 81.4199 244.226 100.024 265.234 112.628C286.241 125.131 297.128 128.131 305.562 123.73C314.149 119.329 330.25 112.427 344.51 85.2208C358.771 58.0142 378.552 1.00024 407.38 1.00024C436.208 1.00024 445.101 34.0083 458.288 57.0139C471.476 80.0196 486.81 106.926 509.197 110.027C531.585 113.028 543.699 94.4231 565.78 71.1174C587.861 47.8117 595.988 44.911 610.861 44.911C625.735 44.911 639.996 57.314 651.65 71.1174C663.304 84.9207 685.691 119.329 712.679 119.329C739.667 119.329 758.681 83.4204 766.041 71.1174C773.402 58.8144 805.603 6.30152 814.497 1.10024" stroke="#CB0C9F" stroke-width="2" stroke-miterlimit="10"/>
</svg>
