<svg width="24" height="24" viewBox="0 0 24 24" fill="none" xmlns="http://www.w3.org/2000/svg">
<path fill-rule="evenodd" clip-rule="evenodd" d="M11.9984 21.6C17.3004 21.6 21.5984 17.302 21.5984 12C21.5984 6.69806 17.3004 2.39999 11.9984 2.39999C6.6965 2.39999 2.39844 6.69806 2.39844 12C2.39844 17.302 6.6965 21.6 11.9984 21.6ZM8.39844 10.8C9.06117 10.8 9.59844 10.2627 9.59844 9.59999C9.59844 8.93726 9.06117 8.39999 8.39844 8.39999C7.7357 8.39999 7.19844 8.93726 7.19844 9.59999C7.19844 10.2627 7.7357 10.8 8.39844 10.8ZM16.7984 9.59999C16.7984 10.2627 16.2612 10.8 15.5984 10.8C14.9357 10.8 14.3984 10.2627 14.3984 9.59999C14.3984 8.93726 14.9357 8.39999 15.5984 8.39999C16.2612 8.39999 16.7984 8.93726 16.7984 9.59999ZM16.241 16.2425C16.7098 15.7739 16.7098 15.0142 16.241 14.5454C15.7724 14.0768 15.0126 14.0768 14.544 14.5454C13.1381 15.9514 10.8587 15.9514 9.45285 14.5454C8.98423 14.0768 8.22443 14.0768 7.7558 14.5454C7.28717 15.0142 7.28717 15.7739 7.7558 16.2425C10.0989 18.5857 13.8979 18.5857 16.241 16.2425Z" fill="white"/>
</svg>
