<svg width="17" height="17" viewBox="0 0 17 17" fill="none" xmlns="http://www.w3.org/2000/svg">
<path d="M4.21636 13.7882L4.21359 13.7866C4.0684 13.7044 3.95693 13.529 3.95693 13.3151V3.68651C3.95693 3.47176 4.06804 3.29749 4.21359 3.21501L4.21359 3.21502L4.21764 3.2127C4.27948 3.17716 4.34974 3.15888 4.42107 3.15978C4.49239 3.16067 4.56217 3.18071 4.6231 3.2178L4.62309 3.21782L4.62797 3.22074L12.8486 8.1415C12.9076 8.17967 12.9563 8.23183 12.9904 8.29339C13.0254 8.35668 13.0438 8.42782 13.0438 8.50016C13.0438 8.57249 13.0254 8.64364 12.9904 8.70693C12.9563 8.76849 12.9076 8.82066 12.8486 8.85882L4.6266 13.7809L4.62375 13.7826C4.56078 13.8207 4.48874 13.8411 4.41518 13.8418C4.34541 13.8413 4.27694 13.8229 4.21636 13.7882Z" fill="white" stroke="white" stroke-width="1.5"/>
</svg>
