<svg width="13" height="13" viewBox="0 0 13 13" fill="none" xmlns="http://www.w3.org/2000/svg">
<path d="M4.46875 11.375C4.91748 11.375 5.28125 11.0112 5.28125 10.5625C5.28125 10.1138 4.91748 9.75 4.46875 9.75C4.02002 9.75 3.65625 10.1138 3.65625 10.5625C3.65625 11.0112 4.02002 11.375 4.46875 11.375Z" fill="white"/>
<path d="M10.1562 11.375C10.605 11.375 10.9688 11.0112 10.9688 10.5625C10.9688 10.1138 10.605 9.75 10.1562 9.75C9.70752 9.75 9.34375 10.1138 9.34375 10.5625C9.34375 11.0112 9.70752 11.375 10.1562 11.375Z" fill="white"/>
<path d="M11.5984 3.06693C11.5414 2.99712 11.4695 2.94089 11.3879 2.90233C11.3064 2.86377 11.2174 2.84385 11.1272 2.844H3.39955L3.24391 1.96092C3.22731 1.86685 3.1781 1.78164 3.10492 1.72026C3.03174 1.65887 2.93927 1.62523 2.84375 1.62525H1.21875C1.11101 1.62525 1.00767 1.66806 0.931488 1.74424C0.855301 1.82043 0.8125 1.92376 0.8125 2.0315C0.8125 2.13925 0.855301 2.24258 0.931488 2.31877C1.00767 2.39495 1.11101 2.43775 1.21875 2.43775H2.50301L3.66234 9.00834C3.67894 9.1024 3.72815 9.18761 3.80133 9.249C3.87451 9.31038 3.96698 9.34402 4.0625 9.344H10.5625C10.6702 9.344 10.7736 9.3012 10.8498 9.22501C10.9259 9.14883 10.9687 9.0455 10.9687 8.93775C10.9687 8.83001 10.9259 8.72668 10.8498 8.65049C10.7736 8.5743 10.6702 8.5315 10.5625 8.5315H4.40324L4.26004 7.719H10.3959C10.5368 7.71882 10.6733 7.66997 10.7823 7.58072C10.8913 7.49147 10.9662 7.3673 10.9941 7.22922L11.7254 3.57297C11.743 3.48448 11.7408 3.39319 11.7188 3.30568C11.6968 3.21817 11.6557 3.13662 11.5984 3.06693Z" fill="white"/>
</svg>
