<svg width="14" height="14" viewBox="0 0 14 14" fill="none" xmlns="http://www.w3.org/2000/svg">
<path fill-rule="evenodd" clip-rule="evenodd" d="M3.4999 3.50002C3.4999 2.34023 4.44011 1.40002 5.5999 1.40002C6.13775 1.40002 6.62837 1.60222 6.9999 1.93475C7.37146 1.60222 7.86202 1.40002 8.3999 1.40002C9.55973 1.40002 10.4999 2.34023 10.4999 3.50002C10.4999 3.74547 10.4578 3.98108 10.3804 4.20002H11.1999C11.9731 4.20002 12.5999 4.82683 12.5999 5.60002C12.5999 6.37322 11.9731 7.00002 11.1999 7.00002H7.6999V6.30002C7.6999 5.91343 7.38651 5.60002 6.9999 5.60002C6.61331 5.60002 6.2999 5.91342 6.2999 6.30002V7.00002H2.7999C2.0267 7.00002 1.3999 6.37322 1.3999 5.60002C1.3999 4.82683 2.0267 4.20002 2.7999 4.20002H3.6194C3.54201 3.98108 3.4999 3.74547 3.4999 3.50002ZM6.2999 4.20002V3.50002C6.2999 3.11343 5.9865 2.80002 5.5999 2.80002C5.21331 2.80002 4.8999 3.11343 4.8999 3.50002C4.8999 3.88662 5.21331 4.20002 5.5999 4.20002H6.2999ZM8.3999 4.20002C8.78651 4.20002 9.0999 3.88662 9.0999 3.50002C9.0999 3.11343 8.78651 2.80002 8.3999 2.80002C8.01329 2.80002 7.6999 3.11343 7.6999 3.50002V4.20002H8.3999Z" fill="#F8F9FA"/>
<path d="M6.3001 7.70001H2.1001V11.2C2.1001 11.9732 2.7269 12.6 3.5001 12.6H6.3001V7.70001Z" fill="#F8F9FA"/>
<path d="M7.7002 12.6H10.5002C11.2734 12.6 11.9002 11.9732 11.9002 11.2V7.70001H7.7002V12.6Z" fill="#F8F9FA"/>
</svg>
