<svg width="18" height="18" viewBox="0 0 18 18" fill="none" xmlns="http://www.w3.org/2000/svg">
<path d="M3.5998 3.6001C2.60569 3.6001 1.7998 4.40598 1.7998 5.4001V9.0001C1.7998 9.99424 2.60569 10.8001 3.5998 10.8001V5.4001H12.5998C12.5998 4.40598 11.7939 3.6001 10.7998 3.6001H3.5998Z" fill="#EA4E3D"/>
<path fill-rule="evenodd" clip-rule="evenodd" d="M5.40039 8.99995C5.40039 8.00584 6.20628 7.19995 7.20039 7.19995H14.4004C15.3945 7.19995 16.2004 8.00584 16.2004 8.99995V12.6C16.2004 13.5941 15.3945 14.4 14.4004 14.4H7.20039C6.20628 14.4 5.40039 13.5941 5.40039 12.6V8.99995ZM10.8004 12.6C11.7945 12.6 12.6004 11.7941 12.6004 10.8C12.6004 9.80581 11.7945 8.99995 10.8004 8.99995C9.80625 8.99995 9.00039 9.80581 9.00039 10.8C9.00039 11.7941 9.80625 12.6 10.8004 12.6Z" fill="#EA0606"/>
</svg>
