<svg width="16" height="16" viewBox="0 0 16 16" fill="none" xmlns="http://www.w3.org/2000/svg">
<path d="M6.24194 9.53873C5.79677 9.53873 5.43871 9.18283 5.43871 8.74998C5.43871 8.30751 5.79677 7.95161 6.24194 7.95161C6.68064 7.95161 7.03548 8.30751 7.03548 8.74998C7.03548 9.18604 6.67742 9.53873 6.24194 9.53873ZM16 7.95161C16 12.3442 12.4194 15.9032 8 15.9032C3.58065 15.9032 0 12.3442 0 7.95161C0 3.55899 3.58065 0 8 0C12.4194 0 16 3.55899 16 7.95161ZM11.7323 6.63062C11.429 6.63062 11.1613 6.75566 10.9645 6.95125C10.2419 6.45427 9.26774 6.13364 8.1871 6.09837L8.74839 3.58784L10.5355 3.98863C10.5355 4.42469 10.8935 4.77738 11.329 4.77738C11.7742 4.77738 12.1323 4.41507 12.1323 3.97901C12.1323 3.54296 11.7742 3.18064 11.329 3.18064C11.0161 3.18064 10.7484 3.36661 10.6161 3.62311L8.64194 3.18706C8.54516 3.16141 8.44516 3.23195 8.41935 3.32813L7.80323 6.09837C6.73226 6.14326 5.76774 6.46069 5.04516 6.95766C4.84839 6.75246 4.57097 6.63062 4.26774 6.63062C3.14194 6.63062 2.77419 8.13437 3.80323 8.64417C3.76774 8.80449 3.74839 8.97122 3.74839 9.14115C3.74839 10.8277 5.65806 12.1935 8.00645 12.1935C10.3645 12.1935 12.2742 10.8277 12.2742 9.14115C12.2742 8.97122 12.2548 8.79487 12.2129 8.63455C13.2226 8.12155 12.8516 6.63062 11.7323 6.63062ZM9.50968 10.3563C8.92258 10.9399 7.05484 10.9303 6.49032 10.3563C6.41935 10.2858 6.29355 10.2858 6.22258 10.3563C6.14193 10.4365 6.14193 10.5615 6.22258 10.6321C6.95806 11.3631 9.03871 11.3631 9.77742 10.6321C9.85806 10.5615 9.85806 10.4365 9.77742 10.3563C9.70645 10.2858 9.58064 10.2858 9.50968 10.3563ZM9.75806 7.95161C9.31936 7.95161 8.96452 8.30751 8.96452 8.74998C8.96452 9.18604 9.32258 9.53873 9.75806 9.53873C10.2032 9.53873 10.5613 9.18283 10.5613 8.74998C10.5613 8.30751 10.2065 7.95161 9.75806 7.95161Z" fill="#E03D00"/>
</svg>
