<svg width="15" height="15" viewBox="0 0 15 15" fill="none" xmlns="http://www.w3.org/2000/svg">
<path d="M5.15625 13.125C5.67402 13.125 6.09375 12.7053 6.09375 12.1875C6.09375 11.6697 5.67402 11.25 5.15625 11.25C4.63848 11.25 4.21875 11.6697 4.21875 12.1875C4.21875 12.7053 4.63848 13.125 5.15625 13.125Z" fill="#344767"/>
<path d="M11.7188 13.125C12.2365 13.125 12.6562 12.7053 12.6562 12.1875C12.6562 11.6697 12.2365 11.25 11.7188 11.25C11.201 11.25 10.7812 11.6697 10.7812 12.1875C10.7812 12.7053 11.201 13.125 11.7188 13.125Z" fill="#344767"/>
<path d="M13.3828 3.5386C13.317 3.45805 13.234 3.39317 13.1399 3.34868C13.0459 3.30418 12.9431 3.28119 12.8391 3.28137H3.92256L3.74297 2.26243C3.72382 2.15389 3.66704 2.05557 3.5826 1.98474C3.49816 1.91391 3.39146 1.8751 3.28125 1.87512H1.40625C1.28193 1.87512 1.1627 1.92451 1.07479 2.01242C0.986886 2.10032 0.9375 2.21955 0.9375 2.34387C0.9375 2.46819 0.986886 2.58742 1.07479 2.67533C1.1627 2.76324 1.28193 2.81262 1.40625 2.81262H2.88809L4.22578 10.3941C4.24493 10.5026 4.30171 10.6009 4.38615 10.6718C4.47059 10.7426 4.57729 10.7814 4.6875 10.7814H12.1875C12.3118 10.7814 12.431 10.732 12.519 10.6441C12.6069 10.5562 12.6562 10.4369 12.6562 10.3126C12.6562 10.1883 12.6069 10.0691 12.519 9.98116C12.431 9.89326 12.3118 9.84387 12.1875 9.84387H5.08066L4.91543 8.90637H11.9953C12.1579 8.90616 12.3154 8.8498 12.4411 8.74682C12.5669 8.64383 12.6533 8.50056 12.6855 8.34123L13.5293 4.12248C13.5496 4.02039 13.547 3.91505 13.5217 3.81407C13.4964 3.7131 13.4489 3.61901 13.3828 3.5386Z" fill="#344767"/>
</svg>
