<svg width="24" height="24" viewBox="0 0 24 24" fill="none" xmlns="http://www.w3.org/2000/svg">
<path fill-rule="evenodd" clip-rule="evenodd" d="M11.9996 2.3999C9.34864 2.3999 7.19961 4.54893 7.19961 7.1999V8.3999H5.99961C5.38816 8.3999 4.87448 8.85967 4.80695 9.46739L3.60695 20.2674C3.56926 20.6067 3.67783 20.9459 3.90547 21.2002C4.13311 21.4546 4.45828 21.5999 4.79961 21.5999H19.1996C19.5409 21.5999 19.8661 21.4546 20.0937 21.2002C20.3214 20.9459 20.43 20.6067 20.3923 20.2674L19.1923 9.46739C19.1247 8.85967 18.6111 8.3999 17.9996 8.3999H16.7996V7.1999C16.7996 4.54893 14.6505 2.3999 11.9996 2.3999ZM14.3996 8.3999V7.1999C14.3996 5.87442 13.3251 4.7999 11.9996 4.7999C10.6741 4.7999 9.59961 5.87442 9.59961 7.1999V8.3999H14.3996ZM7.19961 11.9999C7.19961 11.3372 7.73687 10.7999 8.39961 10.7999C9.06235 10.7999 9.59961 11.3372 9.59961 11.9999C9.59961 12.6627 9.06235 13.1999 8.39961 13.1999C7.73687 13.1999 7.19961 12.6627 7.19961 11.9999ZM15.5996 10.7999C14.9368 10.7999 14.3996 11.3372 14.3996 11.9999C14.3996 12.6627 14.9368 13.1999 15.5996 13.1999C16.2624 13.1999 16.7996 12.6627 16.7996 11.9999C16.7996 11.3372 16.2624 10.7999 15.5996 10.7999Z" fill="white"/>
</svg>
