<svg width="15" height="15" viewBox="0 0 15 15" fill="none" xmlns="http://www.w3.org/2000/svg">
<path d="M7.5 1.64148C4.26914 1.64148 1.64062 4.26999 1.64062 7.50085C1.64062 10.7317 4.26914 13.3602 7.5 13.3602C10.7309 13.3602 13.3594 10.7317 13.3594 7.50085C13.3594 4.26999 10.7309 1.64148 7.5 1.64148ZM7.5 4.04382C7.65065 4.04382 7.79792 4.0885 7.92319 4.17219C8.04845 4.25589 8.14608 4.37486 8.20373 4.51404C8.26139 4.65323 8.27647 4.80639 8.24708 4.95414C8.21769 5.1019 8.14514 5.23763 8.03861 5.34416C7.93209 5.45069 7.79636 5.52323 7.6486 5.55262C7.50084 5.58201 7.34769 5.56693 7.2085 5.50928C7.06931 5.45162 6.95035 5.35399 6.86665 5.22873C6.78295 5.10346 6.73828 4.95619 6.73828 4.80554C6.73828 4.60352 6.81853 4.40977 6.96138 4.26692C7.10423 4.12407 7.29798 4.04382 7.5 4.04382ZM9.375 10.6649H5.85937V9.72741H7.14844V7.14929H6.21094V6.21179H8.08594V9.72741H9.375V10.6649Z" fill="#344767"/>
</svg>
