<svg width="200" height="200" viewBox="0 0 200 200" fill="none" xmlns="http://www.w3.org/2000/svg">
<path d="M137.186 192.789C125.697 197.415 113.121 200 99.9323 200C44.7316 200 0 155.238 0 100C0 80.2041 5.71042 61.8368 15.6357 46.3266L16.3835 45.1702C34.1266 18.1634 64.5821 0.272197 99.2525 0.0681152H99.9323V100.068L137.186 192.789Z" fill="#A8B8D8"/>
<path d="M176.816 36.1224L99.9297 100V0H100.609C126.306 0.136054 149.692 10.068 167.231 26.1225L167.639 26.4626C167.707 26.5306 167.707 26.5306 167.775 26.5986C167.843 26.5986 167.843 26.6666 167.843 26.6666L168.251 27.0068C171.31 29.8639 174.165 32.9251 176.816 36.1224Z" fill="#17C1E8"/>
<path d="M198.575 115.986L198.507 116.463C198.507 116.531 198.507 116.599 198.507 116.667C198.507 116.735 198.507 116.735 198.507 116.803L198.439 117.347C196.671 127.619 193.272 137.347 188.65 146.259L100.07 100L176.957 36.1225C191.369 53.4694 200.003 75.7143 200.003 100C199.867 105.442 199.459 110.748 198.575 115.986Z" fill="#CB0C9F"/>
<path d="M173.213 167.959L172.262 168.98C162.472 179.252 150.576 187.415 137.183 192.789L99.9297 100L188.509 146.258C184.43 154.15 179.264 161.497 173.213 167.959Z" fill="#252F40"/>
<path d="M99.9297 0V100M99.9297 100L176.816 36.1224M99.9297 100L188.577 146.258M99.9297 100L137.183 192.789" stroke="white" stroke-width="2" stroke-miterlimit="10"/>
</svg>
