<svg width="13" height="13" viewBox="0 0 13 13" fill="none" xmlns="http://www.w3.org/2000/svg">
<path d="M12.1275 0.97204C12.1229 0.949584 12.1119 0.928915 12.0959 0.912456C12.08 0.895996 12.0597 0.884429 12.0373 0.87911C10.5502 0.515517 7.11411 1.8112 5.25247 3.67208C4.92043 4.00143 4.61773 4.3591 4.3478 4.74102C3.77372 4.69024 3.19964 4.73264 2.71036 4.94592C1.32987 5.55352 0.92794 7.13891 0.815968 7.8209C0.809617 7.85823 0.812012 7.89653 0.822967 7.93277C0.833921 7.96902 0.853135 8.00223 0.879097 8.02979C0.90506 8.05735 0.937063 8.07851 0.97259 8.09161C1.00812 8.10471 1.0462 8.10939 1.08384 8.10528L3.30069 7.86077C3.30228 8.0279 3.31236 8.19485 3.33091 8.36096C3.34206 8.47632 3.39327 8.58412 3.47563 8.66565L4.33409 9.52207C4.4157 9.60433 4.52346 9.65552 4.63878 9.6668C4.80396 9.68528 4.96998 9.69536 5.13618 9.69702L4.89294 11.9111C4.88888 11.9487 4.8936 11.9868 4.90671 12.0223C4.91983 12.0578 4.94099 12.0897 4.96854 12.1157C4.99609 12.1416 5.02928 12.1609 5.0655 12.1718C5.10172 12.1828 5.13999 12.1852 5.17731 12.1789C5.85804 12.0698 7.44622 11.6678 8.05026 10.2873C8.26354 9.79807 8.30721 9.22678 8.25796 8.65549C8.6408 8.38555 8.99941 8.08276 9.32969 7.75057C11.1972 5.89249 12.4855 2.53305 12.1275 0.97204ZM7.46653 5.53397C7.29601 5.36356 7.17985 5.1464 7.13276 4.90996C7.08567 4.67353 7.10976 4.42844 7.20198 4.20569C7.2942 3.98295 7.45041 3.79256 7.65085 3.65861C7.85129 3.52465 8.08695 3.45315 8.32803 3.45315C8.56911 3.45315 8.80478 3.52465 9.00522 3.65861C9.20566 3.79256 9.36187 3.98295 9.45409 4.20569C9.54631 4.42844 9.5704 4.67353 9.52331 4.90996C9.47622 5.1464 9.36006 5.36356 9.18954 5.53397C9.07646 5.64721 8.94217 5.73704 8.79435 5.79834C8.64652 5.85963 8.48806 5.89118 8.32803 5.89118C8.16801 5.89118 8.00955 5.85963 7.86172 5.79834C7.7139 5.73704 7.57961 5.64721 7.46653 5.53397Z" fill="white"/>
<path d="M4.27578 10.1423C4.13664 10.2817 3.91346 10.336 3.64482 10.3825C3.04129 10.4853 2.50834 9.96379 2.61676 9.35365C2.65814 9.12234 2.78053 8.79811 2.8567 8.72193C2.87335 8.70561 2.88443 8.68445 2.88837 8.66146C2.89231 8.63848 2.88891 8.61484 2.87865 8.5939C2.86839 8.57296 2.85179 8.55578 2.83122 8.54481C2.81064 8.53384 2.78713 8.52963 2.76402 8.53277C2.42652 8.57407 2.11253 8.72709 1.87205 8.96746C1.27512 9.5649 1.21875 11.7818 1.21875 11.7818C1.21875 11.7818 3.43687 11.7254 4.03381 11.1279C4.27493 10.8877 4.42814 10.5732 4.46875 10.2352C4.47814 10.1291 4.34891 10.0659 4.27578 10.1423Z" fill="white"/>
</svg>
