<svg width="48" height="48" viewBox="0 0 48 48" fill="none" xmlns="http://www.w3.org/2000/svg">
<path d="M17.6211 0C14.9644 0.0019598 12.8143 2.15382 12.8163 4.80543C12.8143 7.45704 14.9664 9.6089 17.6231 9.61086H22.4299V4.80739C22.4319 2.15578 20.2798 0.0039196 17.6211 0C17.6231 0 17.6231 0 17.6211 0ZM17.6211 12.8171H4.80684C2.15012 12.819 -0.00195286 14.9709 5.35156e-06 17.6225C-0.00391643 20.2741 2.14816 22.426 4.80487 22.4299H17.6211C20.2778 22.4279 22.4299 20.2761 22.4279 17.6245C22.4299 14.9709 20.2778 12.819 17.6211 12.8171Z" fill="#36C5F0"/>
<path d="M47.9997 17.6225C48.0017 14.9709 45.8494 12.819 43.1925 12.8171C40.5355 12.819 38.3833 14.9709 38.3852 17.6225V22.4299H43.1925C45.8494 22.4279 48.0017 20.2761 47.9997 17.6225ZM35.1824 17.6225V4.80543C35.1843 2.15578 33.034 0.0039196 30.3771 0C27.7201 0.0019598 25.5679 2.15382 25.5698 4.80543V17.6225C25.5659 20.2741 27.7182 22.426 30.3751 22.4299C33.0321 22.4279 35.1843 20.2761 35.1824 17.6225Z" fill="#2EB67D"/>
<path d="M30.3767 48C33.0334 47.998 35.1854 45.8463 35.1835 43.195C35.1854 40.5436 33.0334 38.3919 30.3767 38.39H25.5698V43.195C25.5679 45.8444 27.7199 47.9961 30.3767 48ZM30.3767 35.182H43.1929C45.8496 35.1801 48.0017 33.0284 47.9997 30.377C48.0036 27.7257 45.8516 25.574 43.1949 25.5701H30.3786C27.7219 25.572 25.5698 27.7237 25.5718 30.3751C25.5698 33.0284 27.7199 35.1801 30.3767 35.182Z" fill="#ECB22E"/>
<path d="M1.3409e-06 30.3755C-0.00196106 33.0271 2.1503 35.179 4.80725 35.1809C7.4642 35.179 9.61646 33.0271 9.6145 30.3755V25.5701H4.80725C2.1503 25.572 -0.00196106 27.7239 1.3409e-06 30.3755ZM12.8174 30.3755V43.1926C12.8134 45.8442 14.9657 47.9961 17.6227 48C20.2796 47.998 22.4319 45.8462 22.4299 43.1945V30.3794C22.4338 27.7278 20.2816 25.5759 17.6246 25.572C14.9657 25.572 12.8154 27.7239 12.8174 30.3755C12.8174 30.3775 12.8174 30.3755 12.8174 30.3755Z" fill="#E01E5A"/>
</svg>
