<svg width="16" height="16" viewBox="0 0 16 16" fill="none" xmlns="http://www.w3.org/2000/svg">
<path fill-rule="evenodd" clip-rule="evenodd" d="M6.4001 3.19998C4.63279 3.19998 3.2001 4.63266 3.2001 6.39998C3.2001 8.16726 4.63279 9.59998 6.4001 9.59998C8.16738 9.59998 9.6001 8.16726 9.6001 6.39998C9.6001 4.63266 8.16738 3.19998 6.4001 3.19998ZM1.6001 6.39998C1.6001 3.74901 3.74913 1.59998 6.4001 1.59998C9.05106 1.59998 11.2001 3.74901 11.2001 6.39998C11.2001 7.43664 10.8715 8.39654 10.3127 9.18118L14.1658 13.0343C14.4782 13.3467 14.4782 13.8533 14.1658 14.1657C13.8534 14.4781 13.3468 14.4781 13.0344 14.1657L9.1813 10.3125C8.39666 10.8713 7.43676 11.2 6.4001 11.2C3.74913 11.2 1.6001 9.05094 1.6001 6.39998Z" fill="#8392AB"/>
</svg>
