<svg width="24" height="24" viewBox="0 0 24 24" fill="none" xmlns="http://www.w3.org/2000/svg">
<path d="M15.1017 5.50294C16.0389 4.56568 17.5584 4.56568 18.4958 5.50294C19.433 6.4402 19.433 7.95978 18.4958 8.89704L14.8958 12.497C13.9584 13.4344 12.4389 13.4344 11.5017 12.497C11.033 12.0284 10.2732 12.0284 9.8046 12.497C9.33597 12.9656 9.33597 13.7255 9.8046 14.1941C11.6791 16.0686 14.7183 16.0686 16.5928 14.1941L20.1928 10.5941C22.0673 8.71959 22.0673 5.68039 20.1928 3.80587C18.3183 1.93137 15.2792 1.93137 13.4047 3.80587L11.6046 5.60587C11.136 6.07451 11.136 6.8343 11.6046 7.30294C12.0733 7.77156 12.833 7.77156 13.3017 7.30294L15.1017 5.50294Z" fill="white"/>
<path d="M9.10138 11.5029C10.0386 10.5657 11.5582 10.5657 12.4955 11.5029C12.9641 11.9716 13.7239 11.9716 14.1925 11.5029C14.6612 11.0343 14.6612 10.2745 14.1925 9.80588C12.318 7.93137 9.27884 7.93137 7.40432 9.80588L3.80432 13.4059C1.92981 15.2804 1.92981 18.3196 3.80432 20.1941C5.67884 22.0686 8.71803 22.0686 10.5926 20.1941L12.3925 18.3941C12.8612 17.9255 12.8612 17.1656 12.3925 16.697C11.9239 16.2284 11.1641 16.2284 10.6955 16.697L8.89549 18.497C7.95823 19.4344 6.43864 19.4344 5.50138 18.497C4.56412 17.5598 4.56412 16.0402 5.50138 15.103L9.10138 11.5029Z" fill="white"/>
</svg>
