<svg width="24" height="24" viewBox="0 0 24 24" fill="none" xmlns="http://www.w3.org/2000/svg">
<path d="M13.5929 11.9992L18.046 7.54608C18.2574 7.33511 18.3762 7.04882 18.3765 6.7502C18.3768 6.45158 18.2584 6.16508 18.0474 5.95374C17.8364 5.74239 17.5502 5.62351 17.2515 5.62325C16.9529 5.62298 16.6664 5.74136 16.4551 5.95233L12.0019 10.4055L7.54883 5.95233C7.33748 5.74099 7.05084 5.62225 6.75195 5.62225C6.45307 5.62225 6.16642 5.74099 5.95508 5.95233C5.74373 6.16367 5.625 6.45032 5.625 6.7492C5.625 7.04809 5.74373 7.33473 5.95508 7.54608L10.4082 11.9992L5.95508 16.4523C5.74373 16.6637 5.625 16.9503 5.625 17.2492C5.625 17.5481 5.74373 17.8347 5.95508 18.0461C6.16642 18.2574 6.45307 18.3761 6.75195 18.3761C7.05084 18.3761 7.33748 18.2574 7.54883 18.0461L12.0019 13.593L16.4551 18.0461C16.6664 18.2574 16.9531 18.3761 17.2519 18.3761C17.5508 18.3761 17.8375 18.2574 18.0488 18.0461C18.2602 17.8347 18.3789 17.5481 18.3789 17.2492C18.3789 16.9503 18.2602 16.6637 18.0488 16.4523L13.5929 11.9992Z" fill="white"/>
</svg>
