<svg width="20" height="20" viewBox="0 0 20 20" fill="none" xmlns="http://www.w3.org/2000/svg">
<path fill-rule="evenodd" clip-rule="evenodd" d="M9.38268 3.07615C9.75636 3.23093 10 3.59557 10 4.00003V16C10 16.4045 9.75636 16.7691 9.38268 16.9239C9.00901 17.0787 8.57889 16.9931 8.29289 16.7071L4.58579 13H2C1.44772 13 1 12.5523 1 12V8.00003C1 7.44774 1.44772 7.00003 2 7.00003H4.58579L8.29289 3.29292C8.57889 3.00692 9.00901 2.92137 9.38268 3.07615Z" fill="#111827"/>
<path fill-rule="evenodd" clip-rule="evenodd" d="M14.6569 2.92888C15.0475 2.53836 15.6806 2.53836 16.0712 2.92888C17.8797 4.73743 19.0001 7.2388 19.0001 9.99995C19.0001 12.7611 17.8797 15.2625 16.0712 17.071C15.6806 17.4615 15.0475 17.4615 14.6569 17.071C14.2664 16.6805 14.2664 16.0473 14.6569 15.6568C16.1058 14.208 17.0001 12.2094 17.0001 9.99995C17.0001 7.79053 16.1058 5.7919 14.6569 4.34309C14.2664 3.95257 14.2664 3.3194 14.6569 2.92888ZM11.8285 5.75731C12.219 5.36678 12.8522 5.36678 13.2427 5.75731C13.7686 6.28319 14.1977 6.90687 14.5004 7.59958C14.8221 8.33592 15.0001 9.14847 15.0001 9.99995C15.0001 11.6565 14.3274 13.1579 13.2427 14.2426C12.8522 14.6331 12.219 14.6331 11.8285 14.2426C11.438 13.8521 11.438 13.2189 11.8285 12.8284C12.5535 12.1034 13.0001 11.1048 13.0001 9.99995C13.0001 9.42922 12.8812 8.8889 12.6677 8.40032C12.4664 7.93958 12.1803 7.52327 11.8285 7.17152C11.438 6.781 11.438 6.14783 11.8285 5.75731Z" fill="#111827"/>
</svg>
