<svg width="20" height="20" viewBox="0 0 20 20" fill="none" xmlns="http://www.w3.org/2000/svg">
<path fill-rule="evenodd" clip-rule="evenodd" d="M8.25682 3.09882C9.02142 1.73952 10.9785 1.73952 11.7431 3.09882L17.3234 13.0194C18.0734 14.3526 17.1099 15.9999 15.5803 15.9999H4.41966C2.89001 15.9999 1.92658 14.3526 2.67651 13.0194L8.25682 3.09882ZM10.9999 13C10.9999 13.5523 10.5522 14 9.99988 14C9.4476 14 8.99988 13.5523 8.99988 13C8.99988 12.4477 9.4476 12 9.99988 12C10.5522 12 10.9999 12.4477 10.9999 13ZM9.99988 5C9.4476 5 8.99988 5.44772 8.99988 6V9C8.99988 9.55228 9.4476 10 9.99988 10C10.5522 10 10.9999 9.55228 10.9999 9V6C10.9999 5.44772 10.5522 5 9.99988 5Z" fill="#111827"/>
</svg>
