<svg width="36" height="36" viewBox="0 0 36 36" fill="none" xmlns="http://www.w3.org/2000/svg">
<path fill-rule="evenodd" clip-rule="evenodd" d="M34.4366 18.6024C34.4366 17.4516 34.3314 16.3441 34.1358 15.282H18.5493V21.5616H27.4558C27.0722 23.5908 25.906 25.3098 24.1536 26.4613V30.5342H29.502C32.6316 27.7077 34.4366 23.5461 34.4366 18.6024Z" fill="#4285F4"/>
<path fill-rule="evenodd" clip-rule="evenodd" d="M18.5494 34.4674C23.0177 34.4674 26.7637 33.0139 29.5021 30.5342L24.1537 26.4613C22.672 27.4353 20.7758 28.0111 18.5494 28.0111C14.2389 28.0111 10.591 25.1557 9.28953 21.3181H3.76025V25.5244C6.48317 30.83 12.0798 34.4674 18.5494 34.4674Z" fill="#34A853"/>
<path fill-rule="evenodd" clip-rule="evenodd" d="M9.28939 21.3181C8.9584 20.3441 8.77047 19.3034 8.77047 18.2337C8.77047 17.1641 8.9584 16.1233 9.28939 15.1493V10.943H3.76011C2.63953 13.1345 2 15.6143 2 18.2337C2 20.8531 2.63953 23.3329 3.76011 25.5244L9.28939 21.3181Z" fill="#FBBC05"/>
<path fill-rule="evenodd" clip-rule="evenodd" d="M18.5494 8.45634C20.9792 8.45634 23.1608 9.27559 24.876 10.8838L29.6227 6.22764C26.756 3.60893 23.01 2 18.5494 2C12.0805 2 6.48317 5.63814 3.76025 10.943L9.28953 15.1493C10.591 11.3124 14.2396 8.45634 18.5494 8.45634Z" fill="#EA4335"/>
</svg>
