<svg width="94" height="60" viewBox="0 0 94 60" fill="none" xmlns="http://www.w3.org/2000/svg">
<g clip-path="url(#clip0_0_13)">
<g filter="url(#filter0_f_0_13)">
<path d="M50.924 11.875C50.924 11.875 47.927 16.287 45.5847 16.1417C42.6485 15.9543 42.147 12.1083 39.425 11.875C36.5772 11.9213 36.2865 15.9083 33.1999 16.1417C30.4343 16.088 29.2627 11.9477 26.6264 11.875C23.99 11.8023 21.18 16.1417 21.18 16.1417M47.5513 34.5417C47.5513 34.5417 43.0393 38.9537 39.5116 38.8083C35.0916 38.621 34.3331 34.775 30.2364 34.5417C25.9484 34.588 25.5094 38.575 20.8626 38.8083C16.6986 38.754 14.9343 34.614 10.9637 34.5417C6.99308 34.4693 2.76248 38.8083 2.76248 38.8083M73.3346 52.5417C73.3346 52.5417 68.8225 56.9537 65.2948 56.8083C60.8748 56.621 60.1164 52.775 56.0196 52.5417C51.7316 52.588 51.2927 56.575 46.6459 56.8083C42.4819 56.754 40.7176 52.614 36.7469 52.5417C32.7763 52.4693 28.5457 56.8083 28.5457 56.8083" stroke="#CED4DA" stroke-width="4" stroke-linecap="round"/>
<path d="M74.8301 6.9502C75.1613 6.1029 74.7972 5.12446 74.017 4.76481C73.2368 4.40515 72.3358 4.80047 72.0047 5.64777L70.4393 9.65263L69.0272 5.85702C68.7096 5.00357 67.8152 4.59125 67.0293 4.93607C66.2434 5.28088 65.8637 6.25227 66.1812 7.10572L67.5154 10.6917L64.1966 9.09393C63.4218 8.72087 62.5151 9.10061 62.1716 9.9421C61.8281 10.7836 62.1778 11.7682 62.9526 12.1412L69.1679 15.1335L70.8977 19.783L66.6268 19.1311L62.3688 12.9947C61.8587 12.2596 60.8964 12.1127 60.2195 12.6666C59.5425 13.2206 59.4073 14.2656 59.9174 15.0007L62.3282 18.4751L58.5958 17.9054C57.7564 17.7773 56.9804 18.4124 56.8624 19.3239C56.7445 20.2354 57.3293 21.0782 58.1686 21.2063L61.6954 21.7446L58.7617 24.067C58.0768 24.6093 57.9263 25.6518 58.4256 26.3956C58.9249 27.1394 59.8849 27.3029 60.5698 26.7606L66.0638 22.4113L70.6365 23.1092L67.9812 26.8L60.9585 27.7364C60.1172 27.8485 59.519 28.6801 59.6223 29.5937C59.7256 30.5073 60.4913 31.157 61.3326 31.0448L65.3087 30.5147L62.9881 33.7402C62.4663 34.4656 62.5847 35.513 63.2526 36.0797C63.9206 36.6464 64.885 36.5178 65.4069 35.7924L67.5995 32.7448L67.9847 36.6652C68.0746 37.5805 68.8307 38.2433 69.6735 38.1456C70.5164 38.048 71.1267 37.2268 71.0368 36.3115L70.3154 28.9697L72.9521 25.3048L74.8087 30.2952L72.2519 37.1366C71.9332 37.9895 72.3114 38.9615 73.0968 39.3077C73.8822 39.6538 74.7773 39.243 75.096 38.3901L76.4613 34.7371L77.543 37.6447C77.8606 38.4981 78.755 38.9105 79.5409 38.5656C80.3268 38.2208 80.7065 37.2494 80.389 36.396L79.2293 33.279L82.9168 34.9789C83.697 35.3385 84.598 34.9432 84.9292 34.0959C85.2604 33.2486 84.8964 32.2702 84.1161 31.9105L77.6032 28.9083L75.7352 23.8874L80.9751 24.6871L85.1522 30.5124C85.673 31.2387 86.6373 31.369 87.306 30.8034C87.9748 30.2379 88.0948 29.1907 87.574 28.4644L85.3435 25.3539L88.203 25.7903C89.0424 25.9184 89.8184 25.2833 89.9364 24.3718C90.0543 23.4603 89.4695 22.6175 88.6302 22.4894L85.565 22.0216L88.7644 19.4034C89.4413 18.8494 89.5765 17.8044 89.0664 17.0693C88.5563 16.3342 87.5941 16.1873 86.9171 16.7413L81.2664 21.3655L76.3284 20.6118L79.5859 16.0839L86.3199 15.0679C87.1594 14.9412 87.7454 14.0995 87.6288 13.1877C87.5122 12.276 86.737 11.6396 85.8975 11.7663L82.3019 12.3088L84.0798 9.83751C84.6016 9.11217 84.4832 8.06476 83.8153 7.49806C83.1474 6.93136 82.1829 7.05996 81.661 7.7853L79.7551 10.4345L79.2668 6.11634C79.1635 5.20273 78.3978 4.55305 77.5565 4.66524C76.7152 4.77743 76.117 5.609 76.2203 6.52262L77.0827 14.1491L73.8064 18.703L72.0654 14.0234L74.8301 6.9502Z" fill="#CED4DA"/>
<path d="M73.458 25C74.8989 25 76.067 23.7315 76.067 22.1667C76.067 20.6019 74.8989 19.3333 73.458 19.3333C72.017 19.3333 70.8489 20.6019 70.8489 22.1667C70.8489 23.7315 72.017 25 73.458 25Z" fill="white"/>
</g>
</g>
<defs>
<filter id="filter0_f_0_13" x="-0.237518" y="3.63189" width="91.189" height="56.18" filterUnits="userSpaceOnUse" color-interpolation-filters="sRGB">
<feFlood flood-opacity="0" result="BackgroundImageFix"/>
<feBlend mode="normal" in="SourceGraphic" in2="BackgroundImageFix" result="shape"/>
<feGaussianBlur stdDeviation="0.5" result="effect1_foregroundBlur_0_13"/>
</filter>
<clipPath id="clip0_0_13">
<rect width="93.9246" height="60" fill="white"/>
</clipPath>
</defs>
</svg>
