<svg width="96" height="31" viewBox="0 0 96 31" fill="none" xmlns="http://www.w3.org/2000/svg">
<g clip-path="url(#clip0_152_5900)">
<path d="M29.0828 0.0374527H1.56295C1.14843 0.0374527 0.750877 0.203633 0.457769 0.499413C0.16466 0.795193 7.62939e-06 1.19637 7.62939e-06 1.61466V14.8378C7.62939e-06 15.256 0.16466 15.6572 0.457769 15.953C0.750877 16.2488 1.14843 16.4149 1.56295 16.4149H7.21027V29.3853C7.21027 29.8036 7.37492 30.2048 7.66803 30.5006C7.96114 30.7964 8.35869 30.9625 8.77321 30.9625H21.8769C22.0819 30.9625 22.2849 30.9217 22.4743 30.8424C22.6637 30.7631 22.8357 30.6468 22.9805 30.5003C23.1253 30.3538 23.24 30.1799 23.3181 29.9886C23.3962 29.7972 23.436 29.5923 23.4355 29.3853V16.4149H29.0828C29.4973 16.4149 29.8949 16.2488 30.188 15.953C30.4811 15.6572 30.6457 15.256 30.6457 14.8378V1.61466C30.6457 1.19637 30.4811 0.795193 30.188 0.499413C29.8949 0.203633 29.4973 0.0374527 29.0828 0.0374527ZM1.81337 1.86734H14.4162V14.585H1.81337V1.86734ZM21.6264 29.1326H9.01931V16.4149H21.6264V29.1326ZM28.841 14.585H16.2295V1.86734H28.841V14.585Z" fill="#212529"/>
<path d="M10.3664 10.3327C10.451 10.4176 10.5514 10.4847 10.6618 10.5303C10.7722 10.5759 10.8904 10.5991 11.0097 10.5985C11.1283 10.5993 11.2459 10.5761 11.3556 10.5305C11.4654 10.4849 11.565 10.4176 11.6487 10.3327C11.7348 10.2476 11.8033 10.1459 11.85 10.0337C11.8967 9.92144 11.9208 9.80094 11.9208 9.67922C11.9208 9.55749 11.8967 9.43701 11.85 9.32479C11.8033 9.21258 11.7348 9.11087 11.6487 9.02568L8.75592 6.1066C8.6715 6.01966 8.57074 5.95057 8.45954 5.90341C8.34833 5.85626 8.22891 5.83199 8.10829 5.83199C7.98767 5.83199 7.86827 5.85626 7.75707 5.90341C7.64586 5.95057 7.54508 6.01966 7.46066 6.1066L4.56795 9.02568C4.39618 9.19901 4.29968 9.43409 4.29968 9.67922C4.29968 9.92434 4.39618 10.1594 4.56795 10.3327C4.73971 10.5061 4.97267 10.6035 5.21557 10.6035C5.45848 10.6035 5.69144 10.5061 5.8632 10.3327L8.11693 8.05847L10.3664 10.3327Z" fill="#212529"/>
<path d="M20.2794 10.3327L22.5331 8.05847L24.7869 10.3327C24.8713 10.4197 24.972 10.4888 25.0832 10.5359C25.1944 10.5831 25.3139 10.6074 25.4345 10.6074C25.5551 10.6074 25.6745 10.5831 25.7857 10.5359C25.8969 10.4888 25.9977 10.4197 26.0821 10.3327C26.1683 10.2476 26.2367 10.1459 26.2835 10.0337C26.3302 9.92144 26.3543 9.80094 26.3543 9.67922C26.3543 9.55749 26.3302 9.43701 26.2835 9.32479C26.2367 9.21258 26.1683 9.11087 26.0821 9.02568L23.1894 6.1066C23.105 6.01966 23.0042 5.95057 22.893 5.90341C22.7818 5.85626 22.6624 5.83199 22.5417 5.83199C22.4211 5.83199 22.3017 5.85626 22.1905 5.90341C22.0793 5.95057 21.9785 6.01966 21.8941 6.1066L19.0014 9.02568C18.8296 9.19901 18.7331 9.43409 18.7331 9.67922C18.7331 9.92434 18.8296 10.1594 19.0014 10.3327C19.1732 10.5061 19.4061 10.6035 19.649 10.6035C19.8919 10.6035 20.1249 10.5061 20.2967 10.3327H20.2794Z" fill="#212529"/>
<path d="M13.0691 20.6673C12.8974 20.4939 12.6644 20.3965 12.4215 20.3965C12.1786 20.3965 11.9456 20.4939 11.7739 20.6673C11.6021 20.8406 11.5056 21.0757 11.5056 21.3208C11.5056 21.5659 11.6021 21.801 11.7739 21.9743L14.6709 24.8934C14.755 24.9809 14.8557 25.0504 14.967 25.0979C15.0782 25.1454 15.1978 25.1699 15.3186 25.1699C15.4393 25.1699 15.5589 25.1454 15.6702 25.0979C15.7814 25.0504 15.8821 24.9809 15.9662 24.8934L18.8589 21.9743C19.0307 21.801 19.1272 21.5659 19.1272 21.3208C19.1272 21.0757 19.0307 20.8406 18.8589 20.6673C18.6872 20.4939 18.4542 20.3965 18.2113 20.3965C17.9684 20.3965 17.7354 20.4939 17.5637 20.6673L15.3229 22.9241L13.0691 20.6673Z" fill="#212529"/>
<path d="M38.8577 12.2367C38.0739 11.8154 37.4209 11.1837 36.9709 10.4112C36.5194 9.60898 36.282 8.7022 36.282 7.77962C36.282 6.85705 36.5194 5.9503 36.9709 5.14808C37.4266 4.37711 38.0819 3.746 38.8663 3.32256C39.6959 2.87542 40.6243 2.64759 41.5647 2.6603C42.3245 2.6544 43.0777 2.80256 43.7796 3.09599C44.299 3.31483 44.7735 3.62956 45.1785 4.024C45.2182 4.06225 45.2498 4.10822 45.2714 4.15915C45.293 4.21007 45.3041 4.26488 45.3041 4.32027C45.3041 4.37566 45.293 4.43047 45.2714 4.48139C45.2498 4.53231 45.2182 4.57829 45.1785 4.61653L44.5784 5.18728C44.5005 5.25363 44.4018 5.29003 44.2999 5.29003C44.1979 5.29003 44.0993 5.25363 44.0214 5.18728C43.3764 4.59519 42.5316 4.27414 41.6597 4.28977C41.027 4.27648 40.4013 4.42645 39.842 4.72545C39.3169 5.01529 38.8819 5.44672 38.5857 5.97154C38.2909 6.52623 38.1366 7.14585 38.1366 7.77526C38.1366 8.40468 38.2909 9.02433 38.5857 9.57901C38.8819 10.1038 39.3169 10.5352 39.842 10.8251C40.4005 11.1261 41.0267 11.2762 41.6597 11.2608C42.5328 11.2745 43.3779 10.9502 44.0214 10.3545C44.0967 10.2829 44.1963 10.2429 44.2999 10.2429C44.4034 10.2429 44.5031 10.2829 44.5784 10.3545L45.1828 10.934C45.2569 11.0146 45.298 11.1204 45.298 11.2303C45.298 11.3401 45.2569 11.446 45.1828 11.5265C44.7753 11.9221 44.2979 12.2368 43.7753 12.4545C43.0718 12.7476 42.3172 12.8958 41.5561 12.8902C40.6164 12.906 39.688 12.6812 38.8577 12.2367Z" fill="#212529"/>
<path d="M51.4173 5.49661V6.30698C51.4175 6.41815 51.3756 6.52518 51.3001 6.60617C51.2247 6.68717 51.1214 6.736 51.0115 6.74267C50.7171 6.72515 50.4223 6.76955 50.1458 6.87305C49.8693 6.97655 49.6172 7.1369 49.4054 7.34392C49.2002 7.58182 49.0435 7.85819 48.9442 8.15722C48.845 8.45624 48.8051 8.77207 48.8268 9.08667V12.3587C48.8205 12.466 48.7752 12.5671 48.6995 12.6427C48.6238 12.7183 48.523 12.763 48.4167 12.7682H47.4711C47.4178 12.7682 47.365 12.7576 47.3158 12.7371C47.2666 12.7165 47.2218 12.6863 47.1841 12.6483C47.1464 12.6102 47.1165 12.5651 47.0962 12.5154C47.0758 12.4657 47.0653 12.4125 47.0653 12.3587V5.57503C47.0653 5.52125 47.0758 5.46799 47.0962 5.4183C47.1165 5.36861 47.1464 5.32347 47.1841 5.28544C47.2218 5.24741 47.2666 5.21723 47.3158 5.19665C47.365 5.17607 47.4178 5.16549 47.4711 5.16549H48.3346C48.3879 5.16549 48.4407 5.17607 48.4899 5.19665C48.5392 5.21723 48.5839 5.24741 48.6216 5.28544C48.6593 5.32347 48.6892 5.36861 48.7096 5.4183C48.73 5.46799 48.7405 5.52125 48.7405 5.57503V6.27215C48.9936 5.90854 49.3297 5.61178 49.7205 5.40702C50.1113 5.20226 50.5452 5.09552 50.9856 5.09579C51.0403 5.09225 51.0951 5.09992 51.1468 5.11837C51.1985 5.13681 51.246 5.16563 51.2863 5.20309C51.3267 5.24055 51.3591 5.28587 51.3816 5.33631C51.4041 5.38676 51.4163 5.4413 51.4173 5.49661Z" fill="#212529"/>
<path d="M59.6724 9.52673H54.1503C54.2371 10.0614 54.5286 10.5402 54.962 10.8599C55.4367 11.1986 56.0088 11.3701 56.5897 11.3479C57.224 11.3644 57.845 11.1632 58.3513 10.7772C58.4338 10.7144 58.5369 10.6858 58.6396 10.6972C58.7423 10.7085 58.8368 10.7589 58.9039 10.8382L59.3357 11.3348C59.408 11.4111 59.4483 11.5125 59.4483 11.618C59.4483 11.7235 59.408 11.825 59.3357 11.9012C59.0387 12.1771 58.6931 12.3943 58.3167 12.5417C57.6827 12.7766 57.0086 12.8815 56.3339 12.85C55.6593 12.8186 54.9976 12.6516 54.3878 12.3587C53.7798 12.0475 53.2733 11.5666 52.9284 10.9732C52.5809 10.3611 52.4034 9.66573 52.4147 8.96035C52.4049 8.26095 52.5776 7.57125 52.9155 6.96053C53.2394 6.37655 53.7197 5.89641 54.3014 5.57505C54.9157 5.23832 55.6058 5.06724 56.3048 5.07836C56.9908 5.06793 57.6677 5.23758 58.2692 5.57069C58.8406 5.89013 59.3095 6.36786 59.6206 6.94747C59.9549 7.57954 60.1229 8.28759 60.1085 9.0039C60.1085 9.03876 60.1085 9.08235 60.1085 9.13027C60.1069 9.18561 60.0942 9.24003 60.0712 9.29028C60.0481 9.34052 60.0152 9.38554 59.9745 9.4226C59.9337 9.45966 59.8859 9.48799 59.834 9.50589C59.7821 9.52378 59.7271 9.53088 59.6724 9.52673ZM54.8454 7.00412C54.4513 7.34809 54.1988 7.82823 54.1374 8.35037H58.4031C58.348 7.83358 58.1031 7.35635 57.7166 7.01281C57.3182 6.66551 56.805 6.48201 56.2788 6.4987C55.7562 6.48645 55.2468 6.66605 54.8454 7.00412Z" fill="#212529"/>
<path d="M67.146 5.88003C67.7217 6.41737 68.0095 7.2263 68.0095 8.30681V12.3456C68.0096 12.4017 67.9984 12.4571 67.9764 12.5086C67.9544 12.5601 67.9221 12.6065 67.8817 12.6448C67.8412 12.6832 67.7933 12.7129 67.7411 12.7318C67.6888 12.7508 67.6332 12.7587 67.5778 12.7552H66.7143C66.661 12.7552 66.6082 12.7446 66.559 12.724C66.5097 12.7034 66.465 12.6733 66.4273 12.6352C66.3896 12.5972 66.3597 12.552 66.3393 12.5023C66.3189 12.4527 66.3085 12.3994 66.3085 12.3456V11.8315C66.0814 12.1718 65.76 12.437 65.3845 12.594C64.9265 12.7794 64.4358 12.8684 63.9424 12.8554C63.4337 12.8674 62.9284 12.7678 62.4615 12.5635C62.0644 12.3941 61.7241 12.1127 61.4814 11.7531C61.2515 11.4067 61.131 10.998 61.136 10.5811C61.1254 10.2667 61.1882 9.95413 61.3195 9.66878C61.4508 9.38343 61.6468 9.13329 61.8916 8.93856C62.3924 8.52466 63.1869 8.31986 64.2662 8.31986H66.2091V8.20658C66.2236 7.98026 66.189 7.75348 66.1077 7.54204C66.0265 7.3306 65.9005 7.13957 65.7385 6.9823C65.3401 6.66732 64.8403 6.51214 64.3353 6.54661C63.9117 6.54827 63.4908 6.61588 63.0876 6.74704C62.8498 6.82312 62.621 6.92541 62.4054 7.05203C62.3084 7.10386 62.1956 7.11647 62.0897 7.08734C61.9838 7.05821 61.8929 6.98951 61.8355 6.89519L61.5376 6.33749C61.4867 6.24579 61.4731 6.13774 61.4997 6.03612C61.5263 5.93451 61.591 5.84729 61.6801 5.79288C62.0255 5.58264 62.3972 5.42 62.7853 5.30928C63.3584 5.14602 63.9515 5.06535 64.5469 5.06966C65.4842 4.99335 66.4147 5.28347 67.146 5.88003ZM65.5399 11.2564C65.8745 11.0595 66.1309 10.7515 66.2653 10.385V9.51364H64.4476C63.433 9.51364 62.9278 9.84912 62.9278 10.5244C62.9231 10.674 62.9554 10.8225 63.0217 10.9563C63.088 11.0902 63.1864 11.2053 63.3078 11.2913C63.6214 11.4971 63.9921 11.5964 64.3656 11.5745C64.7785 11.579 65.1847 11.469 65.5399 11.2564Z" fill="#212529"/>
<path d="M74.8485 12.0319C74.8871 12.125 74.89 12.2293 74.8564 12.3244C74.8229 12.4195 74.7554 12.4985 74.6672 12.546C74.53 12.6223 74.3853 12.6836 74.2354 12.729C73.9302 12.8136 73.615 12.8561 73.2985 12.8554C72.5991 12.9014 71.91 12.6665 71.3815 12.2019C71.1445 11.9489 70.9618 11.6491 70.8452 11.3214C70.7285 10.9938 70.6803 10.6453 70.7037 10.2979V6.64249H69.8574C69.7429 6.64249 69.6331 6.59658 69.5522 6.51487C69.4712 6.43317 69.4257 6.32235 69.4257 6.2068V5.60991C69.4323 5.49895 69.4807 5.39473 69.561 5.3186C69.6412 5.24246 69.7473 5.20017 69.8574 5.20037H70.6864V3.89331C70.6864 3.77775 70.7319 3.66694 70.8129 3.58523C70.8938 3.50353 71.0036 3.45762 71.1181 3.45762H72.0637C72.1736 3.46429 72.2769 3.51312 72.3524 3.59412C72.4278 3.67511 72.4697 3.78214 72.4695 3.89331V5.20037H74.0757C74.1293 5.19979 74.1826 5.20996 74.2323 5.23028C74.282 5.25061 74.3273 5.28067 74.3654 5.31876C74.4036 5.35684 74.4339 5.40219 74.4545 5.45217C74.4752 5.50214 74.4858 5.55576 74.4858 5.60991V6.2068C74.4894 6.26311 74.4814 6.31956 74.4623 6.37261C74.4433 6.42565 74.4136 6.47415 74.375 6.51506C74.3365 6.55597 74.2901 6.58838 74.2385 6.61031C74.187 6.63224 74.1316 6.64321 74.0757 6.64249H72.4479V10.2543C72.4276 10.5601 72.5233 10.8623 72.7156 11.0996C72.817 11.2014 72.9388 11.2801 73.0729 11.3305C73.2069 11.3808 73.3501 11.4016 73.4928 11.3915C73.7109 11.3938 73.9275 11.3554 74.1318 11.2782C74.2315 11.2412 74.3416 11.2451 74.4384 11.2891C74.5353 11.3331 74.6112 11.4136 74.6499 11.5135L74.8485 12.0319Z" fill="#212529"/>
<path d="M76.9986 5.1655H77.9441C78.0518 5.1655 78.155 5.20865 78.2311 5.28545C78.3072 5.36226 78.35 5.46643 78.35 5.57504V12.3456C78.35 12.4542 78.3072 12.5584 78.2311 12.6352C78.155 12.712 78.0518 12.7552 77.9441 12.7552H76.9986C76.8922 12.75 76.7915 12.7053 76.7158 12.6297C76.64 12.5541 76.5947 12.4529 76.5885 12.3456V5.57504C76.5947 5.46775 76.64 5.36658 76.7158 5.29099C76.7915 5.21539 76.8922 5.17068 76.9986 5.1655Z" fill="#212529"/>
<path d="M87.6283 5.73624L84.7529 12.5068C84.7214 12.5809 84.669 12.644 84.6022 12.6882C84.5354 12.7324 84.4571 12.7557 84.3772 12.7552H83.082C83.0021 12.7557 82.9239 12.7324 82.857 12.6882C82.7902 12.644 82.7378 12.5809 82.7064 12.5068L79.8309 5.73624C79.8044 5.67375 79.7937 5.60559 79.7998 5.53789C79.8059 5.47019 79.8286 5.4051 79.8659 5.34847C79.9032 5.29184 79.9538 5.24546 80.0133 5.21352C80.0727 5.18158 80.1391 5.16507 80.2065 5.16549H81.1477C81.2282 5.16476 81.3071 5.18848 81.3741 5.23354C81.4411 5.2786 81.4931 5.34293 81.5234 5.4182L83.7555 10.7946L86.0611 5.41384C86.0922 5.34042 86.144 5.2778 86.2099 5.23367C86.2759 5.18955 86.3532 5.16584 86.4324 5.16549H87.2354C87.3042 5.16206 87.3728 5.17637 87.4346 5.20706C87.4964 5.23774 87.5494 5.2838 87.5888 5.34089C87.6281 5.39799 87.6523 5.46423 87.6592 5.5334C87.6662 5.60256 87.6555 5.67237 87.6283 5.73624Z" fill="#212529"/>
<path d="M95.5898 9.52674H90.072C90.1591 10.0602 90.4487 10.5384 90.8794 10.8599C91.3544 11.198 91.9263 11.3694 92.5071 11.3479C93.1428 11.365 93.7654 11.1638 94.273 10.7772C94.3548 10.7147 94.4572 10.6863 94.5592 10.6976C94.6611 10.7089 94.7549 10.7592 94.8213 10.8382L95.2531 11.3348C95.317 11.4163 95.35 11.5182 95.346 11.6221C95.342 11.7259 95.3014 11.8249 95.2315 11.9012C94.9338 12.1762 94.5884 12.3933 94.2125 12.5417C93.5785 12.7766 92.9044 12.8815 92.2298 12.85C91.5551 12.8186 90.8934 12.6516 90.2836 12.3587C89.6748 12.0487 89.168 11.5675 88.8243 10.9732C88.4753 10.3617 88.2977 9.66591 88.3105 8.96035C88.2986 8.26071 88.4715 7.57048 88.8113 6.96053C89.1352 6.37656 89.6155 5.89641 90.1972 5.57505C90.81 5.23831 91.4986 5.0672 92.1963 5.07836C92.8837 5.06737 93.5622 5.23704 94.165 5.57069C94.7354 5.89149 95.204 6.36888 95.5164 6.94748C95.8494 7.57988 96.0159 8.28796 96 9.00391V9.13027C95.9907 9.23524 95.944 9.33324 95.8686 9.40614C95.7932 9.47904 95.6941 9.52189 95.5898 9.52674ZM90.7672 7.00412C90.3734 7.34897 90.1197 7.82837 90.0548 8.35038H94.3248C94.2682 7.83308 94.0218 7.3559 93.634 7.01281C93.2363 6.66438 92.7226 6.48071 92.1963 6.49871C91.6746 6.4847 91.166 6.66457 90.7672 7.00412Z" fill="#212529"/>
<path d="M40.2047 19.8089H37.3465C37.2911 19.8125 37.2355 19.8046 37.1833 19.7856C37.131 19.7666 37.0831 19.737 37.0426 19.6986C37.0022 19.6602 36.97 19.6139 36.948 19.5624C36.926 19.5109 36.9147 19.4554 36.9148 19.3994V18.6587C36.9148 18.5432 36.9603 18.4323 37.0412 18.3506C37.1222 18.2689 37.232 18.2231 37.3465 18.2231H44.8979C45.0078 18.2297 45.1111 18.2786 45.1866 18.3596C45.262 18.4405 45.3039 18.5476 45.3037 18.6587V19.3994C45.3037 19.4532 45.2932 19.5064 45.2728 19.5561C45.2524 19.6058 45.2225 19.651 45.1848 19.689C45.1472 19.727 45.1024 19.7572 45.0532 19.7778C45.0039 19.7983 44.9512 19.8089 44.8979 19.8089H42.0353V27.7864C42.0355 27.8975 41.9936 28.0046 41.9182 28.0856C41.8427 28.1666 41.7395 28.2154 41.6295 28.222H40.6149C40.5042 28.2165 40.3998 28.1681 40.3234 28.087C40.2471 28.0059 40.2046 27.8982 40.2047 27.7864V19.8089Z" fill="#212529"/>
<path d="M63.1696 21.3513C63.7222 21.909 63.9986 22.7411 63.9986 23.8478V27.7689C63.9988 27.8801 63.9568 27.9871 63.8814 28.0681C63.8059 28.1491 63.7027 28.198 63.5927 28.2046H62.6472C62.5364 28.199 62.4321 28.1507 62.3557 28.0696C62.2794 27.9884 62.2369 27.8808 62.237 27.7689V24.0569C62.2786 23.5209 62.1251 22.988 61.8052 22.5581C61.6468 22.3854 61.4522 22.2504 61.2357 22.163C61.0191 22.0756 60.786 22.0379 60.5532 22.0527C60.2873 22.0413 60.0222 22.0884 59.7762 22.1907C59.5301 22.2931 59.3091 22.4481 59.1284 22.6453C58.7458 23.1174 58.5545 23.7183 58.593 24.327V27.7689C58.5932 27.8801 58.5513 27.9871 58.4759 28.0681C58.4004 28.1491 58.2971 28.198 58.1872 28.2046H57.2417C57.1309 28.199 57.0266 28.1507 56.9502 28.0696C56.8738 27.9884 56.8313 27.8808 56.8315 27.7689V24.0569C56.8731 23.5209 56.7196 22.988 56.3997 22.5581C56.2413 22.3854 56.0467 22.2504 55.8301 22.163C55.6136 22.0756 55.3804 22.0379 55.1476 22.0527C54.8811 22.0401 54.6151 22.0858 54.3677 22.1865C54.1203 22.2873 53.8974 22.4408 53.7142 22.6366C53.3345 23.1133 53.1465 23.7168 53.1875 24.327V27.7689C53.1877 27.8801 53.1458 27.9871 53.0703 28.0681C52.9949 28.1491 52.8916 28.198 52.7816 28.2046H51.8361C51.7216 28.2046 51.6118 28.1587 51.5308 28.077C51.4499 27.9953 51.4044 27.8845 51.4044 27.7689V21.0201C51.4044 20.9046 51.4499 20.7938 51.5308 20.7121C51.6118 20.6304 51.7216 20.5845 51.8361 20.5845H52.6996C52.8103 20.5901 52.9147 20.6384 52.991 20.7195C53.0674 20.8006 53.1099 20.9083 53.1098 21.0201V21.5735C53.3927 21.2307 53.7544 20.963 54.1633 20.7936C54.6107 20.6073 55.0911 20.5154 55.5751 20.5235C56.092 20.5129 56.6044 20.6217 57.0733 20.8415C57.5026 21.048 57.8628 21.3766 58.1095 21.787C58.4273 21.3829 58.8377 21.0629 59.3054 20.8546C59.8169 20.6285 60.3705 20.5156 60.9288 20.5235C61.3382 20.5035 61.7473 20.5665 62.1322 20.7086C62.517 20.8508 62.8698 21.0693 63.1696 21.3513Z" fill="#212529"/>
<path d="M78.35 2.74744C78.35 2.25657 77.9557 1.85864 77.4692 1.85864C76.9828 1.85864 76.5884 2.25657 76.5884 2.74744C76.5884 3.23832 76.9828 3.63625 77.4692 3.63625C77.9557 3.63625 78.35 3.23832 78.35 2.74744Z" fill="#212529"/>
<path d="M47.4711 20.6324H48.4167C48.523 20.6376 48.6238 20.6823 48.6995 20.7579C48.7752 20.8335 48.8205 20.9346 48.8268 21.0419V27.8125C48.8205 27.9198 48.7752 28.021 48.6995 28.0966C48.6238 28.1722 48.523 28.2169 48.4167 28.222H47.4711C47.4178 28.222 47.365 28.2115 47.3158 28.1909C47.2666 28.1703 47.2218 28.1401 47.1841 28.1021C47.1464 28.0641 47.1165 28.0189 47.0962 27.9692C47.0758 27.9195 47.0653 27.8663 47.0653 27.8125V21.0419C47.0653 20.9881 47.0758 20.9349 47.0962 20.8852C47.1165 20.8355 47.1464 20.7904 47.1841 20.7523C47.2218 20.7143 47.2666 20.6841 47.3158 20.6636C47.365 20.643 47.4178 20.6324 47.4711 20.6324Z" fill="#212529"/>
<path d="M48.8268 18.2143C48.8268 17.7235 48.4325 17.3255 47.946 17.3255C47.4596 17.3255 47.0653 17.7235 47.0653 18.2143C47.0653 18.7052 47.4596 19.1031 47.946 19.1031C48.4325 19.1031 48.8268 18.7052 48.8268 18.2143Z" fill="#212529"/>
</g>
<defs>
<clipPath id="clip0_152_5900">
<rect width="96" height="31" fill="white"/>
</clipPath>
</defs>
</svg>
