<svg width="17" height="17" viewBox="0 0 17 17" fill="none" xmlns="http://www.w3.org/2000/svg">
<path d="M12.7836 3.21133L12.7864 3.2129C12.9316 3.29517 13.0431 3.47054 13.0431 3.6844L13.0431 13.313C13.0431 13.5278 12.932 13.702 12.7864 13.7845L12.7864 13.7845L12.7824 13.7868C12.7205 13.8224 12.6503 13.8407 12.5789 13.8398C12.5076 13.8389 12.4378 13.8188 12.3769 13.7817L12.3769 13.7817L12.372 13.7788L4.15141 8.85803C4.09238 8.81986 4.04366 8.7677 4.0096 8.70614C3.97459 8.64285 3.95621 8.57171 3.95621 8.49937C3.95621 8.42704 3.97459 8.35589 4.0096 8.2926C4.04367 8.23104 4.0924 8.17887 4.15143 8.14071L12.3734 3.21861L12.3762 3.21689C12.4392 3.17882 12.5113 3.15838 12.5848 3.1577C12.6546 3.1582 12.7231 3.17666 12.7836 3.21133Z" fill="white" stroke="white" stroke-width="1.5"/>
</svg>
