<svg width="16" height="16" viewBox="0 0 16 16" fill="none" xmlns="http://www.w3.org/2000/svg">
<path fill-rule="evenodd" clip-rule="evenodd" d="M9.19292 2.53676C8.88972 1.28776 7.1134 1.28776 6.81018 2.53676C6.61431 3.3436 5.68992 3.72649 4.98089 3.29448C3.8833 2.6257 2.62726 3.88175 3.29603 4.97933C3.72805 5.68836 3.34515 6.61275 2.53831 6.80863C1.28931 7.11184 1.28931 8.88816 2.53831 9.19136C3.34515 9.38728 3.72805 10.3117 3.29603 11.0206C2.62726 12.1182 3.8833 13.3743 4.9809 12.7055C5.68992 12.2735 6.61431 12.6564 6.81018 13.4633C7.1134 14.7122 8.88972 14.7122 9.19292 13.4633C9.38884 12.6564 10.3132 12.2735 11.0222 12.7055C12.1198 13.3743 13.3759 12.1182 12.7071 11.0206C12.2751 10.3117 12.658 9.38728 13.4648 9.19136C14.7138 8.88816 14.7138 7.11184 13.4648 6.80863C12.658 6.61275 12.2751 5.68836 12.7071 4.97933C13.3759 3.88175 12.1198 2.6257 11.0222 3.29448C10.3132 3.72649 9.38884 3.3436 9.19292 2.53676ZM8.00156 10.4C9.32708 10.4 10.4016 9.32552 10.4016 8C10.4016 6.67452 9.32708 5.6 8.00156 5.6C6.67608 5.6 5.60156 6.67452 5.60156 8C5.60156 9.32552 6.67608 10.4 8.00156 10.4Z" fill="#1E293B"/>
</svg>
