<svg width="14" height="14" viewBox="0 0 14 14" fill="none" xmlns="http://www.w3.org/2000/svg">
<path d="M5.44434 5.44446L8.55545 8.55557" stroke="#8392AB" stroke-width="2"/>
<path d="M6.92226 3.5599C7.41516 4.02185 7.71726 4.65159 7.76908 5.32513C7.8209 5.99867 7.61869 6.66721 7.20226 7.19912C6.6705 7.61683 6.00152 7.82011 5.32726 7.76885C4.653 7.71759 4.02243 7.41553 3.55993 6.92223C2.47726 5.83334 1.58282 4.97779 3.27993 3.2799C4.97704 1.58201 5.83337 2.47723 6.92226 3.5599Z" stroke="#8392AB" stroke-width="2"/>
<path d="M10.4401 7.07775C9.97814 6.58485 9.3484 6.28275 8.67486 6.23093C8.00131 6.17911 7.33277 6.38132 6.80086 6.79775C6.38443 7.32966 6.18222 7.9982 6.23405 8.67174C6.28587 9.34528 6.58797 9.97502 7.08086 10.437C8.16353 11.5196 9.02531 12.4141 10.7201 10.717C12.4149 9.01986 11.5228 8.16664 10.4401 7.07775Z" stroke="#8392AB" stroke-width="2"/>
</svg>
