<svg width="18" height="18" viewBox="0 0 18 18" fill="none" xmlns="http://www.w3.org/2000/svg">
<path d="M7 4H15" stroke="#252F40" stroke-width="2"/>
<path d="M7 9H15" stroke="#252F40" stroke-width="2"/>
<path d="M7 14H15" stroke="#252F40" stroke-width="2"/>
<path d="M2.5 5.5H4.5" stroke="#252F40"/>
<path d="M3.50004 6C3.36743 6 3.24025 5.94732 3.14649 5.85356C3.05272 5.75979 3.00004 5.63261 3.00004 5.5V3.085L2.72404 3.223C2.60549 3.28241 2.46819 3.29229 2.34236 3.25047C2.21652 3.20865 2.11245 3.11855 2.05304 3C1.92904 2.753 2.03004 2.676 2.27704 2.553L3.27704 2.053C3.35323 2.01504 3.43785 1.99715 3.52289 2.00104C3.60793 2.00493 3.69057 2.03047 3.76297 2.07524C3.83538 2.12 3.89516 2.18251 3.93664 2.25685C3.97813 2.33118 3.99995 2.41488 4.00004 2.5V5.5C4.00004 5.63261 3.94736 5.75979 3.85359 5.85356C3.75982 5.94732 3.63265 6 3.50004 6Z" fill="#252F40"/>
<path d="M4.5 10.5H2.5C2.5 10.266 4.35 9.42399 4.35 8.26599C4.30778 8.05893 4.19835 7.87162 4.03872 7.73316C3.87909 7.59469 3.6782 7.51283 3.46726 7.50029C3.25632 7.48775 3.04714 7.54523 2.87222 7.6638C2.69731 7.78237 2.56646 7.9554 2.5 8.15599" stroke="#252F40"/>
<path d="M2.5 14.846C2.56637 15.0466 2.69713 15.2197 2.87197 15.3383C3.04681 15.457 3.25594 15.5145 3.46687 15.5021C3.6778 15.4897 3.87872 15.4079 4.03842 15.2696C4.19811 15.1312 4.30765 14.944 4.35 14.737C4.36107 14.5612 4.30545 14.3877 4.19423 14.2511C4.08302 14.1145 3.92439 14.0248 3.75 14C3.92542 13.9779 4.08561 13.8891 4.19733 13.7521C4.30905 13.6151 4.36372 13.4403 4.35 13.264C4.30765 13.057 4.19811 12.8698 4.03842 12.7314C3.87872 12.5931 3.6778 12.5113 3.46687 12.4989C3.25594 12.4865 3.04681 12.544 2.87197 12.6627C2.69713 12.7813 2.56637 12.9544 2.5 13.155" stroke="#252F40"/>
</svg>
