<svg width="18" height="18" viewBox="0 0 18 18" fill="none" xmlns="http://www.w3.org/2000/svg">
<g clip-path="url(#clip0_0_229)">
<path d="M3.75 1.5H0.75C0.336 1.5 0 1.83525 0 2.25V15.75C0 16.1648 0.336 16.5 0.75 16.5H3.75C4.164 16.5 4.5 16.1648 4.5 15.75V2.25C4.5 1.83525 4.164 1.5 3.75 1.5Z" fill="#82D616"/>
<path d="M9.75 1.5H6.75C6.336 1.5 6 1.83525 6 2.25V15.75C6 16.1648 6.336 16.5 6.75 16.5H9.75C10.164 16.5 10.5 16.1648 10.5 15.75V2.25C10.5 1.83525 10.164 1.5 9.75 1.5Z" fill="#82D616"/>
<path d="M17.978 14.8672L14.801 1.74673C14.7035 1.34398 14.2948 1.09423 13.8958 1.19473L10.9798 1.89973C10.7863 1.94623 10.6198 2.06848 10.5163 2.23798C10.4128 2.40748 10.3805 2.61148 10.427 2.80498L13.6033 15.9262C13.6498 16.1197 13.772 16.2862 13.9415 16.3897C14.0615 16.4625 14.1965 16.5 14.333 16.5C14.3923 16.5 14.4515 16.4925 14.5093 16.479L17.4253 15.7732C17.828 15.675 18.0755 15.27 17.978 14.8672Z" fill="#82D616"/>
</g>
<defs>
<clipPath id="clip0_0_229">
<rect width="18" height="18" fill="white"/>
</clipPath>
</defs>
</svg>
