<svg width="14" height="14" viewBox="0 0 14 14" fill="none" xmlns="http://www.w3.org/2000/svg">
<path d="M4.6665 3.11108H11.6665" stroke="#8392AB" stroke-width="2"/>
<path d="M4.6665 7H11.6665" stroke="#8392AB" stroke-width="2"/>
<path d="M4.6665 10.8889H11.6665" stroke="#8392AB" stroke-width="2"/>
<path d="M3.11122 3.11109C3.11122 3.54065 2.763 3.88887 2.33344 3.88887C1.90389 3.88887 1.55566 3.54065 1.55566 3.11109C1.55566 2.68154 1.90389 2.33331 2.33344 2.33331C2.763 2.33331 3.11122 2.68154 3.11122 3.11109Z" fill="#8392AB"/>
<path d="M3.11122 10.8889C3.11122 11.3184 2.763 11.6666 2.33344 11.6666C1.90389 11.6666 1.55566 11.3184 1.55566 10.8889C1.55566 10.4593 1.90389 10.1111 2.33344 10.1111C2.763 10.1111 3.11122 10.4593 3.11122 10.8889Z" fill="#8392AB"/>
<path d="M3.11122 7.00001C3.11122 7.42956 2.763 7.77778 2.33344 7.77778C1.90389 7.77778 1.55566 7.42956 1.55566 7.00001C1.55566 6.57045 1.90389 6.22223 2.33344 6.22223C2.763 6.22223 3.11122 6.57045 3.11122 7.00001Z" fill="#8392AB"/>
</svg>
