<svg width="18" height="18" viewBox="0 0 18 18" fill="none" xmlns="http://www.w3.org/2000/svg">
<path d="M6 4H15" stroke="#252F40" stroke-width="2"/>
<path d="M6 9H15" stroke="#252F40" stroke-width="2"/>
<path d="M6 14H15" stroke="#252F40" stroke-width="2"/>
<path d="M4 4C4 4.55228 3.55228 5 3 5C2.44772 5 2 4.55228 2 4C2 3.44772 2.44772 3 3 3C3.55228 3 4 3.44772 4 4Z" fill="#252F40"/>
<path d="M4 14C4 14.5523 3.55228 15 3 15C2.44772 15 2 14.5523 2 14C2 13.4477 2.44772 13 3 13C3.55228 13 4 13.4477 4 14Z" fill="#252F40"/>
<path d="M4 9C4 9.55228 3.55228 10 3 10C2.44772 10 2 9.55228 2 9C2 8.44772 2.44772 8 3 8C3.55228 8 4 8.44772 4 9Z" fill="#252F40"/>
</svg>
