<svg width="291" height="156" viewBox="0 0 291 156" fill="none" xmlns="http://www.w3.org/2000/svg">
<path d="M0.500031 155.5L0.50001 0.500006" stroke="#E9ECEF" stroke-linecap="round" stroke-linejoin="round" stroke-dasharray="6 6"/>
<rect x="17.805" y="102.5" width="6.81857" height="53" rx="3.40928" fill="#252F40"/>
<path d="M41.9286 155.5L41.9286 0.500006" stroke="#E9ECEF" stroke-linecap="round" stroke-linejoin="round" stroke-dasharray="6 6"/>
<rect x="59.2336" y="80.5" width="6.81857" height="75" rx="3.40928" fill="#252F40"/>
<path d="M83.3572 155.5L83.3572 0.500006" stroke="#E9ECEF" stroke-linecap="round" stroke-linejoin="round" stroke-dasharray="6 6"/>
<rect x="100.662" y="115.5" width="6.81857" height="40" rx="3.40928" fill="#252F40"/>
<path d="M124.786 155.5L124.786 0.500006" stroke="#E9ECEF" stroke-linecap="round" stroke-linejoin="round" stroke-dasharray="6 6"/>
<rect x="142.091" y="62.5" width="6.81857" height="93" rx="3.40928" fill="#252F40"/>
<path d="M166.214 155.5L166.214 0.500006" stroke="#E9ECEF" stroke-linecap="round" stroke-linejoin="round" stroke-dasharray="6 6"/>
<rect x="183.519" y="22.5" width="6.81857" height="133" rx="3.40928" fill="#252F40"/>
<path d="M207.643 155.5L207.643 0.500006" stroke="#E9ECEF" stroke-linecap="round" stroke-linejoin="round" stroke-dasharray="6 6"/>
<rect x="224.948" y="62.5" width="6.81857" height="93" rx="3.40928" fill="#252F40"/>
<path d="M249.071 155.5L249.071 0.500006" stroke="#E9ECEF" stroke-linecap="round" stroke-linejoin="round" stroke-dasharray="6 6"/>
<rect x="266.376" y="102.5" width="6.81857" height="53" rx="3.40928" fill="#252F40"/>
<path d="M290.5 155.5L290.5 0.500006" stroke="#E9ECEF" stroke-linecap="round" stroke-linejoin="round" stroke-dasharray="6 6"/>
</svg>
