<svg width="18" height="18" viewBox="0 0 18 18" fill="none" xmlns="http://www.w3.org/2000/svg">
<g clip-path="url(#clip0_0_229)">
<path d="M15 7.5V6C15 4.4087 14.3679 2.88258 13.2426 1.75736C12.1174 0.632141 10.5913 0 9 0C7.4087 0 5.88258 0.632141 4.75736 1.75736C3.63214 2.88258 3 4.4087 3 6V7.5C2.98158 7.95748 2.86904 8.40624 2.66941 8.81828C2.46979 9.23031 2.18735 9.59676 1.83975 9.89475C1.21515 10.427 0.823938 11.1827 0.75 12C0.75 13.875 3.834 15 9 15C14.166 15 17.25 13.875 17.25 12C17.1761 11.1827 16.7849 10.427 16.1603 9.89475C15.8126 9.59676 15.5302 9.23031 15.3306 8.81828C15.131 8.40624 15.0184 7.95748 15 7.5Z" fill="#17C1E8"/>
<path d="M6.85938 16.425C7.00232 16.881 7.2871 17.2794 7.67224 17.5623C8.05737 17.8452 8.52276 17.9977 9.00062 17.9977C9.47849 17.9977 9.94388 17.8452 10.329 17.5623C10.7142 17.2794 10.9989 16.881 11.1419 16.425C10.4714 16.4745 9.75887 16.5 9.00062 16.5C8.24237 16.5 7.52987 16.476 6.85938 16.425Z" fill="#17C1E8"/>
</g>
<defs>
<clipPath id="clip0_0_229">
<rect width="18" height="18" fill="white"/>
</clipPath>
</defs>
</svg>
