<svg width="120" height="72" viewBox="0 0 120 72" fill="none" xmlns="http://www.w3.org/2000/svg">
<g clip-path="url(#clip0_204_8147)">
<g filter="url(#filter0_f_204_8147)">
<path d="M65.6808 9.26131C65.6808 9.26131 61.8817 14.4113 58.9126 14.2417C55.1905 14.023 54.5548 9.53367 51.1043 9.26131C47.4943 9.31539 47.1259 13.9693 43.2132 14.2417C39.7075 14.179 38.2223 9.34613 34.8804 9.26131C31.5385 9.17649 27.9764 14.2417 27.9764 14.2417M61.4055 35.7194C61.4055 35.7194 55.6858 40.8694 51.214 40.6998C45.6111 40.4811 44.6497 35.9918 39.4565 35.7194C34.0209 35.7735 33.4645 40.4274 27.5741 40.6998C22.2957 40.6363 20.0592 35.8038 15.026 35.7194C9.99271 35.635 4.62988 40.6998 4.62988 40.6998M94.089 56.7303C94.089 56.7303 88.3694 61.8802 83.8976 61.7106C78.2947 61.4919 77.3332 57.0026 72.1401 56.7303C66.7045 56.7843 66.1481 61.4382 60.2577 61.7106C54.9793 61.6472 52.7428 56.8147 47.7095 56.7303C42.6762 56.6458 37.3134 61.7106 37.3134 61.7106" stroke="#CED4DA" stroke-width="4" stroke-linecap="round"/>
<path d="M106.22 0.402228C105.135 0.414508 94.1226 17.6076 94.1226 24.2901C94.1226 27.4987 95.3972 30.5759 97.6658 32.8447C99.9349 35.1135 103.012 36.3881 106.221 36.3881C109.429 36.3881 112.506 35.1135 114.775 32.8447C117.044 30.5759 118.319 27.4987 118.319 24.2901C118.319 17.6076 107.306 0.39051 106.22 0.402228Z" fill="#CED4DA"/>
<path d="M113.607 19.9764C112.398 20.3459 111.975 22.4654 112.661 24.7102C113.348 26.9551 114.884 28.4753 116.093 28.1057C117.301 27.7362 117.725 25.6168 117.039 23.3719C116.352 21.127 114.816 19.6068 113.607 19.9764Z" fill="white"/>
<path d="M83.4277 24.5363C82.655 24.5452 74.8154 36.7852 74.8154 41.5419C74.8154 43.8258 75.7229 46.0164 77.3378 47.6318C78.9532 49.2467 81.1438 50.1542 83.4277 50.1542C85.712 50.1542 87.9025 49.2467 89.5179 47.6318C91.1329 46.0164 92.0403 43.8258 92.0403 41.5419C92.0403 36.7852 84.2004 24.5279 83.4277 24.5363Z" fill="#CED4DA"/>
<path d="M88.2247 38.9738C87.3639 39.237 87.0623 40.7459 87.551 42.344C88.0397 43.9421 89.1334 45.0245 89.9942 44.7614C90.8549 44.498 91.1566 42.9892 90.6679 41.3911C90.1792 39.7929 89.0855 38.7107 88.2247 38.9738Z" fill="white"/>
</g>
</g>
<defs>
<filter id="filter0_f_204_8147" x="1.62988" y="-0.597778" width="117.688" height="65.3124" filterUnits="userSpaceOnUse" color-interpolation-filters="sRGB">
<feFlood flood-opacity="0" result="BackgroundImageFix"/>
<feBlend mode="normal" in="SourceGraphic" in2="BackgroundImageFix" result="shape"/>
<feGaussianBlur stdDeviation="0.5" result="effect1_foregroundBlur_204_8147"/>
</filter>
<clipPath id="clip0_204_8147">
<rect width="119.061" height="72" fill="white"/>
</clipPath>
</defs>
</svg>
