<svg width="24" height="24" viewBox="0 0 24 24" fill="none" xmlns="http://www.w3.org/2000/svg">
<path d="M7.50012 6C8.13484 5.9999 8.74583 6.24123 9.20916 6.67504C9.6725 7.10885 9.95348 7.70265 9.99512 8.336L10.0001 8.542C9.99012 12.097 8.76012 15.156 6.29512 17.765C6.2281 17.839 6.14699 17.8988 6.05654 17.9411C5.96609 17.9833 5.86812 18.0071 5.76838 18.0109C5.66863 18.0148 5.56911 17.9987 5.47566 17.9636C5.38221 17.9286 5.2967 17.8752 5.22414 17.8066C5.15159 17.7381 5.09345 17.6557 5.05314 17.5644C5.01283 17.4731 4.99115 17.3746 4.98938 17.2748C4.9876 17.175 5.00577 17.0758 5.04282 16.9832C5.07987 16.8905 5.13504 16.8061 5.20512 16.735C6.84512 14.998 7.86512 13.061 8.28212 10.876C7.93863 10.9884 7.57485 11.025 7.21585 10.9833C6.85685 10.9415 6.51117 10.8225 6.20263 10.6342C5.89409 10.446 5.63003 10.1932 5.42864 9.89305C5.22725 9.59294 5.09333 9.25274 5.0361 8.89588C4.97887 8.53903 4.99969 8.174 5.09713 7.82597C5.19457 7.47794 5.36631 7.15517 5.60052 6.87991C5.83473 6.60465 6.12584 6.38345 6.45378 6.23154C6.78172 6.07964 7.1387 6.00064 7.50012 6ZM16.5001 6C17.1348 5.9999 17.7458 6.24123 18.2092 6.67504C18.6725 7.10885 18.9535 7.70265 18.9951 8.336L19.0001 8.542C18.9901 12.102 17.7621 15.156 15.2951 17.765C15.2281 17.839 15.147 17.8988 15.0565 17.9411C14.9661 17.9833 14.8681 18.0071 14.7684 18.0109C14.6686 18.0148 14.5691 17.9987 14.4757 17.9636C14.3822 17.9286 14.2967 17.8752 14.2241 17.8066C14.1516 17.7381 14.0935 17.6557 14.0531 17.5644C14.0128 17.4731 13.9911 17.3746 13.9894 17.2748C13.9876 17.175 14.0058 17.0758 14.0428 16.9832C14.0799 16.8905 14.135 16.8061 14.2051 16.735C15.8481 14.997 16.8671 13.063 17.2831 10.876C16.9397 10.9884 16.5759 11.025 16.217 10.9833C15.858 10.9416 15.5124 10.8225 15.2038 10.6344C14.8953 10.4462 14.6313 10.1934 14.4299 9.89335C14.2284 9.59331 14.0945 9.25317 14.0372 8.89637C13.9799 8.53957 14.0006 8.17459 14.098 7.82657C14.1953 7.47856 14.3669 7.15578 14.601 6.88048C14.8351 6.60519 15.1261 6.38391 15.454 6.23191C15.7818 6.07991 16.1387 6.00079 16.5001 6Z" fill="#1C1B1F"/>
</svg>
