<svg width="13" height="15" viewBox="0 0 13 15" fill="none" xmlns="http://www.w3.org/2000/svg">
<path d="M1.61474 13.0821C3.22947 14.7242 5.85684 14.7516 7.49895 13.0821L12.2063 8.26526C12.3705 8.10105 12.3705 7.82737 12.1789 7.66316L11.5495 7.03368C11.3853 6.86947 11.1116 6.86947 10.9474 7.03368L6.24 11.8505C5.30947 12.8084 3.80421 12.8084 2.87368 11.8505C1.94316 10.8926 1.94316 9.30526 2.90105 8.34737L8.64842 2.46316C9.16842 1.94316 10.0168 1.94316 10.5368 2.46316C11.0568 3.01053 11.0568 3.91368 10.5368 4.46105L5.52842 9.57895C5.41895 9.68842 5.22737 9.68842 5.09053 9.57895C4.98105 9.44211 4.98105 9.19579 5.11789 9.05895L9.05895 5.06316C9.22316 4.87158 9.22316 4.59789 9.03158 4.43368L8.42947 3.83158C8.23789 3.64 7.96421 3.66737 7.8 3.83158L3.85895 7.85474C3.06526 8.64842 3.03789 9.96211 3.83158 10.7832C4.62526 11.6316 5.96632 11.6316 6.78737 10.8105L11.7958 5.69263C13 4.46105 12.9726 2.46316 11.7958 1.23158C10.5642 0 8.59368 0 7.38947 1.23158L1.64211 7.11579C0.0273684 8.75789 0 11.4126 1.61474 13.0821Z" fill="#8392AB"/>
</svg>
