<svg width="32" height="25" viewBox="0 0 32 25" fill="none" xmlns="http://www.w3.org/2000/svg">
<path d="M20.316 2.10681H11.6562V17.5903H20.316V2.10681Z" fill="#FF5A00"/>
<path d="M12.2337 9.84848C12.2337 6.70271 13.7197 3.91071 15.9999 2.10675C14.3218 0.793616 12.2049 0 9.89589 0C4.42593 0 0 4.40473 0 9.84848C0 15.2922 4.42593 19.697 9.89589 19.697C12.2049 19.697 14.3218 18.9034 15.9999 17.5902C13.7165 15.8118 12.2337 12.9943 12.2337 9.84848Z" fill="#EB001B"/>
<path d="M31.9999 9.84848C31.9999 15.2922 27.574 19.697 22.1041 19.697C19.795 19.697 17.6781 18.9034 16 17.5902C18.309 15.7831 19.7662 12.9943 19.7662 9.84848C19.7662 6.70271 18.2802 3.91071 16 2.10675C17.6749 0.793616 19.7918 0 22.1009 0C27.574 0 31.9999 4.43341 31.9999 9.84848Z" fill="#FB8C00"/>
<path d="M5.79969 24.9453V23.2861C5.79969 22.6514 5.41538 22.2358 4.75566 22.2358C4.42579 22.2358 4.0671 22.3454 3.82051 22.7062C3.62835 22.4034 3.35293 22.2358 2.9398 22.2358C2.66438 22.2358 2.38896 22.3196 2.17119 22.6224V22.2906H1.59473V24.9453H2.17119V23.4794C2.17119 23.009 2.41779 22.7867 2.80209 22.7867C3.1864 22.7867 3.37855 23.0348 3.37855 23.4794V24.9453H3.95501V23.4794C3.95501 23.009 4.23044 22.7867 4.58592 22.7867C4.97023 22.7867 5.16238 23.0348 5.16238 23.4794V24.9453H5.79969ZM14.3505 22.2906H13.4154V21.4884H12.8389V22.2906H12.3169V22.8157H12.8389V24.0335C12.8389 24.6424 13.0855 25 13.7452 25C13.9918 25 14.2673 24.9163 14.4594 24.8067L14.2929 24.3074C14.1264 24.4169 13.9342 24.4459 13.7965 24.4459C13.5211 24.4459 13.4122 24.2784 13.4122 24.0045V22.8157H14.3473V22.2906H14.3505ZM19.244 22.2326C18.9142 22.2326 18.6932 22.4002 18.5555 22.6192V22.2874H17.979V24.942H18.5555V23.4472C18.5555 23.0058 18.7477 22.7545 19.1063 22.7545C19.2152 22.7545 19.3529 22.7835 19.465 22.8093L19.6316 22.2552C19.5163 22.2326 19.3529 22.2326 19.244 22.2326ZM11.8493 22.5097C11.5739 22.3164 11.1896 22.2326 10.7765 22.2326C10.1167 22.2326 9.67799 22.5645 9.67799 23.0896C9.67799 23.531 10.0079 23.7822 10.5843 23.8628L10.8597 23.8918C11.1608 23.9465 11.3273 24.0303 11.3273 24.1688C11.3273 24.3621 11.1063 24.5007 10.722 24.5007C10.3377 24.5007 10.0335 24.3621 9.84132 24.2236L9.5659 24.665C9.86695 24.8873 10.2801 24.9968 10.6932 24.9968C11.4618 24.9968 11.9038 24.636 11.9038 24.1398C11.9038 23.6695 11.5451 23.4214 10.9974 23.3377L10.722 23.3087C10.4754 23.2797 10.2833 23.2249 10.2833 23.0606C10.2833 22.8673 10.4754 22.7578 10.7797 22.7578C11.1095 22.7578 11.4394 22.8963 11.6059 22.98L11.8493 22.5097ZM27.1864 22.2326C26.8565 22.2326 26.6356 22.4002 26.4979 22.6192V22.2874H25.9214V24.942H26.4979V23.4472C26.4979 23.0058 26.69 22.7545 27.0487 22.7545C27.1576 22.7545 27.2953 22.7835 27.4074 22.8093L27.5739 22.2616C27.4618 22.2326 27.2985 22.2326 27.1864 22.2326ZM19.8205 23.6179C19.8205 24.4201 20.3714 25 21.2232 25C21.6075 25 21.883 24.9163 22.1584 24.6972L21.883 24.2268C21.662 24.3944 21.4442 24.4749 21.1944 24.4749C20.7268 24.4749 20.397 24.1431 20.397 23.6179C20.397 23.1186 20.7268 22.7867 21.1944 22.761C21.441 22.761 21.662 22.8447 21.883 23.009L22.1584 22.5387C21.883 22.3164 21.6075 22.2358 21.2232 22.2358C20.3714 22.2326 19.8205 22.8157 19.8205 23.6179ZM25.1528 23.6179V22.2906H24.5763V22.6224C24.3842 22.3744 24.1087 22.2358 23.7501 22.2358C23.0071 22.2358 22.4306 22.8157 22.4306 23.6179C22.4306 24.4201 23.0071 25 23.7501 25C24.1344 25 24.4098 24.8615 24.5763 24.6134V24.9453H25.1528V23.6179ZM23.0359 23.6179C23.0359 23.1476 23.3369 22.761 23.8333 22.761C24.3009 22.761 24.6308 23.1218 24.6308 23.6179C24.6308 24.0883 24.3009 24.4749 23.8333 24.4749C23.3401 24.4459 23.0359 24.0851 23.0359 23.6179ZM16.1376 22.2326C15.3689 22.2326 14.8181 22.7867 14.8181 23.6147C14.8181 24.4459 15.3689 24.9968 16.1664 24.9968C16.5507 24.9968 16.935 24.8873 17.2392 24.636L16.9638 24.2204C16.7428 24.3879 16.4674 24.4974 16.1952 24.4974C15.8365 24.4974 15.481 24.3299 15.3978 23.8628H17.3481C17.3481 23.779 17.3481 23.7242 17.3481 23.6405C17.3738 22.7867 16.8774 22.2326 16.1376 22.2326ZM16.1376 22.732C16.4962 22.732 16.7428 22.9543 16.7973 23.3666H15.4234C15.4778 23.009 15.7244 22.732 16.1376 22.732ZM30.4594 23.6179V21.2404H29.883V22.6224C29.6908 22.3744 29.4154 22.2358 29.0567 22.2358C28.3137 22.2358 27.7372 22.8157 27.7372 23.6179C27.7372 24.4201 28.3137 25 29.0567 25C29.441 25 29.7164 24.8615 29.883 24.6134V24.9453H30.4594V23.6179ZM28.3425 23.6179C28.3425 23.1476 28.6436 22.761 29.14 22.761C29.6075 22.761 29.9374 23.1218 29.9374 23.6179C29.9374 24.0883 29.6075 24.4749 29.14 24.4749C28.6436 24.4459 28.3425 24.0851 28.3425 23.6179ZM9.04389 23.6179V22.2906H8.46743V22.6224C8.27527 22.3744 7.99985 22.2358 7.64116 22.2358C6.89817 22.2358 6.32171 22.8157 6.32171 23.6179C6.32171 24.4201 6.89817 25 7.64116 25C8.02547 25 8.30089 24.8615 8.46743 24.6134V24.9453H9.04389V23.6179ZM6.90137 23.6179C6.90137 23.1476 7.20241 22.761 7.69881 22.761C8.16638 22.761 8.49625 23.1218 8.49625 23.6179C8.49625 24.0883 8.16638 24.4749 7.69881 24.4749C7.20241 24.4459 6.90137 24.0851 6.90137 23.6179Z" fill="#252F40"/>
</svg>
