<svg width="228" height="192" viewBox="0 0 228 192" fill="none" xmlns="http://www.w3.org/2000/svg">
<path d="M194.484 190C213.565 170.062 225.307 143.031 225.307 113.185C225.307 51.7827 175.524 2 114.122 2C52.7187 2 2.93616 51.7827 2.93616 113.185C2.93616 142.908 14.6788 170.062 33.7601 190" stroke="#E9ECEF" stroke-width="4" stroke-miterlimit="10" stroke-linecap="round" stroke-linejoin="round"/>
<path d="M7.33897 89.4561C11.3922 89.4561 14.6779 86.1703 14.6779 82.1171C14.6779 78.0639 11.3922 74.7782 7.33897 74.7782C3.28577 74.7782 0 78.0639 0 82.1171C0 86.1703 3.28577 89.4561 7.33897 89.4561Z" fill="#CB0C9F"/>
<path d="M6.72808 84.1965C4.28176 93.3702 2.93616 103.155 2.93616 113.185C2.93616 142.908 14.6788 170.062 33.7601 190" stroke="#CB0C9F" stroke-width="4" stroke-miterlimit="10" stroke-linecap="round" stroke-linejoin="round"/>
</svg>
