<svg width="117" height="26" viewBox="0 0 117 26" fill="none" xmlns="http://www.w3.org/2000/svg">
<path d="M108.856 20.2636C108.856 18.6152 110.195 17.2778 111.842 17.2778C113.491 17.2778 114.827 18.6152 114.827 20.2636C114.827 21.9121 113.491 23.2486 111.842 23.2486C110.195 23.2486 108.856 21.9121 108.856 20.2636Z" fill="#CBD5E0"/>
<path d="M13.6313 12.3565C13.6313 10.4653 13.2658 9.06222 12.5349 8.14814C11.8031 7.23494 10.6946 6.77876 9.2043 6.77876H7.61896V18.3438H8.83188C10.4872 18.3438 11.7003 17.853 12.4727 16.8681C13.2441 15.8849 13.6313 14.3808 13.6313 12.3565ZM19.285 12.1595C19.285 15.605 18.3588 18.2599 16.5065 20.1235C14.6541 21.9879 12.0502 22.9201 8.69368 22.9201H2.17162V2.2741H9.14895C12.3853 2.2741 14.8839 3.12163 16.6447 4.81586C18.4046 6.51095 19.285 8.95769 19.285 12.1595Z" fill="#CBD5E0"/>
<path d="M37.3503 22.9196H42.5401V2.18719H37.3503V22.9196Z" fill="#CBD5E0"/>
<path d="M49.8317 15.1864C49.8317 16.5082 50.0044 17.5164 50.3492 18.2093C50.6948 18.9031 51.2736 19.2496 52.0874 19.2496C52.8926 19.2496 53.462 18.9031 53.7937 18.2093C54.1255 17.5164 54.2905 16.5082 54.2905 15.1864C54.2905 13.8714 54.1229 12.8796 53.7868 12.21C53.4499 11.5387 52.8754 11.2026 52.0607 11.2026C51.2642 11.2026 50.6948 11.537 50.3492 12.2022C50.0044 12.8684 49.8317 13.8628 49.8317 15.1864ZM59.5728 15.1864C59.5728 17.7048 58.9127 19.6695 57.5891 21.0777C56.2664 22.4868 54.4149 23.1918 52.0348 23.1918C49.7522 23.1918 47.9352 22.4713 46.5866 21.0302C45.2362 19.5891 44.5615 17.6417 44.5615 15.1864C44.5615 12.6757 45.2225 10.7249 46.5461 9.33387C47.8696 7.9429 49.7254 7.24742 52.1151 7.24742C53.5916 7.24742 54.8979 7.56969 56.0297 8.21334C57.1623 8.85699 58.0367 9.77884 58.651 10.9797C59.2661 12.1789 59.5728 13.582 59.5728 15.1864Z" fill="#CBD5E0"/>
<path d="M61.6355 22.9197H66.8262V14.9851V7.51956H61.6355V22.9197Z" fill="#CBD5E0"/>
<path d="M61.6355 5.65679H66.8262V2.18627H61.6355V5.65679Z" fill="#CBD5E0"/>
<path d="M77.3398 18.9917C78.0405 18.9917 78.875 18.8137 79.8487 18.4604V22.3352C79.1489 22.6428 78.4837 22.8631 77.8513 22.9936C77.2189 23.1258 76.4767 23.1914 75.6274 23.1914C73.8848 23.1914 72.6286 22.7534 71.8571 21.8791C71.089 21.0047 70.7037 19.6622 70.7037 17.8504V11.502H68.886V7.5209H70.7037V3.58815L75.9342 2.67838V7.5209H79.2458V11.502H75.9342V17.4962C75.9342 18.4932 76.4033 18.9917 77.3398 18.9917Z" fill="#CBD5E0"/>
<path d="M89.3515 18.9917C90.0522 18.9917 90.8869 18.8137 91.8605 18.4604V22.3352C91.1616 22.6428 90.4954 22.8631 89.863 22.9936C89.2297 23.1258 88.4901 23.1914 87.6391 23.1914C85.8965 23.1914 84.6404 22.7534 83.8706 21.8791C83.1008 21.0047 82.7155 19.6622 82.7155 17.8504V11.502H80.8968V7.52091H82.7155V3.52855L87.945 2.67838V7.52091H91.2583V11.502H87.945V17.4962C87.945 18.4932 88.4141 18.9917 89.3515 18.9917Z" fill="#CBD5E0"/>
<path d="M98.4107 13.3102C98.4815 12.467 98.7227 11.8492 99.1339 11.4544C99.5469 11.0604 100.057 10.8635 100.667 10.8635C101.332 10.8635 101.861 11.0846 102.253 11.5304C102.648 11.9736 102.853 12.5672 102.87 13.3102H98.4107ZM105.73 9.06299C104.496 7.85345 102.746 7.24779 100.482 7.24779C98.1014 7.24779 96.2699 7.94327 94.986 9.33424C93.703 10.7252 93.061 12.721 93.061 15.3215C93.061 17.84 93.7549 19.7821 95.1389 21.1455C96.5238 22.5088 98.4685 23.1913 100.973 23.1913C102.176 23.1913 103.211 23.1093 104.078 22.946C104.941 22.7844 105.775 22.4924 106.585 22.0708L105.787 18.6002C105.199 18.8404 104.639 19.0253 104.11 19.1471C103.347 19.3242 102.509 19.4132 101.596 19.4132C100.596 19.4132 99.8061 19.1687 99.2272 18.6797C98.6484 18.1898 98.3399 17.5142 98.3045 16.6537H107.582V14.2891C107.582 12.0143 106.965 10.2717 105.73 9.06299Z" fill="#CBD5E0"/>
<path d="M26.1728 13.3102C26.2437 12.467 26.4847 11.8492 26.8959 11.4544C27.308 11.0604 27.8187 10.8635 28.4296 10.8635C29.0931 10.8635 29.6218 11.0846 30.0149 11.5304C30.4097 11.9736 30.6145 12.5672 30.6327 13.3102H26.1728ZM33.4932 9.06298C32.2586 7.85344 30.509 7.24778 28.2438 7.24778C25.8626 7.24778 24.0319 7.94326 22.7489 9.33424C21.4659 10.7252 20.8232 12.721 20.8232 15.3215C20.8232 17.84 21.5161 19.7821 22.9019 21.1454C24.286 22.5088 26.2307 23.1913 28.7353 23.1913C29.938 23.1913 30.9729 23.1093 31.8404 22.946C32.7026 22.7844 33.5373 22.4924 34.3477 22.0707L33.5494 18.6002C32.961 18.8404 32.4011 19.0253 31.8733 19.1471C31.1078 19.3242 30.2706 19.4132 29.3582 19.4132C28.3586 19.4132 27.5682 19.1687 26.9894 18.6797C26.4096 18.1898 26.1021 17.5142 26.0667 16.6537H35.3438V14.2891C35.3438 12.0143 34.7269 10.2717 33.4932 9.06298Z" fill="#CBD5E0"/>
</svg>
