<svg width="16" height="16" viewBox="0 0 16 16" fill="none" xmlns="http://www.w3.org/2000/svg">
<g clip-path="url(#clip0_0_686)">
<path d="M2 6H0.666667C0.489856 6 0.320286 6.07024 0.195262 6.19526C0.0702379 6.32029 0 6.48986 0 6.66667L0 14.6667C0 14.8435 0.0702379 15.013 0.195262 15.1381C0.320286 15.2631 0.489856 15.3333 0.666667 15.3333H2.66667V6.66667C2.66667 6.48986 2.59643 6.32029 2.4714 6.19526C2.34638 6.07024 2.17681 6 2 6Z" fill="#8392AB"/>
<path d="M14.588 5.42199C14.3975 5.36316 14.1993 5.33327 14 5.33332H10V3.33332C10 0.783991 8.274 0.0386574 7.36133 -9.25901e-06C7.2716 -0.00316136 7.18214 0.0115395 7.09814 0.0432402C7.01414 0.0749409 6.93727 0.12301 6.872 0.184657C6.807 0.246968 6.75529 0.321801 6.72 0.404641C6.68471 0.487482 6.66657 0.576613 6.66667 0.666657V3.75866L4 6.95866V15.3333H12.1533C12.5818 15.3353 12.9994 15.1989 13.3441 14.9445C13.6888 14.6901 13.9422 14.3313 14.0667 13.9213L15.9127 7.92132C15.9898 7.67024 16.0168 7.40641 15.9919 7.14491C15.9671 6.88341 15.891 6.62937 15.768 6.39727C15.645 6.16518 15.4775 5.9596 15.275 5.79226C15.0726 5.62492 14.8391 5.4991 14.588 5.42199Z" fill="#8392AB"/>
</g>
<defs>
<clipPath id="clip0_0_686">
<rect width="16" height="16" fill="white"/>
</clipPath>
</defs>
</svg>
