<svg width="24" height="16" viewBox="0 0 24 16" fill="none" xmlns="http://www.w3.org/2000/svg">
<path d="M12.6841 1.41241L8.51352 8.25651L12.9622 15.5154C12.99 15.5707 13.0039 15.626 12.99 15.6813C12.9761 15.7366 12.9205 15.6951 12.8371 15.709H9.65349C9.43106 15.709 9.27814 15.6951 9.18082 15.5569C8.88888 14.9762 8.58303 14.4093 8.29109 13.8286C7.99914 13.2617 7.6794 12.681 7.34575 12.0864C7.0121 11.4919 6.67845 10.8974 6.3448 10.289H6.31699C6.02505 10.8835 5.7053 11.4781 5.38556 12.0726C5.06581 12.6671 4.74606 13.2617 4.44021 13.8424C4.12047 14.4231 3.80072 15.0176 3.48097 15.5845C3.42536 15.7228 3.31415 15.7366 3.16122 15.7366H0.102768C0.0471601 15.7366 0.00545383 15.7643 0.00545383 15.6951C-0.00844824 15.6398 0.00545394 15.5845 0.0332581 15.5431L4.3568 8.49156L0.144475 1.39859C0.102768 1.34328 0.0888662 1.28797 0.11667 1.26032C0.144474 1.21884 0.200083 1.20501 0.255691 1.20501H3.41146C3.48097 1.20501 3.55048 1.21884 3.60609 1.23267C3.6617 1.26032 3.70341 1.3018 3.74511 1.35711C4.00925 1.95164 4.3151 2.54618 4.63484 3.14072C4.96849 3.73526 5.28824 4.31597 5.63579 4.89668C5.96944 5.47739 6.27529 6.0581 6.56723 6.65264H6.59504C6.88698 6.04428 7.19283 5.44974 7.49867 4.86903C7.80452 4.28832 8.12426 3.7076 8.44401 3.12689C8.76376 2.54618 9.0696 1.95164 9.37545 1.38476C9.38935 1.32945 9.41716 1.27415 9.45886 1.24649C9.51447 1.21884 9.57008 1.20501 9.63959 1.21884H12.5729C12.6424 1.20501 12.7119 1.24649 12.7258 1.31563C12.7398 1.32945 12.7119 1.38476 12.6841 1.41241Z" fill="#FF61F6"/>
<path d="M19.1067 15.9994C18.0779 16.0132 17.0492 15.8058 16.1177 15.3772C15.2419 14.9762 14.519 14.3125 14.0185 13.4968C13.5041 12.6534 13.2539 11.6025 13.2539 10.3443C13.24 9.32118 13.5041 8.31185 14.0185 7.42696C14.5468 6.52824 15.3114 5.78161 16.2289 5.28386C17.2021 4.74462 18.3699 4.48192 19.7462 4.48192C19.8157 4.48192 19.913 4.48192 20.0381 4.49575C20.1632 4.50957 20.3022 4.50957 20.4691 4.5234V0.15424C20.4691 0.057455 20.5108 0.00214887 20.6081 0.00214887H23.4302C23.4997 -0.0116776 23.5553 0.0436283 23.5692 0.0989342C23.5692 0.112761 23.5692 0.126587 23.5692 0.126587V13.2894C23.5692 13.5382 23.5831 13.8148 23.597 14.119C23.6248 14.4093 23.6387 14.6858 23.6526 14.9209C23.6526 15.0177 23.6109 15.1006 23.5136 15.1421C22.7907 15.4463 22.0261 15.6675 21.2476 15.8058C20.5386 15.9302 19.8296 15.9994 19.1067 15.9994ZM20.4691 13.2341V7.15043C20.3439 7.12277 20.2188 7.09512 20.0937 7.08129C19.9408 7.06747 19.7879 7.05364 19.6349 7.05364C19.0928 7.05364 18.5506 7.16425 18.064 7.41313C17.5913 7.64818 17.1882 7.99384 16.8823 8.43629C16.5765 8.87873 16.4236 9.47327 16.4236 10.1922C16.4097 10.6762 16.4931 11.1601 16.6599 11.6164C16.7989 11.9897 17.0075 12.3215 17.2855 12.5981C17.5496 12.8469 17.8694 13.0405 18.2308 13.1511C18.6062 13.2755 18.9954 13.3309 19.3847 13.3309C19.5932 13.3309 19.7879 13.317 19.9686 13.3032C20.1493 13.317 20.3022 13.2894 20.4691 13.2341Z" fill="#FF61F6"/>
</svg>
