<svg width="16" height="16" viewBox="0 0 16 16" fill="none" xmlns="http://www.w3.org/2000/svg">
<path d="M13.7537 10.6656C13.7019 10.6031 13.6509 10.5406 13.6009 10.4803C12.9134 9.64869 12.4975 9.14682 12.4975 6.79276C12.4975 5.57401 12.2059 4.57401 11.6312 3.82401C11.2075 3.26994 10.6347 2.84963 9.87967 2.53901C9.86995 2.5336 9.86127 2.52651 9.85404 2.51807C9.58248 1.6087 8.83935 0.999634 8.00123 0.999634C7.1631 0.999634 6.42029 1.6087 6.14873 2.51713C6.14148 2.52527 6.13293 2.53213 6.12342 2.53745C4.36154 3.26276 3.50529 4.65432 3.50529 6.79182C3.50529 9.14682 3.08998 9.64869 2.40186 10.4793C2.35186 10.5396 2.30092 10.6009 2.24904 10.6646C2.11504 10.8262 2.03014 11.0228 2.00439 11.2312C1.97864 11.4395 2.01311 11.6509 2.10373 11.8403C2.29654 12.2465 2.70748 12.4987 3.17654 12.4987H12.8294C13.2962 12.4987 13.7044 12.2468 13.8978 11.8424C13.9888 11.653 14.0236 11.4415 13.9981 11.2329C13.9725 11.0243 13.8877 10.8274 13.7537 10.6656Z" fill="#4FD1C5"/>
<path d="M8.00059 15C8.45217 14.9996 8.89522 14.8771 9.28277 14.6453C9.67031 14.4135 9.9879 14.0811 10.2018 13.6834C10.2119 13.6644 10.2169 13.643 10.2163 13.6215C10.2157 13.5999 10.2095 13.5789 10.1984 13.5604C10.1872 13.542 10.1715 13.5267 10.1528 13.5161C10.134 13.5055 10.1128 13.5 10.0912 13.5H5.91059C5.88901 13.4999 5.86777 13.5054 5.84895 13.516C5.83013 13.5266 5.81437 13.5418 5.80319 13.5603C5.79202 13.5788 5.78583 13.5998 5.78521 13.6214C5.78459 13.643 5.78957 13.6644 5.79966 13.6834C6.01357 14.0811 6.33111 14.4134 6.7186 14.6452C7.10608 14.877 7.54907 14.9996 8.00059 15Z" fill="#4FD1C5"/>
</svg>
