<svg width="23" height="20" viewBox="0 0 23 20" fill="none" xmlns="http://www.w3.org/2000/svg">
<path d="M5.14181 4.07707C6.26767 4.07707 7.21083 3.19463 7.21083 2.03807C7.21083 0.882305 6.26767 0 5.14181 0C4.01594 0 3.07304 0.882305 3.07304 2.03807C3.07304 3.1945 4.01594 4.07707 5.14181 4.07707ZM0.851874 14.9944C0.730291 15.5117 0.669301 16.0703 0.669301 16.5259C0.669301 18.3213 1.64289 19.5132 3.71192 19.5132C5.42784 19.5132 6.81896 18.4943 7.8206 16.8488L7.20898 19.3034H10.6163L12.5638 11.4926C13.0506 9.51497 13.9938 8.48846 15.424 8.48846C16.5497 8.48846 17.2494 9.18858 17.2494 10.3444C17.2494 10.6792 17.219 11.044 17.0973 11.4397L16.0931 15.0299C15.941 15.5472 15.8804 16.0647 15.8804 16.5512C15.8804 18.2556 16.8841 19.5022 18.9836 19.5022C20.7788 19.5022 22.2087 18.3466 22.9998 15.5777L21.6612 15.061C20.9918 16.9159 20.4136 17.2513 19.9572 17.2513C19.5008 17.2513 19.2573 16.9473 19.2573 16.3391C19.2573 16.0652 19.3184 15.7613 19.4095 15.3954L20.3833 11.8977C20.6266 11.0764 20.718 10.3481 20.718 9.67889C20.718 7.06227 19.1357 5.69668 17.219 5.69668C15.424 5.69668 13.5982 7.31589 12.6856 9.02004L13.3548 5.96128H8.15227L7.42198 8.65542H9.85615L8.3572 14.6565C7.18014 17.2731 5.01797 17.3156 4.74663 17.2549C4.30104 17.1543 4.01607 16.9851 4.01607 16.4062C4.01607 16.0721 4.07693 15.5923 4.22907 15.0137L6.51123 5.96128H0.730291L0 8.65542H2.40348L0.852007 14.9944" fill="white"/>
</svg>
