<svg width="36" height="36" viewBox="0 0 36 36" fill="none" xmlns="http://www.w3.org/2000/svg">
<path d="M18.2017 7.47458C12.1919 7.47458 7.32031 12.3461 7.32031 18.3559C7.32031 24.3657 12.1919 29.2373 18.2017 29.2373C24.2115 29.2373 29.083 24.3657 29.083 18.3559C29.083 12.3469 24.2115 7.47532 18.2017 7.47458ZM23.192 23.1681C22.9967 23.4888 22.5787 23.5891 22.2594 23.3938C19.7045 21.8323 16.488 21.4796 12.7005 22.3447C12.3352 22.4286 11.9713 22.1999 11.8882 21.8346C11.8043 21.4692 12.0322 21.1054 12.3983 21.0223C16.5429 20.0756 20.0988 20.4832 22.967 22.2355C23.2863 22.4323 23.388 22.8488 23.192 23.1681ZM24.5233 20.2062C24.2776 20.6057 23.7548 20.7305 23.3561 20.4854C20.4321 18.6878 15.9727 18.1673 12.5134 19.2172C12.0649 19.3531 11.5912 19.0999 11.4546 18.6522C11.3194 18.2037 11.5726 17.7308 12.0203 17.5941C15.9719 16.395 20.8851 16.9756 24.2434 19.0398C24.6429 19.2855 24.7691 19.8075 24.5233 20.2062ZM24.6377 17.1204C21.1301 15.0377 15.3445 14.8461 11.9958 15.8619C11.4583 16.0252 10.8895 15.7215 10.7269 15.184C10.5643 14.6464 10.8672 14.0776 11.4056 13.9143C15.2495 12.7478 21.6387 12.9728 25.6764 15.3696C26.1598 15.6569 26.3187 16.2814 26.0321 16.764C25.7462 17.2481 25.1203 17.4078 24.6377 17.1204Z" fill="#2EBD59"/>
</svg>
