<svg width="815" height="165" viewBox="0 0 815 165" fill="none" xmlns="http://www.w3.org/2000/svg">
<path d="M0.371225 163.558C0.371225 163.558 71.0686 135.148 102.2 136.448C133.331 137.749 144.373 144.851 151.427 147.652C158.329 150.453 180.872 161.357 204.029 159.056C227.339 156.756 243.288 149.453 254.943 143.651C266.598 137.749 294.049 122.143 305.858 115.141C317.666 108.138 335.915 95.3338 346.957 85.4303C357.999 75.5268 381.462 54.9195 407.686 49.2174C418.115 46.7166 435.597 45.7162 459.828 47.8169C483.905 49.9177 496.48 50.918 509.515 49.2174C522.55 47.5168 542.947 42.1149 560.89 35.1125C578.832 28.0099 594.475 24.4086 611.344 27.2096C628.213 30.1107 640.175 35.7126 661.032 52.7187C681.888 69.7247 691.089 75.4267 713.173 75.4267C735.256 75.4267 752.585 59.321 763.014 49.2174C773.442 39.1139 809.634 1.00035 815.002 1.00035" stroke="#252F40" stroke-width="2" stroke-miterlimit="10"/>
</svg>
