<svg width="531" height="218" viewBox="0 0 531 218" fill="none" xmlns="http://www.w3.org/2000/svg">
<path d="M530.123 1.00099C525.518 9.40927 517.71 28.2278 510.403 46.646C503.496 63.8629 497.09 80.6795 494.187 87.9867C493.587 89.3881 492.986 90.8896 492.285 92.291C485.378 107.506 473.066 124.222 461.155 124.222C453.147 124.222 443.037 108.107 434.728 92.291C429.523 82.4813 425.119 72.8718 422.116 67.2663C414.408 52.5518 405.199 46.646 397.392 46.646C389.584 46.646 382.677 50.2495 367.763 75.8748C364.059 82.2811 360.956 87.6864 358.253 92.291C350.245 105.804 345.641 111.51 338.033 114.112C330.426 116.615 321.217 110.909 311.707 92.291C308.604 86.1849 305.401 78.7776 302.298 69.8689C299.495 61.861 296.793 54.0533 294.29 46.646C285.181 20.7204 277.073 1.00099 265.462 1.00099C254.251 1.00099 244.741 23.4231 237.334 46.646C234.932 54.2535 232.729 61.861 230.727 68.7678C227.925 78.4773 225.422 86.0848 222.92 92.1909C218.315 103.902 214.311 110.409 210.307 116.615C204.301 126.024 198.095 129.327 193.19 129.327C188.286 129.327 187.385 128.727 180.478 123.622C173.671 118.517 158.656 102.401 147.545 93.0918C147.145 92.7915 146.845 92.4912 146.444 92.291C140.839 88.1869 136.234 88.9877 131.73 92.291C127.726 95.1938 123.722 99.9986 119.217 104.903C113.111 111.51 108.006 124.122 103.102 137.936C100.099 146.645 97.0957 155.854 94.1928 164.262C91.1899 172.77 88.5873 178.976 86.285 183.581C82.7816 190.688 80.0789 194.091 78.177 196.894C74.9739 201.399 68.3674 210.307 59.9591 214.612C51.5508 218.816 34.8343 214.712 22.8224 210.507C10.8106 206.303 0 206.303 0 206.303" stroke="#CB0C9F" stroke-width="2" stroke-miterlimit="10"/>
</svg>
