<svg width="18" height="18" viewBox="0 0 18 18" fill="none" xmlns="http://www.w3.org/2000/svg">
<path d="M12.9249 2.60251C12.5718 2.39551 12.1197 2.51776 11.9158 2.87701C11.7119 3.23551 11.8331 3.69451 12.1862 3.90151C14.2375 5.10601 15.5125 7.34701 15.5125 9.75001C15.5125 13.4723 12.5304 16.5 8.86428 16.5C5.19814 16.5 2.21603 13.4723 2.21603 9.75001C2.21603 7.34776 3.49028 5.10751 5.54089 3.90226C5.89399 3.69526 6.01513 3.23626 5.80978 2.87776C5.60664 2.51851 5.15456 2.39476 4.80072 2.60476C2.29507 4.07626 0.738647 6.81451 0.738647 9.75001C0.738647 14.2988 4.3841 18 8.86428 18C13.3445 18 16.9899 14.2988 16.9899 9.75001C16.9899 6.81301 15.4327 4.07401 12.9249 2.60251Z" fill="white"/>
<path d="M8.8643 6.75C9.2728 6.75 9.603 6.41475 9.603 6V0.75C9.603 0.33525 9.2728 0 8.8643 0C8.45581 0 8.12561 0.33525 8.12561 0.75V6C8.12561 6.41475 8.45581 6.75 8.8643 6.75Z" fill="white"/>
</svg>
