<svg width="24" height="24" viewBox="0 0 24 24" fill="none" xmlns="http://www.w3.org/2000/svg">
<path d="M12 2.62635C6.83062 2.62635 2.625 6.83198 2.625 12.0013C2.625 17.1707 6.83062 21.3763 12 21.3763C17.1694 21.3763 21.375 17.1707 21.375 12.0013C21.375 6.83198 17.1694 2.62635 12 2.62635ZM12 6.4701C12.241 6.4701 12.4767 6.54158 12.6771 6.6755C12.8775 6.80942 13.0337 6.99976 13.126 7.22246C13.2182 7.44515 13.2424 7.6902 13.1953 7.92662C13.1483 8.16303 13.0322 8.38019 12.8618 8.55064C12.6913 8.72108 12.4742 8.83716 12.2378 8.88418C12.0013 8.93121 11.7563 8.90707 11.5336 8.81483C11.3109 8.72258 11.1206 8.56637 10.9866 8.36595C10.8527 8.16553 10.7812 7.9299 10.7812 7.68885C10.7812 7.36562 10.9096 7.05562 11.1382 6.82706C11.3668 6.59851 11.6768 6.4701 12 6.4701ZM14.25 17.0638H10.125C9.92608 17.0638 9.73532 16.9848 9.59467 16.8442C9.45401 16.7035 9.375 16.5128 9.375 16.3138C9.375 16.1149 9.45401 15.9242 9.59467 15.7835C9.73532 15.6429 9.92608 15.5638 10.125 15.5638H11.4375V11.4388H10.6875C10.4886 11.4388 10.2978 11.3598 10.1572 11.2192C10.0165 11.0785 9.9375 10.8878 9.9375 10.6888C9.9375 10.4899 10.0165 10.2992 10.1572 10.1585C10.2978 10.0179 10.4886 9.93885 10.6875 9.93885H12.1875C12.3864 9.93885 12.5772 10.0179 12.7178 10.1585C12.8585 10.2992 12.9375 10.4899 12.9375 10.6888V15.5638H14.25C14.4489 15.5638 14.6397 15.6429 14.7803 15.7835C14.921 15.9242 15 16.1149 15 16.3138C15 16.5128 14.921 16.7035 14.7803 16.8442C14.6397 16.9848 14.4489 17.0638 14.25 17.0638Z" fill="#2A69AC"/>
</svg>
