<svg width="24" height="24" viewBox="0 0 24 24" fill="none" xmlns="http://www.w3.org/2000/svg">
<path d="M4.80039 4.80005C3.47491 4.80005 2.40039 5.87456 2.40039 7.20005V8.40005H21.6004V7.20005C21.6004 5.87456 20.5259 4.80005 19.2004 4.80005H4.80039Z" fill="#212529"/>
<path fill-rule="evenodd" clip-rule="evenodd" d="M21.6004 10.8H2.40039V16.8C2.40039 18.1256 3.47491 19.2 4.80039 19.2H19.2004C20.5259 19.2 21.6004 18.1256 21.6004 16.8V10.8ZM4.80039 15.6C4.80039 14.9373 5.33765 14.4 6.00039 14.4H7.20039C7.86313 14.4 8.40039 14.9373 8.40039 15.6C8.40039 16.2628 7.86313 16.8 7.20039 16.8H6.00039C5.33765 16.8 4.80039 16.2628 4.80039 15.6ZM10.8004 14.4C10.1377 14.4 9.60039 14.9373 9.60039 15.6C9.60039 16.2628 10.1377 16.8 10.8004 16.8H12.0004C12.6632 16.8 13.2004 16.2628 13.2004 15.6C13.2004 14.9373 12.6632 14.4 12.0004 14.4H10.8004Z" fill="#212529"/>
</svg>
