<svg width="20" height="20" viewBox="0 0 20 20" fill="none" xmlns="http://www.w3.org/2000/svg">
<path d="M19.5703 3.59375L10.4297 0.078125C10.2734 0 10.1172 0 10 0C9.84375 0 9.6875 0 9.53125 0.078125L0.390625 3.59375C0.15625 3.67188 0 3.90625 0 4.17969V5.58594C0 5.9375 0.273438 6.21094 0.625 6.21094H19.375C19.6875 6.21094 20 5.9375 20 5.58594V4.17969C20 3.90625 19.8047 3.67188 19.5703 3.59375ZM2.5 7.46094V13.7109H1.875C1.52344 13.7109 1.25 14.0234 1.25 14.3359V16.2109H18.75V14.3359C18.75 14.0234 18.4375 13.7109 18.125 13.7109H17.5V7.46094H15V13.7109H11.25V7.46094H8.75V13.7109H5V7.46094H2.5ZM19.375 17.4609H0.625C0.273438 17.4609 0 17.7734 0 18.0859V19.3359C0 19.6875 0.273438 19.9609 0.625 19.9609H19.375C19.6875 19.9609 20 19.6875 20 19.3359V18.0859C20 17.7734 19.6875 17.4609 19.375 17.4609Z" fill="white"/>
</svg>
