<svg width="20" height="20" viewBox="0 0 20 20" fill="none" xmlns="http://www.w3.org/2000/svg">
<g clip-path="url(#clip0_0_508)">
<path d="M15.7116 10.5693C15.702 8.92994 16.4447 7.69441 17.9447 6.78339C17.1058 5.58151 15.8366 4.92048 14.1636 4.79308C12.5795 4.66809 10.8464 5.71612 10.2118 5.71612C9.54116 5.71612 8.00757 4.83635 6.80088 4.83635C4.31059 4.87481 1.66406 6.82185 1.66406 10.7832C1.66406 11.9539 1.878 13.163 2.30586 14.4081C2.87796 16.0475 4.94038 20.0641 7.09174 19.9992C8.21669 19.9728 9.01233 19.2012 10.4762 19.2012C11.8968 19.2012 12.6324 19.9992 13.8871 19.9992C16.0577 19.968 17.923 16.3167 18.4663 14.6725C15.5553 13.3 15.7116 10.6534 15.7116 10.5693ZM13.1852 3.23785C14.404 1.7908 14.2934 0.473539 14.2573 0C13.1804 0.0624976 11.9353 0.733145 11.2262 1.55763C10.445 2.44221 9.98585 3.53592 10.0844 4.76905C11.2478 4.85798 12.3103 4.25945 13.1852 3.23785Z" fill="#212529"/>
</g>
<defs>
<clipPath id="clip0_0_508">
<rect width="20" height="20" fill="white"/>
</clipPath>
</defs>
</svg>
