<svg width="3" height="8" viewBox="0 0 3 8" fill="none" xmlns="http://www.w3.org/2000/svg">
<path d="M0.3125 6.64062C0.125 6.64062 0 6.78125 0 6.95312V7.6875C0 7.875 0.125 8 0.3125 8H2.6875C2.85938 8 3 7.875 3 7.6875V6.95312C3 6.78125 2.85938 6.64062 2.6875 6.64062H2.375V3.3125C2.375 3.14062 2.23438 3 2.0625 3H0.3125C0.125 3 0 3.14062 0 3.3125V4.0625C0 4.23438 0.125 4.375 0.3125 4.375H0.625V6.64062H0.3125ZM1.5 0C0.875 0 0.375 0.515625 0.375 1.125C0.375 1.75 0.875 2.25 1.5 2.25C2.10938 2.25 2.625 1.75 2.625 1.125C2.625 0.515625 2.10938 0 1.5 0Z" fill="#8392AB"/>
</svg>
