<svg width="35" height="30" viewBox="0 0 35 30" fill="none" xmlns="http://www.w3.org/2000/svg">
<path d="M17.6977 4.34962C11.8557 4.34962 7.12018 9.08513 7.12018 14.9271C7.12018 20.7691 11.8557 25.5046 17.6977 25.5046C23.5396 25.5046 28.2751 20.7691 28.2751 14.9271C28.2751 9.08585 23.5396 4.35034 17.6977 4.34962ZM22.5487 19.6049C22.3588 19.9167 21.9525 20.0141 21.6421 19.8243C19.1585 18.3064 16.0318 17.9636 12.3501 18.8044C11.995 18.886 11.6413 18.6637 11.5605 18.3086C11.4789 17.9535 11.7005 17.5998 12.0563 17.519C16.0852 16.5987 19.5418 16.995 22.33 18.6983C22.6403 18.8896 22.7392 19.2945 22.5487 19.6049ZM23.8428 16.7257C23.6039 17.1141 23.0957 17.2353 22.7082 16.9971C19.8658 15.2497 15.5309 14.7438 12.1682 15.7643C11.7323 15.8964 11.2718 15.6503 11.139 15.2151C11.0076 14.7791 11.2537 14.3194 11.689 14.1866C15.5302 13.0209 20.3061 13.5853 23.5707 15.5918C23.959 15.8308 24.0817 16.3382 23.8428 16.7257ZM23.9539 13.7261C20.5443 11.7015 14.9203 11.5153 11.6651 12.5027C11.1426 12.6615 10.5897 12.3663 10.4316 11.8437C10.2736 11.3212 10.5681 10.7683 11.0913 10.6095C14.8279 9.4756 21.0387 9.6943 24.9637 12.0242C25.4336 12.3035 25.588 12.9105 25.3094 13.3796C25.0315 13.8502 24.4231 14.0054 23.9539 13.7261Z" fill="#2EBD59"/>
</svg>
