<svg width="11" height="11" viewBox="0 0 11 11" fill="none" xmlns="http://www.w3.org/2000/svg">
<g clip-path="url(#clip0_301_37505)">
<path d="M10.0885 2.58967C10.0637 2.54153 10.0279 2.49991 9.98405 2.46821C9.94017 2.43652 9.88942 2.41563 9.83594 2.40725C9.78246 2.39888 9.72776 2.40325 9.67628 2.42001C9.62481 2.43678 9.57803 2.46546 9.53974 2.50373L8.21974 3.82459C8.15495 3.88845 8.06762 3.92425 7.97665 3.92425C7.88567 3.92425 7.79835 3.88845 7.73355 3.82459L7.16293 3.25311C7.131 3.22119 7.10567 3.18329 7.08839 3.14158C7.07111 3.09987 7.06222 3.05516 7.06222 3.01001C7.06222 2.96486 7.07111 2.92016 7.08839 2.87845C7.10567 2.83674 7.131 2.79884 7.16293 2.76692L8.47734 1.45229C8.51674 1.41289 8.54598 1.3645 8.56253 1.3113C8.57908 1.25809 8.58245 1.20166 8.57234 1.14686C8.56223 1.09207 8.53896 1.04055 8.50452 0.996743C8.47008 0.952939 8.42551 0.918164 8.37465 0.895413C7.38185 0.451546 6.14264 0.683147 5.36125 1.45873C4.69738 2.11787 4.49951 3.14783 4.81877 4.28457C4.83598 4.34519 4.83608 4.40939 4.81906 4.47006C4.80203 4.53073 4.76854 4.58551 4.7223 4.62832L1.14559 7.89502C1.00625 8.02013 0.893858 8.17231 0.81527 8.34228C0.736682 8.51225 0.693545 8.69645 0.688491 8.88365C0.683436 9.07084 0.71657 9.2571 0.785871 9.43106C0.855172 9.60503 0.959187 9.76305 1.09157 9.8955C1.22396 10.0279 1.38193 10.132 1.55587 10.2014C1.7298 10.2708 1.91605 10.304 2.10324 10.299C2.29044 10.2941 2.47466 10.251 2.64467 10.1725C2.81467 10.094 2.9669 9.98165 3.09207 9.84236L6.39379 6.2577C6.43598 6.21205 6.48984 6.17879 6.54954 6.16149C6.60924 6.14419 6.67253 6.1435 6.7326 6.15951C7.05623 6.24819 7.39005 6.29419 7.7256 6.29637C8.44318 6.29637 9.07289 6.06412 9.52707 5.6166C10.3682 4.78795 10.4964 3.38244 10.0885 2.58967ZM2.13795 9.60711C1.99645 9.62255 1.85365 9.5937 1.72925 9.52453C1.60485 9.45536 1.50499 9.34928 1.44344 9.22094C1.3819 9.0926 1.3617 8.94832 1.38565 8.80801C1.4096 8.6677 1.4765 8.53828 1.57713 8.43762C1.67776 8.33695 1.80715 8.27 1.94745 8.24601C2.08775 8.22201 2.23204 8.24216 2.3604 8.30366C2.48877 8.36516 2.59488 8.46498 2.66409 8.58936C2.73331 8.71373 2.76221 8.85653 2.74682 8.99803C2.72988 9.15372 2.66029 9.29896 2.54957 9.40972C2.43885 9.52048 2.29364 9.59012 2.13795 9.60711Z" fill="#2D3748"/>
</g>
<defs>
<clipPath id="clip0_301_37505">
<rect width="11" height="11" fill="white"/>
</clipPath>
</defs>
</svg>
