<svg width="90" height="40" viewBox="0 0 90 40" fill="none" xmlns="http://www.w3.org/2000/svg">
<g clip-path="url(#clip0_303_41496)">
<path d="M8.15733 6.52681C3.5287 6.52681 0.528942 9.36611 0.528942 12.9284C0.528896 16.4883 3.5287 19.327 8.15733 19.327C9.57188 19.327 11.3725 18.9143 12.4217 17.7272L12.6572 19.0682H15.2295V12.3415H8.80025V14.7161H11.5857C11.3725 15.834 10.0442 16.5742 8.07229 16.5742C5.50104 16.5742 4.51487 14.7513 4.51487 12.9284C4.51487 11.1043 5.50104 9.28021 8.07229 9.28021C9.67932 9.28021 10.9646 9.91668 11.0933 10.9671H15.079C14.7147 7.88679 11.3289 6.52681 8.15733 6.52681ZM61.5066 6.78624V9.02194H65.1493V6.78624H61.5066ZM22.0196 9.88266C18.7412 9.88266 16.0196 11.8439 16.0196 14.5789C16.0196 17.5727 18.4844 19.327 22.1064 19.327C24.5919 19.327 26.9694 18.4334 27.6342 16.3684H24.2271C23.8841 17.0216 23.0268 17.3479 22.1478 17.3479C20.6051 17.3479 19.726 16.5396 19.6622 15.3174H27.8273C27.9979 12.2902 26.0059 9.88266 22.0196 9.88266ZM34.2462 9.88266C30.796 9.88266 28.3961 11.9298 28.3961 14.6129C28.3961 17.296 30.796 19.327 34.2462 19.327C37.6964 19.327 40.117 17.296 40.117 14.6129C40.117 11.9298 37.6964 9.88266 34.2462 9.88266ZM53.6047 9.88266C50.4533 9.88266 48.7187 11.8785 48.7187 14.2526C48.7187 16.7633 50.239 18.69 53.6047 18.69C54.7826 18.69 55.8961 18.2098 56.5602 17.3836H56.6045V18.2259C56.6045 19.3282 56.4315 20.3082 54.6964 20.3082C54.1408 20.3082 53.6898 20.2552 53.368 20.118C53.0256 19.9808 52.8325 19.7392 52.7463 19.3443H49.1036C49.5323 21.7351 51.9741 22.1998 54.5677 22.1998C59.7772 22.1998 60.1162 19.4464 60.1162 17.9849V10.1404H56.6246V11.2582H56.5821C55.9397 10.3468 54.9325 9.88266 53.6047 9.88266ZM71.4924 9.88266C70.2284 9.88266 68.9414 10.0539 67.9589 10.5007C66.9706 10.9653 66.2869 11.7229 66.2237 12.8932H69.6308C69.7974 12.1362 70.4467 11.7742 71.4522 11.7742C72.1991 11.7742 73.2103 12.0325 73.2103 12.7029C73.2103 13.2535 72.8656 13.4259 72.2451 13.5297C69.717 13.9424 65.7756 13.7182 65.7756 16.6261C65.7756 18.4663 67.4418 19.327 69.5676 19.327C70.8949 19.327 72.291 19.0174 73.2333 18.2259C73.2735 18.5193 73.3137 18.7932 73.4459 19.0682H77.1115C76.6806 18.3637 76.6806 17.5364 76.6806 16.7812V12.8765C76.6806 10.3473 74.1296 9.88266 71.4924 9.88266ZM47.6437 9.96799C46.0792 9.96799 44.8364 10.571 44.3009 11.7067H44.2567V10.1404H40.722V19.0682H44.3659V14.6475C44.3659 13.5308 45.3076 12.5306 47.1071 12.5306C47.6 12.5306 48.0292 12.5997 48.5009 12.7029V10.0366C48.2223 9.98471 47.9224 9.96799 47.6437 9.96799ZM61.5066 10.1404V19.0682H65.1493V10.1404H61.5066ZM22.0196 11.8607C23.2412 11.8607 24.1196 12.6856 24.1846 13.6836H19.6622C19.876 12.5992 20.7344 11.8607 22.0196 11.8607ZM34.2462 12.1189C35.9388 12.1189 36.4743 13.4778 36.4743 14.6129C36.4743 15.7475 35.9388 17.0902 34.2462 17.0902C32.553 17.0902 32.0388 15.7475 32.0388 14.6129C32.0388 13.4778 32.553 12.1189 34.2462 12.1189ZM54.4821 12.1189C56.1109 12.1189 56.6683 13.2379 56.6683 14.3731C56.6683 15.4904 56.0041 16.4537 54.4608 16.4537C52.9606 16.4537 52.3614 15.4039 52.3614 14.3546C52.3614 13.2535 52.875 12.1189 54.4821 12.1189ZM73.1643 14.8885C73.2505 16.7293 72.6702 17.5203 70.9351 17.5203C70.1192 17.5203 69.4125 17.2274 69.4125 16.5056C69.4125 15.8 70.102 15.525 70.9178 15.3693C71.7107 15.1975 72.653 15.1462 73.1643 14.8885ZM30.9029 21.2998V24.0521H35.4671V33.5835H39.4517V24.0521H44.0177V21.2998H30.9029ZM65.5859 21.2998V33.5835H69.2286V28.7149C69.2286 27.7348 69.8262 26.8049 71.1994 26.8049C73.1931 26.8049 73.0207 28.0438 73.0207 29.2655V33.5835H76.6634V27.8542C76.6634 26.5639 76.3646 24.3963 72.6587 24.3963C71.3315 24.3963 69.8262 24.9641 69.2689 25.8773H69.2286V21.2998H65.5859ZM46.8031 24.3963C43.5247 24.3963 40.8019 26.3581 40.8019 29.0931C40.8019 32.0863 43.2667 33.8424 46.8882 33.8424C49.3731 33.8424 51.7518 32.9476 52.4165 30.882H49.0106C48.6664 31.5358 47.8098 31.8632 46.9301 31.8632C45.3874 31.8632 44.5095 31.0549 44.4452 29.8327H52.6102C52.7808 26.8049 50.7888 24.3963 46.8031 24.3963ZM59.2486 24.3963C55.6674 24.3963 53.4174 26.4262 53.4174 29.2655C53.4174 32.001 55.9035 33.8424 59.2486 33.8424C62.2018 33.8424 64.5173 32.4651 64.839 30.0737H61.3055C61.1331 31.0198 60.4896 31.6049 59.2256 31.6049C57.6801 31.6049 57.0607 30.4167 57.0607 29.2655C57.0607 28.0265 57.3824 26.6325 59.4152 26.6325C60.3403 26.6325 61.1734 27.1658 61.1963 27.9233H64.7299C64.4771 25.5672 62.0122 24.3963 59.2486 24.3963ZM46.8031 26.3748C48.0246 26.3748 48.902 27.2004 48.9669 28.1989H44.4452C44.6595 27.1139 45.5173 26.3748 46.8031 26.3748Z" fill="#CBD5E0"/>
<path d="M89.0997 39.0748H81.5558V37.6284H89.0997V39.0748ZM87.2135 28.9304L85.3268 0.534432L83.4408 28.9304H87.2135ZM89.0999 21.9796L85.3273 36.1754H89.0999V21.9796ZM81.556 21.9796L85.3273 36.1754H81.556V21.9796Z" stroke="#CBD5E0" stroke-width="0.858288"/>
</g>
<defs>
<clipPath id="clip0_303_41496">
<rect width="89.0634" height="39.5837" fill="white" transform="scale(1.01052)"/>
</clipPath>
</defs>
</svg>
