<svg width="16" height="16" viewBox="0 0 16 16" fill="none" xmlns="http://www.w3.org/2000/svg">
<g clip-path="url(#clip0_206_9387)">
<path d="M1.33325 7.33331V13.3333C1.33325 13.8637 1.54397 14.3725 1.91904 14.7475C2.29411 15.1226 2.80282 15.3333 3.33325 15.3333H12.6666C13.197 15.3333 13.7057 15.1226 14.0808 14.7475C14.4559 14.3725 14.6666 13.8637 14.6666 13.3333V7.33331H1.33325Z" fill="#212529"/>
<path d="M15.3333 4.66665H13.0533L10.5787 0.333313L9.42133 0.99998L11.518 4.66665H4.482L6.57867 0.99998L5.42133 0.333313L2.94667 4.66665H0.666667C0.489856 4.66665 0.320286 4.73688 0.195262 4.86191C0.0702379 4.98693 0 5.1565 0 5.33331C0 5.51012 0.0702379 5.67969 0.195262 5.80472C0.320286 5.92974 0.489856 5.99998 0.666667 5.99998H15.3333C15.5101 5.99998 15.6797 5.92974 15.8047 5.80472C15.9298 5.67969 16 5.51012 16 5.33331C16 5.1565 15.9298 4.98693 15.8047 4.86191C15.6797 4.73688 15.5101 4.66665 15.3333 4.66665Z" fill="#212529"/>
</g>
<defs>
<clipPath id="clip0_206_9387">
<rect width="16" height="16" fill="white"/>
</clipPath>
</defs>
</svg>
