<svg width="24" height="24" viewBox="0 0 24 24" fill="none" xmlns="http://www.w3.org/2000/svg">
<path d="M9.66348 17H14.3365M12 3V4M18.364 5.63604L17.6569 6.34315M21 11.9999H20M4 11.9999H3M6.3431 6.34315L5.63599 5.63604M8.46442 15.5356C6.51179 13.5829 6.51179 10.4171 8.46442 8.46449C10.417 6.51187 13.5828 6.51187 15.5354 8.46449C17.4882 10.4171 17.4882 13.5829 15.5354 15.5356L14.9883 16.0827C14.3555 16.7155 14 17.5739 14 18.469V19C14 20.1046 13.1046 21 12 21C10.8954 21 9.99995 20.1046 9.99995 19V18.469C9.99995 17.5739 9.6444 16.7155 9.01151 16.0827L8.46442 15.5356Z" stroke="#111827" stroke-width="2" stroke-linecap="round" stroke-linejoin="round"/>
</svg>
