<svg width="18" height="18" viewBox="0 0 18 18" fill="none" xmlns="http://www.w3.org/2000/svg">
<g clip-path="url(#clip0_0_236)">
<path d="M15.3 4.57499C14.475 4.19999 13.65 3.97499 12.75 3.97499C11.55 3.97499 10.5 4.34999 9.525 4.64999C8.925 4.87499 8.325 5.02499 7.875 5.02499C7.575 5.02499 7.425 4.94999 7.35 4.79999C7.35 4.72499 7.425 4.34999 7.5 4.12499C7.725 3.44999 7.95 2.62499 7.35 1.79999C6.975 1.34999 6.375 1.04999 5.7 1.04999C5.025 1.04999 4.425 1.27499 3.825 1.64999C1.425 3.29999 0 6.07499 0 8.99999C0 13.95 4.05 18 9 18C12.975 18 16.575 15.3 17.7 11.4C17.775 10.95 18.825 6.29999 15.3 4.57499ZM2.25 8.99999C2.25 8.17499 2.925 7.49999 3.75 7.49999C4.575 7.49999 5.25 8.17499 5.25 8.99999C5.25 9.82499 4.575 10.5 3.75 10.5C2.925 10.5 2.25 9.82499 2.25 8.99999ZM5.625 14.25C4.8 14.25 4.125 13.575 4.125 12.75C4.125 11.925 4.8 11.25 5.625 11.25C6.45 11.25 7.125 11.925 7.125 12.75C7.125 13.575 6.45 14.25 5.625 14.25ZM9.75 15.75C8.925 15.75 8.25 15.075 8.25 14.25C8.25 13.425 8.925 12.75 9.75 12.75C10.575 12.75 11.25 13.425 11.25 14.25C11.25 15.075 10.575 15.75 9.75 15.75ZM12.75 11.25C11.475 11.25 10.5 10.275 10.5 8.99999C10.5 7.72499 11.475 6.74999 12.75 6.74999C14.025 6.74999 15 7.72499 15 8.99999C15 10.275 14.025 11.25 12.75 11.25Z" fill="#CB0C9F"/>
</g>
<defs>
<clipPath id="clip0_0_236">
<rect width="18" height="18" fill="white"/>
</clipPath>
</defs>
</svg>
