<svg width="469" height="207" viewBox="0 0 469 207" fill="none" xmlns="http://www.w3.org/2000/svg">
<path d="M4.15964 148.926C6.45694 148.926 8.31927 146.942 8.31927 144.494C8.31927 142.046 6.45694 140.062 4.15964 140.062C1.86233 140.062 0 142.046 0 144.494C0 146.942 1.86233 148.926 4.15964 148.926Z" fill="#CB0C9F"/>
<path d="M95.4976 195.829C102.725 195.829 108.583 189.587 108.583 181.887C108.583 174.188 102.725 167.946 95.4976 167.946C88.2707 167.946 82.4121 174.188 82.4121 181.887C82.4121 189.587 88.2707 195.829 95.4976 195.829Z" fill="#CB0C9F"/>
<path d="M141.082 184.564C151.037 184.564 159.107 175.966 159.107 165.36C159.107 154.754 151.037 146.156 141.082 146.156C131.127 146.156 123.057 154.754 123.057 165.36C123.057 175.966 131.127 184.564 141.082 184.564Z" fill="#1E293B"/>
<path d="M49.8291 59.3673C61.9379 59.3673 71.7539 48.9091 71.7539 36.0083C71.7539 23.1074 61.9379 12.6492 49.8291 12.6492C37.7204 12.6492 27.9043 23.1074 27.9043 36.0083C27.9043 48.9091 37.7204 59.3673 49.8291 59.3673Z" fill="#1E293B"/>
<path d="M95.4984 14.3105C97.9872 14.3105 100.005 12.161 100.005 9.5094C100.005 6.85784 97.9872 4.70837 95.4984 4.70837C93.0097 4.70837 90.9922 6.85784 90.9922 9.5094C90.9922 12.161 93.0097 14.3105 95.4984 14.3105Z" fill="#1E293B"/>
<path d="M186.75 19.0196C191.68 19.0196 195.676 14.7619 195.676 9.50975C195.676 4.25762 191.68 0 186.75 0C181.821 0 177.824 4.25762 177.824 9.50975C177.824 14.7619 181.821 19.0196 186.75 19.0196Z" fill="#CB0C9F"/>
<path d="M231.641 50.9651C239.155 50.9651 245.246 44.4753 245.246 36.4696C245.246 28.4639 239.155 21.974 231.641 21.974C224.127 21.974 218.035 28.4639 218.035 36.4696C218.035 44.4753 224.127 50.9651 231.641 50.9651Z" fill="#1E293B"/>
<path d="M278.089 99.9915C282.827 99.9915 286.668 95.8991 286.668 90.851C286.668 85.8028 282.827 81.7106 278.089 81.7106C273.351 81.7106 269.51 85.8028 269.51 90.851C269.51 95.8991 273.351 99.9915 278.089 99.9915Z" fill="#1E293B"/>
<path d="M323.759 186.134C328.736 186.134 332.771 181.835 332.771 176.532C332.771 171.228 328.736 166.929 323.759 166.929C318.781 166.929 314.746 171.228 314.746 176.532C314.746 181.835 318.781 186.134 323.759 186.134Z" fill="#1E293B"/>
<path d="M278.09 200.63C287.806 200.63 295.682 192.238 295.682 181.887C295.682 171.536 287.806 163.144 278.09 163.144C268.374 163.144 260.498 171.536 260.498 181.887C260.498 192.238 268.374 200.63 278.09 200.63Z" fill="#CB0C9F"/>
<path d="M369.43 164.529C374.216 164.529 378.096 160.396 378.096 155.296C378.096 150.197 374.216 146.064 369.43 146.064C364.644 146.064 360.764 150.197 360.764 155.296C360.764 160.396 364.644 164.529 369.43 164.529Z" fill="#CB0C9F"/>
<path d="M460.681 207C465.275 207 469 203.032 469 198.136C469 193.241 465.275 189.273 460.681 189.273C456.086 189.273 452.361 193.241 452.361 198.136C452.361 203.032 456.086 207 460.681 207Z" fill="#CB0C9F"/>
</svg>
