<svg width="13" height="13" viewBox="0 0 13 13" fill="none" xmlns="http://www.w3.org/2000/svg">
<g clip-path="url(#clip0_301_36961)">
<path d="M10.1055 2.07821C9.08091 1.25843 7.80764 0.812097 6.49546 0.812745C4.94866 0.812745 3.50393 1.40866 2.42382 2.49081C1.38001 3.53792 0.807957 4.92044 0.812527 6.38268C0.812563 7.45475 1.1273 8.50323 1.7177 9.39807L1.72253 9.40493C1.72964 9.41534 1.737 9.42575 1.74436 9.43591C1.75173 9.44606 1.76087 9.45927 1.7629 9.46257L1.76848 9.47272C1.79718 9.5235 1.81927 9.58546 1.79971 9.64792L1.33202 11.3405C1.31331 11.4034 1.30306 11.4685 1.30155 11.5342C1.30121 11.7069 1.36937 11.8727 1.49107 11.9952C1.61278 12.1177 1.7781 12.1869 1.95079 12.1877C2.04204 12.1847 2.13197 12.165 2.21612 12.1296L3.92973 11.5111L3.95132 11.5027C3.99793 11.4831 4.04802 11.4732 4.09858 11.4735C4.14519 11.4736 4.1914 11.4822 4.23493 11.4989C4.27606 11.5149 4.64956 11.6578 5.04362 11.768C5.37116 11.8594 6.05264 11.9965 6.58661 11.9965C8.10116 11.9965 9.51542 11.41 10.5686 10.3446C11.6127 9.28737 12.1875 7.882 12.1875 6.38573C12.1877 6.00165 12.147 5.61864 12.0662 5.24315C11.8036 4.00866 11.1074 2.88437 10.1055 2.07821ZM4.06253 7.31274C3.90183 7.31274 3.74474 7.26509 3.61113 7.17581C3.47751 7.08653 3.37337 6.95964 3.31187 6.81117C3.25038 6.66271 3.23429 6.49934 3.26564 6.34173C3.29699 6.18412 3.37437 6.03935 3.488 5.92572C3.60163 5.81209 3.74641 5.73471 3.90402 5.70335C4.06163 5.672 4.22499 5.68809 4.37346 5.74959C4.52192 5.81109 4.64882 5.91523 4.7381 6.04884C4.82737 6.18246 4.87503 6.33955 4.87503 6.50024C4.87503 6.71573 4.78942 6.92239 4.63705 7.07477C4.48468 7.22714 4.27801 7.31274 4.06253 7.31274ZM6.50003 7.31274C6.33933 7.31274 6.18224 7.26509 6.04863 7.17581C5.91501 7.08653 5.81087 6.95964 5.74937 6.81117C5.68788 6.66271 5.67179 6.49934 5.70314 6.34173C5.73449 6.18412 5.81187 6.03935 5.9255 5.92572C6.03913 5.81209 6.18391 5.73471 6.34152 5.70335C6.49912 5.672 6.66249 5.68809 6.81096 5.74959C6.95942 5.81109 7.08632 5.91523 7.17559 6.04884C7.26487 6.18246 7.31253 6.33955 7.31253 6.50024C7.31253 6.71573 7.22692 6.92239 7.07455 7.07477C6.92218 7.22714 6.71551 7.31274 6.50003 7.31274ZM8.93753 7.31274C8.77683 7.31274 8.61974 7.26509 8.48612 7.17581C8.35251 7.08653 8.24837 6.95964 8.18687 6.81117C8.12538 6.66271 8.10929 6.49934 8.14064 6.34173C8.17199 6.18412 8.24937 6.03935 8.363 5.92572C8.47663 5.81209 8.62141 5.73471 8.77901 5.70335C8.93662 5.672 9.09999 5.68809 9.24846 5.74959C9.39692 5.81109 9.52382 5.91523 9.61309 6.04884C9.70237 6.18246 9.75002 6.33955 9.75002 6.50024C9.75002 6.71573 9.66442 6.92239 9.51205 7.07477C9.35968 7.22714 9.15301 7.31274 8.93753 7.31274Z" fill="#718096"/>
</g>
<defs>
<clipPath id="clip0_301_36961">
<rect width="13" height="13" fill="white"/>
</clipPath>
</defs>
</svg>
