<svg width="96" height="70" viewBox="0 0 96 70" fill="none" xmlns="http://www.w3.org/2000/svg">
<g filter="url(#filter0_f_0_532)">
<path d="M80.4143 61.0144C80.7861 58.6352 80.9806 56.1809 80.9806 53.6722C80.9806 31.808 66.2095 14.0836 47.9888 14.0836C29.7679 14.0836 14.9969 31.808 14.9969 53.6722C14.9969 56.1809 15.1914 58.6352 15.5632 61.0144H80.4143Z" fill="#CED4DA"/>
<path d="M47.9889 1.00034C47.9027 1.00034 47.8166 1.00064 47.7306 1.00123C46.3068 1.01109 45.1593 2.40407 45.1675 4.11254C45.1757 5.82101 46.3365 7.198 47.7603 7.18815C47.8364 7.18762 47.9126 7.18736 47.9889 7.18736C48.0651 7.18736 48.1413 7.18762 48.2174 7.18815C49.6412 7.198 50.8021 5.82101 50.8103 4.11254C50.8185 2.40407 49.6709 1.01109 48.2472 1.00123C48.1611 1.00064 48.075 1.00034 47.9889 1.00034Z" fill="#CED4DA"/>
<path d="M20.7575 20.6102C21.7701 19.4092 21.7796 17.4505 20.7787 16.2354C19.7778 15.0203 18.1455 15.0089 17.1329 16.2099C17.011 16.3546 16.8897 16.5001 16.7692 16.6464C15.7683 17.8615 15.7778 19.8202 16.7904 21.0212C17.803 22.2222 19.4353 22.2108 20.4362 20.9957C20.5427 20.8665 20.6498 20.738 20.7575 20.6102Z" fill="#CED4DA"/>
<path d="M78.8448 16.21C77.8322 15.0089 76.1999 15.0203 75.199 16.2354C74.1981 17.4506 74.2076 19.4092 75.2203 20.6103C75.328 20.738 75.435 20.8665 75.5415 20.9957C76.5424 22.2109 78.1747 22.2223 79.1873 21.0212C80.1999 19.8202 80.2094 17.8615 79.2085 16.6464C79.088 16.5001 78.9668 16.3546 78.8448 16.21Z" fill="#CED4DA"/>
<path d="M9.25068 53.3979C9.25889 51.6894 8.11135 50.2964 6.68757 50.2866C5.2638 50.2767 4.10294 51.6537 4.09472 53.3622C4.09423 53.4654 4.09398 53.5688 4.09398 53.6721C4.09398 53.7755 4.09423 53.8788 4.09472 53.9821C4.10294 55.6905 5.26379 57.0675 6.68757 57.0577C8.11135 57.0478 9.25889 55.6549 9.25068 53.9464C9.25024 53.855 9.25002 53.7636 9.25002 53.6721C9.25002 53.5807 9.25024 53.4892 9.25068 53.3979Z" fill="#CED4DA"/>
<path d="M91.883 53.3622C91.8748 51.6537 90.7139 50.2767 89.2901 50.2866C87.8664 50.2964 86.7188 51.6894 86.727 53.3979C86.7275 53.4892 86.7277 53.5807 86.7277 53.6721C86.7277 53.7636 86.7275 53.855 86.727 53.9464C86.7188 55.6549 87.8664 57.0478 89.2901 57.0577C90.7139 57.0675 91.8748 55.6905 91.883 53.9821C91.8832 53.9491 91.8833 53.916 91.8834 53.883C91.8835 53.8491 91.8836 53.8152 91.8837 53.7813L91.8837 53.6721C91.8837 53.5688 91.8835 53.4654 91.883 53.3622Z" fill="#CED4DA"/>
<path d="M57.6911 57.1872C57.6911 55.859 56.7938 54.7823 55.6869 54.7823H41.1952C40.0883 54.7823 39.191 55.859 39.191 57.1872C39.191 58.5154 40.0883 59.5921 41.1952 59.5921H55.6869C56.7938 59.5921 57.6911 58.5154 57.6911 57.1872Z" fill="white"/>
<path fill-rule="evenodd" clip-rule="evenodd" d="M52.9421 58.2689C50.2088 56.1327 46.6774 56.1571 43.9649 58.3311C41.7767 60.0847 39.2045 61.0207 36.5732 61.0207H3.57836C2.15456 61.0207 1.00034 59.6357 1.00034 57.9272C1.00034 56.2187 2.15456 54.8336 3.57836 54.8336H36.5732C38.1851 54.8336 39.7608 54.2603 41.1012 53.1861C45.5293 49.6372 51.2941 49.5973 55.7561 53.0845L55.9006 53.1974C57.2668 54.2652 58.8621 54.8336 60.4926 54.8336H92.3788C93.8026 54.8336 94.9568 56.2187 94.9568 57.9272C94.9568 59.6357 93.8026 61.0207 92.3788 61.0207H60.4926C57.863 61.0207 55.29 60.1039 53.0866 58.3818L52.9421 58.2689Z" fill="#CED4DA"/>
<g filter="url(#filter1_f_0_532)">
<path d="M42.0853 46.8546C49.3692 42.2123 53.354 34.1118 50.986 28.7617C48.6179 23.4116 40.7933 22.8379 33.5095 27.4802C26.2257 32.1225 22.2408 40.223 24.6089 45.573C26.9771 50.9231 34.8016 51.4969 42.0853 46.8546Z" fill="white"/>
</g>
</g>
<defs>
<filter id="filter0_f_0_532" x="0" y="0" width="95.9571" height="62.021" filterUnits="userSpaceOnUse" color-interpolation-filters="sRGB">
<feFlood flood-opacity="0" result="BackgroundImageFix"/>
<feBlend mode="normal" in="SourceGraphic" in2="BackgroundImageFix" result="shape"/>
<feGaussianBlur stdDeviation="0.5" result="effect1_foregroundBlur_0_532"/>
</filter>
<filter id="filter1_f_0_532" x="3.91887" y="4.3348" width="67.7571" height="65.6652" filterUnits="userSpaceOnUse" color-interpolation-filters="sRGB">
<feFlood flood-opacity="0" result="BackgroundImageFix"/>
<feBlend mode="normal" in="SourceGraphic" in2="BackgroundImageFix" result="shape"/>
<feGaussianBlur stdDeviation="10" result="effect1_foregroundBlur_0_532"/>
</filter>
</defs>
</svg>
