<svg width="136" height="72" viewBox="0 0 136 72" fill="none" xmlns="http://www.w3.org/2000/svg">
<g filter="url(#filter0_f_204_8158)">
<path d="M114.313 71.9925C114.848 69.1384 115.128 66.1943 115.128 63.1848C115.128 36.9567 93.8658 15.6945 67.6378 15.6945C41.4096 15.6945 20.1475 36.9567 20.1475 63.1848C20.1475 66.1943 20.4274 69.1384 20.9627 71.9925H114.313Z" fill="#CED4DA"/>
<path d="M67.638 0C67.5139 0 67.39 0.000357797 67.2662 0.00107233C65.2167 0.0128959 63.5649 1.6839 63.5767 3.73337C63.5885 5.78284 65.2595 7.43468 67.309 7.42285C67.4186 7.42222 67.5282 7.42191 67.638 7.42191C67.7477 7.42191 67.8574 7.42222 67.9669 7.42285C70.0164 7.43468 71.6874 5.78284 71.6992 3.73337C71.7111 1.6839 70.0592 0.0128959 68.0098 0.00107233C67.8859 0.000357797 67.762 0 67.638 0Z" fill="#CED4DA"/>
<path d="M28.4395 23.5239C29.8972 22.0832 29.9108 19.7336 28.4701 18.2759C27.0293 16.8183 24.6797 16.8046 23.2221 18.2453C23.0466 18.4188 22.872 18.5934 22.6985 18.7689C21.2578 20.2266 21.2715 22.5762 22.7291 24.0169C24.1867 25.4577 26.5363 25.444 27.9771 23.9863C28.1303 23.8313 28.2845 23.6772 28.4395 23.5239Z" fill="#CED4DA"/>
<path d="M112.054 18.2454C110.596 16.8046 108.247 16.8183 106.806 18.2759C105.365 19.7336 105.379 22.0832 106.836 23.5239C106.991 23.6772 107.146 23.8313 107.299 23.9864C108.74 25.444 111.089 25.4577 112.547 24.0169C114.004 22.5762 114.018 20.2266 112.577 18.7689C112.404 18.5934 112.229 18.4189 112.054 18.2454Z" fill="#CED4DA"/>
<path d="M11.876 62.8558C11.8878 60.8063 10.236 59.1353 8.1865 59.1235C6.13703 59.1116 4.46602 60.7635 4.4542 62.8129C4.45348 62.9368 4.45312 63.0607 4.45312 63.1847C4.45312 63.3088 4.45348 63.4327 4.4542 63.5566C4.46602 65.606 6.13703 67.2579 8.1865 67.246C10.236 67.2342 11.8878 65.5632 11.876 63.5137C11.8753 63.4042 11.875 63.2945 11.875 63.1847C11.875 63.075 11.8753 62.9653 11.876 62.8558Z" fill="#CED4DA"/>
<path d="M130.822 62.8129C130.81 60.7635 129.139 59.1116 127.089 59.1235C125.04 59.1353 123.388 60.8063 123.4 62.8558C123.401 62.9653 123.401 63.075 123.401 63.1847C123.401 63.2945 123.401 63.4042 123.4 63.5137C123.388 65.5632 125.04 67.2342 127.089 67.246C129.139 67.2579 130.81 65.606 130.822 63.5566C130.822 63.517 130.822 63.4773 130.822 63.4377C130.822 63.3971 130.823 63.3564 130.823 63.3157L130.823 63.1847C130.823 63.0607 130.822 62.9368 130.822 62.8129Z" fill="#CED4DA"/>
<path d="M81.604 67.4014C81.604 65.8081 80.3124 64.5165 78.7191 64.5165H57.8588C56.2655 64.5165 54.9739 65.8081 54.9739 67.4014C54.9739 68.9947 56.2655 70.2863 57.8588 70.2863H78.7191C80.3124 70.2863 81.604 68.9947 81.604 67.4014Z" fill="white"/>
<path fill-rule="evenodd" clip-rule="evenodd" d="M74.768 68.699C70.8335 66.1364 65.7503 66.1657 61.8456 68.7736C58.6959 70.8772 54.9933 72 51.2057 72H3.71095C1.66145 72 0 70.3385 0 68.289C0 66.2395 1.66145 64.5781 3.71095 64.5781H51.2057C53.5259 64.5781 55.794 63.8903 57.7234 62.6017C64.0976 58.3445 72.3958 58.2965 78.8186 62.4799L79.0266 62.6153C80.9932 63.8962 83.2896 64.5781 85.6366 64.5781H131.535C133.585 64.5781 135.246 66.2395 135.246 68.289C135.246 70.3385 133.585 72 131.535 72H85.6366C81.8514 72 78.1477 70.9002 74.976 68.8344L74.768 68.699Z" fill="#CED4DA"/>
<g filter="url(#filter1_f_204_8158)">
<path d="M59.1401 55.0065C69.625 49.4376 75.3609 39.7203 71.9522 33.3024C68.5435 26.8845 57.2803 26.1962 46.7956 31.7651C36.3109 37.334 30.5747 47.0513 33.9836 53.4691C37.3924 59.887 48.6555 60.5754 59.1401 55.0065Z" fill="white"/>
</g>
</g>
<defs>
<filter id="filter0_f_204_8158" x="-1" y="-1" width="137.247" height="74" filterUnits="userSpaceOnUse" color-interpolation-filters="sRGB">
<feFlood flood-opacity="0" result="BackgroundImageFix"/>
<feBlend mode="normal" in="SourceGraphic" in2="BackgroundImageFix" result="shape"/>
<feGaussianBlur stdDeviation="0.5" result="effect1_foregroundBlur_204_8158"/>
</filter>
<filter id="filter1_f_204_8158" x="13" y="8" width="79.9355" height="70.7716" filterUnits="userSpaceOnUse" color-interpolation-filters="sRGB">
<feFlood flood-opacity="0" result="BackgroundImageFix"/>
<feBlend mode="normal" in="SourceGraphic" in2="BackgroundImageFix" result="shape"/>
<feGaussianBlur stdDeviation="10" result="effect1_foregroundBlur_204_8158"/>
</filter>
</defs>
</svg>
