<svg width="11" height="13" viewBox="0 0 11 13" fill="none" xmlns="http://www.w3.org/2000/svg">
<path d="M10.6343 6.13299C10.4655 6.30179 10.2404 6.38619 10.0153 6.38619C9.76215 6.38619 9.53708 6.30179 9.36829 6.13299L6.41432 3.17903V11.7877C6.41432 12.2941 5.99233 12.688 5.51407 12.688C5.06394 12.688 4.61381 12.2941 4.61381 11.7877V3.17903L1.63171 6.13299C1.29412 6.49872 0.703325 6.49872 0.365729 6.13299C0 5.7954 0 5.2046 0.365729 4.86701L4.86701 0.365729C5.2046 0 5.7954 0 6.13299 0.365729L10.6343 4.86701C11 5.2046 11 5.7954 10.6343 6.13299Z" fill="#82D616"/>
</svg>
