<svg width="18" height="18" viewBox="0 0 18 18" fill="none" xmlns="http://www.w3.org/2000/svg">
<path fill-rule="evenodd" clip-rule="evenodd" d="M9.00039 2.69995C9.23907 2.69995 9.46803 2.79478 9.63678 2.96355L12.3368 5.66355C12.6882 6.01503 12.6882 6.58487 12.3368 6.93635C11.9853 7.28782 11.4155 7.28782 11.064 6.93635L9.00039 4.87274L6.93679 6.93635C6.58531 7.28782 6.01547 7.28782 5.66399 6.93635C5.31252 6.58487 5.31252 6.01503 5.66399 5.66355L8.36399 2.96355C8.53278 2.79478 8.76169 2.69995 9.00039 2.69995ZM5.66399 11.0636C6.01547 10.7121 6.58531 10.7121 6.93679 11.0636L9.00039 13.1272L11.064 11.0636C11.4155 10.7121 11.9853 10.7121 12.3368 11.0636C12.6882 11.415 12.6882 11.9849 12.3368 12.3363L9.63678 15.0363C9.28533 15.3878 8.71547 15.3878 8.36399 15.0363L5.66399 12.3363C5.31252 11.9849 5.31252 11.415 5.66399 11.0636Z" fill="#C7CCD0"/>
</svg>
