<svg width="18" height="18" viewBox="0 0 18 18" fill="none" xmlns="http://www.w3.org/2000/svg">
<path d="M7 7L11 11" stroke="#252F40" stroke-width="2"/>
<path d="M8.89984 4.577C9.53356 5.17093 9.92198 5.9806 9.98861 6.84658C10.0552 7.71256 9.79525 8.57211 9.25984 9.256C8.57615 9.79306 7.71603 10.0544 6.84912 9.98851C5.98222 9.92261 5.17149 9.53423 4.57684 8.9C3.18484 7.5 2.03484 6.4 4.21684 4.217C6.39884 2.034 7.49984 3.185 8.89984 4.577Z" stroke="#252F40" stroke-width="2"/>
<path d="M13.4239 9.09999C12.8299 8.46627 12.0203 8.07785 11.1543 8.01123C10.2883 7.9446 9.42876 8.20458 8.74487 8.73999C8.20946 9.42388 7.94948 10.2834 8.01611 11.1494C8.08274 12.0154 8.47115 12.8251 9.10487 13.419C10.4969 14.811 11.6049 15.961 13.7839 13.779C15.9629 11.597 14.8159 10.5 13.4239 9.09999Z" stroke="#252F40" stroke-width="2"/>
</svg>
