<svg width="96" height="72" viewBox="0 0 96 72" fill="none" xmlns="http://www.w3.org/2000/svg">
<path fill-rule="evenodd" clip-rule="evenodd" d="M67.0675 45.0212C56.3389 34.3013 38.9536 34.3013 28.225 45.0212C25.9565 47.2879 22.2801 47.2864 20.0134 45.0179C17.7468 42.7494 17.7483 39.0729 20.0168 36.8063C35.2798 21.5558 60.0127 21.5558 75.2757 36.8063C77.5442 39.0729 77.5457 42.7494 75.2791 45.0179C73.0124 47.2864 69.336 47.2879 67.0675 45.0212Z" fill="white"/>
<path d="M47.6553 71.2029C53.9513 71.2029 59.0552 66.099 59.0552 59.803C59.0552 53.5071 53.9513 48.4032 47.6553 48.4032C41.3594 48.4032 36.2554 53.5071 36.2554 59.803C36.2554 66.099 41.3594 71.2029 47.6553 71.2029Z" fill="white"/>
<path opacity="0.398983" fill-rule="evenodd" clip-rule="evenodd" d="M84.1864 27.9064C64.0042 7.73023 31.2887 7.73023 11.1064 27.9064C8.83853 30.1736 5.16209 30.1731 2.89487 27.9052C0.627657 25.6373 0.628212 21.9608 2.89611 19.6936C27.6132 -5.01603 67.6796 -5.01603 92.3968 19.6936C94.6647 21.9608 94.6652 25.6373 92.398 27.9052C90.1308 30.1731 86.4543 30.1736 84.1864 27.9064Z" fill="white"/>
</svg>
