<svg width="13" height="13" viewBox="0 0 13 13" fill="none" xmlns="http://www.w3.org/2000/svg">
<g clip-path="url(#clip0_301_36917)">
<path d="M11.5781 4.87336L7.61719 4.56867L8.20117 2.29875C8.35351 1.62336 8.18137 1.23565 7.63064 1.06477L6.74984 0.814669C6.729 0.809144 6.70693 0.810398 6.68685 0.81825C6.66676 0.826101 6.6497 0.840143 6.63812 0.85834L3.36273 5.99588C3.34457 6.02542 3.31914 6.04983 3.28887 6.06676C3.25861 6.08369 3.22451 6.0926 3.18982 6.09262H0.40625V11.3734H3.39244C3.52344 11.3733 3.65359 11.3944 3.77787 11.4358L5.71517 12.0815C5.9223 12.1506 6.13921 12.1858 6.35756 12.1859H10.8753C11.3577 12.1859 11.6751 11.8426 11.7698 11.3693L12.5937 7.75723V5.88898C12.5937 5.32887 12.1367 4.92414 11.5781 4.87336Z" fill="#718096"/>
</g>
<defs>
<clipPath id="clip0_301_36917">
<rect width="13" height="13" fill="white"/>
</clipPath>
</defs>
</svg>
