<svg width="815" height="165" viewBox="0 0 815 165" fill="none" xmlns="http://www.w3.org/2000/svg">
<path d="M0.375129 163.556C0.375129 163.556 71.0718 135.147 102.203 136.447C133.334 137.748 144.376 144.85 151.43 147.651C158.331 150.452 180.874 161.356 204.031 159.055C227.341 156.754 243.29 149.452 254.945 143.65C266.6 137.748 294.05 122.142 305.859 115.14C317.667 108.137 335.916 95.3329 346.958 85.4295C357.999 75.5261 381.463 54.9189 407.686 49.217C418.115 46.7161 435.597 45.7158 459.827 47.8165C483.904 49.9172 496.479 50.9176 509.514 49.217C522.549 47.5164 542.946 42.1145 560.888 35.1121C578.831 28.0097 594.473 24.4084 611.342 27.2094C628.211 30.1104 640.173 35.7123 661.029 52.7182C681.885 69.724 691.087 75.426 713.17 75.426C735.253 75.426 752.582 59.3205 763.01 49.217C773.438 39.1135 809.63 1.00035 814.998 1.00035" stroke="#1E293B" stroke-width="2" stroke-miterlimit="10"/>
</svg>
