<svg width="32" height="32" viewBox="0 0 32 32" fill="none" xmlns="http://www.w3.org/2000/svg">
<g clip-path="url(#clip0_0_89)">
<path d="M13.8666 20.8737H11.2744L12.8958 10.8484H15.4879L13.8666 20.8737Z" fill="#00579F"/>
<path d="M23.2633 11.0936C22.752 10.8907 21.941 10.6667 20.9382 10.6667C18.3783 10.6667 16.5757 12.0318 16.5646 13.9835C16.5434 15.4234 17.8553 16.2232 18.8365 16.7033C19.8394 17.1939 20.1803 17.5141 20.1803 17.9514C20.1701 18.623 19.3699 18.9326 18.6236 18.9326C17.5886 18.9326 17.0341 18.773 16.1914 18.3993L15.85 18.2392L15.4873 20.4896C16.0953 20.7666 17.2154 21.0124 18.3783 21.0232C21.0983 21.0232 22.8691 19.6792 22.89 17.5994C22.9004 16.4582 22.2076 15.5837 20.7141 14.8691C19.8075 14.4104 19.2522 14.1011 19.2522 13.6318C19.2629 13.2051 19.7219 12.7681 20.7453 12.7681C21.588 12.7467 22.2072 12.9492 22.6763 13.1519L22.9107 13.2584L23.2633 11.0936Z" fill="#00579F"/>
<path d="M26.7088 17.3221C26.9223 16.7461 27.7438 14.5171 27.7438 14.5171C27.733 14.5385 27.9568 13.9305 28.0848 13.5573L28.266 14.4211C28.266 14.4211 28.7569 16.8208 28.8635 17.3221C28.4583 17.3221 27.2208 17.3221 26.7088 17.3221ZM29.9086 10.8484H27.9035C27.2852 10.8484 26.8154 11.0295 26.5487 11.6802L22.6982 20.8735H25.4182C25.4182 20.8735 25.866 19.6362 25.9622 19.3697C26.2606 19.3697 28.9066 19.3697 29.2904 19.3697C29.3649 19.7217 29.5997 20.8735 29.5997 20.8735H31.9999L29.9086 10.8484Z" fill="#00579F"/>
<path d="M9.10896 10.8484L6.57032 17.6847L6.29291 16.2982C5.82357 14.6984 4.35161 12.9602 2.70898 12.096L5.03429 20.863H7.7755L11.85 10.8484H9.10896Z" fill="#00579F"/>
<path d="M4.2133 10.8484H0.0426673L0 11.051C3.25336 11.8829 5.40799 13.8883 6.29323 16.2986L5.38659 11.6911C5.23732 11.0508 4.77861 10.8695 4.2133 10.8484Z" fill="#FAA61A"/>
</g>
<defs>
<clipPath id="clip0_0_89">
<rect width="32" height="32" fill="white"/>
</clipPath>
</defs>
</svg>
