<svg width="19" height="18" viewBox="0 0 19 18" fill="none" xmlns="http://www.w3.org/2000/svg">
<path d="M9 0.53125C4.18359 0.53125 0.28125 4.46875 0.28125 9.25C0.28125 14.0664 4.18359 17.9688 9 17.9688C13.7812 17.9688 17.7188 14.0664 17.7188 9.25C17.7188 4.46875 13.7812 0.53125 9 0.53125ZM14.7305 4.57422C15.7852 5.83984 16.418 7.45703 16.418 9.21484C16.1719 9.14453 13.7109 8.65234 11.25 8.96875C11.0391 8.47656 10.8633 8.05469 10.582 7.49219C13.3594 6.36719 14.5898 4.78516 14.7305 4.57422ZM13.9219 3.69531C13.7812 3.90625 12.6562 5.41797 10.0195 6.40234C8.78906 4.15234 7.45312 2.32422 7.24219 2.04297C9.59766 1.48047 12.0938 2.07812 13.9219 3.69531ZM5.80078 2.53516C6.01172 2.81641 7.34766 4.64453 8.57812 6.85938C5.09766 7.77344 2.03906 7.77344 1.6875 7.73828C2.17969 5.45312 3.72656 3.51953 5.80078 2.53516ZM1.54688 9.28516C1.54688 9.21484 1.54688 9.14453 1.54688 9.03906C1.86328 9.07422 5.48438 9.10938 9.17578 7.98438C9.42188 8.40625 9.59766 8.82812 9.80859 9.25C7.10156 10.0234 4.64062 12.2031 3.44531 14.2422C2.25 12.9414 1.54688 11.1836 1.54688 9.28516ZM4.39453 15.1562C5.20312 13.5742 7.3125 11.5 10.3008 10.4805C11.3555 13.1875 11.7773 15.4727 11.8828 16.1406C9.49219 17.1602 6.60938 16.8789 4.39453 15.1562ZM13.1484 15.4375C13.0781 15.0156 12.6562 12.8359 11.707 10.1289C14.0273 9.77734 16.0664 10.375 16.3477 10.4453C15.9961 12.5195 14.8008 14.3125 13.1484 15.4375Z" fill="#8392AB"/>
</svg>
