<svg width="20" height="20" viewBox="0 0 20 20" fill="none" xmlns="http://www.w3.org/2000/svg">
<path fill-rule="evenodd" clip-rule="evenodd" d="M6.62478 2.65458C7.6684 2.23213 8.80833 2 10 2C14.9706 2 19 6.02944 19 11C19 11.5523 18.5523 12 18 12C17.4477 12 17 11.5523 17 11C17 7.13401 13.866 4 10 4C9.06987 4 8.18446 4.18088 7.37522 4.50845C6.86328 4.71568 6.28029 4.46867 6.07306 3.95673C5.86584 3.4448 6.11285 2.8618 6.62478 2.65458ZM4.66173 4.95861C5.0758 5.32408 5.1152 5.95602 4.74974 6.37008C3.66007 7.60467 3 9.22404 3 11C3 11.5523 2.55228 12 2 12C1.44772 12 1 11.5523 1 11C1 8.71818 1.85048 6.63256 3.25026 5.04662C3.61573 4.63255 4.24766 4.59315 4.66173 4.95861Z" fill="#111827"/>
<path fill-rule="evenodd" clip-rule="evenodd" d="M4.99994 11C4.99994 8.23858 7.23851 6 9.99994 6C12.7613 6 14.9999 8.23858 14.9999 11C14.9999 11.5523 14.5522 12 13.9999 12C13.4476 12 12.9999 11.5523 12.9999 11C12.9999 9.34315 11.6568 8 9.99994 8C8.34309 8 6.99994 9.34315 6.99994 11C6.99994 12.6772 6.65529 14.2764 6.032 15.7288C5.8142 16.2363 5.2262 16.4712 4.71868 16.2533C4.21116 16.0355 3.9763 15.4475 4.1941 14.94C4.71241 13.7323 4.99994 12.401 4.99994 11ZM13.9211 13.0123C14.4665 13.0989 14.8386 13.6112 14.752 14.1567C14.6204 14.9867 14.4377 15.7998 14.2071 16.5928C14.053 17.1231 13.4981 17.428 12.9678 17.2739C12.4374 17.1197 12.1325 16.5648 12.2867 16.0345C12.4939 15.3215 12.6583 14.5901 12.7767 13.8433C12.8633 13.2979 13.3756 12.9258 13.9211 13.0123Z" fill="#111827"/>
<path fill-rule="evenodd" clip-rule="evenodd" d="M10.0001 10C10.5524 10 11.0001 10.4477 11.0001 11C11.0001 13.2363 10.5407 15.3679 9.71026 17.3036C9.49251 17.8111 8.90452 18.046 8.39698 17.8283C7.88944 17.6105 7.65452 17.0225 7.87228 16.515C8.59783 14.8239 9.00011 12.9602 9.00011 11C9.00011 10.4477 9.44782 10 10.0001 10Z" fill="#111827"/>
</svg>
