<svg width="13" height="13" viewBox="0 0 13 13" fill="none" xmlns="http://www.w3.org/2000/svg">
<path d="M11.9226 3.06059C11.8934 3.0037 11.8511 2.95452 11.7993 2.91706C11.7474 2.87959 11.6874 2.85491 11.6242 2.84501C11.561 2.83511 11.4964 2.84028 11.4355 2.86009C11.3747 2.87991 11.3194 2.91381 11.2742 2.95903L9.71417 4.52005C9.63759 4.59552 9.5344 4.63782 9.42688 4.63782C9.31936 4.63782 9.21616 4.59552 9.13958 4.52005L8.46521 3.84466C8.42748 3.80693 8.39754 3.76214 8.37712 3.71285C8.3567 3.66355 8.34619 3.61072 8.34619 3.55736C8.34619 3.504 8.3567 3.45117 8.37712 3.40188C8.39754 3.35258 8.42748 3.30779 8.46521 3.27007L10.0186 1.71641C10.0652 1.66985 10.0997 1.61267 10.1193 1.54979C10.1388 1.48691 10.1428 1.42022 10.1309 1.35546C10.1189 1.2907 10.0914 1.22981 10.0507 1.17804C10.01 1.12628 9.95735 1.08518 9.89724 1.05829C8.72394 0.53372 7.25941 0.807431 6.33595 1.72403C5.55138 2.50302 5.31754 3.72024 5.69484 5.06366C5.71518 5.1353 5.7153 5.21117 5.69518 5.28288C5.67506 5.35458 5.63548 5.41931 5.58084 5.46991L1.35381 9.33055C1.18913 9.47841 1.05631 9.65826 0.963431 9.85913C0.870555 10.06 0.819575 10.2777 0.813601 10.4989C0.807628 10.7202 0.846786 10.9403 0.928687 11.1459C1.01059 11.3515 1.13351 11.5382 1.28997 11.6948C1.44642 11.8513 1.63312 11.9743 1.83868 12.0563C2.04424 12.1383 2.26435 12.1775 2.48558 12.1716C2.70681 12.1658 2.92453 12.1149 3.12545 12.0221C3.32636 11.9293 3.50627 11.7966 3.6542 11.632L7.55623 7.39553C7.60609 7.34159 7.66974 7.30228 7.74029 7.28183C7.81085 7.26139 7.88565 7.26058 7.95664 7.2795C8.33911 7.3843 8.73363 7.43867 9.13019 7.44124C9.97824 7.44124 10.7224 7.16676 11.2592 6.63788C12.2532 5.65856 12.4048 3.99751 11.9226 3.06059ZM2.5266 11.3539C2.35938 11.3722 2.19061 11.3381 2.04359 11.2563C1.89658 11.1746 1.77855 11.0492 1.70582 10.8976C1.63308 10.7459 1.60922 10.5754 1.63752 10.4095C1.66582 10.2437 1.74488 10.0908 1.86381 9.97181C1.98274 9.85284 2.13566 9.77372 2.30146 9.74536C2.46727 9.717 2.6378 9.74081 2.7895 9.81349C2.9412 9.88617 3.06661 10.0041 3.14841 10.1511C3.2302 10.2981 3.26436 10.4669 3.24617 10.6341C3.22615 10.8181 3.14391 10.9898 3.01306 11.1207C2.88221 11.2515 2.71059 11.3338 2.5266 11.3539Z" fill="white"/>
</svg>
