<svg width="709" height="270" viewBox="0 0 709 270" fill="none" xmlns="http://www.w3.org/2000/svg">
<circle cx="71" cy="47" r="21" fill="url(#paint0_linear_301_32175)"/>
<circle cx="141" cy="9" r="5" fill="url(#paint1_linear_301_32175)"/>
<circle cx="141" cy="250" r="13" fill="#CB0C9F"/>
<circle cx="5" cy="194" r="5" fill="#CB0C9F"/>
<circle cx="211" cy="192" r="18" fill="url(#paint2_linear_301_32175)"/>
<circle cx="281" cy="10" r="10" fill="#CB0C9F"/>
<circle cx="352" cy="47" r="12" fill="url(#paint3_linear_301_32175)"/>
<circle cx="421" cy="120" r="8" fill="url(#paint4_linear_301_32175)"/>
<circle cx="421" cy="239" r="20" fill="#CB0C9F"/>
<circle cx="491" cy="232" r="6" fill="url(#paint5_linear_301_32175)"/>
<circle cx="561" cy="194" r="6" fill="#CB0C9F"/>
<circle cx="701" cy="262" r="8" fill="#CB0C9F"/>
<defs>
<linearGradient id="paint0_linear_301_32175" x1="51.0839" y1="68" x2="87.6935" y2="62.6081" gradientUnits="userSpaceOnUse">
<stop stop-color="#313860"/>
<stop offset="1" stop-color="#151928"/>
</linearGradient>
<linearGradient id="paint1_linear_301_32175" x1="136.258" y1="14" x2="144.975" y2="12.7162" gradientUnits="userSpaceOnUse">
<stop stop-color="#313860"/>
<stop offset="1" stop-color="#151928"/>
</linearGradient>
<linearGradient id="paint2_linear_301_32175" x1="193.929" y1="210" x2="225.309" y2="205.378" gradientUnits="userSpaceOnUse">
<stop stop-color="#313860"/>
<stop offset="1" stop-color="#151928"/>
</linearGradient>
<linearGradient id="paint3_linear_301_32175" x1="340.619" y1="59" x2="361.539" y2="55.9189" gradientUnits="userSpaceOnUse">
<stop stop-color="#313860"/>
<stop offset="1" stop-color="#151928"/>
</linearGradient>
<linearGradient id="paint4_linear_301_32175" x1="413.413" y1="128" x2="427.359" y2="125.946" gradientUnits="userSpaceOnUse">
<stop stop-color="#313860"/>
<stop offset="1" stop-color="#151928"/>
</linearGradient>
<linearGradient id="paint5_linear_301_32175" x1="485.31" y1="238" x2="495.77" y2="236.459" gradientUnits="userSpaceOnUse">
<stop stop-color="#313860"/>
<stop offset="1" stop-color="#151928"/>
</linearGradient>
</defs>
</svg>
