<svg width="17" height="17" viewBox="0 0 17 17" fill="none" xmlns="http://www.w3.org/2000/svg">
<path d="M0.151404 14.6209C-0.050468 14.8227 -0.050468 15.15 0.151404 15.3519C0.353276 15.5538 0.680576 15.5538 0.882448 15.3519L0.151404 14.6209ZM3.64108 15.3691C3.43921 15.571 3.43921 15.8983 3.64108 16.1002C3.84295 16.302 4.17025 16.302 4.37212 16.1002L3.64108 15.3691ZM7.13075 16.1174C6.92888 16.3192 6.92888 16.6465 7.13075 16.8484C7.33262 17.0503 7.65992 17.0503 7.8618 16.8484L7.13075 16.1174ZM11.0409 15.9154C10.839 16.1173 10.839 16.4446 11.0409 16.6465C11.2428 16.8483 11.5701 16.8483 11.772 16.6465L11.0409 15.9154ZM16.7979 11.6205C16.9998 11.4187 16.9998 11.0914 16.7979 10.8895C16.596 10.6876 16.2687 10.6876 16.0668 10.8895L16.7979 11.6205ZM0.882448 15.3519L15.5033 0.731021L14.7723 -2.3016e-05L0.151404 14.6209L0.882448 15.3519ZM4.37212 16.1002L16.2516 4.22069L15.5205 3.48965L3.64108 15.3691L4.37212 16.1002ZM7.8618 16.8484L16.9998 7.71037L16.2688 6.97933L7.13075 16.1174L7.8618 16.8484ZM11.772 16.6465L16.7979 11.6205L16.0668 10.8895L11.0409 15.9154L11.772 16.6465Z" fill="#ADB5BD"/>
</svg>
