<svg width="478" height="439" viewBox="0 0 478 439" fill="none" xmlns="http://www.w3.org/2000/svg">
<path d="M388.183 172.732L324.571 193.336L262.16 213.54L216.951 228.142V48.3087C296.966 48.2087 364.779 100.519 388.183 172.732Z" fill="#EA0606"/>
<path d="M478 228.142C478 314.358 436.192 390.872 371.68 438.381L352.177 411.876L323.571 372.969L283.964 319.159L245.157 266.349L216.951 228.042L262.16 213.44L324.571 193.236L388.183 172.632L434.092 157.729L465.298 147.627C473.499 173.132 478 200.137 478 228.142Z" fill="#CB0C9F"/>
<path d="M283.964 319.159C265.16 332.962 242.056 341.163 216.951 341.163C191.847 341.163 168.743 332.962 149.939 319.159L188.846 266.349L216.951 228.042L245.157 266.349L283.964 319.159Z" fill="#1E293B"/>
<path d="M216.951 228.142L188.846 266.449C177.144 257.848 169.443 243.845 169.443 228.142C169.443 222.941 170.243 217.94 171.843 213.24L216.951 228.142Z" fill="#A8B8D8"/>
<path d="M216.952 0V228.142L171.843 213.24L109.632 192.636L46.2201 171.632L0.311581 156.429C30.4172 65.5121 116.033 0 216.952 0Z" fill="#67C23A"/>
<path d="M216.951 0V32.4059V48.2089V65.0121V98.4182V130.224V162.93V180.633V228.142L262.16 213.54L278.963 208.039L310.169 198.037L340.374 188.235L372.18 177.933L388.183 172.732L403.286 167.831L434.092 157.929L465.398 147.827" stroke="white" stroke-width="2" stroke-miterlimit="10"/>
<path d="M144.938 326.061L149.939 319.159L158.941 306.957L178.344 280.652L188.846 266.349L216.951 228.142L245.157 266.349L255.559 280.652L274.962 306.957L283.964 319.159L293.866 332.562L313.67 359.467L332.973 385.772L352.177 411.876L371.68 438.381" stroke="white" stroke-width="2" stroke-miterlimit="10"/>
<path d="M0.311581 156.429L31.1174 166.531L62.1231 176.833L93.829 187.335L124.035 197.336L155.14 207.638L171.843 213.24L216.952 228.142" stroke="white" stroke-width="2" stroke-miterlimit="10"/>
</svg>
