<svg width="292" height="274" viewBox="0 0 292 274" fill="none" xmlns="http://www.w3.org/2000/svg">
<path opacity="0.3" d="M4.50772 4.50772L39.9684 188.322L181.411 269.962L252.032 147.452L287.492 45.478L181.411 73.9266L4.50772 4.50772Z" fill="#EA0606" stroke="#8A8B8E" stroke-width="2" stroke-miterlimit="10"/>
<g opacity="0.3">
<path opacity="0.5" d="M4.50772 8.01372C6.44403 8.01372 8.01372 6.44403 8.01372 4.50772C8.01372 2.57141 6.44403 1.00172 4.50772 1.00172C2.57141 1.00172 1.00172 2.57141 1.00172 4.50772C1.00172 6.44403 2.57141 8.01372 4.50772 8.01372Z" fill="#EA0606" stroke="#8A8B8E" stroke-width="2" stroke-miterlimit="10"/>
<path opacity="0.5" d="M287.492 48.8838C289.429 48.8838 290.998 47.3141 290.998 45.3778C290.998 43.4414 289.429 41.8717 287.492 41.8717C285.556 41.8717 283.986 43.4414 283.986 45.3778C283.986 47.3141 285.556 48.8838 287.492 48.8838Z" fill="#EA0606" stroke="#8A8B8E" stroke-width="2" stroke-miterlimit="10"/>
<path opacity="0.5" d="M252.432 150.458C254.369 150.458 255.938 148.888 255.938 146.952C255.938 145.015 254.369 143.446 252.432 143.446C250.496 143.446 248.926 145.015 248.926 146.952C248.926 148.888 250.496 150.458 252.432 150.458Z" fill="#EA0606" stroke="#8A8B8E" stroke-width="2" stroke-miterlimit="10"/>
<path opacity="0.5" d="M181.41 272.667C183.347 272.667 184.916 271.097 184.916 269.161C184.916 267.225 183.347 265.655 181.41 265.655C179.474 265.655 177.904 267.225 177.904 269.161C177.904 271.097 179.474 272.667 181.41 272.667Z" fill="#EA0606" stroke="#8A8B8E" stroke-width="2" stroke-miterlimit="10"/>
<path opacity="0.5" d="M40.4697 191.528C42.406 191.528 43.9757 189.958 43.9757 188.022C43.9757 186.086 42.406 184.516 40.4697 184.516C38.5334 184.516 36.9637 186.086 36.9637 188.022C36.9637 189.958 38.5334 191.528 40.4697 191.528Z" fill="#EA0606" stroke="#8A8B8E" stroke-width="2" stroke-miterlimit="10"/>
</g>
</svg>
