<svg width="15" height="16" viewBox="0 0 15 16" fill="none" xmlns="http://www.w3.org/2000/svg">
<g clip-path="url(#clip0_214_20405)">
<path d="M11.407 14.9996C11.3095 15 11.2144 14.9672 11.1352 14.9059L7.41164 11.9921L3.68811 14.9059C3.60856 14.9681 3.51272 15.0015 3.41445 15.0011C3.31618 15.0007 3.22057 14.9666 3.14144 14.9037C3.06231 14.8408 3.00376 14.7524 2.97426 14.6512C2.94476 14.55 2.94584 14.4413 2.97734 14.3409L4.42958 9.69806L0.665803 6.91212C0.584277 6.85184 0.522746 6.76501 0.4902 6.66429C0.457654 6.56358 0.455799 6.45428 0.484906 6.35235C0.514012 6.25042 0.572556 6.1612 0.651981 6.09774C0.731407 6.03428 0.827553 5.9999 0.926372 5.99962H5.56971L6.97099 1.34493C7.00118 1.24444 7.06008 1.15685 7.13924 1.09473C7.21841 1.03261 7.31377 0.999146 7.41164 0.999146C7.50952 0.999146 7.60488 1.03261 7.68404 1.09473C7.76321 1.15685 7.82211 1.24444 7.85229 1.34493L9.25357 6.00118H13.8969C13.9959 6.00113 14.0922 6.03527 14.1719 6.09861C14.2515 6.16195 14.3103 6.25116 14.3396 6.35316C14.3689 6.45517 14.3672 6.56462 14.3347 6.66549C14.3021 6.76635 14.2406 6.85333 14.1589 6.91368L10.3937 9.69806L11.8451 14.3396C11.8686 14.4148 11.8752 14.4949 11.8644 14.5733C11.8535 14.6518 11.8256 14.7263 11.7828 14.7908C11.74 14.8553 11.6836 14.9078 11.6183 14.9442C11.5529 14.9805 11.4805 14.9995 11.407 14.9996Z" fill="#64748B"/>
</g>
<defs>
<clipPath id="clip0_214_20405">
<rect width="14.8235" height="16" fill="white"/>
</clipPath>
</defs>
</svg>
