<svg width="23" height="23" viewBox="0 0 23 23" fill="none" xmlns="http://www.w3.org/2000/svg">
<path d="M12.9375 10.0747H19.2266C19.271 10.0747 19.3137 10.0924 19.3451 10.1238C19.3766 10.1553 19.3943 10.198 19.3943 10.2424V18.6877C19.3943 19.4471 19.0926 20.1753 18.5557 20.7122C18.0188 21.2491 17.2906 21.5508 16.5312 21.5508H6.46875C5.70943 21.5508 4.98121 21.2491 4.44429 20.7122C3.90737 20.1753 3.60573 19.4471 3.60573 18.6877V4.31275C3.60573 3.55343 3.90737 2.82521 4.44429 2.28829C4.98121 1.75137 5.70943 1.44973 6.46875 1.44973H10.6016C10.646 1.44973 10.6887 1.4674 10.7201 1.49885C10.7516 1.5303 10.7693 1.57296 10.7693 1.61744V7.9065C10.7693 8.48155 10.9977 9.03305 11.4043 9.43967C11.811 9.84629 12.3624 10.0747 12.9375 10.0747ZM7.90625 17.2622H15.0937C15.2876 17.2622 15.4734 17.1852 15.6105 17.0482C15.7475 16.9112 15.8245 16.7253 15.8245 16.5315C15.8245 16.3377 15.7475 16.1518 15.6105 16.0148C15.4734 15.8778 15.2876 15.8008 15.0937 15.8008H7.90625C7.71245 15.8008 7.52658 15.8778 7.38955 16.0148C7.25251 16.1518 7.17552 16.3377 7.17552 16.5315C7.17552 16.7253 7.25251 16.9112 7.38955 17.0482C7.52658 17.1852 7.71245 17.2622 7.90625 17.2622ZM7.90625 13.6685H15.0937C15.2876 13.6685 15.4734 13.5915 15.6105 13.4545C15.7475 13.3174 15.8245 13.1315 15.8245 12.9377C15.8245 12.7439 15.7475 12.5581 15.6105 12.421C15.4734 12.284 15.2876 12.207 15.0937 12.207H7.90625C7.71245 12.207 7.52658 12.284 7.38955 12.421C7.25251 12.5581 7.17552 12.7439 7.17552 12.9377C7.17552 13.1315 7.25251 13.3174 7.38955 13.4545C7.52658 13.5915 7.71245 13.6685 7.90625 13.6685Z" fill="white" stroke="#4FD1C5" stroke-width="0.0234375"/>
<path d="M12.3635 2.02142L18.8237 8.48158L12.3635 2.02142ZM12.3635 2.02142C12.3635 2.02141 12.3635 2.02141 12.3635 2.0214M12.3635 2.02142L12.3635 2.0214M12.3635 2.0214C12.3526 2.01059 12.3388 2.00323 12.3237 2.00025C12.3086 1.99727 12.293 1.99882 12.2788 2.00468C12.2647 2.01055 12.2525 2.02048 12.244 2.03322C12.2354 2.04596 12.2308 2.06094 12.2307 2.07629V7.90757C12.2307 8.09502 12.3052 8.27479 12.4377 8.40733C12.5703 8.53988 12.7501 8.61434 12.9375 8.61434H18.7688C18.7841 8.61428 18.7991 8.60968 18.8118 8.60112C18.8246 8.59256 18.8345 8.58042 18.8404 8.56623C18.8463 8.55204 18.8478 8.53644 18.8448 8.52138C18.8418 8.50633 18.8345 8.49249 18.8237 8.48161L12.3635 2.0214Z" fill="white" stroke="#4FD1C5" stroke-width="0.0234375"/>
</svg>
