<svg width="16" height="16" viewBox="0 0 16 16" fill="none" xmlns="http://www.w3.org/2000/svg">
<g clip-path="url(#clip0_214_18546)">
<path d="M13.3337 6.66667V5.33333C13.3337 3.91885 12.7718 2.56229 11.7716 1.5621C10.7714 0.561903 9.41481 0 8.00033 0C6.58584 0 5.22928 0.561903 4.22909 1.5621C3.2289 2.56229 2.66699 3.91885 2.66699 5.33333V6.66667C2.65062 7.07331 2.55059 7.47222 2.37314 7.83847C2.19569 8.20472 1.94464 8.53045 1.63566 8.79533C1.08046 9.26842 0.732715 9.94021 0.666992 10.6667C0.666992 12.3333 3.40833 13.3333 8.00033 13.3333C12.5923 13.3333 15.3337 12.3333 15.3337 10.6667C15.2679 9.94021 14.9202 9.26842 14.365 8.79533C14.056 8.53045 13.805 8.20472 13.6275 7.83847C13.4501 7.47222 13.35 7.07331 13.3337 6.66667Z" fill="#82D616"/>
<path d="M6.09668 14.6001C6.22374 15.0054 6.47688 15.3596 6.81922 15.611C7.16157 15.8625 7.57524 15.9981 8.00001 15.9981C8.42478 15.9981 8.83846 15.8625 9.1808 15.611C9.52315 15.3596 9.77628 15.0054 9.90335 14.6001C9.30735 14.6441 8.67401 14.6668 8.00001 14.6668C7.32601 14.6668 6.69268 14.6454 6.09668 14.6001Z" fill="#64748B"/>
</g>
<defs>
<clipPath id="clip0_214_18546">
<rect width="16" height="16" fill="white"/>
</clipPath>
</defs>
</svg>
