<svg width="24" height="24" viewBox="0 0 24 24" fill="none" xmlns="http://www.w3.org/2000/svg">
<path fill-rule="evenodd" clip-rule="evenodd" d="M5.99844 2.3999C6.66117 2.3999 7.19844 2.93717 7.19844 3.5999V4.7999H8.39844C9.06117 4.7999 9.59844 5.33717 9.59844 5.9999C9.59844 6.66264 9.06117 7.1999 8.39844 7.1999H7.19844V8.3999C7.19844 9.06264 6.66117 9.5999 5.99844 9.5999C5.3357 9.5999 4.79844 9.06264 4.79844 8.3999V7.1999H3.59844C2.9357 7.1999 2.39844 6.66264 2.39844 5.9999C2.39844 5.33717 2.9357 4.7999 3.59844 4.7999H4.79844V3.5999C4.79844 2.93717 5.3357 2.3999 5.99844 2.3999ZM5.99844 14.3999C6.66117 14.3999 7.19844 14.9371 7.19844 15.5999V16.7999H8.39844C9.06117 16.7999 9.59844 17.3371 9.59844 17.9999C9.59844 18.6627 9.06117 19.1999 8.39844 19.1999H7.19844V20.3999C7.19844 21.0627 6.66117 21.5999 5.99844 21.5999C5.3357 21.5999 4.79844 21.0627 4.79844 20.3999V19.1999H3.59844C2.9357 19.1999 2.39844 18.6627 2.39844 17.9999C2.39844 17.3371 2.9357 16.7999 3.59844 16.7999H4.79844V15.5999C4.79844 14.9371 5.3357 14.3999 5.99844 14.3999Z" fill="white"/>
<path fill-rule="evenodd" clip-rule="evenodd" d="M14.403 2.3999C14.9476 2.3999 15.4237 2.76648 15.5632 3.29283L16.9782 8.63862L21.0028 10.9605C21.3742 11.1748 21.603 11.571 21.603 11.9999C21.603 12.4288 21.3742 12.825 21.0028 13.0393L16.9782 15.3612L15.5632 20.707C15.4237 21.2333 14.9476 21.5999 14.403 21.5999C13.8586 21.5999 13.3823 21.2333 13.243 20.707L11.8279 15.3612L7.80345 13.0393C7.43199 12.825 7.20312 12.4288 7.20312 11.9999C7.20312 11.571 7.43199 11.1748 7.80345 10.9605L11.8279 8.63862L13.243 3.29283C13.3823 2.76648 13.8586 2.3999 14.403 2.3999Z" fill="white"/>
</svg>
