<svg width="16" height="16" viewBox="0 0 16 16" fill="none" xmlns="http://www.w3.org/2000/svg">
<path d="M4.79961 7.99998C4.79961 8.88363 4.08327 9.59998 3.19961 9.59998C2.31595 9.59998 1.59961 8.88363 1.59961 7.99998C1.59961 7.1163 2.31595 6.39998 3.19961 6.39998C4.08327 6.39998 4.79961 7.1163 4.79961 7.99998Z" fill="#252F40"/>
<path d="M9.60039 7.99998C9.60039 8.88363 8.88407 9.59998 8.00039 9.59998C7.11673 9.59998 6.40039 8.88363 6.40039 7.99998C6.40039 7.1163 7.11673 6.39998 8.00039 6.39998C8.88407 6.39998 9.60039 7.1163 9.60039 7.99998Z" fill="#252F40"/>
<path d="M14.4002 7.99998C14.4002 8.88363 13.6839 9.59998 12.8002 9.59998C11.9165 9.59998 11.2002 8.88363 11.2002 7.99998C11.2002 7.1163 11.9165 6.39998 12.8002 6.39998C13.6839 6.39998 14.4002 7.1163 14.4002 7.99998Z" fill="#252F40"/>
</svg>
