<svg width="425" height="491" viewBox="0 0 425 491" fill="none" xmlns="http://www.w3.org/2000/svg">
<g opacity="0.5">
<path opacity="0.5" d="M212.5 0.577543L0.500236 122.935V367.75L212.5 490.208L424.5 367.75V122.935L212.5 0.577543Z" stroke="#C9CAD1" stroke-miterlimit="10"/>
<path opacity="0.5" d="M0.500236 122.935L424.5 367.75" stroke="#C9CAD1" stroke-miterlimit="10"/>
<path opacity="0.5" d="M424.5 122.935L0.500236 367.75" stroke="#C9CAD1" stroke-miterlimit="10"/>
<path opacity="0.5" d="M212.5 0.577543V490.208" stroke="#C9CAD1" stroke-miterlimit="10"/>
<path opacity="0.5" d="M212.5 41.3968L35.8167 143.345V347.341L212.5 449.389L389.183 347.341V143.345L212.5 41.3968Z" stroke="#C9CAD1" stroke-miterlimit="10"/>
<path opacity="0.5" d="M212.5 82.316L71.2337 163.854V326.931L212.5 408.47L353.767 326.931V163.854L212.5 82.316Z" stroke="#C9CAD1" stroke-miterlimit="10"/>
<path opacity="0.5" d="M212.5 123.135L106.65 184.264V306.522L212.5 367.65L318.45 306.522V184.264L212.5 123.135Z" stroke="#C9CAD1" stroke-miterlimit="10"/>
<path opacity="0.5" d="M212.5 163.854L141.967 204.674V286.112L212.5 326.831L283.034 286.112V204.674L212.5 163.854Z" stroke="#C9CAD1" stroke-miterlimit="10"/>
<path opacity="0.5" d="M212.5 204.574L177.183 224.983V265.803L212.5 286.112L247.816 265.803V224.983L212.5 204.574Z" stroke="#C9CAD1" stroke-miterlimit="10"/>
</g>
</svg>
