<svg width="18" height="18" viewBox="0 0 18 18" fill="none" xmlns="http://www.w3.org/2000/svg">
<g clip-path="url(#clip0_0_543)">
<path d="M6.75 0.75H0V2.25H6.75V0.75Z" fill="#FBCF33"/>
<path d="M6.75 3.75H1.5V5.25H6.75V3.75Z" fill="#FBCF33"/>
<path d="M6.75 6.75H3V8.25H6.75V6.75Z" fill="#FBCF33"/>
<path d="M6.75 9.75H4.5V11.25H6.75V9.75Z" fill="#FBCF33"/>
<path d="M17.5853 8.32875L14.8935 6.98325L14.2275 4.3185C14.1442 3.984 13.8443 3.75 13.5 3.75H12.2812H8.25C8.25 3.75 8.25 13.0883 8.25 13.5C8.25 13.9117 8.28825 14.25 8.28825 14.25C8.47725 15.933 9.8925 17.25 11.625 17.25C13.3575 17.25 14.7727 15.933 14.9617 14.25H17.25C17.664 14.25 18 13.914 18 13.5V9C18 8.71575 17.8395 8.45625 17.5853 8.32875ZM11.625 15.75C10.5915 15.75 9.75 14.9093 9.75 13.875C9.75 12.8407 10.5915 12 11.625 12C12.6585 12 13.5 12.8407 13.5 13.875C13.5 14.9093 12.6585 15.75 11.625 15.75ZM9.75 7.5V5.25H13.008L13.5 7.5H9.75Z" fill="#FBCF33"/>
</g>
<defs>
<clipPath id="clip0_0_543">
<rect width="18" height="18" fill="white"/>
</clipPath>
</defs>
</svg>
