<svg width="18" height="18" viewBox="0 0 18 18" fill="none" xmlns="http://www.w3.org/2000/svg">
<path d="M15.5125 4.5C15.5125 3.399 14.7288 2.48475 13.6991 2.29125L13.2743 0.56775C13.1923 0.234 12.8968 0 12.5578 0H5.17084C4.83178 0 4.5363 0.234 4.45431 0.56775L4.02956 2.29125C2.99982 2.48475 2.21606 3.399 2.21606 4.5V13.5C2.21606 14.601 2.99982 15.5153 4.02956 15.7087L4.45357 17.4323C4.5363 17.766 4.83178 18 5.17084 18H12.5578C12.8968 18 13.1923 17.766 13.2743 17.4323L13.6983 15.7087C14.7288 15.5153 15.5125 14.601 15.5125 13.5V11.25H16.9899V6.75H15.5125V4.5ZM14.0352 13.5C14.0352 13.9132 13.7035 14.25 13.2965 14.25H4.43214C4.02512 14.25 3.69345 13.9132 3.69345 13.5V4.5C3.69345 4.08675 4.02512 3.75 4.43214 3.75H13.2965C13.7035 3.75 14.0352 4.08675 14.0352 4.5V13.5Z" fill="white"/>
<path d="M9.603 5.25H8.12561V9.75H12.5578V8.25H9.603V5.25Z" fill="white"/>
</svg>
