<svg width="24" height="24" viewBox="0 0 24 24" fill="none" xmlns="http://www.w3.org/2000/svg">
<path fill-rule="evenodd" clip-rule="evenodd" d="M11.9996 3.59998C12.6624 3.59998 13.1996 4.13724 13.1996 4.79998V10.8H19.1996C19.8624 10.8 20.3996 11.3372 20.3996 12C20.3996 12.6627 19.8624 13.2 19.1996 13.2H13.1996V19.2C13.1996 19.8627 12.6624 20.4 11.9996 20.4C11.3369 20.4 10.7996 19.8627 10.7996 19.2V13.2H4.79961C4.13687 13.2 3.59961 12.6627 3.59961 12C3.59961 11.3372 4.13687 10.8 4.79961 10.8H10.7996V4.79998C10.7996 4.13724 11.3369 3.59998 11.9996 3.59998Z" fill="#8392AB"/>
</svg>
