<svg width="711" height="249" viewBox="0 0 711 249" fill="none" xmlns="http://www.w3.org/2000/svg">
<path d="M3 161.558C19.7325 149.377 62.275 128.67 98.5847 143.287C143.972 161.558 148.116 99.6637 185.973 73.0317C223.831 46.3997 253.976 87.3441 284.368 37.4034C314.759 -12.5374 355 -8.35237 385.6 37.4034C407.03 69.4478 456.479 110.213 478.231 91.5291C490.502 80.7937 523.755 47.2668 543.499 73.0317C568.18 105.238 582.481 148.942 607.083 141.47C631.554 134.038 631.759 108.644 636.365 73.0317C642.012 29.3675 671.862 31.5357 707 23.1745" stroke="#4FD1C5" stroke-width="3"/>
<circle cx="4" cy="161.5" r="4" fill="#4FD1C5"/>
<circle cx="90" cy="140.5" r="4" fill="#4FD1C5"/>
<circle cx="179" cy="78.5001" r="4" fill="#4FD1C5"/>
<circle cx="267" cy="56.5001" r="4" fill="#4FD1C5"/>
<circle cx="355" cy="7.50012" r="4" fill="#4FD1C5"/>
<circle cx="443" cy="89.5001" r="4" fill="#4FD1C5"/>
<circle cx="531" cy="64.5001" r="4" fill="#4FD1C5"/>
<circle cx="619" cy="134.5" r="4" fill="#4FD1C5"/>
<circle cx="707" cy="23.5001" r="4" fill="#4FD1C5"/>
<path d="M707 244.558C690.267 232.377 647.725 211.67 611.415 226.287C566.028 244.558 561.884 182.664 524.027 156.032C486.169 129.4 456.024 170.344 425.632 120.403C395.241 70.4626 355 74.6476 324.4 120.403C302.97 152.448 253.521 193.213 231.769 174.529C219.498 163.794 186.245 130.267 166.501 156.032C141.82 188.238 127.519 231.942 102.917 224.47C78.4459 217.038 78.2412 191.644 73.6353 156.032C67.988 112.367 38.1384 114.536 3.00001 106.175" stroke="#3182CE" stroke-width="3"/>
<circle cx="4" cy="4" r="4" transform="matrix(-1 0 0 1 711 240.5)" fill="#3182CE"/>
<circle cx="4" cy="4" r="4" transform="matrix(-1 0 0 1 625 219.5)" fill="#3182CE"/>
<circle cx="4" cy="4" r="4" transform="matrix(-1 0 0 1 536 157.5)" fill="#3182CE"/>
<circle cx="4" cy="4" r="4" transform="matrix(-1 0 0 1 448 135.5)" fill="#3182CE"/>
<circle cx="4" cy="4" r="4" transform="matrix(-1 0 0 1 360 86.5001)" fill="#3182CE"/>
<circle cx="4" cy="4" r="4" transform="matrix(-1 0 0 1 272 168.5)" fill="#3182CE"/>
<circle cx="4" cy="4" r="4" transform="matrix(-1 0 0 1 184 143.5)" fill="#3182CE"/>
<circle cx="4" cy="4" r="4" transform="matrix(-1 0 0 1 96 213.5)" fill="#3182CE"/>
<circle cx="4" cy="4" r="4" transform="matrix(-1 0 0 1 8 102.5)" fill="#3182CE"/>
<path d="M3 37.5001C19.7325 49.6807 62.275 70.3876 98.5847 55.771C143.972 37.5001 148.116 99.3941 185.973 126.026C223.831 152.658 253.976 111.714 284.368 161.654C314.759 211.595 355 207.41 385.6 161.654C407.03 129.61 456.479 88.845 478.231 107.529C490.502 118.264 523.755 151.791 543.499 126.026C568.18 93.82 582.481 50.1162 607.083 57.588C631.554 65.0201 631.759 90.4135 636.365 126.026C642.012 169.69 671.862 167.522 707 175.883" stroke="#FC8181" stroke-width="3"/>
<circle cx="4" cy="4" r="4" transform="matrix(1 0 0 -1 0 41.5001)" fill="#FC8181"/>
<circle cx="4" cy="4" r="4" transform="matrix(1 0 0 -1 86 62.5001)" fill="#FC8181"/>
<circle cx="4" cy="4" r="4" transform="matrix(1 0 0 -1 175 124.5)" fill="#FC8181"/>
<circle cx="4" cy="4" r="4" transform="matrix(1 0 0 -1 263 146.5)" fill="#FC8181"/>
<circle cx="4" cy="4" r="4" transform="matrix(1 0 0 -1 351 195.5)" fill="#FC8181"/>
<circle cx="4" cy="4" r="4" transform="matrix(1 0 0 -1 439 113.5)" fill="#FC8181"/>
<circle cx="4" cy="4" r="4" transform="matrix(1 0 0 -1 527 138.5)" fill="#FC8181"/>
<circle cx="4" cy="4" r="4" transform="matrix(1 0 0 -1 615 68.5001)" fill="#FC8181"/>
<circle cx="4" cy="4" r="4" transform="matrix(1 0 0 -1 703 179.5)" fill="#FC8181"/>
</svg>
