<svg width="398" height="377" viewBox="0 0 398 377" fill="none" xmlns="http://www.w3.org/2000/svg">
<g opacity="0.5">
<path opacity="0.5" d="M4.50566 4.50566L216.672 4.70586L393.494 24.9312L358.05 208.662L216.672 372.067L146.083 167.811L4.50566 4.50566Z" fill="#BDC0D1"/>
<g opacity="0.5">
<path opacity="0.5" d="M6.10765 6.40795L4.50566 4.50566H7.00881" stroke="#8A8B8E" stroke-width="2" stroke-miterlimit="10"/>
<path opacity="0.5" d="M12.0151 4.50566L216.672 4.70586L388.588 24.3306" stroke="#8A8B8E" stroke-width="2" stroke-miterlimit="10" stroke-dasharray="5 5"/>
<path opacity="0.5" d="M390.991 24.6308L393.494 24.9312L392.994 27.4344" stroke="#8A8B8E" stroke-width="2" stroke-miterlimit="10"/>
<path opacity="0.5" d="M392.093 32.3407L358.05 208.662L219.977 368.263" stroke="#8A8B8E" stroke-width="2" stroke-miterlimit="10" stroke-dasharray="5.03 5.03"/>
<path opacity="0.5" d="M218.274 370.165L216.672 372.067L215.871 369.664" stroke="#8A8B8E" stroke-width="2" stroke-miterlimit="10"/>
<path opacity="0.5" d="M214.269 364.958L146.083 167.811L7.80962 8.31049" stroke="#8A8B8E" stroke-width="2" stroke-miterlimit="10" stroke-dasharray="5.02 5.02"/>
</g>
</g>
<path opacity="0.5" d="M4.50566 8.01006C6.44109 8.01006 8.01006 6.44109 8.01006 4.50566C8.01006 2.57023 6.44109 1.00126 4.50566 1.00126C2.57023 1.00126 1.00126 2.57023 1.00126 4.50566C1.00126 6.44109 2.57023 8.01006 4.50566 8.01006Z" fill="#BDC0D1" stroke="#8A8B8E" stroke-width="2" stroke-miterlimit="10"/>
<path opacity="0.5" d="M216.673 8.01006C218.608 8.01006 220.177 6.44109 220.177 4.50566C220.177 2.57023 218.608 1.00126 216.673 1.00126C214.737 1.00126 213.168 2.57023 213.168 4.50566C213.168 6.44109 214.737 8.01006 216.673 8.01006Z" fill="#BDC0D1" stroke="#8A8B8E" stroke-width="2" stroke-miterlimit="10"/>
<path opacity="0.5" d="M393.494 28.4356C395.43 28.4356 396.999 26.8667 396.999 24.9312C396.999 22.9958 395.43 21.4268 393.494 21.4268C391.559 21.4268 389.99 22.9958 389.99 24.9312C389.99 26.8667 391.559 28.4356 393.494 28.4356Z" fill="#BDC0D1" stroke="#8A8B8E" stroke-width="2" stroke-miterlimit="10"/>
<path opacity="0.5" d="M358.049 212.166C359.985 212.166 361.554 210.597 361.554 208.662C361.554 206.727 359.985 205.158 358.049 205.158C356.114 205.158 354.545 206.727 354.545 208.662C354.545 210.597 356.114 212.166 358.049 212.166Z" fill="#BDC0D1" stroke="#8A8B8E" stroke-width="2" stroke-miterlimit="10"/>
<path opacity="0.5" d="M216.673 375.572C218.608 375.572 220.177 374.003 220.177 372.067C220.177 370.132 218.608 368.563 216.673 368.563C214.737 368.563 213.168 370.132 213.168 372.067C213.168 374.003 214.737 375.572 216.673 375.572Z" fill="#BDC0D1" stroke="#8A8B8E" stroke-width="2" stroke-miterlimit="10"/>
<path opacity="0.5" d="M146.184 171.215C148.119 171.215 149.688 169.646 149.688 167.711C149.688 165.775 148.119 164.206 146.184 164.206C144.248 164.206 142.679 165.775 142.679 167.711C142.679 169.646 144.248 171.215 146.184 171.215Z" fill="#BDC0D1" stroke="#8A8B8E" stroke-width="2" stroke-miterlimit="10"/>
</svg>
