<svg width="16" height="16" viewBox="0 0 16 16" fill="none" xmlns="http://www.w3.org/2000/svg">
<path fill-rule="evenodd" clip-rule="evenodd" d="M3.20156 3.99999C2.31791 3.99999 1.60156 4.71634 1.60156 5.59999V12C1.60156 12.8837 2.31791 13.6 3.20156 13.6H12.8016C13.6852 13.6 14.4016 12.8837 14.4016 12V5.59999C14.4016 4.71634 13.6852 3.99999 12.8016 3.99999H11.5329C11.3208 3.99999 11.1172 3.91571 10.9672 3.76568L10.0702 2.86863C9.77012 2.56856 9.36316 2.39999 8.93884 2.39999H7.06431C6.63995 2.39999 6.23299 2.56856 5.93293 2.86863L5.03587 3.76568C4.88585 3.91571 4.68236 3.99999 4.47019 3.99999H3.20156ZM8.00156 11.2C9.32708 11.2 10.4016 10.1255 10.4016 8.79999C10.4016 7.47451 9.32708 6.39999 8.00156 6.39999C6.67608 6.39999 5.60156 7.47451 5.60156 8.79999C5.60156 10.1255 6.67608 11.2 8.00156 11.2Z" fill="#1E293B"/>
</svg>
