<svg width="16" height="16" viewBox="0 0 16 16" fill="none" xmlns="http://www.w3.org/2000/svg">
<path fill-rule="evenodd" clip-rule="evenodd" d="M6.4001 3.20001C4.63279 3.20001 3.2001 4.63269 3.2001 6.40001C3.2001 8.16729 4.63279 9.60001 6.4001 9.60001C8.16738 9.60001 9.6001 8.16729 9.6001 6.40001C9.6001 4.63269 8.16738 3.20001 6.4001 3.20001ZM1.6001 6.40001C1.6001 3.74904 3.74913 1.60001 6.4001 1.60001C9.05106 1.60001 11.2001 3.74904 11.2001 6.40001C11.2001 7.43667 10.8715 8.39657 10.3127 9.18121L14.1658 13.0343C14.4782 13.3467 14.4782 13.8533 14.1658 14.1657C13.8534 14.4781 13.3468 14.4781 13.0344 14.1657L9.1813 10.3126C8.39666 10.8714 7.43676 11.2 6.4001 11.2C3.74913 11.2 1.6001 9.05097 1.6001 6.40001Z" fill="#E9ECEF"/>
</svg>
