<svg width="532" height="165" viewBox="0 0 532 165" fill="none" xmlns="http://www.w3.org/2000/svg">
<path d="M0.523612 163.555C0.523612 163.555 46.639 135.145 66.9458 136.446C87.2526 137.746 94.455 144.848 99.0565 147.649C103.558 150.45 118.263 161.354 133.368 159.053C148.573 156.752 158.977 149.45 166.579 143.648C174.182 137.746 192.088 122.141 199.79 115.138C207.493 108.136 219.397 95.3318 226.599 85.4285C233.802 75.5252 249.107 54.9183 266.212 49.2164C273.015 46.7156 284.418 45.7153 300.224 47.816C315.929 49.9167 324.132 50.917 332.635 49.2164C341.137 47.5159 354.442 42.1141 366.146 35.1117C377.85 28.0094 388.053 24.4081 399.057 27.2091C410.06 30.11 417.863 35.7119 431.468 52.7176C445.072 69.7233 451.074 75.4252 465.479 75.4252C479.884 75.4252 491.188 59.3198 497.99 49.2164C504.792 39.113 528.4 1.00033 531.901 1.00033" stroke="#1E293B" stroke-width="2" stroke-miterlimit="10"/>
</svg>
