<svg width="14" height="14" viewBox="0 0 14 14" fill="none" xmlns="http://www.w3.org/2000/svg">
<path d="M5.44434 3.11108H11.6666" stroke="#8392AB" stroke-width="2"/>
<path d="M5.44434 7H11.6666" stroke="#8392AB" stroke-width="2"/>
<path d="M5.44434 10.8889H11.6666" stroke="#8392AB" stroke-width="2"/>
<path d="M1.94434 4.27777H3.49989" stroke="#8392AB"/>
<path d="M2.72236 4.66668C2.61922 4.66668 2.52031 4.62571 2.44738 4.55278C2.37444 4.47985 2.33347 4.38093 2.33347 4.27779V2.39946L2.11881 2.50679C2.0266 2.55299 1.91981 2.56068 1.82194 2.52815C1.72407 2.49562 1.64313 2.42555 1.59692 2.33335C1.50047 2.14123 1.57903 2.08135 1.77114 1.98568L2.54892 1.59679C2.60818 1.56726 2.674 1.55335 2.74014 1.55638C2.80628 1.5594 2.87055 1.57926 2.92687 1.61408C2.98318 1.6489 3.02968 1.69752 3.06194 1.75534C3.09421 1.81315 3.11118 1.87825 3.11125 1.94446V4.27779C3.11125 4.38093 3.07028 4.47985 2.99735 4.55278C2.92442 4.62571 2.8255 4.66668 2.72236 4.66668Z" fill="#8392AB"/>
<path d="M3.49989 8.16669H1.94434C1.94434 7.98469 3.38322 7.3298 3.38322 6.42914C3.35039 6.26809 3.26528 6.12241 3.14112 6.01471C3.01696 5.90702 2.86071 5.84335 2.69665 5.83359C2.53258 5.82384 2.36989 5.86854 2.23384 5.96077C2.0978 6.05299 1.99603 6.18756 1.94434 6.34358" stroke="#8392AB"/>
<path d="M1.94434 11.5469C1.99596 11.7029 2.09766 11.8375 2.23365 11.9298C2.36963 12.0221 2.53229 12.0669 2.69634 12.0572C2.8604 12.0476 3.01667 11.984 3.14088 11.8764C3.26509 11.7688 3.35028 11.6231 3.38322 11.4621C3.39183 11.3254 3.34857 11.1904 3.26207 11.0842C3.17558 10.9779 3.0522 10.9082 2.91656 10.8889C3.053 10.8717 3.17759 10.8027 3.26448 10.6961C3.35137 10.5895 3.3939 10.4536 3.38322 10.3165C3.35028 10.1555 3.26509 10.0098 3.14088 9.90224C3.01667 9.79463 2.8604 9.73105 2.69634 9.72138C2.53229 9.71172 2.36963 9.7565 2.23365 9.84878C2.09766 9.94106 1.99596 10.0757 1.94434 10.2317" stroke="#8392AB"/>
</svg>
