<svg width="14" height="14" viewBox="0 0 14 14" fill="none" xmlns="http://www.w3.org/2000/svg">
<path fill-rule="evenodd" clip-rule="evenodd" d="M7.00156 2.09998C7.38817 2.09998 7.70156 2.41338 7.70156 2.79998V6.29998H11.2016C11.5882 6.29998 11.9016 6.61338 11.9016 6.99998C11.9016 7.38659 11.5882 7.69998 11.2016 7.69998H7.70156V11.2C7.70156 11.5866 7.38817 11.9 7.00156 11.9C6.61497 11.9 6.30156 11.5866 6.30156 11.2V7.69998H2.80156C2.41497 7.69998 2.10156 7.38659 2.10156 6.99998C2.10156 6.61337 2.41497 6.29998 2.80156 6.29998H6.30156V2.79998C6.30156 2.41338 6.61497 2.09998 7.00156 2.09998Z" fill="white"/>
</svg>
