<svg width="815" height="77" viewBox="0 0 815 77" fill="none" xmlns="http://www.w3.org/2000/svg">
<path d="M0.199331 70.74C0.199331 70.74 76.2803 55.1312 102.05 54.1306C124.751 53.2301 129.046 52.8299 159.57 55.9316C179.051 57.9328 191.015 58.2329 203.9 57.6326C216.785 57.0322 235.805 56.8321 254.825 52.3296C273.845 47.827 288.724 48.7275 305.75 49.628C322.776 50.5286 336.735 54.931 350.847 61.2346C364.958 67.5382 385.206 75.7428 407.6 75.7428C429.995 75.7428 448.862 70.8401 469.109 62.3352C489.357 53.9305 494.879 53.3301 509.451 49.628C524.023 45.9259 541.202 41.1233 550.559 38.5218C559.916 35.9203 584.151 28.216 611.301 27.4155C638.451 26.615 647.808 28.0158 662.226 29.8169C676.645 31.6179 696.585 34.5195 713.151 31.6179C729.717 28.8163 743.982 26.515 766.224 17.8101C788.465 9.00508 809.633 1.00057 815.002 1.00057" stroke="#17C1E8" stroke-width="2" stroke-miterlimit="10"/>
</svg>
