<svg width="20" height="20" viewBox="0 0 20 20" fill="none" xmlns="http://www.w3.org/2000/svg">
<path d="M9.50379 1.13176C9.81122 0.95608 10.1886 0.95608 10.496 1.13176L12.246 2.13176C12.7256 2.40577 12.8922 3.01662 12.6181 3.49614C12.3441 3.97566 11.7333 4.14225 11.2538 3.86824L9.99993 3.15175L8.74606 3.86824C8.26654 4.14225 7.6557 3.97566 7.38169 3.49614C7.10768 3.01662 7.27427 2.40577 7.75379 2.13176L9.50379 1.13176Z" fill="#111827"/>
<path d="M5.61824 4.50385C5.89225 4.98337 5.72566 5.59422 5.24614 5.86823L5.01556 5.99999L5.24614 6.13175C5.72566 6.40576 5.89225 7.01661 5.61824 7.49613C5.34423 7.97565 4.73338 8.14224 4.25386 7.86823L4 7.72317V7.99999C4 8.55227 3.55228 8.99999 3 8.99999C2.44772 8.99999 2 8.55227 2 7.99999V5.99999C2 5.75 2.09173 5.52144 2.24336 5.34613C2.27802 5.30602 2.31598 5.26853 2.35699 5.2341C2.40754 5.19162 2.46236 5.15404 2.52071 5.12212L4.25386 4.13175C4.73338 3.85774 5.34423 4.02433 5.61824 4.50385Z" fill="#111827"/>
<path d="M14.3817 4.50385C14.6557 4.02433 15.2665 3.85774 15.746 4.13175L17.4792 5.12211C17.5375 5.15404 17.5924 5.19161 17.6429 5.2341C17.8612 5.41754 17.9999 5.69257 17.9999 5.99999V7.99999C17.9999 8.55227 17.5522 8.99999 16.9999 8.99999C16.4476 8.99999 15.9999 8.55227 15.9999 7.99999V7.72317L15.746 7.86823C15.2665 8.14224 14.6557 7.97565 14.3817 7.49613C14.1076 7.01661 14.2742 6.40576 14.7538 6.13175L14.9843 5.99999L14.7538 5.86823C14.2742 5.59422 14.1076 4.98337 14.3817 4.50385Z" fill="#111827"/>
<path d="M7.38169 8.50385C7.6557 8.02433 8.26654 7.85774 8.74606 8.13175L9.99993 8.84824L11.2538 8.13175C11.7333 7.85774 12.3441 8.02433 12.6181 8.50385C12.8922 8.98337 12.7256 9.59422 12.246 9.86823L10.9999 10.5803V12C10.9999 12.5523 10.5522 13 9.99993 13C9.44765 13 8.99993 12.5523 8.99993 12V10.5803L7.75379 9.86823C7.27427 9.59422 7.10768 8.98337 7.38169 8.50385Z" fill="#111827"/>
<path d="M3 11C3.55228 11 4 11.4477 4 12V13.4197L5.24614 14.1318C5.72566 14.4058 5.89225 15.0166 5.61824 15.4961C5.34423 15.9757 4.73338 16.1423 4.25386 15.8682L2.50386 14.8682C2.19229 14.6902 2 14.3589 2 14V12C2 11.4477 2.44772 11 3 11Z" fill="#111827"/>
<path d="M16.9999 11C17.5522 11 17.9999 11.4477 17.9999 12V14C17.9999 14.3589 17.8076 14.6902 17.496 14.8682L15.746 15.8682C15.2665 16.1423 14.6557 15.9757 14.3817 15.4961C14.1076 15.0166 14.2742 14.4058 14.7538 14.1318L15.9999 13.4197V12C15.9999 11.4477 16.4476 11 16.9999 11Z" fill="#111827"/>
<path d="M7.38169 16.5039C7.6557 16.0243 8.26654 15.8577 8.74606 16.1318L8.99993 16.2768V16C8.99993 15.4477 9.44765 15 9.99993 15C10.5522 15 10.9999 15.4477 10.9999 16V16.2768L11.2538 16.1318C11.7333 15.8577 12.3441 16.0243 12.6181 16.5039C12.8922 16.9834 12.7256 17.5942 12.246 17.8682L10.5112 18.8596C10.3616 18.9488 10.1867 19 9.99993 19C9.81309 19 9.63821 18.9488 9.48859 18.8596L7.75379 17.8682C7.27427 17.5942 7.10768 16.9834 7.38169 16.5039Z" fill="#111827"/>
</svg>
