<svg width="24" height="24" viewBox="0 0 24 24" fill="none" xmlns="http://www.w3.org/2000/svg">
<path d="M11.3865 3.69095C11.6858 2.76968 12.9892 2.76969 13.2885 3.69095L14.8074 8.36486C14.9413 8.77685 15.3252 9.05579 15.7584 9.0558L20.6729 9.05599C21.6416 9.05603 22.0443 10.2956 21.2607 10.865L17.2849 13.7538C16.9344 14.0084 16.7878 14.4598 16.9216 14.8718L18.4401 19.5458C18.7394 20.4671 17.685 21.2332 16.9013 20.6638L12.9253 17.7753C12.5748 17.5207 12.1002 17.5207 11.7497 17.7753L7.77374 20.6638C6.99004 21.2332 5.93562 20.4671 6.23492 19.5458L7.75341 14.8718C7.88726 14.4598 7.74061 14.0084 7.39015 13.7538L3.41435 10.865C2.63069 10.2956 3.03344 9.05603 4.00213 9.05599L8.91663 9.0558C9.34983 9.05579 9.73375 8.77685 9.86763 8.36486L11.3865 3.69095Z" stroke="#111827" stroke-width="2"/>
</svg>
