<svg width="42" height="42" viewBox="0 0 42 42" fill="none" xmlns="http://www.w3.org/2000/svg">
<path d="M15.3223 10.651H26.6785V31.0561H15.3223V10.651Z" fill="#FF5F00"/>
<path d="M16.0429 20.8535C16.0429 16.7076 17.9897 13.0304 20.982 10.651C18.7828 8.9205 16.0069 7.875 12.9785 7.875C5.80429 7.875 0 13.6793 0 20.8535C0 28.0278 5.80429 33.8321 12.9785 33.8321C16.0069 33.8321 18.7828 32.7866 20.982 31.0561C17.9897 28.7128 16.0429 24.9995 16.0429 20.8535Z" fill="#EB001B"/>
<path d="M41.9996 20.8535C41.9996 28.0278 36.1953 33.8321 29.021 33.8321C25.9927 33.8321 23.2167 32.7866 21.0176 31.0561C24.0459 28.6767 25.9566 24.9995 25.9566 20.8535C25.9566 16.7076 24.0099 13.0304 21.0176 10.651C23.2167 8.9205 25.9927 7.875 29.021 7.875C36.1953 7.875 41.9996 13.7153 41.9996 20.8535Z" fill="#F79E1B"/>
</svg>
