<svg width="24" height="24" viewBox="0 0 24 24" fill="none" xmlns="http://www.w3.org/2000/svg">
<path d="M4.79844 4.79999C3.47295 4.79999 2.39844 5.8745 2.39844 7.19999V12C2.39844 13.3255 3.47295 14.4 4.79844 14.4V7.19999H16.7984C16.7984 5.8745 15.724 4.79999 14.3984 4.79999H4.79844Z" fill="white"/>
<path fill-rule="evenodd" clip-rule="evenodd" d="M7.20312 12C7.20312 10.6745 8.27764 9.60001 9.60313 9.60001H19.2031C20.5286 9.60001 21.6031 10.6745 21.6031 12V16.8C21.6031 18.1255 20.5286 19.2 19.2031 19.2H9.60313C8.27764 19.2 7.20312 18.1255 7.20312 16.8V12ZM14.4031 16.8C15.7286 16.8 16.8031 15.7255 16.8031 14.4C16.8031 13.0745 15.7286 12 14.4031 12C13.0776 12 12.0031 13.0745 12.0031 14.4C12.0031 15.7255 13.0776 16.8 14.4031 16.8Z" fill="white"/>
</svg>
