<svg width="95" height="60" viewBox="0 0 95 60" fill="none" xmlns="http://www.w3.org/2000/svg">
<g clip-path="url(#clip0_204_8138)">
<g filter="url(#filter0_f_204_8138)">
<path d="M52.1881 7.7178C52.1881 7.7178 49.1695 12.0095 46.8103 11.8681C43.8529 11.6859 43.3477 7.94477 40.6061 7.7178C37.7377 7.76287 37.4449 11.6411 34.336 11.8681C31.5504 11.8159 30.3704 7.78848 27.715 7.7178C25.0596 7.64711 22.2292 11.8681 22.2292 11.8681M48.7911 29.7662C48.7911 29.7662 44.2464 34.0579 40.6933 33.9165C36.2413 33.7343 35.4774 29.9932 31.351 29.7662C27.0321 29.8113 26.59 33.6895 21.9096 33.9165C17.7155 33.8637 15.9385 29.8366 11.9392 29.7662C7.93987 29.6959 3.67871 33.9165 3.67871 33.9165M74.7606 47.2752C74.7606 47.2752 70.2159 51.5669 66.6627 51.4255C62.2108 51.2433 61.4469 47.5022 57.3205 47.2752C53.0015 47.3203 52.5594 51.1986 47.8791 51.4255C43.685 51.3727 41.9079 47.3456 37.9086 47.2752C33.9093 47.2049 29.6482 51.4255 29.6482 51.4255" stroke="#CED4DA" stroke-width="4" stroke-linecap="round"/>
<path d="M84.3995 0.33521C83.5373 0.345444 74.7871 14.673 74.7871 20.2418C74.7871 22.9156 75.7999 25.4799 77.6025 27.3706C79.4054 29.2612 81.8504 30.3234 84.3999 30.3234C86.9494 30.3234 89.3943 29.2612 91.1969 27.3706C92.9998 25.4799 94.0126 22.9156 94.0126 20.2418C94.0126 14.673 85.2622 0.325445 84.3995 0.33521Z" fill="#CED4DA"/>
<path d="M90.2691 16.647C89.3087 16.955 88.9721 18.7212 89.5174 20.5919C90.0629 22.4626 91.2835 23.7294 92.2439 23.4215C93.2043 23.1135 93.5409 21.3473 92.9956 19.4766C92.4504 17.6059 91.2295 16.3391 90.2691 16.647Z" fill="white"/>
<path d="M66.2893 20.4469C65.6754 20.4543 59.4463 30.6543 59.4463 34.6183C59.4463 36.5215 60.1673 38.347 61.4505 39.6932C62.7341 41.039 64.4746 41.7952 66.2893 41.7952C68.1044 41.7952 69.845 41.039 71.1285 39.6932C72.4117 38.347 73.1327 36.5215 73.1327 34.6183C73.1327 30.6543 66.9033 20.4399 66.2893 20.4469Z" fill="#CED4DA"/>
<path d="M70.101 32.4782C69.417 32.6975 69.1773 33.9549 69.5656 35.2867C69.9539 36.6184 70.8229 37.5204 71.5069 37.3012C72.1909 37.0817 72.4306 35.8243 72.0422 34.4926C71.6539 33.1608 70.7849 32.2589 70.101 32.4782Z" fill="white"/>
</g>
</g>
<defs>
<filter id="filter0_f_204_8138" x="0.678711" y="-0.664795" width="94.334" height="55.0938" filterUnits="userSpaceOnUse" color-interpolation-filters="sRGB">
<feFlood flood-opacity="0" result="BackgroundImageFix"/>
<feBlend mode="normal" in="SourceGraphic" in2="BackgroundImageFix" result="shape"/>
<feGaussianBlur stdDeviation="0.5" result="effect1_foregroundBlur_204_8138"/>
</filter>
<clipPath id="clip0_204_8138">
<rect width="94.6031" height="60" fill="white"/>
</clipPath>
</defs>
</svg>
