<svg width="24" height="24" viewBox="0 0 24 24" fill="none" xmlns="http://www.w3.org/2000/svg">
<path d="M13.5929 11.9992L18.046 7.54611C18.2574 7.33514 18.3762 7.04885 18.3765 6.75023C18.3768 6.45161 18.2584 6.16511 18.0474 5.95377C17.8364 5.74242 17.5502 5.62354 17.2515 5.62328C16.9529 5.62301 16.6664 5.74139 16.4551 5.95236L12.0019 10.4055L7.54883 5.95236C7.33748 5.74102 7.05084 5.62228 6.75195 5.62228C6.45307 5.62228 6.16642 5.74102 5.95508 5.95236C5.74373 6.1637 5.625 6.45035 5.625 6.74923C5.625 7.04812 5.74373 7.33477 5.95508 7.54611L10.4082 11.9992L5.95508 16.4524C5.74373 16.6637 5.625 16.9503 5.625 17.2492C5.625 17.5481 5.74373 17.8348 5.95508 18.0461C6.16642 18.2574 6.45307 18.3762 6.75195 18.3762C7.05084 18.3762 7.33748 18.2574 7.54883 18.0461L12.0019 13.593L16.4551 18.0461C16.6664 18.2574 16.9531 18.3762 17.2519 18.3762C17.5508 18.3762 17.8375 18.2574 18.0488 18.0461C18.2602 17.8348 18.3789 17.5481 18.3789 17.2492C18.3789 16.9503 18.2602 16.6637 18.0488 16.4524L13.5929 11.9992Z" fill="black"/>
</svg>
