<svg width="13" height="13" viewBox="0 0 13 13" fill="none" xmlns="http://www.w3.org/2000/svg">
<path d="M2.42455 2.6394H10.5495C10.6445 2.63935 10.7393 2.64538 10.8334 2.65743C10.8015 2.43342 10.7246 2.2182 10.6072 2.02474C10.4899 1.83128 10.3346 1.66358 10.1507 1.53176C9.96679 1.39994 9.7581 1.30672 9.5372 1.25774C9.3163 1.20875 9.08777 1.205 8.86539 1.24672L2.18334 2.38752H2.17572C1.75629 2.46773 1.3833 2.70504 1.13293 3.05098C1.51013 2.78268 1.96166 2.6388 2.42455 2.6394Z" fill="white"/>
<path d="M10.5498 3.25H2.4248C1.99397 3.25047 1.58092 3.42183 1.27628 3.72647C0.971631 4.03112 0.800275 4.44417 0.799805 4.875V9.75C0.800275 10.1808 0.971631 10.5939 1.27628 10.8985C1.58092 11.2032 1.99397 11.3745 2.4248 11.375H10.5498C10.9806 11.3745 11.3937 11.2032 11.6983 10.8985C12.003 10.5939 12.1743 10.1808 12.1748 9.75V4.875C12.1743 4.44417 12.003 4.03112 11.6983 3.72647C11.3937 3.42183 10.9806 3.25047 10.5498 3.25ZM9.34375 8.125C9.18305 8.125 9.02596 8.07735 8.89235 7.98807C8.75873 7.89879 8.65459 7.77189 8.5931 7.62343C8.5316 7.47496 8.51551 7.3116 8.54686 7.15399C8.57821 6.99638 8.65559 6.8516 8.76922 6.73797C8.88285 6.62434 9.02763 6.54696 9.18524 6.51561C9.34285 6.48426 9.50621 6.50035 9.65468 6.56185C9.80314 6.62334 9.93004 6.72748 10.0193 6.8611C10.1086 6.99471 10.1562 7.1518 10.1562 7.3125C10.1562 7.52799 10.0706 7.73465 9.91827 7.88702C9.7659 8.0394 9.55924 8.125 9.34375 8.125Z" fill="white"/>
<path d="M0.8125 6.58734V4.06098C0.8125 3.51076 1.11719 2.58832 2.17471 2.3885C3.07227 2.22016 3.96094 2.22016 3.96094 2.22016C3.96094 2.22016 4.54492 2.62641 4.0625 2.62641C3.58008 2.62641 3.59277 3.24848 4.0625 3.24848C4.53223 3.24848 4.0625 3.84516 4.0625 3.84516L2.1709 5.99066L0.8125 6.58734Z" fill="white"/>
</svg>
