<svg width="25" height="25" viewBox="0 0 25 25" fill="none" xmlns="http://www.w3.org/2000/svg">
<g clip-path="url(#clip0_301_36103)">
<path d="M22.2656 9.37187L14.6484 8.78594L15.7715 4.4207C16.0644 3.12187 15.7334 2.37627 14.6743 2.04766L12.9805 1.5667C12.9404 1.55607 12.8979 1.55849 12.8593 1.57359C12.8207 1.58868 12.7879 1.61569 12.7656 1.65068L6.4668 11.5306C6.43186 11.5874 6.38296 11.6343 6.32476 11.6669C6.26655 11.6994 6.20097 11.7166 6.13428 11.7166H0.78125V21.8719H6.52392C6.77584 21.8718 7.02613 21.9124 7.26513 21.992L10.9907 23.2337C11.389 23.3665 11.8062 23.4343 12.2261 23.4344H20.9141C21.8418 23.4344 22.4521 22.7742 22.6343 21.8641L24.2187 14.9178V11.325C24.2187 10.2478 23.3398 9.46953 22.2656 9.37187Z" fill="#1A365D"/>
</g>
<defs>
<clipPath id="clip0_301_36103">
<rect width="25" height="25" fill="white"/>
</clipPath>
</defs>
</svg>
