<svg width="209" height="210" viewBox="0 0 209 210" fill="none" xmlns="http://www.w3.org/2000/svg">
<path d="M100 9.99999V67.6871C85.102 67.6871 71.9728 75.3741 64.4218 87.0067L15.9864 55.7142C33.8095 28.2312 64.7619 9.99999 100 9.99999Z" fill="#CB0C9F"/>
<path d="M167.891 36.5986L128.775 78.9115C121.224 71.9047 111.156 67.6871 100.068 67.6871V9.99999C126.19 9.99999 150.068 20.068 167.891 36.5986Z" fill="#17C1E8"/>
<path d="M200.001 110C200.001 115.646 199.524 121.224 198.64 126.667L141.769 117.075C142.177 114.762 142.382 112.449 142.382 110C142.382 97.6871 137.143 86.6667 128.776 78.9116L167.892 36.5987C187.62 54.83 200.001 80.9524 200.001 110Z" fill="#252F40"/>
<path d="M198.572 126.667C195.239 146.531 186.055 164.422 172.79 178.503L130.817 138.98C136.395 132.993 140.341 125.442 141.701 117.075L198.572 126.667Z" fill="#EA0606"/>
<path d="M172.857 178.503C154.626 197.891 128.707 210 100 210C44.7619 210 0 165.238 0 110C0 90.0001 5.85034 71.3605 15.9864 55.7142L64.4218 87.0067C60.136 93.6053 57.619 101.497 57.619 110C57.619 133.401 76.5986 152.313 99.932 152.313C112.109 152.313 123.061 147.211 130.748 138.98L172.857 178.503Z" fill="#8392AB"/>
<path d="M100.567 0V109.197M100.567 109.197L174.561 29.0448M100.567 109.197L208 127.396M100.567 109.197L179.974 184M100.567 109.197L8.99999 49.9184" stroke="white" stroke-width="2" stroke-miterlimit="10"/>
</svg>
